<?xml version="1.0" encoding="utf-8"?>
<!-- Generator: Adobe Illustrator 18.0.0, SVG Export Plug-In . SVG Version: 6.00 Build 0)  -->
<!DOCTYPE svg PUBLIC "-//W3C//DTD SVG 1.1//EN" "http://www.w3.org/Graphics/SVG/1.1/DTD/svg11.dtd">
<svg version="1.1" id="map" xmlns="http://www.w3.org/2000/svg" xmlns:xlink="http://www.w3.org/1999/xlink" x="0px" y="0px"
	 viewBox="0 0 595.3 841.9" enable-background="new 0 0 595.3 841.9" xml:space="preserve">

     <path id="alsace" data-region="Alsace" fill="none" d="M576,192.2l-3.1-2.5l-5.6-0.7l-5-2.5l-3.3,2l-1.8-2l-2.4,0.1l0,0l0,0l-4.2,1.2l-1.9,3.5v3.3 l-1.8,1.7h-1.7l-2.9-2l-2.3,1.7h-2.6l-2.1-2.1l-4.3-0.7l-2.5-1.2l-0.9-3.3l-2,2.1l-1.2,5.2l-3,0.9v2.9l3,1.4l2.1,1.7l-0.9,2l2,1.4 l3.6-2.6l6.2,3.6l-2.6,5l0.2,1.7l1.8,1.8l-1.4,4.8l-5,3.6l-0.7,1.7l-0.6,4.4l0.9,6.1l4.3,1.2l-2.5,5.5l-2.6,5.4l0.7,3.3l-2.1,5.2 l-3.8,3.3l-0.2,8.8l-2.7,2.6l0,0l0.9,1.7l3.6,0.2l4,3.2l0.7,1.5l-0.2,2.6l-1.2,2l0.5,2.6l3.2-0.5l0.6,2.5l1.3,4.9l2.8-0.5 l-0.5,2.4l1.7,1.4l8.3-0.2l4.3-3.3l0.2-5l2.3-2.9l-3-3.3l-1.5-3.6l1.8-2.4v-5.6l1.2-2.6v-4.5l2-2.9l-2.1-3.1l-0.2-6.4l-1-0.5l0,0 l5.8-11.8l-0.7-6.5l2.6-8.8l0.7-7.7l5.8-4.3v-2.6l2.3-3h1.8l2-2l-0.5-3.8l2-5.4L576,192.2z" />

</svg>
