<?xml version="1.0" encoding="utf-8"?>
<!-- Generator: Adobe Illustrator 18.0.0, SVG Export Plug-In . SVG Version: 6.00 Build 0)  -->
<!DOCTYPE svg PUBLIC "-//W3C//DTD SVG 1.1//EN" "http://www.w3.org/Graphics/SVG/1.1/DTD/svg11.dtd">
<svg version="1.1" id="map" xmlns="http://www.w3.org/2000/svg" xmlns:xlink="http://www.w3.org/1999/xlink" x="0px" y="0px"
	 viewBox="0 0 595.3 841.9" enable-background="new 0 0 595.3 841.9" xml:space="preserve">

     <path id="aquitaine" data-region="Aquitaine" fill="none" d="M279.4,463.5v-2.5l1.5-1.5l-1.9-2.9l0.2-5l-5,0.2l-2-1.4l1.8-2.1l-2.5-2l1.8-2.3l-1.8-0.9 v-3.1l4.5-4l-2.5-2l-1.2-3.1l-5-0.9l-1.7-1.2l3.3-1.7l-1.2-1.5l-5-0.7l-1.2-4.5l-7.1-0.7l-1.7,2.3l-1.5,0.5l-2-2.6l0.9-2.5 l-1.2-2.1l-6.2-0.6l-2,3.6l-3.2,0.5l-0.2,5.4l-10.6,7.1l-0.2,7.9l-4,4l-2.1,2l-4.5-0.5l-0.7,1.1l-1.8,3.2l-0.7,1.5l0,0l-1.1,2.4 l-2.1-1.7l-3.2,1.7l-2.6-0.5l-5.2-5.2l-3.2-0.2l-0.9-7.1l-5.8-0.7l-0.2-3.3l-1.2,1.2h-6.7l0.4,1.5l1.7,6.5l0.5,6.5l-1.2,1.8 l-1.2-5.4l-3.2-12.4l-11.5-10.4l0.2-4.8l-2.4-0.4l-3.6,5.4l-1.2,18.9l-2.9,19.2l-2,14.9l-0.2,3.8l1.7-5.2l3.1-4l4.5,4l0.5,1.4 l1.4,1.8l-5.6,0.2l-0.9-1.4l-2.1,0.9l-0.5,3.3l-2.5,3.3v5.4l-4,21.4l-5.2,19.8l-1.7,7.7l-1.4,5.4l-3.2,5.7l-0.8,1.5l-5.2,6.3 l-4,1.7l-2.9,0.5v2.5l2.6,2.5l4,0.2l0.2,2.9l3.2,0.2l0.9-2l4.3,1.8l2.6,0.7l0.7,2.6l-1.5,1.4v4.3l-3.2,1.7l-0.2,2l2,2.3l3.6,1.2 l0.7-3.3l2-2.1L147,584l1.7,2.3h4l1.8,2.4l5.4,0.9l5.2,3.2h8.6l0.5,4.8l5.8,4.5l2.3,2.6l2.5-1.4l2.1-0.5l1.2,1.2l2-1.2l3.9-2.7 l0.3-4.2l1.8-1.4l0.9-7.4l3.3,0.7l1.4-0.9l-1.7-3.2l6.1-5.2l3.6-8.1l2.1-2.9l-2.6-4.1l-1.8-2.5l2.5-2.3l-4.1-6.5l-6.2-0.7l0,0l0,0 l-1.9-2.9l1.7-4.3l2.1-2.9l-0.7-3.8l1.8-1.8l-2.6-4.5l2.1-2.6l2.5-0.5l2.1,0.9l3.2-2.6l1.2,3.3l1.2,1.7l2.5-0.7l-0.2-2.9l1.8-3.5 l2.6,2.3l3.6-3.6l1.7,2.1l3.8-0.7l4-0.5l1.8-3.2l6.7-0.7l3.3,3.1l1.7-1.3l0,0l0,0l1.8-0.5l-0.9-3.1l3.3-0.9l4.3-0.9l-0.9-2.6 l1.4-1.7l1.2-4.3l-2.5-2.6l1.7-5.2l2.9,1.7l4.9-1.5l0,0l0,0l-1.8-4.3l-1.8-6.7l4.5-0.2l1.2-3l2-2l0.2-3.3l5-0.5l3.2-4.5l-1.4-0.5 l-0.2-2.4l3.8-0.5l0.2-2.1l1.8-1.2l2-3.6L279.4,463.5z" />

</svg>
