<?xml version="1.0" encoding="utf-8"?>
<!-- Generator: Adobe Illustrator 18.0.0, SVG Export Plug-In . SVG Version: 6.00 Build 0)  -->
<!DOCTYPE svg PUBLIC "-//W3C//DTD SVG 1.1//EN" "http://www.w3.org/Graphics/SVG/1.1/DTD/svg11.dtd">
<svg version="1.1" id="map" xmlns="http://www.w3.org/2000/svg" xmlns:xlink="http://www.w3.org/1999/xlink" x="0px" y="0px"
	 viewBox="0 0 595.3 841.9" enable-background="new 0 0 595.3 841.9" xml:space="preserve">
     <path id="auvergne" data-region="Auvergne" fill="none" d="M420.1,449.7l1.3-5.4l-2.8-3.3l-3.6,0.2l0.5-4.3l-7.1-3.1l-2.4,0.2l-5,4l-6.5-1.8l-0.7-2.6 l4.3-4l-2-7.4l-5.8-3.8l-2.4-5.8l-2.6-3.6l0.7-5l2-2l-3.6-2.9v-2.2l5.4-0.2l-0.5-12.7l-1.7-3.1l0.7-2.5l3.8-0.9l0,0l4.7-3.7 l0.2-8.8l-1.7-2.1h-3.3l-1.4-1.8h-3.8l-1.2-1.4v-3.3l-4.5-8.4L379,346l-4.3,5.8l-1.8,0.5l-0.7-2.9l-2-0.9l-0.9,1.8h-3.3l-0.5-2 l-2.3,1.4l-2.5,1.2l-2.6-3l-3.9-1.8l-0.2-2.7l-5.3-0.6l-3.1,3.9l-1.8,0.2l-2,2l-2.3-2.5l-6,6.1v3.6l1.2,0.9l0.2,1.8l-3.1,2.4 l-3-0.9l-5.6,1.2l-2.9,3.3l-1,2.3l0,0l2.7,3.8v2.6l1.4,1.7l1.7-2l1.8,3.2l2.5,0.9l2.6,6.2l0.2,1.9l0,0l0.4,5.1l1.8,2.1l0.9,4.3 l-2.6,2l-0.7,3.2l-2.5,1.4l-4.3,2.5l0.5,2l5.3,5.3l0.5,3.2l-2,3.3v3.2l1.4,1.7l0.7,3.8l-0.5,1.4l0,0l-0.8,2.5l1.2,2.6l-1.4,1.7 h-2.1l-2.3-2.5l-2-1.2l-0.2,6.3l-4,2.5l-2.9,4l0.7,4l-0.9,1.8l-1.2,3.6h-1.8l-1.8,2.1l1.4,1.4l0.9,2.1l-2.8,2.1l1.2,7.7l3.8,2.9 l-2.9,6.7l2.9,1.3l-1.3,3.8l1.8,0.2l-0.1,0.3l0.7,0.1l1.9-3.2h3.2l0.6,0.9h7l1.3-2.9l1.7-0.7l0.7-5.1h1.7v-5.4l6.3-5.4l0.6,1.6 l0.6,4.2l4.5-0.7l0.9,6.3h2.1l0.7,6.3l1.9,2.4l3.4-8l3.2-9.9l4,2.6l1.8-4l6.3-2.3l4.2,10.5l5.8-1.8l0.5-2.6h2.3l0.9,3.1l4.2-1.1 l5.2,6.8l3.1-5.3l5.8-4.3h5.4l1.8-5.6l3.6-0.2l0.2-4.3h3.3l-0.7-1.7l-0.9-2.9l1.4-2.3L420.1,449.7z" />

</svg>
