<?xml version="1.0" encoding="utf-8"?>
<!-- Generator: Adobe Illustrator 18.0.0, SVG Export Plug-In . SVG Version: 6.00 Build 0)  -->
<!DOCTYPE svg PUBLIC "-//W3C//DTD SVG 1.1//EN" "http://www.w3.org/Graphics/SVG/1.1/DTD/svg11.dtd">
<svg version="1.1" id="map" xmlns="http://www.w3.org/2000/svg" xmlns:xlink="http://www.w3.org/1999/xlink" x="0px" y="0px"
	 viewBox="0 0 595.3 841.9" enable-background="new 0 0 595.3 841.9" xml:space="preserve">

     <path id="basse-normandie" data-region="Basse-Normandie" fill="none" d="M261.7,229.1l-4.8-4l-0.5-4l-3.8-2.3l1.7-2.1l-0.9-3.3l-3.1-1.2l-2.3-2.3l-1.4-3.1 l-6.3-0.2l-1.8-2.3l0.7-3.4l0,0l0.6-2.2l-0.2-2l-2.3-0.9L237,194l2-1.4l0.2-2.3l-1.4-5.4l-2.6-3.8l2.3-1.4v-0.9l-2.3-0.7l-0.8-8.3 l-5.3,0.9l-8.6,5l-9.6,3.8l-7.7-4.3l-18.4-2.6l-4.3-2.1l-6.6,2l0,0l-1.8,0.8l-0.2-5.4l-5.8-6.9l1.8-4.5h2.5l-2.1-6.1l-9.6-0.5 l-5.2,3.6l-5.8-3.8l-9-3.1l-0.9,2.3l4.8,3.8v5l-1.8,2.1l1.2,1.2l0.7,0.5l-0.5,4.3l1.7,3.6l5.2,5.8l1.2,5.2l1.2,1.7v8.1l2.6,5.4 v6.3l-2.9,5.8l3.1,8.1l5,1.2l0.5,2.3l-2.4,1.2l-4.5-0.3l0.7,2.9l1.4,4.3l3.8,3.3l1.8,0.5l1.8-2.4l2-0.2l2.4-2.9l2.3,1.8h2.6 l1.9,1.2l3.8,0.6l2.3-1.8l3.4,1.5l1.6,2.4l2.5,1.8l3.3-2.3l2.1,1.7l6.1-3.6l6.1,0.9l3.3-1.4l0.9-2.1l2.1-0.2l2,1.8l0.9,5l2.9,1.2 l1.5,4l0,0l3.5,0.3l6.1-5.6l6.1-0.2l1.8,2.4l1.2,8.1l3.7,1.6l2.3,3.3l4.9,0.8l0,0l0.3-1.4h0.9l3.2,4.8l2.8,0.3l-0.1-5.3l-1.5-2 l-0.5-1.8l3.3-2l3.3-0.7l2.1-2.6L261.7,229.1z" />

</svg>
