<?xml version="1.0" encoding="utf-8"?>
<!-- Generator: Adobe Illustrator 18.0.0, SVG Export Plug-In . SVG Version: 6.00 Build 0)  -->
<!DOCTYPE svg PUBLIC "-//W3C//DTD SVG 1.1//EN" "http://www.w3.org/Graphics/SVG/1.1/DTD/svg11.dtd">
<svg version="1.1" id="map" xmlns="http://www.w3.org/2000/svg" xmlns:xlink="http://www.w3.org/1999/xlink" x="0px" y="0px"
	 viewBox="0 0 595.3 841.9" enable-background="new 0 0 595.3 841.9" xml:space="preserve">

     <path id="bourgogne" data-region="Bourgogne" fill="none" d="M462.4,336.1h-1.7l-1.4-1.7h-2.5l-2-3.3L453,331l0.2-2.4l0,0l0,0l1.5-0.9l-0.2-1.2l-0.5-1.4 l1.2-1.8l3.8-1.8v-1.8l1.4-1.8l1.4-1.8l-0.5-1.7l0.7-2.5l0.5-3.6l0.9-0.6l0,0l-1.1-1.7l-0.2-4.5l-2-0.2l-0.5-3.6l-2.5-1.2l0.9-1.2 l1.4-0.5l2.9-3.3l-0.2-1.8L460,286l-2.6-0.4l-1,2.2l-5,1.2l-0.5-1.2l-3.6-4.5l-2,1.2l-2.6-0.2l-0.9-1.8l-3.6,0.2l-0.2-3.8l-2-1.4 l2.9-3.1l-5.2-7.1l-4-4.3l-3.2-1.9l-6.8-0.1l0,0l-0.5,3l-2.9,1.7h-7.7l0,0l-1.4,2.3l-1.7-0.2l-1.4-2.5l-4.5,2.3l-8.9-0.5l-1.2-2.5 l-2.5-3.3l-0.5-4l-3.6-4.3l-2.3,1.7l-4.1-3l0.7-6.1l-5.8-6.1l-3.2-0.8l0,0l-2.3,1.2l-8.8-0.5l-4,2l-1.7,3.3l1.8,2l-2.6,3.2 l-1.7,2.1l4,3.8l1.2,3.6l3,3.1v4l-5.8,5l2,2.3l-0.5,3.3l-3.2,2.3h-4.5l0.7,2.5l2.9,4l0.7,3.6l0.1,2.8l-3.9,1.1l0.4,2.5l0,0l0,0 l2,2.9v4.3l-2,2.9l0.7,2.6l4,3.2l0.2,3.1l2.3,4.8l-0.5,5.4l2.5,2.4l-0.7,5.8l-0.2,2.9l1.2,2l-1.8,4.9l0.2,2.7l3.9,1.8l2.6,3 l2.5-1.2l2.3-1.4l0.5,2h3.3l0.9-1.8l2,0.9l0.7,2.9l1.8-0.5l4.3-5.8l2.1,1.8l4.5,8.4v3.3l1.2,1.4h3.8l1.4,1.8h3.3l1.7,2.1l-0.2,8.8 l-4.7,3.7l0,0l0.9,0.4l0.2,3.6l3.3,0.7l0.5,1.7h1.9l2.6-1.7l7.1,1.2l1.4,1.4l1.8-1.8h2.5l1-4.6l0,0l0.5-2.8l0.9-0.7h2.1l2.7,1.8 l2-1.8l1.4,1.8l2-2l2.4-0.2l1.1,3.4l0.9,4.5l1.7,0.2l0.7-1.6l0,0l0.6-1.6l4.3-16.6l1.7-2.9l2.5-0.2l2.1,2.1l1.8-0.5l2.3-1.8 l2.3,0.5l1.4,2.9l3.3,1.5l4-1.8l2.4-1.8l-0.9-1.4l-2.6-0.9l-0.2-3.1l2.3-1.7l0.9-3.8l-2-3.6l-1.4-1.8l0.7-0.7v-2.1l-1.8-1.2 l-0.5-1.8l5.2-0.7L462.4,336.1z" />

</svg>
