<?xml version="1.0" encoding="utf-8"?>
<!-- Generator: Adobe Illustrator 18.0.0, SVG Export Plug-In . SVG Version: 6.00 Build 0)  -->
<!DOCTYPE svg PUBLIC "-//W3C//DTD SVG 1.1//EN" "http://www.w3.org/Graphics/SVG/1.1/DTD/svg11.dtd">
<svg version="1.1" id="map" xmlns="http://www.w3.org/2000/svg" xmlns:xlink="http://www.w3.org/1999/xlink" x="0px" y="0px"
	 viewBox="0 0 595.3 841.9" enable-background="new 0 0 595.3 841.9" xml:space="preserve">

     <path id="bretagne" data-region="Bretagne" fill="none" d="M63.4,210.5l-4-1.8l-6.3,0.2v4.5h-1.8l-0.5-2l-2.6,0.5l-0.1-5.8l-2.4,2.6l-2.6-1.2l-5,0.5 l-0.9,2.1l-2.9,0.7l-0.5-2.5l-5.2,0.7v1.7l-3.6,0.2l-1.7-1.2l-1.8,0.9L21,213l-6.1,0.4l-3.2,3.8l2.6,2l-3.6,3l1.2,2l-0.9,5 l3.6,0.5l1.4-1.4l0.7,0.9l8.6-1.2l5.6-4l-5,4.8l0.5,2.1l4.5-2l-0.9,3.2l5,0.2l-0.2,1.4l-5.4-0.2l-4.3-1.2l-5.2-2.5l-3.1,3.6l4,1.4 l-0.2,6l1.2-0.9l2.5-3.8l4.8,2.6l2.3,0.5l0.9,3.6l-1.4,2.4l-2.9-0.2h-2.6l-4.5,0.7l-7.7,0.5l-1.8,2.1l2.1,1.4l2.5-0.2l2,1.8 l2.9-0.2l4.8,5.4l1.2,5.8l-1.7,3.2l4.8,0.9l5.2-0.2l1.2-2l-2-2.6l2,0.9l2-0.2l3.6,2l2.1-0.5v-3.8L45,264l2.9,4.8l6.3,0.5l0.2-1.4 l1.5,2.1l3.8,0.7l3.1-0.1l0,0l0,0l2.8,3.8l3.6,0.9l1.4-2l-0.7,2.4L73,277l4,4l1.4,2.5l-0.5,2.9l-0.5,3l2.6,2l1.4-1.7l-1.4-1.8v-4 l2.6,0.7l0.9-2.6l0.7,1.7l2.9,2.5l1.4-2.3l-1.4-3.1l2.5,3.3l3.1-0.5l-0.7-1.7l2.9,0.7l2.1,2.6l-1.2,1.8l-2.9-0.9l-3.3-1.7 l-1.8,2.3l2.6,0.9l2,3.1l12.3-1.2l3.1,0.7l-1.5,1.4l0.8,2.5l0,0h1.1l2-2l1.4,1.5h3.5l4.3-2.1l6.3-2.5l0.2-6.3l1.4-0.7l4.6-2.3 l13.9-0.7l0.9-2.5l2.3-2.1l5-0.7l0.2-2.5l3.3,1l2,2.6l4.3,1l0,0l0,0l0.9-1.7l0,0l0,0l1.5-4.6l2.9-7.1l1.7-0.9l3.8,0.5v-6.1 l-1.7-1.7v-6.5l-0.7-2.1V242l2.3-2.3v-4.5l-1.2-0.9l0.2-5.8l-1.9-1.2h-2.6l-2.3-1.8l-2.4,2.9l-2,0.2l-1.8,2.4l-1.8-0.5l-3.8-3.3 l-1.4-4.3l-0.7-2.9l-11.2-0.1l-4-2.5l2.6-3.6l-5.3-0.1l-2,2.6l0,0l-1.3,1.8l-4.2-0.5l-0.5,2.5l-2.6,0.2l-0.2-3.1l-2.3-0.7 l-1.7,1.8V214l-2.6,2l-4-0.7l-1.4,2.6l-8.3,4.5v2.3h-1.8v-4l-4.8-2.1l0.5-4l-4.3-3.1v-3.8l-3.2-0.7l0.2-3.6l-2.4-0.2l0.2-2.5h-4.5 l-0.7,2.1l-1.6-3.8l-2,1.7l-5.2,0.7l-1.2,1.7l-3.6-2.6l-4.8,3.2l1.8,2.4L63.4,210.5L63.4,210.5z" />

</svg>
