<?xml version="1.0" encoding="utf-8"?>
<!-- Generator: Adobe Illustrator 18.0.0, SVG Export Plug-In . SVG Version: 6.00 Build 0)  -->
<!DOCTYPE svg PUBLIC "-//W3C//DTD SVG 1.1//EN" "http://www.w3.org/Graphics/SVG/1.1/DTD/svg11.dtd">
<svg version="1.1" id="map" xmlns="http://www.w3.org/2000/svg" xmlns:xlink="http://www.w3.org/1999/xlink" x="0px" y="0px"
	 viewBox="0 0 595.3 841.9" enable-background="new 0 0 595.3 841.9" xml:space="preserve">

     <path id="centre" data-region="Centre" fill="none" d="M357.2,262.5l-3-3.1l-1.2-3.6l-4-3.8l-5.5,3.2l-0.5-1.8l-2.5-0.2l-0.7,1.8l-2.1,0.5l-6.1-0.2 L329,257l-2-1.8l3.6-2.5l-0.2-3.8l-2.6-1.4l-2.1-2.8l-6.3-1l-2.9-1.6l-2.9,2.6l-7.1,0.9l-1-6.4l0,0l-1-3.3l-4.5-0.7l-2-2.5l-0.7-5 l-2.6-0.5l-0.5-2.5l-3.1-2.1l-1.7-3.8l1.7-2.6l-1.7-1.8v-2.4l0.9-2.5l-1.8-1.8l-0.7-2.6l-1.8-2.2l-1.4,1.2v3.6l-4.5,2.1v3.3 l-1.4,1.7h-5.6l-2.6-1.2l-8.2,4.3H259l-2.5,3.6l0.5,4l4.8,4l0.5,8.3l-2.1,2.6l-3.3,0.7l-3.3,2l0.5,1.8l1.5,2l0.1,5.3l3.2,2.2 l-1.1,1.3l-1.6,2.1l-1.8,3.1l2.1,2l-0.2,4.8l-0.9,3.1H253v4.3l-3.1,4l-3.3,1.4l-1.7,2l0.8,1.8l0.4,1l-6.5,1.8l-1.5,2.3l-2.7-1.8 l1.4,4.5h-2.5l-4.5-3.2l-1.3,2.9l0,0l-0.6,1.6l1.2,1.4v1.4l-2.3,3l0.2,5l-3.6,4.3l-2.4,9.2l0,0l1,3.6l4.3,0.9v2.8l5.4,1.7v4.3 l-0.2,2.6h6.7l5.8-1.4l-0.5-2.5l1.8-1.2l1.8,2.5l1.7,0.7l1.4,5.4l3.8,4l0.8,3.1l3.9,3.6v4.7l-0.9,2.6l4.3,3.3l2.1,2.1l3.6,0.5 l1.4,4.8l2.4,1.4l-2.1,3.6l5.6,0.7l2-2l3.9,3.3l0,0l0,0l4.4-5l2,1.4l2.6-0.2l0.9,0.5l4,0.2l1.4-3.6l11,1l4.3,1.2l7.4-0.6l1-2.3 l2.9-3.3l5.6-1.2l3,0.9l3.1-2.4l-0.2-1.8l-1.2-0.9v-3.6l6-6.1l2.3,2.5l2-2l1.8-0.2l3.1-3.9l5.3,0.6l1.8-4.9l-1.2-2l0.2-2.9 l0.7-5.8l-2.5-2.4l0.5-5.4l-2.3-4.8l-0.2-3.1l-4-3.2l-0.7-2.6l2-2.9V299l-2-2.9l0,0l0,0l-0.4-2.5l3.9-1.1l-0.1-2.8l-0.7-3.6 l-2.9-4l-0.7-2.5h4.5l3.2-2.3l0.5-3.3l-2-2.3l5.8-5L357.2,262.5L357.2,262.5z" />

</svg>
