<?xml version="1.0" encoding="utf-8"?>
<!-- Generator: Adobe Illustrator 18.0.0, SVG Export Plug-In . SVG Version: 6.00 Build 0)  -->
<!DOCTYPE svg PUBLIC "-//W3C//DTD SVG 1.1//EN" "http://www.w3.org/Graphics/SVG/1.1/DTD/svg11.dtd">
<svg version="1.1" id="map" xmlns="http://www.w3.org/2000/svg" xmlns:xlink="http://www.w3.org/1999/xlink" x="0px" y="0px"
	 viewBox="0 0 595.3 841.9" enable-background="new 0 0 595.3 841.9" xml:space="preserve">

     <path id="champagne-ardennes" data-region="Champagne-Ardenne" fill="none" d="M478.3,264.9l-2-1.8l-2.4,1.1v-4.8l-6.3-3l1.4-6.2l2-1.4l-0.7-2l-3-0.5l-0.7-3h-2.6 l-3.2-4.3l-3.6-0.2l-1.5-2.1l1.8-1.8l-4.6-5.3l-2-0.7l-5.4-2.6l-2.9-3.1l-4.8-0.7l0.2-4.1l0,0l0,0l0,0l0,0l-0.2-3.5l-4.3-3.3 l-0.5-1.8l1.7-2.6l-1.4-1.2l1.4-3.3l2.5-1.2l1.8-5.6l-3.6,0.2l2-2.1l-1.7-5l-1.5-3.3l1.5-1.9l0,0l-0.7-2.3l2.6-1.9l1.4-1.4 l-0.9-2.1l-0.2-1.7l2.5-2l0.9-4.5l-2.3-4l0,0l3.2-4.8l0,0l3.7,0.5l1.7,1.5l2-1.4l1.5-2.3l-1.3-0.4l-0.9-4.5l-1.8-1.4l-6.3-0.7 l-1.2-2.9l-2-1.4l-7.1-0.9l-0.5-5.2l0.9-0.9v-2l-3.6-2.3l0.7-2.5l0.9-2.1l-1.7-1.4l2.5-2.1v-4.1l-0.9-0.7l-4.2-0.2l-2.3,3.3l-2,2 v2v2.6l-2.6,1.8l-5,1.7l-2.6,1.2l-3.2-2.5h-4.5l-0.6,4l2,3.8l-2,1.8l-0.2,3.3l1.2,1.8l-0.9,2.6l-3.3,1.8v2.9l-4.3,0.9l-0.7,1.8 l3,1.7l-0.9,3.1l-0.7,2.6v6v1.8l-1.7,0.5l-3.7-2.7l-2.6,1.2l0.5,2.1h-4.8l-4.3,3.2v6.2l3.1,2l0.9,2l-5.2,0.5l-0.7,2l2,1.4 l-0.9,1.4l-2,0.9l0.5,1.5h2.9l1.2,1.7l-2,1.4l-1.8,4.8l-3.3,1.7l-1.5,2.9l0,0l-0.5,2l-1.8,1.2l-0.5,3.1l1.8,1.2l0.9,3.3l-1.2,2 l0.7,1.7l3.4,0.7l0,0l0,0l0,0l-3.1,2l-0.2,2.6l-1.7,2l-0.9,4.5l-0.5,4.1l0,0l3.2,0.8l5.8,6.1l-0.7,6.1l4.1,3l2.3-1.7l3.6,4.3 l0.5,4l2.5,3.3l1.2,2.5l8.9,0.5l4.5-2.3l1.4,2.5l1.7,0.2l1.4-2.3l0,0h7.7l2.9-1.7l0.5-3l0,0l6.8,0.1l3.2,1.9l4,4.3l5.2,7.1 l-2.9,3.1l2,1.4l0.2,3.8l3.6-0.2l0.9,1.8l2.6,0.2l2-1.2l3.6,4.5l0.5,1.2l5-1.2l1-2.2l0.1-2.1l3.1-1.4l3.6,1.4l3.3-1.4h2l0.7-4.5 l1.2-1.4l-2-0.2l-0.2-2.6l3.1-0.7l0.2-1.8h3.2v-2.9l2.5-0.9l-0.5-1.9L478.3,264.9z" />

</svg>
