<?xml version="1.0" encoding="utf-8"?>
<!-- Generator: Adobe Illustrator 18.0.0, SVG Export Plug-In . SVG Version: 6.00 Build 0)  -->
<!DOCTYPE svg PUBLIC "-//W3C//DTD SVG 1.1//EN" "http://www.w3.org/Graphics/SVG/1.1/DTD/svg11.dtd">
<svg version="1.1" id="map" xmlns="http://www.w3.org/2000/svg" xmlns:xlink="http://www.w3.org/1999/xlink" x="0px" y="0px"
	 viewBox="0 0 595.3 841.9" enable-background="new 0 0 595.3 841.9" xml:space="preserve">
     <path id="corse" data-region="Corse" fill="none" d="M564.3,624.2l-2.1-4.3l-0.7-13.5l-2.2-2.6l-2.9-2.1l-0.5-8.3l1.4-3.8l-1.8-6.1l-1.2-5l-0.9-1.4 l-1.7-1.8l-3.3,2.3l0.5,2.1l1.8,2.3l-2,1.5l0.9,1.8l-1.4,1.7v2l2.3,2v3.1l-1.4,2.9l-1.5,0.7l-1.8-2.5l-3.2,0.2l-0.7-0.5h-2.7 l-2.4,2.3l-0.9,3.8l-5.8,1.2l-4.5,3.8l-0.9,2.5l-2.1-0.2l-1.2-1.4l-0.7,3.8l-1.7,0.7l-0.5,3.6l0.7,1.7l-2.5,1.8l-0.6,1.7l-0.6-0.1 h-2.1v0.1h0.6v2.5l2.3,1.7l3.8,2.1l0.2,1.8l-2.3,0.7l-3.6,0.7v1.5l1.4,1.4l0.2,4.5l5,1.7l1.8,0.5l1.7,2.5l-1.2,1.7l-1.8,0.7 l-1.4,2.5l-1.4,1.7l0.7,4l3.3-0.2l0.9,0.7l3.2-1.7l0.9,0.9l-1.7,3.3l1.7,1.7l-2.6,2l-1.8,4l5,1.2l7,0.7l-2.9,3.3 c0,0-1.4-0.6-1.9-0.2c0,0,0,0-0.1,0v0.1c0,0,0,0,0,0.1c0,0,0,0,0,0.1c0,1.2-1.5,3.8-1.5,3.8l2.1,2.4l4,2.5l7.6,2l2.1,0.9l2,0.9 l-1.4,2.5l3.6-0.2l0.7,1.7h3.6l0.9-4.3l-2.3-0.5l3.2-3.3l-1.2-1.2l0.2-2l4-2.1l0.2-2.5l-2.6-0.2l-1.8,1.5V668l3.6-0.2l1.2-2.6 l0.9-7.9l-0.7-3.3l-0.1-2.6l0.5-0.3l-0.1-6.7l5.4-7.6L564.3,624.2L564.3,624.2z"/>

</svg>
