<?xml version="1.0" encoding="utf-8"?>
<!-- Generator: Adobe Illustrator 18.0.0, SVG Export Plug-In . SVG Version: 6.00 Build 0)  -->
<!DOCTYPE svg PUBLIC "-//W3C//DTD SVG 1.1//EN" "http://www.w3.org/Graphics/SVG/1.1/DTD/svg11.dtd">
<svg version="1.1" id="map" xmlns="http://www.w3.org/2000/svg" xmlns:xlink="http://www.w3.org/1999/xlink" x="0px" y="0px"
	 viewBox="0 0 595.3 841.9" enable-background="new 0 0 595.3 841.9" xml:space="preserve">

     <path id="franche-comte" data-region="Franche-Comté" fill="none" d="M525.5,299.7l-0.2-0.9l4.8-5.5l0,0l0.9-1l3.5-0.4l-1.8-7.4l-3.2,0.5l-0.5-2.6l1.2-2 l0.2-2.6l-0.7-1.5l-4-3.2l-3.6-0.2l-0.9-1.7l0,0l-7.2-3.9l-2-2.3l-2-1.4l-1.8,0.9l-0.2,1.4l-1.8,1.3h-1.2l-3.3-3.8h-4.8l-2,1.7 l-1.8,0.2l-2.9-2.1l0.2-2.5l-1.2-1.1l-4.3,0.8l-0.7,2.1l-2.3,1.7l-1.5-1.8l-1.2,0.7l0.9,1.4l-1.7,0.8l-0.7,0.4l0.7,1.8l-2.5,0.9 v2.9h-3.2l-0.2,1.8l-3.1,0.7l0.2,2.6l2,0.2l-1.2,1.4l-0.7,4.5h-2l-3.3,1.4l-3.6-1.4l-3.1,1.4l-0.1,2.1l2.6,0.4l1.8,3.6l0.2,1.8 l-2.9,3.3l-1.4,0.5l-0.9,1.2l2.5,1.2l0.5,3.6l2,0.2l0.2,4.5l1.1,1.7l0,0l-0.9,0.6l-0.5,3.6l-0.7,2.5l0.5,1.7l-1.4,1.8l-1.4,1.8 v1.8l-3.8,1.8l-1.2,1.8l0.5,1.4l0.2,1.2l-1.5,0.9l-0.2,2.4l1.8,0.2l2,3.3h2.5l1.4,1.7h1.7L462,338l-5.2,0.7l0.5,1.8l1.8,1.2v2.1 l-0.7,0.7l1.4,1.8l2,3.6l-0.9,3.8l-2.3,1.7l0.2,3.1l2.6,0.9l0.9,1.4l-2.4,1.8l-4,1.8l5.2,6.7l2.9,1.4v3.2l3.3-0.5l4.3-4.8l3.6,1.8 v2.6h6.5l9.3-10.2l0.5-4.8l3.3-4l-2.3-0.9l0.4-1.9l0,0l14.1-13.5l-0.5-10.8l5-2.4l3.3-1.7l3.1-2.9l0.2-4.3l3.1-1.7l7.1-8.3 l-1.2-2.6l2.5-1.2l2.9-3.6l-1.7-1.7L525.5,299.7z"/>

</svg>
