<?xml version="1.0" encoding="utf-8"?>
<!-- Generator: Adobe Illustrator 18.0.0, SVG Export Plug-In . SVG Version: 6.00 Build 0)  -->
<!DOCTYPE svg PUBLIC "-//W3C//DTD SVG 1.1//EN" "http://www.w3.org/Graphics/SVG/1.1/DTD/svg11.dtd">
<svg version="1.1" id="map" xmlns="http://www.w3.org/2000/svg" xmlns:xlink="http://www.w3.org/1999/xlink" x="0px" y="0px"
	 viewBox="0 0 595.3 841.9" enable-background="new 0 0 595.3 841.9" xml:space="preserve">

     <path id="haute-normandie" data-region="Haute-Normandie" fill="none" d="M298.2,179.9l-0.6-5.1l-2.2-2l0.5-2l1.7-3l0.9-1.5h-2.3v-3.8l-1.4-2.1l0.9-4.5l0.9-2.3 h-1.8l0.9-2.1l1.9-2.2l-1.9-4.5l-0.7-4l-9.8-9.6l-1.2-2.1l-2.5,0.2l-1.7-1.1l-1.5,1.8l-9.6,7.4l-17,4.3l-11.3,4l-9.2,5l-5.4,8.1 l-1.2,6.3l4.5,3.3l6.5,1.4l-1,0.3l0.8,8.3l2.3,0.7v0.9l-2.3,1.4l2.6,3.8l1.4,5.4l-0.2,2.3l-2,1.4l0.2,1.7l2.3,0.9l0.2,2l-0.6,2.2 l0,0l-0.7,3.4l1.8,2.3l6.3,0.2l1.4,3.1l2.3,2.3l3.1,1.2l0.9,3.3l-1.7,2.1l3.8,2.3l2.5-3.6h3.1l8.2-4.3l2.6,1.2h5.6l1.4-1.7v-3.3 l4.5-2.1v-3.6l1.4-1.2l-0.2-0.9l1.2-1.2l-2-0.5v-1.8l-1.2-1.8l0.9-1.2l6.4-1.8l1.6-2.6l1.4-5l1.8-2.1l0.3-2.5l2,1.2l1.7-0.5 L298.2,179.9z" />

</svg>
