<?xml version="1.0" encoding="utf-8"?>
<!-- Generator: Adobe Illustrator 18.0.0, SVG Export Plug-In . SVG Version: 6.00 Build 0)  -->
<!DOCTYPE svg PUBLIC "-//W3C//DTD SVG 1.1//EN" "http://www.w3.org/Graphics/SVG/1.1/DTD/svg11.dtd">
<svg version="1.1" id="map" xmlns="http://www.w3.org/2000/svg" xmlns:xlink="http://www.w3.org/1999/xlink" x="0px" y="0px"
	 viewBox="0 0 595.3 841.9" enable-background="new 0 0 595.3 841.9" xml:space="preserve">
     <path id="ile-de-france-full"  data-region="Ile-de-France" fill="none" d="M374.6,223.5L374.6,223.5l-3.4-0.7l-0.7-1.7l1.2-2l-0.9-3.3l-1.8-1.2l0.5-3.1 l1.8-1.2l0.5-2l-3.8-0.7l-1.2-2.6l-2-0.7l-6-5.8l-0.7-5l-2.5-1.9l0,0l0,0l-1.7,0.3l-2.1,1.8l-2.1-0.7l-3.8,1.7l-3.1-1.8l-1.4,1.8 l-2,0.2l-1.4-1.2l-2.1-1.4l-2.6,1.8l-1.7-1.7l-5-2.9l-4.8-2.5l-2.4,1.2l-2.6,0.7l-1.8-1.4l-3.6-2.1l-2.9,2.1l-4.3,0.5l-6.1-0.5 l-1.4-2.1l-1-1.8l-1.8,2.1l-1.4,5l-1.6,2.6l-6.4,1.8l-0.9,1.2l1.2,1.8v1.8l2,0.5l-1.2,1.2l0.2,0.9l1.8,2.2l0.7,2.6l1.8,1.8 l-0.9,2.5v2.2l1.7,1.8l-1.7,2.6l1.7,3.8l3.1,2.1l0.5,2.5l2.6,0.5l0.7,5l2,2.5l4.5,0.7l1,3.3l0,0l1,6.4l7.1-0.9l2.9-2.6l2.9,1.6 l6.3,1l2.1,2.8l2.6,1.4l0.2,3.8l-3.6,2.5l2,1.8l2.5-1.7l6.1,0.2l2.1-0.5l0.7-1.8l2.5,0.2l0.5,1.8l5.5-3.2l1.7-2.1l2.6-3.2l-1.8-2 l1.7-3.3l4-2l8.8,0.5l2.3-1.2l0.5-4.1l0.9-4.5l1.7-2l0.2-2.6L374.6,223.5L374.6,223.5L374.6,223.5z"/>

</svg>
