<?xml version="1.0" encoding="utf-8"?>
<!-- Generator: Adobe Illustrator 18.0.0, SVG Export Plug-In . SVG Version: 6.00 Build 0)  -->
<!DOCTYPE svg PUBLIC "-//W3C//DTD SVG 1.1//EN" "http://www.w3.org/Graphics/SVG/1.1/DTD/svg11.dtd">
<svg version="1.1" id="map" xmlns="http://www.w3.org/2000/svg" xmlns:xlink="http://www.w3.org/1999/xlink" x="0px" y="0px"
	 viewBox="0 0 595.3 841.9" enable-background="new 0 0 595.3 841.9" xml:space="preserve">
     <path id="languedoc-roussillon" data-region="Languedoc-Roussillon" fill="none" d="M368.6,516.2v3.2l-2.5,0.6l0.7,2.5l3.2,0.7h3.5l0.9,4.4l-4.2,1.9v3.2l-3.8,0.6 l-1.9,1.7l0.6,3.8h-3.5l-3.5-1.9h-1.9v2.1l0.4,6.7l-3.3-0.1l-2.2-0.1l-0.8,1.6l-8.3,2.9l-3.2-2.1l-1.9,2.9l-0.9,3.2l3.5,3.2 l-1.3,4.2L333,563h-6.7l-7-1.3h-1.9l-0.4,4.2l-4.2-1.3l-5.1-1.1l0,0l0,0l-6.2,1.9l-1.7-2.9l-3.2,2.9l0.9,2.1l-3.6,1.7l-0.6,3.5 l-2.6,1.4l2.3,2.7l-0.7,1.9l11.1,5.5l0.9,7.7v4.2l0.7,5.4h-5.7l-1.7,2.1l7.3,6l4.2-2.1l4.7,6l-7.5,0.3l-0.9,1.9l-3.8,0.9l-2.5,2.1 l-7,1.7l0.4,2.4l3.3,3.2l6.7,1.8l0.2,4l3.6,3.2l2.6-0.5l3.8-4.8l4.8-0.9l7.4,2.5l6.3,5.4l1.8-2.3h1.7l1.7,1.2l1.4-0.7l0.2-3.2 l6.8-1.7l2.1-2.9l3.3-1.2h4.8l3,3.1l3.6,0.2v-3.6l-1.8-2.5l-3.2-1.4l-0.5-19.6l-0.6-0.3l-0.2-5.4l0.2-7.4l-2.6,0.2l-2.3-3.3l1.8-3 l3.8,3.6l3.3-2.6l2.3-2.1l0.2-2.4l1-0.3l0.1-1.3l8.1-2.5l0.9-2l6.3-0.2l2-2.5l12.3-9.6l7.6-5.4l2.4,0.2l0,0l3.5,0.2v4.5l5.2-0.2 l2.7,0.1l2-4.8l7.3-4.5l-1.7-2.1l1.9-5.1l6.7,0.9l1.7-12.1l8.9-5.1v-2.9l-6.4-7v-5.1l-4.2-6.4l-7.8-4l-0.6,3.5l-3.2,0.4l-0.9-3.5 l-3.2,0.6l-0.6,4.5l-2.5-0.9l-5.4-3.6l-2.5,1.3v-6.3l-3.9-2.7l0,0l0,0v-5.2l-3.8-4.2l-2-8.6l-5.2-6.8l-4.2,1.1l-0.9-3.1h-2.3 l-0.5,2.6l-5.8,1.8l-4.2-10.5l-6.3,2.3l-1.8,4l-4-2.6l-3.2,9.9l-3.4,8l4.8,5.8l-0.4,4.5l3.2,2.1v5.4l0.9,7.6l3.8,1.7l-0.4,2.5 l5.4-0.9l1.9,0.9L368.6,516.2z" />

</svg>
