<?xml version="1.0" encoding="utf-8"?>
<!-- Generator: Adobe Illustrator 18.0.0, SVG Export Plug-In . SVG Version: 6.00 Build 0)  -->
<!DOCTYPE svg PUBLIC "-//W3C//DTD SVG 1.1//EN" "http://www.w3.org/Graphics/SVG/1.1/DTD/svg11.dtd">
<svg version="1.1" id="map" xmlns="http://www.w3.org/2000/svg" xmlns:xlink="http://www.w3.org/1999/xlink" x="0px" y="0px"
	 viewBox="0 0 595.3 841.9" enable-background="new 0 0 595.3 841.9" xml:space="preserve">

     <path id="limousin" data-region="Limousin" fill="none" d="M325.3,408.2l-0.5-2l4.3-2.5l2.5-1.4l0.7-3.2l2.6-2l-0.9-4.3l-1.8-2.1l-0.4-5.1l0,0l-0.2-1.9 l-2.6-6.2l-2.5-0.9l-1.8-3.2l-1.7,2l-1.4-1.7V371l-2.7-3.8l0,0l-7.4,0.6l-4.3-1.2l-11-1l-1.4,3.6l-4-0.2l-0.9-0.5l-2.6,0.2l-2-1.4 l-4.4,5l0,0l0,0l-3.9-3.3l-2,2l-5.6-0.7l-4.8,0.9l-2.5,2v2.6l-5,0.2l-2.9,3.3l-1.8,1.4l1.5,1.8l-0.7,3.8l0.3,2.2l-1.2,2l1.8,2 l3.1,0.2l0.7,3.1l0.2,2l-4,0.9l-2,0.7l0.5,5.6l-2.6,1.8l-2.3,0.7l-1.2,3.2l-1.8,0.2l-0.8,3.5l5.3,0.6l1.2,2.1l-0.9,2.5l2,2.6 l1.5-0.5l1.7-2.3l7.1,0.7l1.2,4.5l5,0.7l1.2,1.5l-3.3,1.7l1.7,1.2l5,0.9l1.2,3.1l2.5,2l-4.5,4v3.1l1.8,0.9l-1.8,2.2l2.5,2 l-1.8,2.1l2,1.4l5-0.2l-0.2,5l1.9,2.9l0.7-0.2l4.9-2.1l5.6,2.8l4.4,6.3l2.5-0.4l3.8-3.8l1.3,2.1l2.5-2.5l3.6,0.8l0.1,0.7l2.8-2.1 l-0.9-2.1l-1.4-1.4l1.8-2.1h1.8l1.2-3.6l0.9-1.8l-0.7-4l2.9-4l4-2.5l0.2-6.3l2,1.2l2.3,2.5h2.1l1.4-1.7l-1.2-2.6l0.8-2.5l0,0 l0.5-1.4l-0.7-3.8l-1.4-1.7V420l2-3.3l-0.5-3.2L325.3,408.2z" />

</svg>
