<?xml version="1.0" encoding="utf-8"?>
<!-- Generator: Adobe Illustrator 18.0.0, SVG Export Plug-In . SVG Version: 6.00 Build 0)  -->
<!DOCTYPE svg PUBLIC "-//W3C//DTD SVG 1.1//EN" "http://www.w3.org/Graphics/SVG/1.1/DTD/svg11.dtd">
<svg version="1.1" id="map" xmlns="http://www.w3.org/2000/svg" xmlns:xlink="http://www.w3.org/1999/xlink" x="0px" y="0px"
	 viewBox="0 0 595.3 841.9" enable-background="new 0 0 595.3 841.9" xml:space="preserve">

     <path id="lorraine" data-region="Lorraine" fill="none" d="M550.1,187.7l-1.6-2.1l-4.5-2.6l-1.7-2.5l-5.4,0.5l-3.2,2.9l-7.6,0.2l-2.3-1.7 c-0.1-0.2-1.3-2.1-2.1-2.7c0,0-0.1,0-0.1-0.1h-0.1h-0.1h-0.1c-1.1,0-3.1-1.2-3.3-1.4l-3.2,1.4l-0.2,2.6l-3.8,0.5l-2.3-4.3 l-1.4-0.5v-3.1l-3.2-1.4l-0.2-5.4l-2.3-2.1l-4.8-2.3h-2.1l-0.7,0.5h-2.3l-3-2.6l-3.3,0.2l-2.6,2.3l-0.7,1.2h-3.8l-1.8-1.8 l-3.2-0.4l-4-4.5h-5.3l-0.1,0.6l-2.6,2.5l-3.8,0.2l-1.6,1.5l-1.4,0.4l-0.9-4.3L451,157l0,0l-1.5,2.3l-2,1.4l-1.7-1.5l-3.7-0.5l0,0 l-3.2,4.8l2.3,4l-0.9,4.5l-2.5,2l0.2,1.7l0.9,2.1l-1.4,1.4l-2.6,1.9l0.7,2.3l0,0l-1.5,1.9l1.5,3.3l1.7,5l-2,2.1l3.6-0.2l-1.8,5.6 l-2.5,1.2l-1.4,3.3l1.4,1.2l-1.7,2.6l0.5,1.8l4.3,3.3l0.2,3.5l-0.2,4.1l4.8,0.7l2.9,3.1l5.4,2.6l2,0.7l4.6,5.3l-1.8,1.8l1.5,2.1 l3.6,0.2l3.2,4.3h2.6l0.7,3l3,0.5l0.7,2l-2,1.4l-1.4,6.2l6.3,3v4.8l2.4-1.1l2,1.8l1.7-0.8l-0.9-1.4l1.2-0.7l1.5,1.8l2.3-1.7 l0.7-2.1l4.3-0.8l1.2,1.1l-0.2,2.5l2.9,2.1l1.8-0.2l2-1.7h4.8l3.3,3.8h1.2l1.8-1.3l0.2-1.4l1.8-0.9l2,1.4l2,2.3l7.2,3.9l2.7-2.6 l0.2-8.8l3.8-3.3l2.1-5.2l-0.7-3.3l2.6-5.4l2.5-5.5l-4.3-1.2l-0.9-6.1l0.6-4.4l0.7-1.7l5-3.6l1.4-4.8l-1.8-1.8l-0.2-1.7l2.6-5 l-6.2-3.6l-3.6,2.6l-2-1.4l0.9-2l-2.1-1.7l-3-1.4v-2.9l3-0.9l1.2-5.2l2-2.1l0.9,3.3l2.5,1.2l4.3,0.7l2.1,2.1h2.6l2.3-1.7l2.9,2 h1.7l1.8-1.7V191l1.9-3.5L550.1,187.7z" />

</svg>
