<?xml version="1.0" encoding="utf-8"?>
<!-- Generator: Adobe Illustrator 18.0.0, SVG Export Plug-In . SVG Version: 6.00 Build 0)  -->
<!DOCTYPE svg PUBLIC "-//W3C//DTD SVG 1.1//EN" "http://www.w3.org/Graphics/SVG/1.1/DTD/svg11.dtd">
<svg version="1.1" id="map" xmlns="http://www.w3.org/2000/svg" xmlns:xlink="http://www.w3.org/1999/xlink" x="0px" y="0px"
	 viewBox="0 0 595.3 841.9" enable-background="new 0 0 595.3 841.9" xml:space="preserve">

     <path id="midi-pyrenees" data-region="Midi-Pyrénées" fill="none" d="M251.1,604.6l6.9,1.4h3l3.8,5l9.6-0.5l3.8,6.1l3.3-1.4l9.9,1.4l0.6,4.1l7-1.7l2.5-2.1 l3.8-0.9l0.9-1.9l7.5-0.3l-4.7-6l-4.2,2.1l-7.3-6l1.7-2.1h5.7l-0.7-5.4V592l-0.9-7.7l-11.2-5.4l0.7-1.9l-2.3-2.7l2.6-1.4l0.6-3.5 l3.6-1.7l-0.9-2.1l3.2-2.9l1.7,2.9l6.2-1.9l0,0l5.1,1.1l4.2,1.3l0.4-4.2h1.9l7,1.3h6.7l5.1-1.7l1.3-4.2l-3.5-3.2l0.9-3.2l1.9-2.9 l3.2,2.1l8.3-2.9l0.8-1.6l2.2,0.1l3.3,0.1L356,539v-2.1h1.9l3.5,1.9h3.5l-0.6-3.8l1.9-1.7l3.8-0.6v-3.2l4.2-1.9l-0.9-4.4h-3.5 l-3.2-0.7l-0.7-2.5l2.5-0.6v-3.2l2.5-2.1l-1.9-0.9l-5.4,0.9l0.4-2.5l-3.8-1.7l-0.9-7.6v-5.5l-3.2-2.1l0.4-4.5l-6.7-8.3l-0.7-6.3 H347l-0.9-6.3l-4.5,0.7l-0.6-4.2l-0.6-1.6l-6.3,5.4v5.4h-1.6l-0.7,5.1l-1.7,0.7l-1.3,2.9h-7l-0.6-0.9h-3.2l-1.9,3.2l-0.7-0.1 l0.1-0.3l-1.8-0.2l1.3-3.8l-2.9-1.3l2.9-6.7l-3.8-2.9l-1.3-8.4l-3.6-0.8l-2.5,2.5l-1.3-2.1l-3.8,3.8l-2.5,0.4l-4.4-6.3l-5.6-2.8 l-4.9,2.1l-0.7,0.2l0,0l-1.5,1.5v2.5l2,2.1l-2,3.6l-1.8,1.2l-0.2,2.1l-3.8,0.5l0.2,2.4l1.4,0.5l-3.2,4.5l-5,0.5l-0.2,3.3l-2,2 l-1.2,3l-4.5,0.2l1.8,6.7l1.8,4.3l0,0l0,0l-4.9,1.5l-2.9-1.7l-1.7,5.2l2.5,2.6l-1.2,4.3l-1.4,1.7l0.9,2.6l-4.3,0.9l-3.3,0.9 l0.9,3.1l-1.8,0.5l0,0l0,0l-1.7,1.3l-3.3-3.1l-6.7,0.7l-1.8,3.2l-4,0.5l-3.8,0.7l-1.7-2.1l-3.6,3.6l-2.6-2.3l-1.8,3.5l0.2,2.9 l-2.5,0.7l-1.2-1.7l-1.2-3.3l-3.2,2.6l-2.1-0.9l-2.5,0.5l-2.1,2.6l2.6,4.5l-1.8,1.8l0.7,3.8l-2.1,2.9l-1.7,4.3l1.9,2.9l0,0l0,0 l6.2,0.7l4.1,6.5l-2.5,2.3l4.5,6.6l-2.1,2.9l-3.6,8.1l-6.1,5.2l1.7,3.2l-1.4,0.9l-3.3-0.7l-0.9,7.4l-1.8,1.4l-0.3,4.2l4,1.8 l4.5,3.3l0.5,2.6l3.6,2.9h3l7.4-3.2l3.1,3.6l4.3,1.2l1.7-2.6l2,0.9l4.4,0.3l0,0l9.1,0.9l0.5-11.1l3.1,0.5L251.1,604.6z" />

</svg>
