<?xml version="1.0" encoding="utf-8"?>
<!-- Generator: Adobe Illustrator 18.0.0, SVG Export Plug-In . SVG Version: 6.00 Build 0)  -->
<!DOCTYPE svg PUBLIC "-//W3C//DTD SVG 1.1//EN" "http://www.w3.org/Graphics/SVG/1.1/DTD/svg11.dtd">
<svg version="1.1" id="map" xmlns="http://www.w3.org/2000/svg" xmlns:xlink="http://www.w3.org/1999/xlink" x="0px" y="0px"
	 viewBox="0 0 595.3 841.9" enable-background="new 0 0 595.3 841.9" xml:space="preserve">

     <path id="pays-de-la-loire" data-region="Pays-de-la-Loire" fill="none" d="M218.7,237.8l-1.5-4l-2.9-1.2l-0.9-5l-2-1.8l-2.1,0.2l-0.9,2.1l-3.3,1.4l-6.1-0.9 l-6.1,3.6l-2.1-1.7l-3.3,2.3l-2.5-1.8l-1.6-2.4l-3.4-1.5l-2.3,1.8l-3.8-0.6l-0.2,5.8l1.2,0.9v4.5l-2.3,2.3v3.6l0.7,2.1v6.5 l1.7,1.7v6.1l-3.8-0.5l-1.7,0.9l-2.9,7.1l-1.5,4.6l0,0l0,0l-0.9,1.7l0,0l0,0l-4.3-1l-2.1-2.7l-3.3-1l-0.2,2.5l-5,0.7l-2.3,2.1 l-0.9,2.5l-13.9,0.7l-4.6,2.3l-1.4,0.7l-0.2,6.3l-6.3,2.5l-4.3,2.1h-3.5l-1.4-1.5l-2,2h-1.1l0,0l1.5,1.1l-4.3,3.8l0.9,0.9l0.9,1.8 l-2.3,3.2l2.5,1.4l4.3,0.9l0.5-1.8l2.5,3.2h3.9l2.9-3.2h3.8l-4,2l0.2,2.3l0.9,2l-2.5,2.5h-2.6l0.5,3.3l5-0.9l5.7,5.6l0,0l0,0 l-6.8,8.7l-0.2,5.4l6.9,6.7l-0.2,2h2l4.3,12.9l4.5,2.1l4.5,4.5h5.2l2,4.5h5l2.1,3.3l5,2.5l0.2-3.2l1.2,1.2l6.9-4.2l3.2-0.2 l1.7,3.9l4.3-1.8l3,2.4l2.8-1.3l2.5-0.7l1.2-1.4l3.1-2l-2.1-2.3l-1.8,1.4l-0.2-1.8l1.7-3l-1.7-2.6l1.4-1.8l-0.7-6.3l-2.1-3.3 l1.7-2l-3.6-4l1.4-2.9l-5.4-4.5v-2.6l-1.8-3.3l4.4-1.9l7,1.7l3.1-2v-3.1l6.1-0.5l5.6-1.2l6.1-0.2l0.2,1.7l1.9,0.9l0,0l0,0l1.8-2.2 l4.5-4.5l0,0l0,0l1.8,0.1l2.4-9.2l3.6-4.3l-0.2-5l2.3-3v-1.4l-1.2-1.4l0.6-1.6l0,0l1.3-2.9l4.5,3.2h2.5l-1.4-4.5l2.7,1.8l1.5-2.3 l6.5-1.8l-0.4-1l-0.8-1.8l1.7-2l3.3-1.4l3.1-4v-4.3h2.3l0.9-3.1l0.2-4.8l-2.1-2l1.8-3.1l1.6-2.1l1.1-1.3l-3.2-2.2l-2.8-0.3 l-3.2-4.8h-0.9l-0.3,1.4l0,0l-4.9-0.8l-2.3-3.3l-3.7-1.6l-1.2-8.1l-1.8-2.4l-6.1,0.2l-6.1,5.6L218.7,237.8L218.7,237.8z" />

</svg>
