<?xml version="1.0" encoding="utf-8"?>
<!-- Generator: Adobe Illustrator 18.0.0, SVG Export Plug-In . SVG Version: 6.00 Build 0)  -->
<!DOCTYPE svg PUBLIC "-//W3C//DTD SVG 1.1//EN" "http://www.w3.org/Graphics/SVG/1.1/DTD/svg11.dtd">
<svg version="1.1" id="map" xmlns="http://www.w3.org/2000/svg" xmlns:xlink="http://www.w3.org/1999/xlink" x="0px" y="0px"
	 viewBox="0 0 595.3 841.9" enable-background="new 0 0 595.3 841.9" xml:space="preserve">

     <path id="picardie" data-region="Picardie" fill="none" d="M401.7,143.2l2-1.8l-2-3.8l0.6-4l-4.1-1.3l-1.6,2.2l-4.3-1.2l-0.9-2.9h-1.4l-2.5,2.1l-0.5-2 l-4.9-0.5l-1.4-1.2h-1.4l-3.6,2.6l-1.8-1.7h-1.7l-3.6,2.5l-2.6-1.7l-3,1.8l0,0l-1.2-1.3h-2.5l-1.8,0.9l0,0l-1.7-0.6l-2-2.3h-5.4 l-3.3,1.8v-1.7l-0.9-1.7l-2,0.9l-2.5,1.4l1.2-1.8l-0.2-1.8l-3-2v2.3h-2L331,125l-2-1.7l-2,1.4l-0.7,1.8l-0.9,0.2l-1.2-1.2v-3.2 l3.3-2.1l-1.4-2.3l-2.6,1.2l-1.4-1.2l-5.6,0.7l-2.9,1.2l-3-1.2v-2.1l-4-1.8l-1.2-2.6l-1.7,0.7l-4.3-3.3l-2-0.7l-1.7,2l-2.6,0.7 l-1.2-2.5l-3.1-0.4l-0.6,7.4l5,4.5v2.3l-6.1-3.6l-7.3,8.9l1.7,1.1l2.5-0.2l1.2,2.1l9.8,9.6l0.7,4l1.9,4.5l-1.9,2.2l-0.9,2.1h1.8 l-0.9,2.3l-0.9,4.5l1.4,2.1v3.8h2.3l-0.9,1.5l-1.7,3l-0.5,2l2.2,2l0.6,5.1l1.2,1.8l-1.7,0.5l-2-1.2l-0.3,2.5l1,1.8l1.4,2.1 l6.1,0.5l4.3-0.5l2.9-2.1l3.6,2.1l1.8,1.4l2.6-0.7l2.4-1.2l4.8,2.5l5,2.9l1.7,1.7l2.6-1.8l2.1,1.4l1.4,1.2l2-0.2l1.4-1.8l3.1,1.8 l3.8-1.7l2.1,0.7l2.1-1.8l1.7-0.3l0,0l0,0l2.5,1.9l0.7,5l6,5.8l2,0.7l1.2,2.6l3.8,0.7l0,0l1.5-2.9l3.3-1.7l1.8-4.8l2-1.4l-1.2-1.7 h-2.9l-0.5-1.5l2-0.9l0.9-1.4l-2-1.4l0.7-2l5.2-0.5l-0.9-2l-3.1-2V178l4.3-3.2h4.8l-0.5-2.1l2.6-1.2l3.7,2.7l1.7-0.5v-1.8v-6 l0.7-2.6l0.9-3.1l-3-1.7l0.7-1.8l4.3-0.9v-2.9l3.3-1.8l0.9-2.6l-1.2-1.8L401.7,143.2z" />

</svg>
