<?xml version="1.0" encoding="utf-8"?>
<!-- Generator: Adobe Illustrator 18.0.0, SVG Export Plug-In . SVG Version: 6.00 Build 0)  -->
<!DOCTYPE svg PUBLIC "-//W3C//DTD SVG 1.1//EN" "http://www.w3.org/Graphics/SVG/1.1/DTD/svg11.dtd">
<svg version="1.1" id="map" xmlns="http://www.w3.org/2000/svg" xmlns:xlink="http://www.w3.org/1999/xlink" x="0px" y="0px"
	 viewBox="0 0 595.3 841.9" enable-background="new 0 0 595.3 841.9" xml:space="preserve">

     <path id="poitou-charentes" data-region="Poitou-Charentes" fill="none" d="M212.7,323.9L212.7,323.9l-1.9-0.9l-0.2-1.7l-6.1,0.2l-5.6,1.2l-6.1,0.5v3.1l-3.1,2 l-7-1.7l-4.4,1.9l1.8,3.3v2.6l5.4,4.5l-1.4,2.9l3.6,4l-1.7,2l2.1,3.3l0.7,6.3l-1.4,1.8l1.7,2.6l-1.7,3l0.2,1.8l1.8-1.4l2.1,2.3 l-3.1,2l-1.2,1.4l-2.5,0.7l-2.8,1.3l-3-2.4l-4.3,1.8l-1.7-3.9l-3.2,0.2l-6.9,4.2l1.7,1.5l-3.6,2.9l-0.5,2.3l-3.3,0.5l-1.8-2 l-4.5-0.5l-0.5-2.3l-2.6-1.8l-3.8,1.4l2.5,3.6h3.1l3.2,2l2.5,2l4.8-0.2l0.9,2l3.1,0.7l1.2,3.1l2,0.9l-0.2,2.5l-2.6-0.5l-0.9,1.4 l2,2.9l-1.2,5l-2.6-0.2l0.2,3.1l0.7,1.2h-3.3l-0.5-1.8l2-2.6l-0.7-1.5l-1.2-0.9l-0.5-5.4l-3.8-0.5l-3.1-3.8l-0.5,7.9l5.2,3.8 l0.5,4.3l0.9,5l0.5,5l2.6-0.2l4.8,3.8l3.2,1.8l0.2,2.1l2.5,0.5l7.1,7.1l1.8,8.1h6.7l1.2-1.2l0.2,3.3l5.8,0.7l0.9,7.1l3.2,0.2 l5.2,5.2l2.6,0.5l3.2-1.7l2.1,1.7l1.1-2.4l0,0l0.7-1.5l1.8-3.2l0.7-1.1l4.5,0.5l6.1-6l0.2-7.9l10.6-7.1l0.2-5.4l3.2-0.5l2-3.6h1 l0.8-3.5l1.8-0.2l1.2-3.2l2.3-0.7l2.6-1.8l-0.5-5.6l2-0.7l4-0.9l-0.2-2l-0.7-3.1l-3.1-0.2l-1.8-2l1.2-2l-0.3-2.2l0.7-3.8l-1.5-1.8 l1.8-1.4l2.9-3.3l5-0.2v-2.6l2.5-2l4.8-0.9l2.1-3.6l-2.4-1.4l-1.4-4.8l-3.6-0.5l-2.1-2.1l-4.3-3.3l0.9-2.6v-4.7l-3.9-3.6l-0.8-3.1 l-3.8-4l-1.4-5.4l-1.7-0.7l-1.8-2.5l-1.8,1.2l0.5,2.5l-5.8,1.4h-6.7l0.2-2.6v-4.3l-5.4-1.7v-2.8l-4.3-0.9l-1-3.6l-1.8-0.1l0,0l0,0 l-4.5,4.5L212.7,323.9L212.7,323.9z" />

</svg>
