<?xml version="1.0" encoding="utf-8"?>
<!-- Generator: Adobe Illustrator 18.0.0, SVG Export Plug-In . SVG Version: 6.00 Build 0)  -->
<!DOCTYPE svg PUBLIC "-//W3C//DTD SVG 1.1//EN" "http://www.w3.org/Graphics/SVG/1.1/DTD/svg11.dtd">
<svg version="1.1" id="map" xmlns="http://www.w3.org/2000/svg" xmlns:xlink="http://www.w3.org/1999/xlink" x="0px" y="0px"
	 viewBox="0 0 595.3 841.9" enable-background="new 0 0 595.3 841.9" xml:space="preserve">
     <path id="provence-alpes-cote-d-azure" data-region="Provence-Alpes-Côte d'Azur" fill="none" d="M541.9,555.2l0.2-5.2l4.5,0.9l1.7-2l2.3,0.5l0.2-7l5.2-0.5l4.5-4h4l0.2-2.5 l4-2.4l-2.3-5.2l3.3-2.9l-0.7-3.3l5-1.7l1.4-5l-0.7-3.3l-1.2-2l-0.9-3l-3.3,0.2l-10.6,3.8h-3.3l-5.8-4.8l-5.8-1.7h-3.3v-4 l-4.8-3.1l-0.5,0.2l-2.4,1.3v-0.4l3.1-1.7l0.5-0.2v-4.4l3.2-0.5l-1.8-1.7l-2.3-0.7l-1.2-2.9l0.9-2l4-4.3l-0.6-2.6l1.9-2.2l2.4,0.2 v-2l-3.1-1.7l-0.7-6.5l-2.5-0.9l-3.1,0.5l-5.8-3l-0.9-6.7l-3.3-1.2l-1.2-2.3l-1.6-3.3l-4.1-0.2l-2,0.9l-0.5,3.3l-4,0.5l-0.7-3.2 l-1.4-1.4l-4,0.6l-1.6,1.5l-0.9,4.8l0.7,1.2l4.8,0.5l0.9,2.9l1.8,0.9v5l-4.3-0.2l-1.8,2l-5.2-0.9l-2.9,2.5l-2-0.9l-2.9,2.3l1.2,2 l-1.8,1.8h-5.6v2.6l1.8,0.9l-0.4,1.4l-3.9,1.7l-4.8,0.5l-1.4,4.3l-0.2,2.6l2.5,2l-2.5,2.9l-3.2-1.8l-3.6-0.2l-0.5,2l2.3,1.7 l-2.7,1.8l0.9,3.8l7.6,2l1.4,2.9l2.1,0.5l-0.7,6.4l-0.1,1.6l-1.4-1.7l-1.8-1.7l-1.2,3.3l-2.6,1.8l0,0l0,0l-2,0.2l-3.3-2.5 l-0.9-2.9l-6.3-0.5l-4.8-0.5l-0.5-2.6l1.7-3.3l-2.9,2.5l-4.5-0.5l-0.9-1.7l3.1-4.3l-3.4-3l-3.2,0.2l-2.4,3.8l0.7,4l3.8,0.5 l-0.7,1.8l-3,0.2l-3.3,3.3l-0.9-1.2l0.7-4.5l-1.4-1.7l-3.3,0.7l-2.8,0.3l-0.9,2.5l0,0l4.2,6.4v5.1l6.4,7v2.9l-8.9,5.1l-1.7,12.1 l-6.7-0.9l-1.9,5.1l1.7,2.1l-7.3,4.5l-2,4.8l7.3,0.4l9.4,0.7l1.8,1.8h-3.3l-2.1,3.8l9.6,2l7.7-1.4l-4-3.8l2.6-2.1l4.3,1.8l2,4.3 l12.9,0.2l3.3-1.4l0.7,2l-3.6,3.1l5,0.2l-0.9,2.3l-1.4,1.7h11.1l5.4,1.8l0.2,0.2v0.3l0.6,0.8l4,1.8l1.2,4.5l2.5,0.5l2.3-1.7l4-2.5 l7,0.7l-0.2,1.8l-2.3,1.2l5.4,0.2l-1.4-1.4l-0.5-2.9l2.9-2l3.3,1.2l1.4,0.5l1.2,1.4l1.7-1.2l0.5-3l1.8-1.5h4.8l1.4-2l3.1,0.9 l3.6-1.5v-5.8l-4.8,0.2l3.6-2.1l1.8-2.5l0.5-3.6l6.5-0.9l3.7-4L541.9,555.2z" />

</svg>
