<?xml version="1.0" encoding="utf-8"?>
<!-- Generator: Adobe Illustrator 18.0.0, SVG Export Plug-In . SVG Version: 6.00 Build 0)  -->
<!DOCTYPE svg PUBLIC "-//W3C//DTD SVG 1.1//EN" "http://www.w3.org/Graphics/SVG/1.1/DTD/svg11.dtd">
<svg version="1.1" id="map" xmlns="http://www.w3.org/2000/svg" xmlns:xlink="http://www.w3.org/1999/xlink" x="0px" y="0px"
	 viewBox="0 0 595.3 841.9" enable-background="new 0 0 595.3 841.9" xml:space="preserve">

     <path id="rhone-alpes" data-region="Rhône-Alpes" fill="none" d="M421.4,444.3l-1.3,5.4l-3.2,1.4l-1.4,2.3l0.9,2.9l0.7,1.7h-3.3l-0.2,4.3l-3.6,0.2l-1.8,5.6 h-5.4l-5.8,4.3l-3.1,5.3l2,8.6l3.8,4.2v5.2l0,0l0,0l3.9,2.7v6.3l2.5-1.3l5.4,3.6l2.5,0.9l0.6-4.5l3.2-0.6l0.9,3.5l3.2-0.4l0.6-3.5 l7.8,4l0.9-2.5l2.8-0.3l3.3-0.7l1.4,1.7l-0.7,4.5l0.9,1.2l3.3-3.3l3-0.2l0.7-1.8l-3.8-0.5l-0.7-4l2.4-3.8l3.2-0.2l3.4,3l-3.1,4.3 l0.9,1.7l4.5,0.5l2.9-2.5l-1.7,3.3l0.5,2.6l4.8,0.5l6.3,0.5l0.9,2.9l3.3,2.5l2-0.2l0,0l0,0l2.6-1.8l1.2-3.3l1.8,1.7l1.4,1.7 l0.1-1.6l0.7-6.4l-2.1-0.5l-1.4-2.9l-7.6-2l-0.9-3.8l2.7-1.8l-2.3-1.7l0.5-2l3.6,0.2l3.2,1.8l2.5-2.9l-2.5-2l0.2-2.6l1.4-4.3 l4.8-0.5l3.9-1.7l0.4-1.4l-1.8-0.9V474h5.6l1.8-1.8l-1.2-2l2.9-2.3l2,0.9l2.9-2.5l5.2,0.9l1.8-2l4.3,0.2v-5l-1.8-0.9l-0.9-2.9 l-4.8-0.5l-0.7-1.2l0.9-4.8l1.6-1.5l4-0.6l1.4,1.4l0.7,3.2l4-0.5l0.5-3.3l2-0.9l4.1,0.2l0,0l6.5-2.8l2.5,1.7h2.5l0.2-2.6l2.9-1.7 l1.2-1.4l5.8-2.3l0.7-3.8l-1.2-1.8l3.2-5.4l-2.9-1.2l-0.9-3.2l-6.1-3.6c0,0,0.3-7-0.3-8.3l-4.3,0.5l-3.3-3.8l0.1-3.7l-0.6-0.1 l0.1-3.9l7.7-3.2l0.9-2.1l-0.5-5l-5-5.2l-1.5,0.9V384v-3.3l-4.3-2l-0.2-1.8l2.5-2.6V371l-4-4.3l-0.2-2.9h-7.5l-4.8,0.8l-5,4 l-1.4-2l-2.5,0.2l-2.3,5l0.2,2l2.4,2l-4.5,3l-2.9,2.6l-5.1,0.2l0,0l-2.2,0.2v-4.3l2.6-1.7l4-0.5l0.2-2.3l-1.4-0.9l3.3-4.3 l-0.5-1.4l-3.7-1.9l-9.3,10.2h-6.5v-2.6l-3.6-1.8l-4.3,4.8l-3.3,0.5v-3.2l-2.9-1.4l-5.2-6.7l-3.3-1.5l-1.4-2.9l-2.3-0.5l-2.3,1.8 l-1.8,0.5l-2.1-2.1l-2.5,0.2l-1.7,2.9l-4.3,16.6l-0.6,1.6l0,0l-0.7,1.6l-1.7-0.2l-0.9-4.5l-1.1-3.4l-2.4,0.2l-2,2l-1.4-1.8l-2,1.8 l-2.7-1.8h-2.1l-0.9,0.7l-0.5,2.8l0,0l-1,4.6h-2.5l-1.8,1.8l-1.4-1.4l-7.1-1.2l-2.6,1.7h-1.9l-0.5-1.7l-3.3-0.7l-0.2-3.6l-0.9-0.4 l-3.9,0.7l-0.7,2.5l1.7,3.1l0.5,12.7l-5.4,0.2v2.2l3.6,2.9l-2,2l-0.7,5l2.6,3.6l2.4,5.8l5.8,3.8l2,7.4l-4.3,4l0.7,2.6l6.5,1.8l5-4 l2.4-0.2l7.1,3.1l-0.5,4.3l3.6-0.2L421.4,444.3z" />

</svg>
