<?xml version="1.0" encoding="utf-8"?>
<!-- Generator: Adobe Illustrator 18.0.0, SVG Export Plug-In . SVG Version: 6.00 Build 0)  -->
<!DOCTYPE svg PUBLIC "-//W3C//DTD SVG 1.1//EN" "http://www.w3.org/Graphics/SVG/1.1/DTD/svg11.dtd">
<svg version="1.1" xmlns="http://www.w3.org/2000/svg" xmlns:xlink="http://www.w3.org/1999/xlink" x="0px" y="0px" viewBox="0 0 612 792" enable-background="new 0 0 612 792" xml:space="preserve">
<g id="map">
	<title>Carte de France</title>
	<g id="regions">
		<path id="corse" data-region="Corse" fill="none" d="M564.3,624.2l-2.1-4.3l-0.7-13.5l-2.2-2.6l-2.9-2.1l-0.5-8.3l1.4-3.8l-1.8-6.1l-1.2-5l-0.9-1.4 l-1.7-1.8l-3.3,2.3l0.5,2.1l1.8,2.3l-2,1.5l0.9,1.8l-1.4,1.7v2l2.3,2v3.1l-1.4,2.9l-1.5,0.7l-1.8-2.5l-3.2,0.2l-0.7-0.5h-2.7 l-2.4,2.3l-0.9,3.8l-5.8,1.2l-4.5,3.8l-0.9,2.5l-2.1-0.2l-1.2-1.4l-0.7,3.8l-1.7,0.7l-0.5,3.6l0.7,1.7l-2.5,1.8l-0.6,1.7l-0.6-0.1 h-2.1v0.1h0.6v2.5l2.3,1.7l3.8,2.1l0.2,1.8l-2.3,0.7l-3.6,0.7v1.5l1.4,1.4l0.2,4.5l5,1.7l1.8,0.5l1.7,2.5l-1.2,1.7l-1.8,0.7 l-1.4,2.5l-1.4,1.7l0.7,4l3.3-0.2l0.9,0.7l3.2-1.7l0.9,0.9l-1.7,3.3l1.7,1.7l-2.6,2l-1.8,4l5,1.2l7,0.7l-2.9,3.3 c0,0-1.4-0.6-1.9-0.2c0,0,0,0-0.1,0v0.1c0,0,0,0,0,0.1c0,0,0,0,0,0.1c0,1.2-1.5,3.8-1.5,3.8l2.1,2.4l4,2.5l7.6,2l2.1,0.9l2,0.9 l-1.4,2.5l3.6-0.2l0.7,1.7h3.6l0.9-4.3l-2.3-0.5l3.2-3.3l-1.2-1.2l0.2-2l4-2.1l0.2-2.5l-2.6-0.2l-1.8,1.5V668l3.6-0.2l1.2-2.6 l0.9-7.9l-0.7-3.3l-0.1-2.6l0.5-0.3l-0.1-6.7l5.4-7.6L564.3,624.2L564.3,624.2z"/>
		<path id="provence-alpes-cote-d-azure" data-region="Provence-Alpes-Côte d'Azur" fill="none" d="M541.9,555.2l0.2-5.2l4.5,0.9l1.7-2l2.3,0.5l0.2-7l5.2-0.5l4.5-4h4l0.2-2.5 l4-2.4l-2.3-5.2l3.3-2.9l-0.7-3.3l5-1.7l1.4-5l-0.7-3.3l-1.2-2l-0.9-3l-3.3,0.2l-10.6,3.8h-3.3l-5.8-4.8l-5.8-1.7h-3.3v-4 l-4.8-3.1l-0.5,0.2l-2.4,1.3v-0.4l3.1-1.7l0.5-0.2v-4.4l3.2-0.5l-1.8-1.7l-2.3-0.7l-1.2-2.9l0.9-2l4-4.3l-0.6-2.6l1.9-2.2l2.4,0.2 v-2l-3.1-1.7l-0.7-6.5l-2.5-0.9l-3.1,0.5l-5.8-3l-0.9-6.7l-3.3-1.2l-1.2-2.3l-1.6-3.3l-4.1-0.2l-2,0.9l-0.5,3.3l-4,0.5l-0.7-3.2 l-1.4-1.4l-4,0.6l-1.6,1.5l-0.9,4.8l0.7,1.2l4.8,0.5l0.9,2.9l1.8,0.9v5l-4.3-0.2l-1.8,2l-5.2-0.9l-2.9,2.5l-2-0.9l-2.9,2.3l1.2,2 l-1.8,1.8h-5.6v2.6l1.8,0.9l-0.4,1.4l-3.9,1.7l-4.8,0.5l-1.4,4.3l-0.2,2.6l2.5,2l-2.5,2.9l-3.2-1.8l-3.6-0.2l-0.5,2l2.3,1.7 l-2.7,1.8l0.9,3.8l7.6,2l1.4,2.9l2.1,0.5l-0.7,6.4l-0.1,1.6l-1.4-1.7l-1.8-1.7l-1.2,3.3l-2.6,1.8l0,0l0,0l-2,0.2l-3.3-2.5 l-0.9-2.9l-6.3-0.5l-4.8-0.5l-0.5-2.6l1.7-3.3l-2.9,2.5l-4.5-0.5l-0.9-1.7l3.1-4.3l-3.4-3l-3.2,0.2l-2.4,3.8l0.7,4l3.8,0.5 l-0.7,1.8l-3,0.2l-3.3,3.3l-0.9-1.2l0.7-4.5l-1.4-1.7l-3.3,0.7l-2.8,0.3l-0.9,2.5l0,0l4.2,6.4v5.1l6.4,7v2.9l-8.9,5.1l-1.7,12.1 l-6.7-0.9l-1.9,5.1l1.7,2.1l-7.3,4.5l-2,4.8l7.3,0.4l9.4,0.7l1.8,1.8h-3.3l-2.1,3.8l9.6,2l7.7-1.4l-4-3.8l2.6-2.1l4.3,1.8l2,4.3 l12.9,0.2l3.3-1.4l0.7,2l-3.6,3.1l5,0.2l-0.9,2.3l-1.4,1.7h11.1l5.4,1.8l0.2,0.2v0.3l0.6,0.8l4,1.8l1.2,4.5l2.5,0.5l2.3-1.7l4-2.5 l7,0.7l-0.2,1.8l-2.3,1.2l5.4,0.2l-1.4-1.4l-0.5-2.9l2.9-2l3.3,1.2l1.4,0.5l1.2,1.4l1.7-1.2l0.5-3l1.8-1.5h4.8l1.4-2l3.1,0.9 l3.6-1.5v-5.8l-4.8,0.2l3.6-2.1l1.8-2.5l0.5-3.6l6.5-0.9l3.7-4L541.9,555.2z" />
 		<path id="languedoc-roussillon" data-region="Languedoc-Roussillon" fill="none" d="M368.6,516.2v3.2l-2.5,0.6l0.7,2.5l3.2,0.7h3.5l0.9,4.4l-4.2,1.9v3.2l-3.8,0.6 l-1.9,1.7l0.6,3.8h-3.5l-3.5-1.9h-1.9v2.1l0.4,6.7l-3.3-0.1l-2.2-0.1l-0.8,1.6l-8.3,2.9l-3.2-2.1l-1.9,2.9l-0.9,3.2l3.5,3.2 l-1.3,4.2L333,563h-6.7l-7-1.3h-1.9l-0.4,4.2l-4.2-1.3l-5.1-1.1l0,0l0,0l-6.2,1.9l-1.7-2.9l-3.2,2.9l0.9,2.1l-3.6,1.7l-0.6,3.5 l-2.6,1.4l2.3,2.7l-0.7,1.9l11.1,5.5l0.9,7.7v4.2l0.7,5.4h-5.7l-1.7,2.1l7.3,6l4.2-2.1l4.7,6l-7.5,0.3l-0.9,1.9l-3.8,0.9l-2.5,2.1 l-7,1.7l0.4,2.4l3.3,3.2l6.7,1.8l0.2,4l3.6,3.2l2.6-0.5l3.8-4.8l4.8-0.9l7.4,2.5l6.3,5.4l1.8-2.3h1.7l1.7,1.2l1.4-0.7l0.2-3.2 l6.8-1.7l2.1-2.9l3.3-1.2h4.8l3,3.1l3.6,0.2v-3.6l-1.8-2.5l-3.2-1.4l-0.5-19.6l-0.6-0.3l-0.2-5.4l0.2-7.4l-2.6,0.2l-2.3-3.3l1.8-3 l3.8,3.6l3.3-2.6l2.3-2.1l0.2-2.4l1-0.3l0.1-1.3l8.1-2.5l0.9-2l6.3-0.2l2-2.5l12.3-9.6l7.6-5.4l2.4,0.2l0,0l3.5,0.2v4.5l5.2-0.2 l2.7,0.1l2-4.8l7.3-4.5l-1.7-2.1l1.9-5.1l6.7,0.9l1.7-12.1l8.9-5.1v-2.9l-6.4-7v-5.1l-4.2-6.4l-7.8-4l-0.6,3.5l-3.2,0.4l-0.9-3.5 l-3.2,0.6l-0.6,4.5l-2.5-0.9l-5.4-3.6l-2.5,1.3v-6.3l-3.9-2.7l0,0l0,0v-5.2l-3.8-4.2l-2-8.6l-5.2-6.8l-4.2,1.1l-0.9-3.1h-2.3 l-0.5,2.6l-5.8,1.8l-4.2-10.5l-6.3,2.3l-1.8,4l-4-2.6l-3.2,9.9l-3.4,8l4.8,5.8l-0.4,4.5l3.2,2.1v5.4l0.9,7.6l3.8,1.7l-0.4,2.5 l5.4-0.9l1.9,0.9L368.6,516.2z" />
 		<path id="auvergne" data-region="Auvergne" fill="none" d="M420.1,449.7l1.3-5.4l-2.8-3.3l-3.6,0.2l0.5-4.3l-7.1-3.1l-2.4,0.2l-5,4l-6.5-1.8l-0.7-2.6 l4.3-4l-2-7.4l-5.8-3.8l-2.4-5.8l-2.6-3.6l0.7-5l2-2l-3.6-2.9v-2.2l5.4-0.2l-0.5-12.7l-1.7-3.1l0.7-2.5l3.8-0.9l0,0l4.7-3.7 l0.2-8.8l-1.7-2.1h-3.3l-1.4-1.8h-3.8l-1.2-1.4v-3.3l-4.5-8.4L379,346l-4.3,5.8l-1.8,0.5l-0.7-2.9l-2-0.9l-0.9,1.8h-3.3l-0.5-2 l-2.3,1.4l-2.5,1.2l-2.6-3l-3.9-1.8l-0.2-2.7l-5.3-0.6l-3.1,3.9l-1.8,0.2l-2,2l-2.3-2.5l-6,6.1v3.6l1.2,0.9l0.2,1.8l-3.1,2.4 l-3-0.9l-5.6,1.2l-2.9,3.3l-1,2.3l0,0l2.7,3.8v2.6l1.4,1.7l1.7-2l1.8,3.2l2.5,0.9l2.6,6.2l0.2,1.9l0,0l0.4,5.1l1.8,2.1l0.9,4.3 l-2.6,2l-0.7,3.2l-2.5,1.4l-4.3,2.5l0.5,2l5.3,5.3l0.5,3.2l-2,3.3v3.2l1.4,1.7l0.7,3.8l-0.5,1.4l0,0l-0.8,2.5l1.2,2.6l-1.4,1.7 h-2.1l-2.3-2.5l-2-1.2l-0.2,6.3l-4,2.5l-2.9,4l0.7,4l-0.9,1.8l-1.2,3.6h-1.8l-1.8,2.1l1.4,1.4l0.9,2.1l-2.8,2.1l1.2,7.7l3.8,2.9 l-2.9,6.7l2.9,1.3l-1.3,3.8l1.8,0.2l-0.1,0.3l0.7,0.1l1.9-3.2h3.2l0.6,0.9h7l1.3-2.9l1.7-0.7l0.7-5.1h1.7v-5.4l6.3-5.4l0.6,1.6 l0.6,4.2l4.5-0.7l0.9,6.3h2.1l0.7,6.3l1.9,2.4l3.4-8l3.2-9.9l4,2.6l1.8-4l6.3-2.3l4.2,10.5l5.8-1.8l0.5-2.6h2.3l0.9,3.1l4.2-1.1 l5.2,6.8l3.1-5.3l5.8-4.3h5.4l1.8-5.6l3.6-0.2l0.2-4.3h3.3l-0.7-1.7l-0.9-2.9l1.4-2.3L420.1,449.7z" />
 		<path id="midi-pyrenees" data-region="Midi-Pyrénées" fill="none" d="M251.1,604.6l6.9,1.4h3l3.8,5l9.6-0.5l3.8,6.1l3.3-1.4l9.9,1.4l0.6,4.1l7-1.7l2.5-2.1 l3.8-0.9l0.9-1.9l7.5-0.3l-4.7-6l-4.2,2.1l-7.3-6l1.7-2.1h5.7l-0.7-5.4V592l-0.9-7.7l-11.2-5.4l0.7-1.9l-2.3-2.7l2.6-1.4l0.6-3.5 l3.6-1.7l-0.9-2.1l3.2-2.9l1.7,2.9l6.2-1.9l0,0l5.1,1.1l4.2,1.3l0.4-4.2h1.9l7,1.3h6.7l5.1-1.7l1.3-4.2l-3.5-3.2l0.9-3.2l1.9-2.9 l3.2,2.1l8.3-2.9l0.8-1.6l2.2,0.1l3.3,0.1L356,539v-2.1h1.9l3.5,1.9h3.5l-0.6-3.8l1.9-1.7l3.8-0.6v-3.2l4.2-1.9l-0.9-4.4h-3.5 l-3.2-0.7l-0.7-2.5l2.5-0.6v-3.2l2.5-2.1l-1.9-0.9l-5.4,0.9l0.4-2.5l-3.8-1.7l-0.9-7.6v-5.5l-3.2-2.1l0.4-4.5l-6.7-8.3l-0.7-6.3 H347l-0.9-6.3l-4.5,0.7l-0.6-4.2l-0.6-1.6l-6.3,5.4v5.4h-1.6l-0.7,5.1l-1.7,0.7l-1.3,2.9h-7l-0.6-0.9h-3.2l-1.9,3.2l-0.7-0.1 l0.1-0.3l-1.8-0.2l1.3-3.8l-2.9-1.3l2.9-6.7l-3.8-2.9l-1.3-8.4l-3.6-0.8l-2.5,2.5l-1.3-2.1l-3.8,3.8l-2.5,0.4l-4.4-6.3l-5.6-2.8 l-4.9,2.1l-0.7,0.2l0,0l-1.5,1.5v2.5l2,2.1l-2,3.6l-1.8,1.2l-0.2,2.1l-3.8,0.5l0.2,2.4l1.4,0.5l-3.2,4.5l-5,0.5l-0.2,3.3l-2,2 l-1.2,3l-4.5,0.2l1.8,6.7l1.8,4.3l0,0l0,0l-4.9,1.5l-2.9-1.7l-1.7,5.2l2.5,2.6l-1.2,4.3l-1.4,1.7l0.9,2.6l-4.3,0.9l-3.3,0.9 l0.9,3.1l-1.8,0.5l0,0l0,0l-1.7,1.3l-3.3-3.1l-6.7,0.7l-1.8,3.2l-4,0.5l-3.8,0.7l-1.7-2.1l-3.6,3.6l-2.6-2.3l-1.8,3.5l0.2,2.9 l-2.5,0.7l-1.2-1.7l-1.2-3.3l-3.2,2.6l-2.1-0.9l-2.5,0.5l-2.1,2.6l2.6,4.5l-1.8,1.8l0.7,3.8l-2.1,2.9l-1.7,4.3l1.9,2.9l0,0l0,0 l6.2,0.7l4.1,6.5l-2.5,2.3l4.5,6.6l-2.1,2.9l-3.6,8.1l-6.1,5.2l1.7,3.2l-1.4,0.9l-3.3-0.7l-0.9,7.4l-1.8,1.4l-0.3,4.2l4,1.8 l4.5,3.3l0.5,2.6l3.6,2.9h3l7.4-3.2l3.1,3.6l4.3,1.2l1.7-2.6l2,0.9l4.4,0.3l0,0l9.1,0.9l0.5-11.1l3.1,0.5L251.1,604.6z" />
 		<path id="aquitaine" data-region="Aquitaine" fill="none" d="M279.4,463.5v-2.5l1.5-1.5l-1.9-2.9l0.2-5l-5,0.2l-2-1.4l1.8-2.1l-2.5-2l1.8-2.3l-1.8-0.9 v-3.1l4.5-4l-2.5-2l-1.2-3.1l-5-0.9l-1.7-1.2l3.3-1.7l-1.2-1.5l-5-0.7l-1.2-4.5l-7.1-0.7l-1.7,2.3l-1.5,0.5l-2-2.6l0.9-2.5 l-1.2-2.1l-6.2-0.6l-2,3.6l-3.2,0.5l-0.2,5.4l-10.6,7.1l-0.2,7.9l-4,4l-2.1,2l-4.5-0.5l-0.7,1.1l-1.8,3.2l-0.7,1.5l0,0l-1.1,2.4 l-2.1-1.7l-3.2,1.7l-2.6-0.5l-5.2-5.2l-3.2-0.2l-0.9-7.1l-5.8-0.7l-0.2-3.3l-1.2,1.2h-6.7l0.4,1.5l1.7,6.5l0.5,6.5l-1.2,1.8 l-1.2-5.4l-3.2-12.4l-11.5-10.4l0.2-4.8l-2.4-0.4l-3.6,5.4l-1.2,18.9l-2.9,19.2l-2,14.9l-0.2,3.8l1.7-5.2l3.1-4l4.5,4l0.5,1.4 l1.4,1.8l-5.6,0.2l-0.9-1.4l-2.1,0.9l-0.5,3.3l-2.5,3.3v5.4l-4,21.4l-5.2,19.8l-1.7,7.7l-1.4,5.4l-3.2,5.7l-0.8,1.5l-5.2,6.3 l-4,1.7l-2.9,0.5v2.5l2.6,2.5l4,0.2l0.2,2.9l3.2,0.2l0.9-2l4.3,1.8l2.6,0.7l0.7,2.6l-1.5,1.4v4.3l-3.2,1.7l-0.2,2l2,2.3l3.6,1.2 l0.7-3.3l2-2.1L147,584l1.7,2.3h4l1.8,2.4l5.4,0.9l5.2,3.2h8.6l0.5,4.8l5.8,4.5l2.3,2.6l2.5-1.4l2.1-0.5l1.2,1.2l2-1.2l3.9-2.7 l0.3-4.2l1.8-1.4l0.9-7.4l3.3,0.7l1.4-0.9l-1.7-3.2l6.1-5.2l3.6-8.1l2.1-2.9l-2.6-4.1l-1.8-2.5l2.5-2.3l-4.1-6.5l-6.2-0.7l0,0l0,0 l-1.9-2.9l1.7-4.3l2.1-2.9l-0.7-3.8l1.8-1.8l-2.6-4.5l2.1-2.6l2.5-0.5l2.1,0.9l3.2-2.6l1.2,3.3l1.2,1.7l2.5-0.7l-0.2-2.9l1.8-3.5 l2.6,2.3l3.6-3.6l1.7,2.1l3.8-0.7l4-0.5l1.8-3.2l6.7-0.7l3.3,3.1l1.7-1.3l0,0l0,0l1.8-0.5l-0.9-3.1l3.3-0.9l4.3-0.9l-0.9-2.6 l1.4-1.7l1.2-4.3l-2.5-2.6l1.7-5.2l2.9,1.7l4.9-1.5l0,0l0,0l-1.8-4.3l-1.8-6.7l4.5-0.2l1.2-3l2-2l0.2-3.3l5-0.5l3.2-4.5l-1.4-0.5 l-0.2-2.4l3.8-0.5l0.2-2.1l1.8-1.2l2-3.6L279.4,463.5z" />
 		<path id="rhone-alpes" data-region="Rhône-Alpes" fill="none" d="M421.4,444.3l-1.3,5.4l-3.2,1.4l-1.4,2.3l0.9,2.9l0.7,1.7h-3.3l-0.2,4.3l-3.6,0.2l-1.8,5.6 h-5.4l-5.8,4.3l-3.1,5.3l2,8.6l3.8,4.2v5.2l0,0l0,0l3.9,2.7v6.3l2.5-1.3l5.4,3.6l2.5,0.9l0.6-4.5l3.2-0.6l0.9,3.5l3.2-0.4l0.6-3.5 l7.8,4l0.9-2.5l2.8-0.3l3.3-0.7l1.4,1.7l-0.7,4.5l0.9,1.2l3.3-3.3l3-0.2l0.7-1.8l-3.8-0.5l-0.7-4l2.4-3.8l3.2-0.2l3.4,3l-3.1,4.3 l0.9,1.7l4.5,0.5l2.9-2.5l-1.7,3.3l0.5,2.6l4.8,0.5l6.3,0.5l0.9,2.9l3.3,2.5l2-0.2l0,0l0,0l2.6-1.8l1.2-3.3l1.8,1.7l1.4,1.7 l0.1-1.6l0.7-6.4l-2.1-0.5l-1.4-2.9l-7.6-2l-0.9-3.8l2.7-1.8l-2.3-1.7l0.5-2l3.6,0.2l3.2,1.8l2.5-2.9l-2.5-2l0.2-2.6l1.4-4.3 l4.8-0.5l3.9-1.7l0.4-1.4l-1.8-0.9V474h5.6l1.8-1.8l-1.2-2l2.9-2.3l2,0.9l2.9-2.5l5.2,0.9l1.8-2l4.3,0.2v-5l-1.8-0.9l-0.9-2.9 l-4.8-0.5l-0.7-1.2l0.9-4.8l1.6-1.5l4-0.6l1.4,1.4l0.7,3.2l4-0.5l0.5-3.3l2-0.9l4.1,0.2l0,0l6.5-2.8l2.5,1.7h2.5l0.2-2.6l2.9-1.7 l1.2-1.4l5.8-2.3l0.7-3.8l-1.2-1.8l3.2-5.4l-2.9-1.2l-0.9-3.2l-6.1-3.6c0,0,0.3-7-0.3-8.3l-4.3,0.5l-3.3-3.8l0.1-3.7l-0.6-0.1 l0.1-3.9l7.7-3.2l0.9-2.1l-0.5-5l-5-5.2l-1.5,0.9V384v-3.3l-4.3-2l-0.2-1.8l2.5-2.6V371l-4-4.3l-0.2-2.9h-7.5l-4.8,0.8l-5,4 l-1.4-2l-2.5,0.2l-2.3,5l0.2,2l2.4,2l-4.5,3l-2.9,2.6l-5.1,0.2l0,0l-2.2,0.2v-4.3l2.6-1.7l4-0.5l0.2-2.3l-1.4-0.9l3.3-4.3 l-0.5-1.4l-3.7-1.9l-9.3,10.2h-6.5v-2.6l-3.6-1.8l-4.3,4.8l-3.3,0.5v-3.2l-2.9-1.4l-5.2-6.7l-3.3-1.5l-1.4-2.9l-2.3-0.5l-2.3,1.8 l-1.8,0.5l-2.1-2.1l-2.5,0.2l-1.7,2.9l-4.3,16.6l-0.6,1.6l0,0l-0.7,1.6l-1.7-0.2l-0.9-4.5l-1.1-3.4l-2.4,0.2l-2,2l-1.4-1.8l-2,1.8 l-2.7-1.8h-2.1l-0.9,0.7l-0.5,2.8l0,0l-1,4.6h-2.5l-1.8,1.8l-1.4-1.4l-7.1-1.2l-2.6,1.7h-1.9l-0.5-1.7l-3.3-0.7l-0.2-3.6l-0.9-0.4 l-3.9,0.7l-0.7,2.5l1.7,3.1l0.5,12.7l-5.4,0.2v2.2l3.6,2.9l-2,2l-0.7,5l2.6,3.6l2.4,5.8l5.8,3.8l2,7.4l-4.3,4l0.7,2.6l6.5,1.8l5-4 l2.4-0.2l7.1,3.1l-0.5,4.3l3.6-0.2L421.4,444.3z" />
 		<path id="limousin" data-region="Limousin" fill="none" d="M325.3,408.2l-0.5-2l4.3-2.5l2.5-1.4l0.7-3.2l2.6-2l-0.9-4.3l-1.8-2.1l-0.4-5.1l0,0l-0.2-1.9 l-2.6-6.2l-2.5-0.9l-1.8-3.2l-1.7,2l-1.4-1.7V371l-2.7-3.8l0,0l-7.4,0.6l-4.3-1.2l-11-1l-1.4,3.6l-4-0.2l-0.9-0.5l-2.6,0.2l-2-1.4 l-4.4,5l0,0l0,0l-3.9-3.3l-2,2l-5.6-0.7l-4.8,0.9l-2.5,2v2.6l-5,0.2l-2.9,3.3l-1.8,1.4l1.5,1.8l-0.7,3.8l0.3,2.2l-1.2,2l1.8,2 l3.1,0.2l0.7,3.1l0.2,2l-4,0.9l-2,0.7l0.5,5.6l-2.6,1.8l-2.3,0.7l-1.2,3.2l-1.8,0.2l-0.8,3.5l5.3,0.6l1.2,2.1l-0.9,2.5l2,2.6 l1.5-0.5l1.7-2.3l7.1,0.7l1.2,4.5l5,0.7l1.2,1.5l-3.3,1.7l1.7,1.2l5,0.9l1.2,3.1l2.5,2l-4.5,4v3.1l1.8,0.9l-1.8,2.2l2.5,2 l-1.8,2.1l2,1.4l5-0.2l-0.2,5l1.9,2.9l0.7-0.2l4.9-2.1l5.6,2.8l4.4,6.3l2.5-0.4l3.8-3.8l1.3,2.1l2.5-2.5l3.6,0.8l0.1,0.7l2.8-2.1 l-0.9-2.1l-1.4-1.4l1.8-2.1h1.8l1.2-3.6l0.9-1.8l-0.7-4l2.9-4l4-2.5l0.2-6.3l2,1.2l2.3,2.5h2.1l1.4-1.7l-1.2-2.6l0.8-2.5l0,0 l0.5-1.4l-0.7-3.8l-1.4-1.7V420l2-3.3l-0.5-3.2L325.3,408.2z" />
 		<path id="poitou-charentes" data-region="Poitou-Charentes" fill="none" d="M212.7,323.9L212.7,323.9l-1.9-0.9l-0.2-1.7l-6.1,0.2l-5.6,1.2l-6.1,0.5v3.1l-3.1,2 l-7-1.7l-4.4,1.9l1.8,3.3v2.6l5.4,4.5l-1.4,2.9l3.6,4l-1.7,2l2.1,3.3l0.7,6.3l-1.4,1.8l1.7,2.6l-1.7,3l0.2,1.8l1.8-1.4l2.1,2.3 l-3.1,2l-1.2,1.4l-2.5,0.7l-2.8,1.3l-3-2.4l-4.3,1.8l-1.7-3.9l-3.2,0.2l-6.9,4.2l1.7,1.5l-3.6,2.9l-0.5,2.3l-3.3,0.5l-1.8-2 l-4.5-0.5l-0.5-2.3l-2.6-1.8l-3.8,1.4l2.5,3.6h3.1l3.2,2l2.5,2l4.8-0.2l0.9,2l3.1,0.7l1.2,3.1l2,0.9l-0.2,2.5l-2.6-0.5l-0.9,1.4 l2,2.9l-1.2,5l-2.6-0.2l0.2,3.1l0.7,1.2h-3.3l-0.5-1.8l2-2.6l-0.7-1.5l-1.2-0.9l-0.5-5.4l-3.8-0.5l-3.1-3.8l-0.5,7.9l5.2,3.8 l0.5,4.3l0.9,5l0.5,5l2.6-0.2l4.8,3.8l3.2,1.8l0.2,2.1l2.5,0.5l7.1,7.1l1.8,8.1h6.7l1.2-1.2l0.2,3.3l5.8,0.7l0.9,7.1l3.2,0.2 l5.2,5.2l2.6,0.5l3.2-1.7l2.1,1.7l1.1-2.4l0,0l0.7-1.5l1.8-3.2l0.7-1.1l4.5,0.5l6.1-6l0.2-7.9l10.6-7.1l0.2-5.4l3.2-0.5l2-3.6h1 l0.8-3.5l1.8-0.2l1.2-3.2l2.3-0.7l2.6-1.8l-0.5-5.6l2-0.7l4-0.9l-0.2-2l-0.7-3.1l-3.1-0.2l-1.8-2l1.2-2l-0.3-2.2l0.7-3.8l-1.5-1.8 l1.8-1.4l2.9-3.3l5-0.2v-2.6l2.5-2l4.8-0.9l2.1-3.6l-2.4-1.4l-1.4-4.8l-3.6-0.5l-2.1-2.1l-4.3-3.3l0.9-2.6v-4.7l-3.9-3.6l-0.8-3.1 l-3.8-4l-1.4-5.4l-1.7-0.7l-1.8-2.5l-1.8,1.2l0.5,2.5l-5.8,1.4h-6.7l0.2-2.6v-4.3l-5.4-1.7v-2.8l-4.3-0.9l-1-3.6l-1.8-0.1l0,0l0,0 l-4.5,4.5L212.7,323.9L212.7,323.9z" />
 		<path id="pays-de-la-loire" data-region="Pays-de-la-Loire" fill="none" d="M218.7,237.8l-1.5-4l-2.9-1.2l-0.9-5l-2-1.8l-2.1,0.2l-0.9,2.1l-3.3,1.4l-6.1-0.9 l-6.1,3.6l-2.1-1.7l-3.3,2.3l-2.5-1.8l-1.6-2.4l-3.4-1.5l-2.3,1.8l-3.8-0.6l-0.2,5.8l1.2,0.9v4.5l-2.3,2.3v3.6l0.7,2.1v6.5 l1.7,1.7v6.1l-3.8-0.5l-1.7,0.9l-2.9,7.1l-1.5,4.6l0,0l0,0l-0.9,1.7l0,0l0,0l-4.3-1l-2.1-2.7l-3.3-1l-0.2,2.5l-5,0.7l-2.3,2.1 l-0.9,2.5l-13.9,0.7l-4.6,2.3l-1.4,0.7l-0.2,6.3l-6.3,2.5l-4.3,2.1h-3.5l-1.4-1.5l-2,2h-1.1l0,0l1.5,1.1l-4.3,3.8l0.9,0.9l0.9,1.8 l-2.3,3.2l2.5,1.4l4.3,0.9l0.5-1.8l2.5,3.2h3.9l2.9-3.2h3.8l-4,2l0.2,2.3l0.9,2l-2.5,2.5h-2.6l0.5,3.3l5-0.9l5.7,5.6l0,0l0,0 l-6.8,8.7l-0.2,5.4l6.9,6.7l-0.2,2h2l4.3,12.9l4.5,2.1l4.5,4.5h5.2l2,4.5h5l2.1,3.3l5,2.5l0.2-3.2l1.2,1.2l6.9-4.2l3.2-0.2 l1.7,3.9l4.3-1.8l3,2.4l2.8-1.3l2.5-0.7l1.2-1.4l3.1-2l-2.1-2.3l-1.8,1.4l-0.2-1.8l1.7-3l-1.7-2.6l1.4-1.8l-0.7-6.3l-2.1-3.3 l1.7-2l-3.6-4l1.4-2.9l-5.4-4.5v-2.6l-1.8-3.3l4.4-1.9l7,1.7l3.1-2v-3.1l6.1-0.5l5.6-1.2l6.1-0.2l0.2,1.7l1.9,0.9l0,0l0,0l1.8-2.2 l4.5-4.5l0,0l0,0l1.8,0.1l2.4-9.2l3.6-4.3l-0.2-5l2.3-3v-1.4l-1.2-1.4l0.6-1.6l0,0l1.3-2.9l4.5,3.2h2.5l-1.4-4.5l2.7,1.8l1.5-2.3 l6.5-1.8l-0.4-1l-0.8-1.8l1.7-2l3.3-1.4l3.1-4v-4.3h2.3l0.9-3.1l0.2-4.8l-2.1-2l1.8-3.1l1.6-2.1l1.1-1.3l-3.2-2.2l-2.8-0.3 l-3.2-4.8h-0.9l-0.3,1.4l0,0l-4.9-0.8l-2.3-3.3l-3.7-1.6l-1.2-8.1l-1.8-2.4l-6.1,0.2l-6.1,5.6L218.7,237.8L218.7,237.8z" />
 		<path id="bretagne" data-region="Bretagne" fill="none" d="M63.4,210.5l-4-1.8l-6.3,0.2v4.5h-1.8l-0.5-2l-2.6,0.5l-0.1-5.8l-2.4,2.6l-2.6-1.2l-5,0.5 l-0.9,2.1l-2.9,0.7l-0.5-2.5l-5.2,0.7v1.7l-3.6,0.2l-1.7-1.2l-1.8,0.9L21,213l-6.1,0.4l-3.2,3.8l2.6,2l-3.6,3l1.2,2l-0.9,5 l3.6,0.5l1.4-1.4l0.7,0.9l8.6-1.2l5.6-4l-5,4.8l0.5,2.1l4.5-2l-0.9,3.2l5,0.2l-0.2,1.4l-5.4-0.2l-4.3-1.2l-5.2-2.5l-3.1,3.6l4,1.4 l-0.2,6l1.2-0.9l2.5-3.8l4.8,2.6l2.3,0.5l0.9,3.6l-1.4,2.4l-2.9-0.2h-2.6l-4.5,0.7l-7.7,0.5l-1.8,2.1l2.1,1.4l2.5-0.2l2,1.8 l2.9-0.2l4.8,5.4l1.2,5.8l-1.7,3.2l4.8,0.9l5.2-0.2l1.2-2l-2-2.6l2,0.9l2-0.2l3.6,2l2.1-0.5v-3.8L45,264l2.9,4.8l6.3,0.5l0.2-1.4 l1.5,2.1l3.8,0.7l3.1-0.1l0,0l0,0l2.8,3.8l3.6,0.9l1.4-2l-0.7,2.4L73,277l4,4l1.4,2.5l-0.5,2.9l-0.5,3l2.6,2l1.4-1.7l-1.4-1.8v-4 l2.6,0.7l0.9-2.6l0.7,1.7l2.9,2.5l1.4-2.3l-1.4-3.1l2.5,3.3l3.1-0.5l-0.7-1.7l2.9,0.7l2.1,2.6l-1.2,1.8l-2.9-0.9l-3.3-1.7 l-1.8,2.3l2.6,0.9l2,3.1l12.3-1.2l3.1,0.7l-1.5,1.4l0.8,2.5l0,0h1.1l2-2l1.4,1.5h3.5l4.3-2.1l6.3-2.5l0.2-6.3l1.4-0.7l4.6-2.3 l13.9-0.7l0.9-2.5l2.3-2.1l5-0.7l0.2-2.5l3.3,1l2,2.6l4.3,1l0,0l0,0l0.9-1.7l0,0l0,0l1.5-4.6l2.9-7.1l1.7-0.9l3.8,0.5v-6.1 l-1.7-1.7v-6.5l-0.7-2.1V242l2.3-2.3v-4.5l-1.2-0.9l0.2-5.8l-1.9-1.2h-2.6l-2.3-1.8l-2.4,2.9l-2,0.2l-1.8,2.4l-1.8-0.5l-3.8-3.3 l-1.4-4.3l-0.7-2.9l-11.2-0.1l-4-2.5l2.6-3.6l-5.3-0.1l-2,2.6l0,0l-1.3,1.8l-4.2-0.5l-0.5,2.5l-2.6,0.2l-0.2-3.1l-2.3-0.7 l-1.7,1.8V214l-2.6,2l-4-0.7l-1.4,2.6l-8.3,4.5v2.3h-1.8v-4l-4.8-2.1l0.5-4l-4.3-3.1v-3.8l-3.2-0.7l0.2-3.6l-2.4-0.2l0.2-2.5h-4.5 l-0.7,2.1l-1.6-3.8l-2,1.7l-5.2,0.7l-1.2,1.7l-3.6-2.6l-4.8,3.2l1.8,2.4L63.4,210.5L63.4,210.5z" />
 		<path id="basse-normandie" data-region="Basse-Normandie" fill="none" d="M261.7,229.1l-4.8-4l-0.5-4l-3.8-2.3l1.7-2.1l-0.9-3.3l-3.1-1.2l-2.3-2.3l-1.4-3.1 l-6.3-0.2l-1.8-2.3l0.7-3.4l0,0l0.6-2.2l-0.2-2l-2.3-0.9L237,194l2-1.4l0.2-2.3l-1.4-5.4l-2.6-3.8l2.3-1.4v-0.9l-2.3-0.7l-0.8-8.3 l-5.3,0.9l-8.6,5l-9.6,3.8l-7.7-4.3l-18.4-2.6l-4.3-2.1l-6.6,2l0,0l-1.8,0.8l-0.2-5.4l-5.8-6.9l1.8-4.5h2.5l-2.1-6.1l-9.6-0.5 l-5.2,3.6l-5.8-3.8l-9-3.1l-0.9,2.3l4.8,3.8v5l-1.8,2.1l1.2,1.2l0.7,0.5l-0.5,4.3l1.7,3.6l5.2,5.8l1.2,5.2l1.2,1.7v8.1l2.6,5.4 v6.3l-2.9,5.8l3.1,8.1l5,1.2l0.5,2.3l-2.4,1.2l-4.5-0.3l0.7,2.9l1.4,4.3l3.8,3.3l1.8,0.5l1.8-2.4l2-0.2l2.4-2.9l2.3,1.8h2.6 l1.9,1.2l3.8,0.6l2.3-1.8l3.4,1.5l1.6,2.4l2.5,1.8l3.3-2.3l2.1,1.7l6.1-3.6l6.1,0.9l3.3-1.4l0.9-2.1l2.1-0.2l2,1.8l0.9,5l2.9,1.2 l1.5,4l0,0l3.5,0.3l6.1-5.6l6.1-0.2l1.8,2.4l1.2,8.1l3.7,1.6l2.3,3.3l4.9,0.8l0,0l0.3-1.4h0.9l3.2,4.8l2.8,0.3l-0.1-5.3l-1.5-2 l-0.5-1.8l3.3-2l3.3-0.7l2.1-2.6L261.7,229.1z" />
 		<path id="haute-normandie" data-region="Haute-Normandie" fill="none" d="M298.2,179.9l-0.6-5.1l-2.2-2l0.5-2l1.7-3l0.9-1.5h-2.3v-3.8l-1.4-2.1l0.9-4.5l0.9-2.3 h-1.8l0.9-2.1l1.9-2.2l-1.9-4.5l-0.7-4l-9.8-9.6l-1.2-2.1l-2.5,0.2l-1.7-1.1l-1.5,1.8l-9.6,7.4l-17,4.3l-11.3,4l-9.2,5l-5.4,8.1 l-1.2,6.3l4.5,3.3l6.5,1.4l-1,0.3l0.8,8.3l2.3,0.7v0.9l-2.3,1.4l2.6,3.8l1.4,5.4l-0.2,2.3l-2,1.4l0.2,1.7l2.3,0.9l0.2,2l-0.6,2.2 l0,0l-0.7,3.4l1.8,2.3l6.3,0.2l1.4,3.1l2.3,2.3l3.1,1.2l0.9,3.3l-1.7,2.1l3.8,2.3l2.5-3.6h3.1l8.2-4.3l2.6,1.2h5.6l1.4-1.7v-3.3 l4.5-2.1v-3.6l1.4-1.2l-0.2-0.9l1.2-1.2l-2-0.5v-1.8l-1.2-1.8l0.9-1.2l6.4-1.8l1.6-2.6l1.4-5l1.8-2.1l0.3-2.5l2,1.2l1.7-0.5 L298.2,179.9z" />
 		<path id="centre" data-region="Centre" fill="none" d="M357.2,262.5l-3-3.1l-1.2-3.6l-4-3.8l-5.5,3.2l-0.5-1.8l-2.5-0.2l-0.7,1.8l-2.1,0.5l-6.1-0.2 L329,257l-2-1.8l3.6-2.5l-0.2-3.8l-2.6-1.4l-2.1-2.8l-6.3-1l-2.9-1.6l-2.9,2.6l-7.1,0.9l-1-6.4l0,0l-1-3.3l-4.5-0.7l-2-2.5l-0.7-5 l-2.6-0.5l-0.5-2.5l-3.1-2.1l-1.7-3.8l1.7-2.6l-1.7-1.8v-2.4l0.9-2.5l-1.8-1.8l-0.7-2.6l-1.8-2.2l-1.4,1.2v3.6l-4.5,2.1v3.3 l-1.4,1.7h-5.6l-2.6-1.2l-8.2,4.3H259l-2.5,3.6l0.5,4l4.8,4l0.5,8.3l-2.1,2.6l-3.3,0.7l-3.3,2l0.5,1.8l1.5,2l0.1,5.3l3.2,2.2 l-1.1,1.3l-1.6,2.1l-1.8,3.1l2.1,2l-0.2,4.8l-0.9,3.1H253v4.3l-3.1,4l-3.3,1.4l-1.7,2l0.8,1.8l0.4,1l-6.5,1.8l-1.5,2.3l-2.7-1.8 l1.4,4.5h-2.5l-4.5-3.2l-1.3,2.9l0,0l-0.6,1.6l1.2,1.4v1.4l-2.3,3l0.2,5l-3.6,4.3l-2.4,9.2l0,0l1,3.6l4.3,0.9v2.8l5.4,1.7v4.3 l-0.2,2.6h6.7l5.8-1.4l-0.5-2.5l1.8-1.2l1.8,2.5l1.7,0.7l1.4,5.4l3.8,4l0.8,3.1l3.9,3.6v4.7l-0.9,2.6l4.3,3.3l2.1,2.1l3.6,0.5 l1.4,4.8l2.4,1.4l-2.1,3.6l5.6,0.7l2-2l3.9,3.3l0,0l0,0l4.4-5l2,1.4l2.6-0.2l0.9,0.5l4,0.2l1.4-3.6l11,1l4.3,1.2l7.4-0.6l1-2.3 l2.9-3.3l5.6-1.2l3,0.9l3.1-2.4l-0.2-1.8l-1.2-0.9v-3.6l6-6.1l2.3,2.5l2-2l1.8-0.2l3.1-3.9l5.3,0.6l1.8-4.9l-1.2-2l0.2-2.9 l0.7-5.8l-2.5-2.4l0.5-5.4l-2.3-4.8l-0.2-3.1l-4-3.2l-0.7-2.6l2-2.9V299l-2-2.9l0,0l0,0l-0.4-2.5l3.9-1.1l-0.1-2.8l-0.7-3.6 l-2.9-4l-0.7-2.5h4.5l3.2-2.3l0.5-3.3l-2-2.3l5.8-5L357.2,262.5L357.2,262.5z" />
 		<path id="bourgogne" data-region="Bourgogne" fill="none" d="M462.4,336.1h-1.7l-1.4-1.7h-2.5l-2-3.3L453,331l0.2-2.4l0,0l0,0l1.5-0.9l-0.2-1.2l-0.5-1.4 l1.2-1.8l3.8-1.8v-1.8l1.4-1.8l1.4-1.8l-0.5-1.7l0.7-2.5l0.5-3.6l0.9-0.6l0,0l-1.1-1.7l-0.2-4.5l-2-0.2l-0.5-3.6l-2.5-1.2l0.9-1.2 l1.4-0.5l2.9-3.3l-0.2-1.8L460,286l-2.6-0.4l-1,2.2l-5,1.2l-0.5-1.2l-3.6-4.5l-2,1.2l-2.6-0.2l-0.9-1.8l-3.6,0.2l-0.2-3.8l-2-1.4 l2.9-3.1l-5.2-7.1l-4-4.3l-3.2-1.9l-6.8-0.1l0,0l-0.5,3l-2.9,1.7h-7.7l0,0l-1.4,2.3l-1.7-0.2l-1.4-2.5l-4.5,2.3l-8.9-0.5l-1.2-2.5 l-2.5-3.3l-0.5-4l-3.6-4.3l-2.3,1.7l-4.1-3l0.7-6.1l-5.8-6.1l-3.2-0.8l0,0l-2.3,1.2l-8.8-0.5l-4,2l-1.7,3.3l1.8,2l-2.6,3.2 l-1.7,2.1l4,3.8l1.2,3.6l3,3.1v4l-5.8,5l2,2.3l-0.5,3.3l-3.2,2.3h-4.5l0.7,2.5l2.9,4l0.7,3.6l0.1,2.8l-3.9,1.1l0.4,2.5l0,0l0,0 l2,2.9v4.3l-2,2.9l0.7,2.6l4,3.2l0.2,3.1l2.3,4.8l-0.5,5.4l2.5,2.4l-0.7,5.8l-0.2,2.9l1.2,2l-1.8,4.9l0.2,2.7l3.9,1.8l2.6,3 l2.5-1.2l2.3-1.4l0.5,2h3.3l0.9-1.8l2,0.9l0.7,2.9l1.8-0.5l4.3-5.8l2.1,1.8l4.5,8.4v3.3l1.2,1.4h3.8l1.4,1.8h3.3l1.7,2.1l-0.2,8.8 l-4.7,3.7l0,0l0.9,0.4l0.2,3.6l3.3,0.7l0.5,1.7h1.9l2.6-1.7l7.1,1.2l1.4,1.4l1.8-1.8h2.5l1-4.6l0,0l0.5-2.8l0.9-0.7h2.1l2.7,1.8 l2-1.8l1.4,1.8l2-2l2.4-0.2l1.1,3.4l0.9,4.5l1.7,0.2l0.7-1.6l0,0l0.6-1.6l4.3-16.6l1.7-2.9l2.5-0.2l2.1,2.1l1.8-0.5l2.3-1.8 l2.3,0.5l1.4,2.9l3.3,1.5l4-1.8l2.4-1.8l-0.9-1.4l-2.6-0.9l-0.2-3.1l2.3-1.7l0.9-3.8l-2-3.6l-1.4-1.8l0.7-0.7v-2.1l-1.8-1.2 l-0.5-1.8l5.2-0.7L462.4,336.1z" />
 		<path id="picardie" data-region="Picardie" fill="none" d="M401.7,143.2l2-1.8l-2-3.8l0.6-4l-4.1-1.3l-1.6,2.2l-4.3-1.2l-0.9-2.9h-1.4l-2.5,2.1l-0.5-2 l-4.9-0.5l-1.4-1.2h-1.4l-3.6,2.6l-1.8-1.7h-1.7l-3.6,2.5l-2.6-1.7l-3,1.8l0,0l-1.2-1.3h-2.5l-1.8,0.9l0,0l-1.7-0.6l-2-2.3h-5.4 l-3.3,1.8v-1.7l-0.9-1.7l-2,0.9l-2.5,1.4l1.2-1.8l-0.2-1.8l-3-2v2.3h-2L331,125l-2-1.7l-2,1.4l-0.7,1.8l-0.9,0.2l-1.2-1.2v-3.2 l3.3-2.1l-1.4-2.3l-2.6,1.2l-1.4-1.2l-5.6,0.7l-2.9,1.2l-3-1.2v-2.1l-4-1.8l-1.2-2.6l-1.7,0.7l-4.3-3.3l-2-0.7l-1.7,2l-2.6,0.7 l-1.2-2.5l-3.1-0.4l-0.6,7.4l5,4.5v2.3l-6.1-3.6l-7.3,8.9l1.7,1.1l2.5-0.2l1.2,2.1l9.8,9.6l0.7,4l1.9,4.5l-1.9,2.2l-0.9,2.1h1.8 l-0.9,2.3l-0.9,4.5l1.4,2.1v3.8h2.3l-0.9,1.5l-1.7,3l-0.5,2l2.2,2l0.6,5.1l1.2,1.8l-1.7,0.5l-2-1.2l-0.3,2.5l1,1.8l1.4,2.1 l6.1,0.5l4.3-0.5l2.9-2.1l3.6,2.1l1.8,1.4l2.6-0.7l2.4-1.2l4.8,2.5l5,2.9l1.7,1.7l2.6-1.8l2.1,1.4l1.4,1.2l2-0.2l1.4-1.8l3.1,1.8 l3.8-1.7l2.1,0.7l2.1-1.8l1.7-0.3l0,0l0,0l2.5,1.9l0.7,5l6,5.8l2,0.7l1.2,2.6l3.8,0.7l0,0l1.5-2.9l3.3-1.7l1.8-4.8l2-1.4l-1.2-1.7 h-2.9l-0.5-1.5l2-0.9l0.9-1.4l-2-1.4l0.7-2l5.2-0.5l-0.9-2l-3.1-2V178l4.3-3.2h4.8l-0.5-2.1l2.6-1.2l3.7,2.7l1.7-0.5v-1.8v-6 l0.7-2.6l0.9-3.1l-3-1.7l0.7-1.8l4.3-0.9v-2.9l3.3-1.8l0.9-2.6l-1.2-1.8L401.7,143.2z" />
 		<path id="nord-pas-de-calais" data-region="Nord-Pas-de-Calais" fill="none" d="M398.3,132.4l4-2.7l-0.7-4.3l-4.3-1.2l1.2-1.2v-3.1l3.3-2.5l-0.9-1.8l-7.1-5.6 l-12.5,0.7l-1.4,2.1H378l0.2-7.9l-3.6-4.3l-2.6,0.5l-1.7-1.8l-4.5,2l-1.5-1.5l-3.2-0.5l-0.9-2.9l-0.2-8.9l-2-0.9l-0.2-1.4h-1.4 l-0.5-2.6l-2.9,0.2l-5.6,1.8l-2.6,3.3h-2.6l-1.8-2.1l-0.7-2.5l-2.1-2.5h-3.2l-1.4-2.4v-3.8l1.5-2.4l-0.9-3.3l-3.2-6.8l-7.3,3.3 l-24.2,4.4l-9.9,7.6v30.4v0.8l3.1,0.4l1.2,2.5l2.6-0.7l1.7-2l2,0.7l4.3,3.3l1.7-0.7l1.2,2.6l4,1.8v2.1l3,1.2l2.9-1.2l5.6-0.7 l1.4,1.2l2.6-1.2l1.4,2.3l-3.3,2.1v3.2l1.2,1.2l0.9-0.2l0.7-1.8l2-1.4l2,1.7l4.8,1.7h2v-2.3l3,2l0.2,1.8l-1.2,1.8l2.5-1.4l2-0.9 l0.9,1.7v1.7l3.3-1.8h5.4l2,2.3l1.7,0.6l0,0l1.8-0.9h2.5l1.2,1.3l0,0l3-1.8l2.6,1.7l3.6-2.5h1.7l1.8,1.7l3.6-2.6h1.4l1.4,1.2 l5,0.5l0.5,2l2.5-2.1h1.4l0.9,2.9l4.3,1.2L398.3,132.4L398.3,132.4z" />
 		<path id="champagne-ardennes" data-region="Champagne-Ardenne" fill="none" d="M478.3,264.9l-2-1.8l-2.4,1.1v-4.8l-6.3-3l1.4-6.2l2-1.4l-0.7-2l-3-0.5l-0.7-3h-2.6 l-3.2-4.3l-3.6-0.2l-1.5-2.1l1.8-1.8l-4.6-5.3l-2-0.7l-5.4-2.6l-2.9-3.1l-4.8-0.7l0.2-4.1l0,0l0,0l0,0l0,0l-0.2-3.5l-4.3-3.3 l-0.5-1.8l1.7-2.6l-1.4-1.2l1.4-3.3l2.5-1.2l1.8-5.6l-3.6,0.2l2-2.1l-1.7-5l-1.5-3.3l1.5-1.9l0,0l-0.7-2.3l2.6-1.9l1.4-1.4 l-0.9-2.1l-0.2-1.7l2.5-2l0.9-4.5l-2.3-4l0,0l3.2-4.8l0,0l3.7,0.5l1.7,1.5l2-1.4l1.5-2.3l-1.3-0.4l-0.9-4.5l-1.8-1.4l-6.3-0.7 l-1.2-2.9l-2-1.4l-7.1-0.9l-0.5-5.2l0.9-0.9v-2l-3.6-2.3l0.7-2.5l0.9-2.1l-1.7-1.4l2.5-2.1v-4.1l-0.9-0.7l-4.2-0.2l-2.3,3.3l-2,2 v2v2.6l-2.6,1.8l-5,1.7l-2.6,1.2l-3.2-2.5h-4.5l-0.6,4l2,3.8l-2,1.8l-0.2,3.3l1.2,1.8l-0.9,2.6l-3.3,1.8v2.9l-4.3,0.9l-0.7,1.8 l3,1.7l-0.9,3.1l-0.7,2.6v6v1.8l-1.7,0.5l-3.7-2.7l-2.6,1.2l0.5,2.1h-4.8l-4.3,3.2v6.2l3.1,2l0.9,2l-5.2,0.5l-0.7,2l2,1.4 l-0.9,1.4l-2,0.9l0.5,1.5h2.9l1.2,1.7l-2,1.4l-1.8,4.8l-3.3,1.7l-1.5,2.9l0,0l-0.5,2l-1.8,1.2l-0.5,3.1l1.8,1.2l0.9,3.3l-1.2,2 l0.7,1.7l3.4,0.7l0,0l0,0l0,0l-3.1,2l-0.2,2.6l-1.7,2l-0.9,4.5l-0.5,4.1l0,0l3.2,0.8l5.8,6.1l-0.7,6.1l4.1,3l2.3-1.7l3.6,4.3 l0.5,4l2.5,3.3l1.2,2.5l8.9,0.5l4.5-2.3l1.4,2.5l1.7,0.2l1.4-2.3l0,0h7.7l2.9-1.7l0.5-3l0,0l6.8,0.1l3.2,1.9l4,4.3l5.2,7.1 l-2.9,3.1l2,1.4l0.2,3.8l3.6-0.2l0.9,1.8l2.6,0.2l2-1.2l3.6,4.5l0.5,1.2l5-1.2l1-2.2l0.1-2.1l3.1-1.4l3.6,1.4l3.3-1.4h2l0.7-4.5 l1.2-1.4l-2-0.2l-0.2-2.6l3.1-0.7l0.2-1.8h3.2v-2.9l2.5-0.9l-0.5-1.9L478.3,264.9z" />
 		<path id="lorraine" data-region="Lorraine" fill="none" d="M550.1,187.7l-1.6-2.1l-4.5-2.6l-1.7-2.5l-5.4,0.5l-3.2,2.9l-7.6,0.2l-2.3-1.7 c-0.1-0.2-1.3-2.1-2.1-2.7c0,0-0.1,0-0.1-0.1h-0.1h-0.1h-0.1c-1.1,0-3.1-1.2-3.3-1.4l-3.2,1.4l-0.2,2.6l-3.8,0.5l-2.3-4.3 l-1.4-0.5v-3.1l-3.2-1.4l-0.2-5.4l-2.3-2.1l-4.8-2.3h-2.1l-0.7,0.5h-2.3l-3-2.6l-3.3,0.2l-2.6,2.3l-0.7,1.2h-3.8l-1.8-1.8 l-3.2-0.4l-4-4.5h-5.3l-0.1,0.6l-2.6,2.5l-3.8,0.2l-1.6,1.5l-1.4,0.4l-0.9-4.3L451,157l0,0l-1.5,2.3l-2,1.4l-1.7-1.5l-3.7-0.5l0,0 l-3.2,4.8l2.3,4l-0.9,4.5l-2.5,2l0.2,1.7l0.9,2.1l-1.4,1.4l-2.6,1.9l0.7,2.3l0,0l-1.5,1.9l1.5,3.3l1.7,5l-2,2.1l3.6-0.2l-1.8,5.6 l-2.5,1.2l-1.4,3.3l1.4,1.2l-1.7,2.6l0.5,1.8l4.3,3.3l0.2,3.5l-0.2,4.1l4.8,0.7l2.9,3.1l5.4,2.6l2,0.7l4.6,5.3l-1.8,1.8l1.5,2.1 l3.6,0.2l3.2,4.3h2.6l0.7,3l3,0.5l0.7,2l-2,1.4l-1.4,6.2l6.3,3v4.8l2.4-1.1l2,1.8l1.7-0.8l-0.9-1.4l1.2-0.7l1.5,1.8l2.3-1.7 l0.7-2.1l4.3-0.8l1.2,1.1l-0.2,2.5l2.9,2.1l1.8-0.2l2-1.7h4.8l3.3,3.8h1.2l1.8-1.3l0.2-1.4l1.8-0.9l2,1.4l2,2.3l7.2,3.9l2.7-2.6 l0.2-8.8l3.8-3.3l2.1-5.2l-0.7-3.3l2.6-5.4l2.5-5.5l-4.3-1.2l-0.9-6.1l0.6-4.4l0.7-1.7l5-3.6l1.4-4.8l-1.8-1.8l-0.2-1.7l2.6-5 l-6.2-3.6l-3.6,2.6l-2-1.4l0.9-2l-2.1-1.7l-3-1.4v-2.9l3-0.9l1.2-5.2l2-2.1l0.9,3.3l2.5,1.2l4.3,0.7l2.1,2.1h2.6l2.3-1.7l2.9,2 h1.7l1.8-1.7V191l1.9-3.5L550.1,187.7z" />
 		<path id="alsace" data-region="Alsace" fill="none" d="M576,192.2l-3.1-2.5l-5.6-0.7l-5-2.5l-3.3,2l-1.8-2l-2.4,0.1l0,0l0,0l-4.2,1.2l-1.9,3.5v3.3 l-1.8,1.7h-1.7l-2.9-2l-2.3,1.7h-2.6l-2.1-2.1l-4.3-0.7l-2.5-1.2l-0.9-3.3l-2,2.1l-1.2,5.2l-3,0.9v2.9l3,1.4l2.1,1.7l-0.9,2l2,1.4 l3.6-2.6l6.2,3.6l-2.6,5l0.2,1.7l1.8,1.8l-1.4,4.8l-5,3.6l-0.7,1.7l-0.6,4.4l0.9,6.1l4.3,1.2l-2.5,5.5l-2.6,5.4l0.7,3.3l-2.1,5.2 l-3.8,3.3l-0.2,8.8l-2.7,2.6l0,0l0.9,1.7l3.6,0.2l4,3.2l0.7,1.5l-0.2,2.6l-1.2,2l0.5,2.6l3.2-0.5l0.6,2.5l1.3,4.9l2.8-0.5 l-0.5,2.4l1.7,1.4l8.3-0.2l4.3-3.3l0.2-5l2.3-2.9l-3-3.3l-1.5-3.6l1.8-2.4v-5.6l1.2-2.6v-4.5l2-2.9l-2.1-3.1l-0.2-6.4l-1-0.5l0,0 l5.8-11.8l-0.7-6.5l2.6-8.8l0.7-7.7l5.8-4.3v-2.6l2.3-3h1.8l2-2l-0.5-3.8l2-5.4L576,192.2z" />
 		<path id="franche-comte" data-region="Franche-Comté" fill="none" d="M525.5,299.7l-0.2-0.9l4.8-5.5l0,0l0.9-1l3.5-0.4l-1.8-7.4l-3.2,0.5l-0.5-2.6l1.2-2 l0.2-2.6l-0.7-1.5l-4-3.2l-3.6-0.2l-0.9-1.7l0,0l-7.2-3.9l-2-2.3l-2-1.4l-1.8,0.9l-0.2,1.4l-1.8,1.3h-1.2l-3.3-3.8h-4.8l-2,1.7 l-1.8,0.2l-2.9-2.1l0.2-2.5l-1.2-1.1l-4.3,0.8l-0.7,2.1l-2.3,1.7l-1.5-1.8l-1.2,0.7l0.9,1.4l-1.7,0.8l-0.7,0.4l0.7,1.8l-2.5,0.9 v2.9h-3.2l-0.2,1.8l-3.1,0.7l0.2,2.6l2,0.2l-1.2,1.4l-0.7,4.5h-2l-3.3,1.4l-3.6-1.4l-3.1,1.4l-0.1,2.1l2.6,0.4l1.8,3.6l0.2,1.8 l-2.9,3.3l-1.4,0.5l-0.9,1.2l2.5,1.2l0.5,3.6l2,0.2l0.2,4.5l1.1,1.7l0,0l-0.9,0.6l-0.5,3.6l-0.7,2.5l0.5,1.7l-1.4,1.8l-1.4,1.8 v1.8l-3.8,1.8l-1.2,1.8l0.5,1.4l0.2,1.2l-1.5,0.9l-0.2,2.4l1.8,0.2l2,3.3h2.5l1.4,1.7h1.7L462,338l-5.2,0.7l0.5,1.8l1.8,1.2v2.1 l-0.7,0.7l1.4,1.8l2,3.6l-0.9,3.8l-2.3,1.7l0.2,3.1l2.6,0.9l0.9,1.4l-2.4,1.8l-4,1.8l5.2,6.7l2.9,1.4v3.2l3.3-0.5l4.3-4.8l3.6,1.8 v2.6h6.5l9.3-10.2l0.5-4.8l3.3-4l-2.3-0.9l0.4-1.9l0,0l14.1-13.5l-0.5-10.8l5-2.4l3.3-1.7l3.1-2.9l0.2-4.3l3.1-1.7l7.1-8.3 l-1.2-2.6l2.5-1.2l2.9-3.6l-1.7-1.7L525.5,299.7z"/>
 		<path id="ile-de-france-full"  data-region="Ile-de-France" fill="none" d="M374.6,223.5L374.6,223.5l-3.4-0.7l-0.7-1.7l1.2-2l-0.9-3.3l-1.8-1.2l0.5-3.1 l1.8-1.2l0.5-2l-3.8-0.7l-1.2-2.6l-2-0.7l-6-5.8l-0.7-5l-2.5-1.9l0,0l0,0l-1.7,0.3l-2.1,1.8l-2.1-0.7l-3.8,1.7l-3.1-1.8l-1.4,1.8 l-2,0.2l-1.4-1.2l-2.1-1.4l-2.6,1.8l-1.7-1.7l-5-2.9l-4.8-2.5l-2.4,1.2l-2.6,0.7l-1.8-1.4l-3.6-2.1l-2.9,2.1l-4.3,0.5l-6.1-0.5 l-1.4-2.1l-1-1.8l-1.8,2.1l-1.4,5l-1.6,2.6l-6.4,1.8l-0.9,1.2l1.2,1.8v1.8l2,0.5l-1.2,1.2l0.2,0.9l1.8,2.2l0.7,2.6l1.8,1.8 l-0.9,2.5v2.2l1.7,1.8l-1.7,2.6l1.7,3.8l3.1,2.1l0.5,2.5l2.6,0.5l0.7,5l2,2.5l4.5,0.7l1,3.3l0,0l1,6.4l7.1-0.9l2.9-2.6l2.9,1.6 l6.3,1l2.1,2.8l2.6,1.4l0.2,3.8l-3.6,2.5l2,1.8l2.5-1.7l6.1,0.2l2.1-0.5l0.7-1.8l2.5,0.2l0.5,1.8l5.5-3.2l1.7-2.1l2.6-3.2l-1.8-2 l1.7-3.3l4-2l8.8,0.5l2.3-1.2l0.5-4.1l0.9-4.5l1.7-2l0.2-2.6L374.6,223.5L374.6,223.5L374.6,223.5z"/>
 	</g>
</g>
</svg>
