<?xml version="1.0" encoding="utf-8"?>
<!-- Generator: Adobe Illustrator 18.0.0, SVG Export Plug-In . SVG Version: 6.00 Build 0)  -->
<!DOCTYPE svg PUBLIC "-//W3C//DTD SVG 1.1//EN" "http://www.w3.org/Graphics/SVG/1.1/DTD/svg11.dtd">
<svg version="1.1" xmlns="http://www.w3.org/2000/svg" xmlns:xlink="http://www.w3.org/1999/xlink" x="0px" y="0px"
	 viewBox="0 0 612 792" enable-background="new 0 0 612 792" xml:space="preserve">
<g id="map">
	<title>Carte de France</title>
	<g id="regions">
		<path id="corse" data-region="Corse" fill="none" d="M580.2,605l-2.2-4.4l-0.7-13.9L575,584l-3-2.2l-0.5-8.5l1.4-3.9l-1.9-6.3l-1.2-5.1l-0.9-1.4 l-1.7-1.9l-3.4,2.4l0.5,2.2l1.9,2.4l-2.1,1.5l0.9,1.9l-1.4,1.7v2.1l2.4,2.1v3.2l-1.4,3l-1.5,0.7l-1.9-2.6l-3.3,0.2l-0.7-0.5h-2.8 l-2.5,2.4l-0.9,3.9l-6,1.2l-4.6,3.9l-0.9,2.6l-2.2-0.2l-1.2-1.4l-0.7,3.9l-1.7,0.7l-0.5,3.7l0.7,1.7l-2.6,1.9l-0.6,1.7l-0.6-0.1 h-2.2v0.1h0.6v2.6l2.4,1.7l3.9,2.2l0.2,1.9l-2.4,0.7l-3.7,0.7v1.5l1.4,1.4l0.2,4.6l5.1,1.7l1.9,0.5l1.7,2.6l-1.2,1.7l-1.9,0.7 l-1.4,2.6l-1.4,1.7l0.7,4.1l3.4-0.2l0.9,0.7l3.3-1.7l0.9,0.9l-1.7,3.4l1.7,1.7l-2.7,2.1l-1.9,4.1l5.1,1.2l7.2,0.7l-3,3.4 c0,0-1.4-0.6-2-0.2c0,0,0,0-0.1,0v0.1c0,0,0,0,0,0.1c0,0,0,0,0,0.1c0,1.2-1.5,3.9-1.5,3.9l2.2,2.5l4.1,2.6l7.8,2.1l2.2,0.9 l2.1,0.9l-1.4,2.6l3.7-0.2l0.7,1.7h3.7l0.9-4.4l-2.4-0.5l3.3-3.4l-1.2-1.2l0.2-2.1l4.1-2.2l0.2-2.6l-2.7-0.2l-1.9,1.5V650l3.7-0.2 l1.2-2.7l0.9-8.1l-0.7-3.4l-0.1-2.7l0.5-0.3l-0.1-6.9l5.6-7.8L580.2,605L580.2,605z"/>
		<path id="provence-alpes-cote-d-azure" data-region="Provence-Alpes-Côte d'Azur" fill="none" d="M557.1,534l0.2-5.3l4.6,0.9l1.7-2.1l2.4,0.5l0.2-7.2l5.3-0.5l4.6-4.1 h4.1l0.2-2.6l4.1-2.5l-2.4-5.3l3.4-3l-0.7-3.4l5.1-1.7l1.4-5.1l-0.7-3.4l-1.2-2.1l-0.9-3.1l-3.4,0.2l-10.9,3.9h-3.4l-6-4.9l-6-1.7 h-3.4v-4.1l-4.9-3.2l-0.5,0.2l-2.5,1.3v-0.4l3.2-1.7l0.5-0.2v-4.5l3.3-0.5l-1.9-1.7l-2.4-0.7l-1.2-3l0.9-2.1l4.1-4.4l-0.6-2.7 l2-2.3l2.5,0.2v-2.1l-3.2-1.7l-0.7-6.7l-2.6-0.9l-3.2,0.5l-6-3.1l-0.9-6.9l-3.4-1.2l-1.2-2.4l-1.6-3.4l-4.2-0.2l-2.1,0.9l-0.5,3.4 l-4.1,0.5l-0.7-3.3l-1.4-1.4l-4.1,0.6l-1.6,1.5l-0.9,4.9l0.7,1.2l4.9,0.5l0.9,3l1.9,0.9v5.1l-4.4-0.2l-1.9,2.1l-5.3-0.9l-3,2.6 l-2.1-0.9l-3,2.4l1.2,2.1l-1.9,1.9h-5.8v2.7l1.9,0.9l-0.4,1.4l-4,1.7l-4.9,0.5l-1.4,4.4l-0.2,2.7l2.6,2.1l-2.6,3l-3.3-1.8 l-3.7-0.2l-0.5,2.1l2.4,1.7l-2.8,1.9l0.9,3.9l7.8,2.1l1.4,3l2.2,0.5l-0.7,6.6l-0.1,1.6l-1.4-1.7l-1.9-1.7l-1.2,3.4l-2.7,1.8l0,0 l0,0l-2.1,0.2l-3.4-2.6l-0.9-3l-6.5-0.5l-4.9-0.5l-0.5-2.7l1.7-3.4l-3,2.6l-4.6-0.5l-0.9-1.7l3.2-4.4l-3.5-3.1l-3.3,0.2l-2.5,3.9 l0.7,4.1l3.9,0.5l-0.7,1.9l-3.1,0.2l-3.4,3.4l-0.9-1.2l0.7-4.6l-1.4-1.7l-3.4,0.7l-2.9,0.3l-0.9,2.6l0,0l4.3,6.6v5.2l6.6,7.2v3 l-9.1,5.2l-1.7,12.4l-6.9-0.9l-2,5.2l1.7,2.2l-7.5,4.6l-2.1,4.9l7.5,0.4l9.7,0.7l1.9,1.9h-3.4l-2.2,3.9l9.9,2.1l7.9-1.4l-4.1-3.9 l2.7-2.2l4.4,1.9l2.1,4.4l13.3,0.2l3.4-1.4l0.7,2.1l-3.7,3.2l5.1,0.2l-0.9,2.4l-1.4,1.7h11.4l5.6,1.9l0.2,0.2v0.3l0.6,0.8l4.1,1.9 l1.2,4.6l2.6,0.5l2.4-1.7l4.1-2.6l7.2,0.7l-0.2,1.9l-2.4,1.2l5.6,0.2l-1.4-1.4l-0.5-3l3-2.1l3.4,1.2l1.4,0.5l1.2,1.4l1.7-1.2 l0.5-3.1l1.9-1.5h4.9l1.4-2.1l3.2,0.9l3.7-1.5v-6l-4.9,0.2l3.7-2.2l1.9-2.6l0.5-3.7l6.7-0.9l3.8-4.1L557.1,534z" />
 		<path id="languedoc-roussillon" data-region="Languedoc-Roussillon" fill="none" d="M379,493.9v3.3l-2.6,0.6l0.7,2.6l3.3,0.7h3.6l0.9,4.5l-4.3,2v3.3l-3.9,0.6l-2,1.7 l0.6,3.9h-3.6l-3.6-2h-2v2.2l0.4,6.9l-3.4-0.1l-2.3-0.1l-0.8,1.6l-8.5,3l-3.3-2.2l-2,3l-0.9,3.3l3.6,3.3l-1.3,4.3l-5.2,1.7h-6.9 l-7.2-1.3h-2l-0.4,4.3l-4.3-1.3l-5.2-1.1l0,0l0,0l-6.4,2l-1.7-3l-3.3,3l0.9,2.2l-3.7,1.7l-0.6,3.6l-2.7,1.4l2.4,2.8l-0.7,2 L312,564l0.9,7.9v4.3l0.7,5.6h-5.9L306,584l7.5,6.2l4.3-2.2l4.8,6.2l-7.7,0.3l-0.9,2l-3.9,0.9l-2.6,2.2l-7.2,1.7l0.4,2.5l3.4,3.3 l6.9,1.9l0.2,4.1l3.7,3.3l2.7-0.5l3.9-4.9l4.9-0.9l7.6,2.6l6.5,5.6l1.9-2.4h1.7l1.7,1.2l1.4-0.7l0.2-3.3l7-1.7l2.2-3l3.4-1.2h4.9 l3.1,3.2l3.7,0.2v-3.7l-1.9-2.6l-3.3-1.4l-0.5-20.2l-0.6-0.3l-0.2-5.6l0.2-7.6l-2.7,0.2l-2.4-3.4l1.9-3.1l3.9,3.7l3.4-2.7l2.4-2.2 l0.2-2.5l1-0.3l0.1-1.3l8.3-2.6l0.9-2.1l6.5-0.2l2.1-2.6l12.6-9.9l7.8-5.6l2.5,0.2l0,0l3.6,0.2v4.6l5.3-0.2l2.8,0.1l2.1-4.9 l7.5-4.6l-1.7-2.2l2-5.2l6.9,0.9l1.7-12.4l9.1-5.2v-3l-6.6-7.2v-5.2l-4.3-6.6l-8-4.1l-0.6,3.6l-3.3,0.4l-0.9-3.6l-3.3,0.6 l-0.6,4.6l-2.6-0.9l-5.6-3.7l-2.6,1.3v-6.5l-4-2.8l0,0l0,0l0-5.3l-3.9-4.3l-2.1-8.8l-5.3-7l-4.3,1.1l-0.9-3.2h-2.4l-0.5,2.7 l-6,1.9l-4.3-10.8l-6.5,2.4l-1.9,4.1l-4.1-2.7l-3.3,10.2l-3.5,8.2l4.9,6l-0.4,4.6l3.3,2.2v5.6l0.9,7.8l3.9,1.7l-0.4,2.6l5.6-0.9 l2,0.9L379,493.9z" />
 		<path id="auvergne" data-region="Auvergne" fill="none" d="M431.9,425.6l1.3-5.6l-2.9-3.4l-3.7,0.2l0.5-4.4l-7.3-3.2l-2.5,0.2l-5.1,4.1l-6.7-1.9l-0.7-2.7 l4.4-4.1l-2.1-7.6l-6-3.9l-2.5-6l-2.7-3.7l0.7-5.1l2.1-2.1l-3.7-3l0-2.3l5.6-0.2l-0.5-13.1l-1.7-3.2l0.7-2.6l3.9-0.9l0,0l4.8-3.8 l0.2-9l-1.7-2.2h-3.4l-1.4-1.9h-3.9l-1.2-1.4v-3.4l-4.6-8.6l-2.2-1.8l-4.4,6l-1.9,0.5l-0.7-3l-2.1-0.9l-0.9,1.9h-3.4l-0.5-2.1 l-2.4,1.4l-2.6,1.2l-2.7-3.1l-4-1.9l-0.2-2.8l-5.5-0.6l-3.2,4l-1.9,0.2l-2.1,2.1l-2.4-2.6l-6.2,6.3v3.7l1.2,0.9l0.2,1.9l-3.2,2.5 l-3.1-0.9l-5.8,1.2l-3,3.4l-1,2.4l0,0l2.8,3.9v2.7l1.4,1.7l1.7-2.1l1.9,3.3l2.6,0.9l2.7,6.4l0.2,2l0,0l0.4,5.2l1.9,2.2l0.9,4.4 l-2.7,2.1l-0.7,3.3l-2.6,1.4l-4.4,2.6l0.5,2.1l5.4,5.4l0.5,3.3l-2.1,3.4v3.3l1.4,1.7l0.7,3.9l-0.5,1.4l0,0l-0.8,2.6l1.2,2.7 l-1.4,1.7h-2.2l-2.4-2.6l-2.1-1.2l-0.2,6.5l-4.1,2.6l-3,4.1l0.7,4.1l-0.9,1.9l-1.2,3.7h-1.9l-1.9,2.2l1.4,1.4l0.9,2.2l-2.9,2.2 l1.2,7.9l3.9,3l-3,6.9l3,1.3l-1.3,3.9l1.9,0.2l-0.1,0.3l0.7,0.1l2-3.3h3.3l0.6,0.9h7.2l1.3-3l1.7-0.7l0.7-5.2h1.7v-5.6l6.5-5.6 l0.6,1.6l0.6,4.3l4.6-0.7l0.9,6.5h2.2l0.7,6.5l2,2.5l3.5-8.2l3.3-10.2l4.1,2.7l1.9-4.1l6.5-2.4l4.3,10.8l6-1.9l0.5-2.7h2.4 l0.9,3.2l4.3-1.1l5.3,7l3.2-5.4l6-4.4h5.6l1.9-5.8l3.7-0.2l0.2-4.4h3.4l-0.7-1.7l-0.9-3l1.4-2.4L431.9,425.6z" />
 		<path id="midi-pyrenees" data-region="Midi-Pyrénées" fill="none" d="M258.2,584.8l7.1,1.4h3.1l3.9,5.1l9.9-0.5l3.9,6.3l3.4-1.4l10.2,1.4l0.6,4.2l7.2-1.7 l2.6-2.2l3.9-0.9l0.9-2l7.7-0.3l-4.8-6.2l-4.3,2.2L306,584l1.7-2.2h5.9l-0.7-5.6v-4.3L312,564l-11.5-5.6l0.7-2l-2.4-2.8l2.7-1.4 l0.6-3.6l3.7-1.7l-0.9-2.2l3.3-3l1.7,3l6.4-2l0,0l5.2,1.1l4.3,1.3l0.4-4.3h2l7.2,1.3h6.9l5.2-1.7l1.3-4.3l-3.6-3.3l0.9-3.3l2-3 l3.3,2.2l8.5-3l0.8-1.6l2.3,0.1l3.4,0.1l-0.4-6.9v-2.2h2l3.6,2h3.6l-0.6-3.9l2-1.7l3.9-0.6v-3.3l4.3-2l-0.9-4.5h-3.6l-3.3-0.7 l-0.7-2.6l2.6-0.6v-3.3l2.6-2.2l-2-0.9l-5.6,0.9l0.4-2.6l-3.9-1.7l-0.9-7.8V474l-3.3-2.2l0.4-4.6l-6.9-8.5l-0.7-6.5h-2.2l-0.9-6.5 l-4.6,0.7l-0.6-4.3l-0.6-1.6l-6.5,5.6v5.6H342l-0.7,5.2l-1.7,0.7l-1.3,3h-7.2l-0.6-0.9h-3.3l-2,3.3l-0.7-0.1l0.1-0.3l-1.9-0.2 l1.3-3.9l-3-1.3l3-6.9l-3.9-3l-1.3-8.6l-3.7-0.8l-2.6,2.6l-1.3-2.2l-3.9,3.9l-2.6,0.4l-4.5-6.5l-5.8-2.9l-5,2.2l-0.7,0.2l0,0 l-1.5,1.5v2.6l2.1,2.2l-2.1,3.7l-1.9,1.2l-0.2,2.2l-3.9,0.5l0.2,2.5l1.4,0.5l-3.3,4.6l-5.1,0.5l-0.2,3.4l-2.1,2.1l-1.2,3.1 l-4.6,0.2l1.9,6.9l1.8,4.4l0,0l0,0l-5,1.5l-3-1.7l-1.7,5.3l2.6,2.7l-1.2,4.4l-1.4,1.7l0.9,2.7l-4.4,0.9l-3.4,0.9l0.9,3.2l-1.8,0.5 l0,0l0,0l-1.7,1.3l-3.4-3.2l-6.9,0.7l-1.9,3.3l-4.1,0.5l-3.9,0.7l-1.7-2.2l-3.7,3.7l-2.7-2.4l-1.8,3.6l0.2,3l-2.6,0.7l-1.2-1.7 l-1.2-3.4l-3.3,2.7l-2.2-0.9l-2.6,0.5l-2.2,2.7l2.7,4.6l-1.9,1.9l0.7,3.9l-2.2,3l-1.7,4.4l2,3l0,0l0,0l6.4,0.7l4.2,6.7l-2.6,2.4 l4.6,6.8l-2.2,3l-3.7,8.3l-6.3,5.3l1.7,3.3l-1.4,0.9l-3.4-0.7l-0.9,7.6l-1.9,1.4l-0.3,4.3l4.1,1.9l4.6,3.4l0.5,2.7l3.7,3h3.1 l7.6-3.3l3.2,3.7l4.4,1.2l1.7-2.7l2.1,0.9l4.5,0.3l0,0l9.4,0.9l0.5-11.4l3.2,0.5L258.2,584.8z" />
 		<path id="aquitaine" data-region="Aquitaine" fill="none" d="M287.2,439.7v-2.6l1.5-1.5l-2-3l0.2-5.1l-5.1,0.2l-2.1-1.4l1.9-2.2L279,422l1.9-2.4l-1.9-0.9 v-3.2l4.6-4.1l-2.6-2.1l-1.2-3.2l-5.1-0.9l-1.7-1.2l3.4-1.7l-1.2-1.5l-5.1-0.7l-1.2-4.6l-7.3-0.7l-1.7,2.4l-1.5,0.5l-2.1-2.7 l0.9-2.6l-1.2-2.2l-6.4-0.6l-2.1,3.7l-3.3,0.5l-0.2,5.6l-10.9,7.3l-0.2,8.1l-4.1,4.1l-2.2,2.1l-4.6-0.5l-0.7,1.1l-1.8,3.3 l-0.7,1.5l0,0l-1.1,2.5l-2.2-1.7l-3.3,1.7l-2.7-0.5l-5.3-5.3l-3.3-0.2l-0.9-7.3l-6-0.7l-0.2-3.4l-1.2,1.2l-6.9,0l0.4,1.5l1.7,6.7 l0.5,6.7l-1.2,1.9l-1.2-5.6l-3.3-12.7l-11.8-10.7l0.2-4.9l-2.5-0.4l-3.7,5.6l-1.2,19.4l-3,19.7l-2.1,15.3l-0.2,3.9l1.7-5.3 l3.2-4.1l4.6,4.1l0.5,1.4l1.4,1.9l-5.8,0.2l-0.9-1.4l-2.2,0.9l-0.5,3.4l-2.6,3.4v5.6l-4.1,22l-5.3,20.4l-1.7,7.9l-1.4,5.6 l-3.3,5.9l-0.8,1.5l-5.3,6.5l-4.1,1.7l-3,0.5v2.6l2.7,2.6l4.1,0.2l0.2,3l3.3,0.2l0.9-2.1l4.4,1.9l2.7,0.7l0.7,2.7l-1.5,1.4v4.4 l-3.3,1.7l-0.2,2.1l2.1,2.4l3.7,1.2l0.7-3.4l2.1-2.2l-0.2,3l1.7,2.4h4.1l1.9,2.5l5.6,0.9l5.3,3.3h8.8l0.5,4.9l6,4.6l2.4,2.7 l2.6-1.4l2.2-0.5l1.2,1.2l2.1-1.2l4-2.8l0.3-4.3l1.9-1.4l0.9-7.6l3.4,0.7l1.4-0.9l-1.7-3.3l6.3-5.3l3.7-8.3l2.2-3l-2.7-4.2 l-1.9-2.6l2.6-2.4l-4.2-6.7l-6.4-0.7l0,0l0,0l-2-3l1.7-4.4l2.2-3l-0.7-3.9l1.9-1.9l-2.7-4.6l2.2-2.7l2.6-0.5l2.2,0.9l3.3-2.7 l1.2,3.4l1.2,1.7l2.6-0.7l-0.2-3l1.8-3.6l2.7,2.4l3.7-3.7l1.7,2.2l3.9-0.7l4.1-0.5l1.9-3.3l6.9-0.7l3.4,3.2l1.7-1.3l0,0l0,0 l1.8-0.5l-0.9-3.2l3.4-0.9l4.4-0.9l-0.9-2.7l1.4-1.7l1.2-4.4l-2.6-2.7l1.7-5.3l3,1.7l5-1.5l0,0l0,0l-1.8-4.4l-1.9-6.9l4.6-0.2 l1.2-3.1l2.1-2.1l0.2-3.4l5.1-0.5l3.3-4.6l-1.4-0.5l-0.2-2.5l3.9-0.5l0.2-2.2l1.9-1.2l2.1-3.7L287.2,439.7z" />
 		<path id="rhone-alpes" data-region="Rhône-Alpes" fill="none" d="M433.2,420l-1.3,5.6l-3.3,1.4l-1.4,2.4l0.9,3l0.7,1.7h-3.4l-0.2,4.4l-3.7,0.2l-1.9,5.8H414 l-6,4.4l-3.2,5.4l2.1,8.8l3.9,4.3l0,5.3l0,0l0,0l4,2.8v6.5l2.6-1.3l5.6,3.7l2.6,0.9l0.6-4.6l3.3-0.6l0.9,3.6l3.3-0.4l0.6-3.6 l8,4.1l0.9-2.6l2.9-0.3l3.4-0.7l1.4,1.7l-0.7,4.6l0.9,1.2l3.4-3.4l3.1-0.2l0.7-1.9l-3.9-0.5l-0.7-4.1l2.5-3.9l3.3-0.2l3.5,3.1 l-3.2,4.4l0.9,1.7l4.6,0.5l3-2.6l-1.7,3.4l0.5,2.7l4.9,0.5l6.5,0.5l0.9,3l3.4,2.6l2.1-0.2l0,0l0,0l2.7-1.8l1.2-3.4l1.9,1.7 l1.4,1.7l0.1-1.6l0.7-6.6l-2.2-0.5l-1.4-3l-7.8-2.1l-0.9-3.9l2.8-1.9l-2.4-1.7l0.5-2.1l3.7,0.2l3.3,1.8l2.6-3l-2.6-2.1l0.2-2.7 l1.4-4.4l4.9-0.5l4-1.7l0.4-1.4l-1.9-0.9v-2.7h5.8l1.9-1.9l-1.2-2.1l3-2.4l2.1,0.9l3-2.6l5.3,0.9l1.9-2.1l4.4,0.2v-5.1l-1.9-0.9 l-0.9-3l-4.9-0.5l-0.7-1.2l0.9-4.9l1.6-1.5l4.1-0.6l1.4,1.4l0.7,3.3l4.1-0.5l0.5-3.4l2.1-0.9l4.2,0.2l0,0l6.7-2.9l2.6,1.7h2.6 l0.2-2.7l3-1.7l1.2-1.4l6-2.4l0.7-3.9l-1.2-1.9l3.3-5.6l-3-1.2l-0.9-3.3l-6.3-3.7c0,0,0.3-7.2-0.3-8.5l-4.4,0.5l-3.4-3.9l0.1-3.8 l-0.6-0.1l0.1-4l7.9-3.3l0.9-2.2l-0.5-5.1l-5.1-5.3L543,360v-2v-3.4l-4.4-2.1l-0.2-1.9l2.6-2.7v-3.2l-4.1-4.4l-0.2-3H529l-4.9,0.8 l-5.1,4.1l-1.4-2.1l-2.6,0.2l-2.4,5.1l0.2,2.1l2.5,2.1l-4.6,3.1l-3,2.7l-5.2,0.2l0,0l-2.3,0.2v-4.4l2.7-1.7l4.1-0.5l0.2-2.4 l-1.4-0.9l3.4-4.4l-0.5-1.4l-3.8-2l-9.6,10.5h-6.7v-2.7l-3.7-1.9l-4.4,4.9l-3.4,0.5v-3.3l-3-1.4l-5.3-6.9l-3.4-1.5l-1.4-3 l-2.4-0.5l-2.4,1.8l-1.9,0.5l-2.2-2.2l-2.6,0.2l-1.7,3l-4.4,17.1l-0.6,1.6l0,0l-0.7,1.6l-1.7-0.2l-0.9-4.6l-1.1-3.5l-2.5,0.2 l-2.1,2.1l-1.4-1.9l-2.1,1.9l-2.8-1.9l-2.2,0l-0.9,0.7l-0.5,2.9l0,0l-1,4.7h-2.6l-1.9,1.9l-1.4-1.4l-7.3-1.2l-2.7,1.7h-2l-0.5-1.7 l-3.4-0.7l-0.2-3.7l-0.9-0.4L399,352l-0.7,2.6l1.7,3.2l0.5,13.1l-5.6,0.2l0,2.3l3.7,3l-2.1,2.1l-0.7,5.1l2.7,3.7l2.5,6l6,3.9 l2.1,7.6l-4.4,4.1l0.7,2.7l6.7,1.9l5.1-4.1l2.5-0.2l7.3,3.2l-0.5,4.4l3.7-0.2L433.2,420z" />
 		<path id="limousin" data-region="Limousin" fill="none" d="M334.4,382.9l-0.5-2.1l4.4-2.6l2.6-1.4l0.7-3.3l2.7-2.1l-0.9-4.4l-1.9-2.2l-0.4-5.2l0,0l-0.2-2 l-2.7-6.4l-2.6-0.9l-1.9-3.3l-1.7,2.1l-1.4-1.7v-2.7l-2.8-3.9l0,0l-7.6,0.6l-4.4-1.2l-11.3-1l-1.4,3.7l-4.1-0.2l-0.9-0.5l-2.7,0.2 l-2.1-1.4l-4.5,5.1l0,0l0,0l-4-3.4l-2.1,2.1l-5.8-0.7L272,345l-2.6,2.1v2.7l-5.1,0.2l-3,3.4l-1.9,1.4l1.5,1.9l-0.7,3.9l0.3,2.3 l-1.2,2.1l1.9,2.1l3.2,0.2l0.7,3.2l0.2,2.1l-4.1,0.9l-2.1,0.7l0.5,5.8l-2.7,1.9l-2.4,0.7l-1.2,3.3l-1.9,0.2l-0.8,3.6l5.4,0.6 l1.2,2.2l-0.9,2.6l2.1,2.7l1.5-0.5l1.7-2.4l7.3,0.7l1.2,4.6l5.1,0.7l1.2,1.5l-3.4,1.7l1.7,1.2l5.1,0.9l1.2,3.2l2.6,2.1l-4.6,4.1 v3.2l1.9,0.9L279,422l2.6,2.1l-1.9,2.2l2.1,1.4l5.1-0.2l-0.2,5.1l2,3l0.7-0.2l5-2.2l5.8,2.9l4.5,6.5l2.6-0.4l3.9-3.9l1.3,2.2 l2.6-2.6l3.7,0.8l0.1,0.7l2.9-2.2l-0.9-2.2l-1.4-1.4l1.9-2.2h1.9l1.2-3.7l0.9-1.9l-0.7-4.1l3-4.1l4.1-2.6l0.2-6.5l2.1,1.2l2.4,2.6 h2.2l1.4-1.7l-1.2-2.7l0.8-2.6l0,0l0.5-1.4l-0.7-3.9l-1.4-1.7V395l2.1-3.4l-0.5-3.3L334.4,382.9z" />
 		<path id="poitou-charentes" data-region="Poitou-Charentes" fill="none" d="M218.7,296.2L218.7,296.2l-2-0.9l-0.2-1.7l-6.3,0.2l-5.8,1.2l-6.3,0.5v3.2l-3.2,2.1 l-7.2-1.7l-4.5,2l1.9,3.4v2.7l5.6,4.6l-1.4,3l3.7,4.1l-1.7,2.1l2.2,3.4l0.7,6.5l-1.4,1.9l1.7,2.7l-1.7,3.1l0.2,1.9l1.9-1.4 l2.2,2.4l-3.2,2.1l-1.2,1.4l-2.6,0.7l-2.9,1.3l-3.1-2.5l-4.4,1.9l-1.7-4l-3.3,0.2l-7.1,4.3l1.7,1.5l-3.7,3l-0.5,2.4l-3.4,0.5 l-1.9-2.1l-4.6-0.5l-0.5-2.4l-2.7-1.9l-3.9,1.4l2.6,3.7h3.2l3.3,2.1l2.6,2.1l4.9-0.2l0.9,2.1l3.2,0.7l1.2,3.2l2.1,0.9l-0.2,2.6 l-2.7-0.5l-0.9,1.4l2.1,3l-1.2,5.1l-2.7-0.2l0.2,3.2l0.7,1.2H164l-0.5-1.9l2.1-2.7l-0.7-1.5l-1.2-0.9l-0.5-5.6l-3.9-0.5l-3.2-3.9 l-0.5,8.1l5.3,3.9l0.5,4.4l0.9,5.1l0.5,5.1l2.7-0.2l4.9,3.9l3.3,1.9l0.2,2.2l2.6,0.5l7.3,7.3l1.8,8.3l6.9,0l1.2-1.2l0.2,3.4l6,0.7 l0.9,7.3l3.3,0.2l5.3,5.3l2.7,0.5l3.3-1.7l2.2,1.7l1.1-2.5l0,0l0.7-1.5l1.8-3.3l0.7-1.1l4.6,0.5l6.3-6.2l0.2-8.1l10.9-7.3l0.2-5.6 l3.3-0.5l2.1-3.7l1,0l0.8-3.6l1.9-0.2l1.2-3.3l2.4-0.7l2.7-1.9l-0.5-5.8l2.1-0.7l4.1-0.9l-0.2-2.1l-0.7-3.2l-3.2-0.2l-1.9-2.1 l1.2-2.1l-0.3-2.3l0.7-3.9l-1.5-1.9l1.9-1.4l3-3.4l5.1-0.2v-2.7l2.6-2.1l4.9-0.9l2.2-3.7l-2.5-1.4l-1.4-4.9l-3.7-0.5l-2.2-2.2 l-4.4-3.4l0.9-2.7l0-4.8l-4-3.7l-0.8-3.2l-3.9-4.1l-1.4-5.6l-1.7-0.7l-1.9-2.6l-1.9,1.2l0.5,2.6l-6,1.4h-6.9l0.2-2.7v-4.4 l-5.6-1.7V294l-4.4-0.9l-1-3.7l-1.9-0.1l0,0l0,0l-4.6,4.6L218.7,296.2L218.7,296.2z" />
 		<path id="pays-de-la-loire" data-region="Pays-de-la-Loire" fill="none" d="M224.8,207.7l-1.5-4.1l-3-1.2l-0.9-5.1l-2.1-1.8l-2.2,0.2l-0.9,2.2l-3.4,1.4l-6.3-0.9 l-6.3,3.7l-2.2-1.7l-3.4,2.4l-2.6-1.9l-1.6-2.5l-3.5-1.5l-2.4,1.9l-3.9-0.6l-0.2,6l1.2,0.9v4.6l-2.4,2.4v3.7l0.7,2.2v6.7l1.7,1.7 v6.3l-3.9-0.5l-1.7,0.9l-3,7.3l-1.5,4.7l0,0l0,0l-0.9,1.7l0,0l0,0l-4.4-1L162,243l-3.4-1l-0.2,2.6l-5.1,0.7l-2.4,2.2l-0.9,2.6 l-14.3,0.7l-4.7,2.4l-1.4,0.7l-0.2,6.5l-6.5,2.6l-4.4,2.2h-3.6l-1.4-1.5l-2.1,2.1l-1.1,0l0,0l1.5,1.1l-4.4,3.9l0.9,0.9l0.9,1.9 l-2.4,3.3l2.6,1.4l4.4,0.9l0.5-1.9l2.6,3.3h4l3-3.3h3.9l-4.1,2.1l0.2,2.4l0.9,2.1l-2.6,2.6h-2.7l0.5,3.4l5.1-0.9l5.9,5.8l0,0l0,0 l-7,8.9l-0.2,5.6l7.1,6.9l-0.2,2.1h2.1l4.4,13.3l4.6,2.2l4.6,4.6h5.3l2.1,4.6h5.1l2.2,3.4l5.1,2.6l0.2-3.3l1.2,1.2l7.1-4.3 l3.3-0.2l1.7,4l4.4-1.9l3.1,2.5l2.9-1.3l2.6-0.7l1.2-1.4l3.2-2.1l-2.2-2.4l-1.9,1.4l-0.2-1.9l1.7-3.1l-1.7-2.7l1.4-1.9l-0.7-6.5 l-2.2-3.4l1.7-2.1l-3.7-4.1l1.4-3l-5.6-4.6v-2.7l-1.9-3.4l4.5-2l7.2,1.7l3.2-2.1v-3.2l6.3-0.5l5.8-1.2l6.3-0.2l0.2,1.7l2,0.9l0,0 l0,0l1.8-2.3l4.6-4.6l0,0l0,0l1.9,0.1l2.5-9.5l3.7-4.4l-0.2-5.1l2.4-3.1v-1.4l-1.2-1.4l0.6-1.6l0,0l1.3-3l4.6,3.3h2.6l-1.4-4.6 l2.8,1.9l1.5-2.4l6.7-1.9l-0.4-1l-0.8-1.8l1.7-2.1l3.4-1.4l3.2-4.1v-4.4h2.4l0.9-3.2l0.2-4.9l-2.2-2.1l1.9-3.2l1.6-2.2l1.1-1.3 l-3.3-2.3l-2.9-0.3l-3.3-4.9h-0.9l-0.3,1.4l0,0l-5-0.8l-2.4-3.4l-3.8-1.6l-1.2-8.3l-1.9-2.5l-6.3,0.2l-6.3,5.8L224.8,207.7 L224.8,207.7z" />
 		<path id="bretagne" data-region="Bretagne" fill="none" d="M65.2,179.6l-4.1-1.9l-6.5,0.2v4.6h-1.9l-0.5-2.1l-2.7,0.5l-0.1-6l-2.5,2.7l-2.7-1.2l-5.1,0.5 l-0.9,2.2l-3,0.7l-0.5-2.6l-5.3,0.7v1.7l-3.7,0.2l-1.7-1.2l-1.9,0.9l-0.5,2.7l-6.3,0.4l-3.3,3.9l2.7,2.1l-3.7,3.1l1.2,2.1 l-0.9,5.1l3.7,0.5l1.4-1.4l0.7,0.9l8.8-1.2l5.8-4.1l-5.1,4.9l0.5,2.2l4.6-2.1l-0.9,3.3l5.1,0.2l-0.2,1.4l-5.6-0.2l-4.4-1.2 l-5.3-2.6l-3.2,3.7l4.1,1.4l-0.2,6.2l1.2-0.9l2.6-3.9l4.9,2.7l2.4,0.5l0.9,3.7l-1.4,2.5l-3-0.2H26l-4.6,0.7l-7.9,0.5l-1.8,2.2 l2.2,1.4l2.6-0.2l2.1,1.9l3-0.2l4.9,5.6l1.2,6l-1.7,3.3l4.9,0.9l5.3-0.2l1.2-2.1l-2.1-2.7l2.1,0.9l2.1-0.2l3.7,2.1l2.2-0.5v-3.9 l0.9,3.9l3,4.9l6.5,0.5l0.2-1.4l1.5,2.2l3.9,0.7l3.2-0.1l0,0l0,0l2.9,3.9l3.7,0.9l1.4-2.1l-0.7,2.5l3.2,1.4l4.1,4.1l1.4,2.6 l-0.5,3l-0.5,3.1l2.7,2.1l1.4-1.7l-1.4-1.9v-4.1l2.7,0.7l0.9-2.7l0.7,1.7l3,2.6l1.4-2.4l-1.4-3.2l2.6,3.4l3.2-0.5l-0.7-1.7l3,0.7 l2.2,2.7l-1.2,1.9l-3-0.9l-3.4-1.7l-1.9,2.4l2.7,0.9l2.1,3.2l12.6-1.2l3.2,0.7l-1.5,1.4l0.8,2.6l0,0l1.1,0l2.1-2.1l1.4,1.5h3.6 l4.4-2.2l6.5-2.6l0.2-6.5l1.4-0.7l4.7-2.4l14.3-0.7l0.9-2.6l2.4-2.2l5.1-0.7l0.2-2.6l3.4,1l2.1,2.7l4.4,1l0,0l0,0l0.9-1.7l0,0l0,0 l1.5-4.7l3-7.3l1.7-0.9l3.9,0.5v-6.3l-1.7-1.7v-6.7l-0.7-2.2V212l2.4-2.4V205l-1.2-0.9l0.2-6l-2-1.2h-2.7l-2.4-1.9l-2.5,3 l-2.1,0.2l-1.9,2.5l-1.9-0.5l-3.9-3.4l-1.4-4.4l-0.7-3l-11.5-0.1l-4.1-2.6l2.7-3.7l-5.4-0.1l-2.1,2.7l0,0l-1.3,1.9L131,187 l-0.5,2.6l-2.7,0.2l-0.2-3.2l-2.4-0.7l-1.7,1.9v-4.6l-2.7,2.1l-4.1-0.7l-1.4,2.7l-8.5,4.6v2.4H105v-4.1l-4.9-2.2l0.5-4.1l-4.4-3.2 v-3.9l-3.3-0.7l0.2-3.7l-2.5-0.2l0.2-2.6h-4.6l-0.7,2.2l-1.6-3.9l-2.1,1.7l-5.3,0.7l-1.2,1.7l-3.7-2.7l-4.9,3.3l1.9,2.5 L65.2,179.6L65.2,179.6z" />
 		<path id="basse-normandie" data-region="Basse-Normandie" fill="none" d="M269.1,198.8l-4.9-4.1l-0.5-4.1l-3.9-2.4l1.7-2.2l-0.9-3.4l-3.2-1.2l-2.4-2.4l-1.4-3.2 l-6.5-0.2l-1.9-2.4l0.7-3.5l0,0l0.6-2.3l-0.2-2.1l-2.4-0.9l-0.2-1.7l2.1-1.4l0.2-2.4l-1.4-5.6l-2.7-3.9l2.4-1.4v-0.9l-2.4-0.7 l-0.8-8.5l-5.4,0.9l-8.8,5.1l-9.9,3.9l-7.9-4.4l-18.9-2.7l-4.4-2.2l-6.8,2.1l0,0l-1.9,0.8l-0.2-5.6l-6-7.1l1.9-4.6h2.6l-2.2-6.3 l-9.9-0.5l-5.3,3.7l-6-3.9l-9.3-3.2l-0.9,2.4l4.9,3.9v5.1l-1.9,2.2l1.2,1.2l0.7,0.5l-0.5,4.4l1.7,3.7l5.3,6l1.2,5.3l1.2,1.7v8.3 l2.7,5.6v6.5l-3,6l3.2,8.3l5.1,1.2l0.5,2.4l-2.5,1.2l-4.6-0.3l0.7,3l1.4,4.4l3.9,3.4l1.9,0.5l1.9-2.5l2.1-0.2l2.5-3l2.4,1.9h2.7 l2,1.2l3.9,0.6l2.4-1.9l3.5,1.5l1.6,2.5l2.6,1.9l3.4-2.4l2.2,1.7l6.3-3.7l6.3,0.9l3.4-1.4l0.9-2.2l2.2-0.2l2.1,1.8l0.9,5.1l3,1.2 l1.5,4.1l0,0l3.6,0.3l6.3-5.8l6.3-0.2l1.9,2.5l1.2,8.3l3.8,1.6l2.4,3.4l5,0.8l0,0l0.3-1.4h0.9l3.3,4.9l2.9,0.3l-0.1-5.5l-1.5-2.1 l-0.5-1.9l3.4-2.1l3.4-0.7l2.2-2.7L269.1,198.8z" />
 		<path id="haute-normandie" data-region="Haute-Normandie" fill="none" d="M306.6,148.2l-0.6-5.2l-2.3-2.1l0.5-2.1l1.7-3.1l0.9-1.5h-2.4v-3.9l-1.4-2.2l0.9-4.6 l0.9-2.4h-1.8l0.9-2.2l2-2.3l-2-4.6l-0.7-4.1l-10.1-9.9l-1.2-2.2l-2.6,0.2l-1.7-1.1l-1.5,1.9l-9.9,7.6l-17.5,4.4l-11.6,4.1 l-9.5,5.1l-5.6,8.3l-1.2,6.5l4.6,3.4l6.7,1.4l-1,0.3l0.8,8.5l2.4,0.7v0.9l-2.4,1.4l2.7,3.9l1.4,5.6l-0.2,2.4l-2.1,1.4l0.2,1.7 l2.4,0.9l0.2,2.1l-0.6,2.3l0,0l-0.7,3.5l1.9,2.4l6.5,0.2l1.4,3.2l2.4,2.4l3.2,1.2l0.9,3.4l-1.7,2.2l3.9,2.4l2.6-3.7h3.2l8.4-4.4 l2.7,1.2h5.8l1.4-1.7v-3.4l4.6-2.2v-3.7l1.4-1.2l-0.2-0.9l1.2-1.2l-2.1-0.5V167l-1.2-1.9l0.9-1.2l6.6-1.9l1.6-2.7l1.4-5.1l1.8-2.2 l0.3-2.6l2.1,1.2l1.7-0.5L306.6,148.2z" />
 		<path id="centre" data-region="Centre" fill="none" d="M367.2,233.1l-3.1-3.2l-1.2-3.7l-4.1-3.9l-5.7,3.3l-0.5-1.9l-2.6-0.2l-0.7,1.9l-2.2,0.5l-6.3-0.2 l-2.6,1.7l-2.1-1.9l3.7-2.6l-0.2-3.9l-2.7-1.4l-2.2-2.9l-6.5-1l-3-1.6l-3,2.7l-7.3,0.9l-1-6.6l0,0l-1-3.4l-4.6-0.7l-2.1-2.6 l-0.7-5.1l-2.7-0.5l-0.5-2.6l-3.2-2.2l-1.7-3.9l1.7-2.7l-1.7-1.9V181l0.9-2.6l-1.9-1.9l-0.7-2.7l-1.9-2.3l-1.4,1.2v3.7l-4.6,2.2 v3.4l-1.4,1.7h-5.8l-2.7-1.2l-8.4,4.4h-3.2l-2.6,3.7l0.5,4.1l4.9,4.1l0.5,8.5l-2.2,2.7l-3.4,0.7l-3.4,2.1l0.5,1.9l1.5,2.1l0.1,5.5 l3.3,2.3l-1.1,1.3l-1.6,2.2l-1.9,3.2l2.2,2.1l-0.2,4.9l-0.9,3.2h-2.4v4.4l-3.2,4.1l-3.4,1.4l-1.7,2.1l0.8,1.8l0.4,1l-6.7,1.9 l-1.5,2.4l-2.8-1.9l1.4,4.6h-2.6l-4.6-3.3l-1.3,3l0,0l-0.6,1.6l1.2,1.4v1.4l-2.4,3.1l0.2,5.1l-3.7,4.4l-2.5,9.5l0,0l1,3.7l4.4,0.9 v2.9l5.6,1.7v4.4l-0.2,2.7h6.9l6-1.4l-0.5-2.6l1.9-1.2l1.9,2.6l1.7,0.7l1.4,5.6l3.9,4.1l0.8,3.2l4,3.7l0,4.8l-0.9,2.7l4.4,3.4 l2.2,2.2l3.7,0.5l1.4,4.9l2.5,1.4l-2.2,3.7l5.8,0.7l2.1-2.1l4,3.4l0,0l0,0l4.5-5.1l2.1,1.4l2.7-0.2l0.9,0.5l4.1,0.2l1.4-3.7 l11.3,1l4.4,1.2l7.6-0.6l1-2.4l3-3.4l5.8-1.2l3.1,0.9l3.2-2.5l-0.2-1.9l-1.2-0.9v-3.7l6.2-6.3l2.4,2.6l2.1-2.1l1.9-0.2l3.2-4 l5.5,0.6l1.8-5l-1.2-2.1l0.2-3l0.7-6l-2.6-2.5l0.5-5.6l-2.4-4.9l-0.2-3.2l-4.1-3.3l-0.7-2.7l2.1-3l0-4.4l-2.1-3l0,0l0,0l-0.4-2.6 l4-1.1l-0.1-2.9l-0.7-3.7l-3-4.1l-0.7-2.6h4.6l3.3-2.4l0.5-3.4l-2.1-2.4l6-5.1V233.1z" />
 		<path id="bourgogne" data-region="Bourgogne" fill="none" d="M475.4,308.8h-1.7l-1.4-1.7h-2.6l-2.1-3.4l-1.9-0.2l0.2-2.5l0,0l0,0l1.5-0.9l-0.2-1.2 l-0.5-1.4l1.2-1.9l3.9-1.9v-1.9l1.4-1.9l1.4-1.9l-0.5-1.7l0.7-2.6l0.5-3.7l0.9-0.6l0,0l-1.1-1.7l-0.2-4.6l-2.1-0.2l-0.5-3.7 l-2.6-1.2l0.9-1.2l1.4-0.5l3-3.4l-0.2-1.9l-1.9-3.7l-2.7-0.4l-1,2.3l-5.1,1.2l-0.5-1.2l-3.7-4.6l-2.1,1.2l-2.7-0.2l-0.9-1.9 l-3.7,0.2l-0.2-3.9l-2.1-1.4l3-3.2l-5.3-7.3l-4.1-4.4l-3.3-2l-7-0.1l0,0l-0.5,3.1l-3,1.7l-7.9,0l0,0l-1.4,2.4l-1.7-0.2l-1.4-2.6 l-4.6,2.4l-9.2-0.5l-1.2-2.6l-2.6-3.4l-0.5-4.1l-3.7-4.4l-2.4,1.7l-4.2-3.1l0.7-6.3l-6-6.3l-3.3-0.8l0,0l-2.4,1.2l-9-0.5l-4.1,2.1 l-1.7,3.4l1.9,2.1l-2.7,3.3l-1.7,2.2l4.1,3.9l1.2,3.7l3.1,3.2v4.1l-6,5.1l2.1,2.4l-0.5,3.4l-3.3,2.4h-4.6l0.7,2.6l3,4.1l0.7,3.7 l0.1,2.9l-4,1.1l0.4,2.6l0,0l0,0l2.1,3l0,4.4l-2.1,3l0.7,2.7l4.1,3.3l0.2,3.2l2.4,4.9l-0.5,5.6l2.6,2.5l-0.7,6l-0.2,3l1.2,2.1 l-1.8,5l0.2,2.8l4,1.9l2.7,3.1l2.6-1.2l2.4-1.4l0.5,2.1h3.4l0.9-1.9l2.1,0.9l0.7,3l1.9-0.5l4.4-6l2.2,1.8l4.6,8.6v3.4l1.2,1.4h3.9 l1.4,1.9h3.4l1.7,2.2l-0.2,9l-4.8,3.8l0,0l0.9,0.4l0.2,3.7l3.4,0.7l0.5,1.7h2l2.7-1.7l7.3,1.2l1.4,1.4l1.9-1.9h2.6l1-4.7l0,0 l0.5-2.9l0.9-0.7l2.2,0l2.8,1.9l2.1-1.9l1.4,1.9l2.1-2.1l2.5-0.2l1.1,3.5l0.9,4.6l1.7,0.2l0.7-1.6l0,0l0.6-1.6l4.4-17.1l1.7-3 l2.6-0.2l2.2,2.2l1.9-0.5l2.4-1.8l2.4,0.5l1.4,3l3.4,1.5l4.1-1.8l2.5-1.9l-0.9-1.4l-2.7-0.9l-0.2-3.2l2.4-1.7l0.9-3.9l-2.1-3.7 l-1.4-1.9l0.7-0.7v-2.2l-1.9-1.2l-0.5-1.9l5.3-0.7L475.4,308.8z" />
 		<path id="picardie" data-region="Picardie" fill="none" d="M413,110.5l2.1-1.9l-2.1-3.9l0.6-4.1l-4.2-1.3l-1.6,2.3l-4.4-1.2l-0.9-3h-1.4l-2.6,2.2 l-0.5-2.1L393,97l-1.4-1.2l-1.4,0l-3.7,2.7l-1.9-1.7h-1.7l-3.7,2.6l-2.7-1.7l-3.1,1.8l0,0l-1.2-1.3h-2.6l-1.8,0.9l0,0l-1.7-0.6 l-2.1-2.4l-5.6,0L355,98v-1.7l-0.9-1.7l-2.1,0.9l-2.6,1.4l1.2-1.9l-0.2-1.9l-3.1-2.1v2.4h-2.1l-4.9-1.7l-2.1-1.7l-2.1,1.4 l-0.7,1.9l-0.9,0.2l-1.2-1.2V89l3.4-2.2l-1.4-2.4l-2.7,1.2l-1.4-1.2l-5.8,0.7l-3,1.2l-3.1-1.2v-2.2l-4.1-1.9l-1.2-2.7l-1.7,0.7 l-4.4-3.4l-2.1-0.7l-1.7,2.1l-2.7,0.7l-1.2-2.6l-3.2-0.4l-0.6,7.6l5.1,4.6v2.4l-6.3-3.7l-7.5,9.2l1.7,1.1l2.6-0.2l1.2,2.2 l10.1,9.9l0.7,4.1l2,4.6l-2,2.3l-0.9,2.2h1.8l-0.9,2.4l-0.9,4.6l1.4,2.2v3.9h2.4l-0.9,1.5l-1.7,3.1l-0.5,2.1l2.3,2.1l0.6,5.2 l1.2,1.9l-1.7,0.5l-2.1-1.2l-0.3,2.6l1,1.9l1.4,2.2l6.3,0.5l4.4-0.5l3-2.2l3.7,2.2l1.9,1.4l2.7-0.7l2.5-1.2l4.9,2.6l5.1,3l1.7,1.7 l2.7-1.9l2.2,1.4l1.4,1.2l2.1-0.2l1.4-1.9l3.2,1.9l3.9-1.7l2.2,0.7l2.2-1.9l1.7-0.3l0,0l0,0l2.6,2l0.7,5.1l6.2,6l2.1,0.7l1.2,2.7 l3.9,0.7l0,0l1.5-3l3.4-1.7l1.9-4.9l2.1-1.4l-1.2-1.7h-3l-0.5-1.5l2.1-0.9l0.9-1.4l-2.1-1.4l0.7-2.1l5.3-0.5l-0.9-2.1l-3.2-2.1 v-6.4l4.4-3.3h4.9l-0.5-2.2l2.7-1.2l3.8,2.8l1.7-0.5l0-1.9l0-6.2l0.7-2.7l0.9-3.2l-3.1-1.7l0.7-1.9l4.4-0.9v-3l3.4-1.9l0.9-2.7 l-1.2-1.9L413,110.5z" />
 		<path id="nord-pas-de-calais" data-region="Nord-Pas-de-Calais" fill="none" d="M409.5,99.3l4.1-2.8l-0.7-4.4l-4.4-1.2l1.2-1.2v-3.2l3.4-2.6l-0.9-1.9l-7.3-5.8 L392,76.9l-1.4,2.2h-2l0.2-8.1l-3.7-4.4l-2.7,0.5l-1.7-1.9l-4.6,2.1l-1.5-1.5l-3.3-0.5l-0.9-3l-0.2-9.2l-2.1-0.9l-0.2-1.4h-1.4 l-0.5-2.7l-3,0.2l-5.8,1.9l-2.7,3.4h-2.7l-1.9-2.2l-0.7-2.6l-2.2-2.6h-3.3l-1.4-2.5v-3.9l1.5-2.5l-0.9-3.4l-3.3-7l-7.5,3.4 l-24.9,4.5L297,42.6v31.3v0.8l3.2,0.4l1.2,2.6l2.7-0.7l1.7-2.1l2.1,0.7l4.4,3.4l1.7-0.7l1.2,2.7l4.1,1.9v2.2l3.1,1.2l3-1.2 l5.8-0.7l1.4,1.2l2.7-1.2l1.4,2.4l-3.4,2.2v3.3l1.2,1.2l0.9-0.2l0.7-1.9l2.1-1.4l2.1,1.7l4.9,1.7h2.1V91l3.1,2.1l0.2,1.9l-1.2,1.9 l2.6-1.4l2.1-0.9l0.9,1.7V98l3.4-1.9l5.6,0l2.1,2.4l1.7,0.6l0,0l1.8-0.9h2.6l1.2,1.3l0,0l3.1-1.8l2.7,1.7l3.7-2.6h1.7l1.9,1.7 l3.7-2.7l1.4,0L393,97l5.1,0.5l0.5,2.1l2.6-2.2h1.4l0.9,3l4.4,1.2L409.5,99.3L409.5,99.3z" />
 		<path id="champagne-ardennes" data-region="Champagne-Ardenne" fill="none" d="M491.7,235.6l-2.1-1.9l-2.5,1.1v-4.9l-6.5-3.1l1.4-6.4l2.1-1.4l-0.7-2.1l-3.1-0.5 l-0.7-3.1h-2.7l-3.3-4.4l-3.7-0.2l-1.5-2.2l1.8-1.9l-4.7-5.5l-2.1-0.7l-5.6-2.7l-3-3.2l-4.9-0.7l0.2-4.2l0,0l0,0l0,0l0,0l-0.2-3.6 l-4.4-3.4l-0.5-1.9l1.7-2.7l-1.4-1.2l1.4-3.4l2.6-1.2l1.9-5.8l-3.7,0.2l2.1-2.2l-1.7-5.1l-1.5-3.4l1.5-2l0,0l-0.7-2.4l2.7-2 l1.4-1.4l-0.9-2.2l-0.2-1.7l2.6-2.1l0.9-4.6l-2.4-4.1l0,0l3.3-4.9l0,0l3.8,0.5l1.7,1.5l2.1-1.4l1.5-2.4l-1.3-0.4l-0.9-4.6 l-1.9-1.4l-6.5-0.7l-1.2-3l-2.1-1.4l-7.3-0.9l-0.5-5.3l0.9-0.9v-2.1l-3.7-2.4l0.7-2.6l0.9-2.2l-1.7-1.4l2.6-2.2V89l-0.9-0.7 l-4.3-0.2l-2.4,3.4l-2.1,2.1v2.1v2.7l-2.7,1.9l-5.1,1.7l-2.7,1.2l-3.3-2.6l-4.6,0l-0.6,4.1l2.1,3.9l-2.1,1.9l-0.2,3.4l1.2,1.9 l-0.9,2.7l-3.4,1.9v3l-4.4,0.9l-0.7,1.9l3.1,1.7l-0.9,3.2l-0.7,2.7l0,6.2l0,1.9l-1.7,0.5l-3.8-2.8l-2.7,1.2l0.5,2.2h-4.9l-4.4,3.3 v6.4l3.2,2.1l0.9,2.1l-5.3,0.5l-0.7,2.1l2.1,1.4l-0.9,1.4l-2.1,0.9l0.5,1.5h3l1.2,1.7l-2.1,1.4l-1.9,4.9l-3.4,1.7l-1.5,3l0,0 l-0.5,2.1l-1.9,1.2l-0.5,3.2l1.9,1.2l0.9,3.4l-1.2,2.1l0.7,1.7l3.5,0.7l0,0l0,0l0,0l-3.2,2.1l-0.2,2.7l-1.7,2.1l-0.9,4.6l-0.5,4.2 l0,0l3.3,0.8l6,6.3l-0.7,6.3l4.2,3.1l2.4-1.7l3.7,4.4l0.5,4.1l2.6,3.4l1.2,2.6l9.2,0.5l4.6-2.4l1.4,2.6l1.7,0.2l1.4-2.4l0,0l7.9,0 l3-1.7l0.5-3.1l0,0l7,0.1l3.3,2l4.1,4.4l5.3,7.3l-3,3.2l2.1,1.4l0.2,3.9l3.7-0.2l0.9,1.9l2.7,0.2l2.1-1.2l3.7,4.6l0.5,1.2l5.1-1.2 l1-2.3l0.1-2.2l3.2-1.4l3.7,1.4l3.4-1.4h2.1l0.7-4.6l1.2-1.4l-2.1-0.2l-0.2-2.7l3.2-0.7l0.2-1.9h3.3v-3l2.6-0.9L491,236 L491.7,235.6z" />
 		<path id="lorraine" data-region="Lorraine" fill="none" d="M565.6,156.2L564,154l-4.6-2.7l-1.7-2.6l-5.6,0.5l-3.3,3l-7.8,0.2l-2.4-1.7 c-0.1-0.2-1.3-2.2-2.2-2.8c0,0-0.1,0-0.1-0.1h-0.1h-0.1H536c-1.1,0-3.2-1.2-3.4-1.4l-3.3,1.4l-0.2,2.7l-3.9,0.5l-2.4-4.4l-1.4-0.5 v-3.2l-3.3-1.4l-0.2-5.6l-2.4-2.2l-4.9-2.4h-2.2l-0.7,0.5h-2.4l-3.1-2.7l-3.4,0.2l-2.7,2.4l-0.7,1.2h-3.9l-1.9-1.8l-3.3-0.4 l-4.1-4.6h-5.4l-0.1,0.6l-2.7,2.6l-3.9,0.2l-1.6,1.5l-1.4,0.4l-0.9-4.4l-2.5-2.4l0,0l-1.5,2.4l-2.1,1.4l-1.7-1.5l-3.8-0.5l0,0 l-3.3,4.9l2.4,4.1l-0.9,4.6l-2.6,2.1l0.2,1.7l0.9,2.2l-1.4,1.4l-2.7,2l0.7,2.4l0,0l-1.5,2l1.5,3.4l1.7,5.1l-2.1,2.2l3.7-0.2 l-1.9,5.8l-2.6,1.2l-1.4,3.4l1.4,1.2l-1.7,2.7l0.5,1.9l4.4,3.4l0.2,3.6l-0.2,4.2l4.9,0.7l3,3.2l5.6,2.7l2.1,0.7l4.7,5.5l-1.8,1.9 l1.5,2.2l3.7,0.2l3.3,4.4h2.7l0.7,3.1l3.1,0.5l0.7,2.1l-2.1,1.4l-1.4,6.4l6.5,3.1v4.9l2.5-1.1l2.1,1.9l1.7-0.8l-0.9-1.4l1.2-0.7 l1.5,1.9l2.4-1.7l0.7-2.2l4.4-0.8l1.2,1.1l-0.2,2.6l3,2.2l1.9-0.2l2.1-1.7h4.9l3.4,3.9h1.2l1.9-1.3l0.2-1.4l1.9-0.9l2.1,1.4 l2.1,2.4l7.4,4l2.8-2.7l0.2-9l3.9-3.4l2.2-5.3l-0.7-3.4l2.7-5.6l2.6-5.7l-4.4-1.2l-0.9-6.3l0.6-4.5l0.7-1.7l5.1-3.7l1.4-4.9 l-1.9-1.9l-0.2-1.7l2.7-5.1l-6.4-3.7l-3.7,2.7l-2.1-1.4l0.9-2.1l-2.2-1.7l-3.1-1.4v-3l3.1-0.9l1.2-5.3l2.1-2.2l0.9,3.4l2.6,1.2 l4.4,0.7l2.2,2.2h2.7l2.4-1.7l3,2.1h1.7l1.9-1.7v-3.4l2-3.6L565.6,156.2z" />
 		<path id="alsace" data-region="Alsace" fill="none" d="M592.2,160.8l-3.2-2.6l-5.8-0.7l-5.1-2.6l-3.4,2.1l-1.9-2.1l-2.5,0.1l0,0l0,0l-4.3,1.2l-2,3.6 v3.4l-1.9,1.7h-1.7l-3-2.1l-2.4,1.7h-2.7l-2.2-2.2l-4.4-0.7l-2.6-1.2l-0.9-3.4l-2.1,2.2l-1.2,5.3l-3.1,0.9v3l3.1,1.4l2.2,1.7 l-0.9,2.1l2.1,1.4l3.7-2.7l6.4,3.7l-2.7,5.1l0.2,1.7l1.9,1.9l-1.4,4.9l-5.1,3.7l-0.7,1.7l-0.6,4.5l0.9,6.3l4.4,1.2l-2.6,5.7 l-2.7,5.6l0.7,3.4l-2.2,5.3l-3.9,3.4l-0.2,9l-2.8,2.7l0,0l0.9,1.7l3.7,0.2l4.1,3.3l0.7,1.5l-0.2,2.7l-1.2,2.1l0.5,2.7l3.3-0.5 l0.6,2.6l1.3,5l2.9-0.5l-0.5,2.5l1.7,1.4l8.5-0.2l4.4-3.4l0.2-5.1l2.4-3l-3.1-3.4l-1.5-3.7l1.9-2.5v-5.8l1.2-2.7v-4.6l2.1-3 l-2.2-3.2l-0.2-6.6l-1-0.5l0,0l6-12.1l-0.7-6.7l2.7-9l0.7-7.9l6-4.4v-2.7l2.4-3.1h1.9l2.1-2.1l-0.5-3.9l2.1-5.6L592.2,160.8z" />
 		<path id="franche-comte" data-region="Franche-Comté" fill="none" d="M540.3,271.3l-0.2-0.9l4.9-5.7l0,0l0.9-1l3.6-0.4l-1.9-7.6l-3.3,0.5l-0.5-2.7l1.2-2.1 l0.2-2.7l-0.7-1.5l-4.1-3.3l-3.7-0.2l-0.9-1.7l0,0l-7.4-4l-2.1-2.4l-2.1-1.4l-1.9,0.9l-0.2,1.4l-1.9,1.3H519l-3.4-3.9h-4.9 l-2.1,1.7l-1.9,0.2l-3-2.2l0.2-2.6l-1.2-1.1l-4.4,0.8l-0.7,2.2l-2.4,1.7l-1.5-1.9l-1.2,0.7l0.9,1.4l-1.7,0.8L491,236l0.7,1.9 l-2.6,0.9v3h-3.3l-0.2,1.9l-3.2,0.7l0.2,2.7l2.1,0.2l-1.2,1.4l-0.7,4.6h-2.1l-3.4,1.4l-3.7-1.4l-3.2,1.4l-0.1,2.2l2.7,0.4l1.9,3.7 l0.2,1.9l-3,3.4l-1.4,0.5l-0.9,1.2l2.6,1.2l0.5,3.7l2.1,0.2l0.2,4.6l1.1,1.7l0,0l-0.9,0.6l-0.5,3.7l-0.7,2.6l0.5,1.7l-1.4,1.9 l-1.4,1.9v1.9l-3.9,1.9l-1.2,1.9l0.5,1.4l0.2,1.2l-1.5,0.9l-0.2,2.5l1.9,0.2l2.1,3.4h2.6l1.4,1.7h1.7l-0.5,1.9l-5.3,0.7l0.5,1.9 l1.9,1.2v2.2l-0.7,0.7l1.4,1.9l2.1,3.7l-0.9,3.9l-2.4,1.7l0.2,3.2l2.7,0.9l0.9,1.4l-2.5,1.9l-4.1,1.8l5.3,6.9l3,1.4v3.3l3.4-0.5 l4.4-4.9l3.7,1.9v2.7h6.7l9.6-10.5l0.5-4.9l3.4-4.1l-2.4-0.9l0.4-2l0,0l14.5-13.9l-0.5-11.1l5.1-2.5l3.4-1.7l3.2-3l0.2-4.4 l3.2-1.7l7.3-8.5l-1.2-2.7l2.6-1.2l3-3.7l-1.7-1.7L540.3,271.3z"/>
 		<path id="ile-de-france-full"  data-region="Ile-de-France" fill="none" d="M385.1,193L385.1,193l-3.5-0.7l-0.7-1.7l1.2-2.1l-0.9-3.4l-1.9-1.2l0.5-3.2l1.9-1.2 l0.5-2.1l-3.9-0.7l-1.2-2.7l-2.1-0.7l-6.2-6l-0.7-5.1l-2.6-2l0,0l0,0l-1.7,0.3l-2.2,1.9l-2.2-0.7l-3.9,1.7l-3.2-1.9l-1.4,1.9 l-2.1,0.2l-1.4-1.2l-2.2-1.4l-2.7,1.9l-1.7-1.7l-5.1-3l-4.9-2.6l-2.5,1.2l-2.7,0.7l-1.9-1.4l-3.7-2.2l-3,2.2l-4.4,0.5l-6.3-0.5 l-1.4-2.2l-1-1.9l-1.8,2.2l-1.4,5.1l-1.6,2.7l-6.6,1.9l-0.9,1.2l1.2,1.9v1.9l2.1,0.5l-1.2,1.2l0.2,0.9l1.9,2.3l0.7,2.7l1.9,1.9 l-0.9,2.6v2.3l1.7,1.9l-1.7,2.7l1.7,3.9l3.2,2.2l0.5,2.6l2.7,0.5l0.7,5.1l2.1,2.6l4.6,0.7l1,3.4l0,0l1,6.6l7.3-0.9l3-2.7l3,1.6 l6.5,1l2.2,2.9l2.7,1.4l0.2,3.9l-3.7,2.6l2.1,1.9l2.6-1.7l6.3,0.2l2.2-0.5l0.7-1.9l2.6,0.2l0.5,1.9l5.7-3.3l1.7-2.2l2.7-3.3 l-1.9-2.1l1.7-3.4l4.1-2.1l9,0.5l2.4-1.2l0.5-4.2l0.9-4.6l1.7-2.1l0.2-2.7L385.1,193L385.1,193L385.1,193z"/>
 	</g>
</g>
</svg>
