<?xml version="1.0" encoding="utf-8"?>
<!-- Generator: Adobe Illustrator 18.0.0, SVG Export Plug-In . SVG Version: 6.00 Build 0)  -->
<!DOCTYPE svg PUBLIC "-//W3C//DTD SVG 1.1//EN" "http://www.w3.org/Graphics/SVG/1.1/DTD/svg11.dtd">
<svg version="1.1" id="map" xmlns="http://www.w3.org/2000/svg" xmlns:xlink="http://www.w3.org/1999/xlink" x="0px" y="0px"
	 viewBox="0 0 595.3 841.9" enable-background="new 0 0 595.3 841.9" xml:space="preserve">
     <path id="d01" data-departement="01" data-departement-name="Ain" fill="none" d="M442.7,359.6l-2.5,0.2l-1.7,2.9l-4.3,16.6l-0.6,1.6l-0.4,5.1l-1.3,1.8v7.6l-0.7,1.8l4.4,2.6 l1.8,0.2l2.6,2.4l0.5,3.9l3-0.9l4.6,1l0,0l2.1-0.4l3.2,3l3-1.5l1.5-4.4l1.5-1.8l1.9,0.6l1.9,1.8l1.1,3.2l8.9,10.8l2.6-2l0.5-4.2 l3-0.5v-7.5l1.5-1.3l0.7-6.4l0,0l0.2-2.1l-1.3-2.1l0.5-6.3l2.1,1.3l1.3-2.1l2.1-0.7l2.1-1.8l-2.2,0.2v-4.3l2.6-1.7l4-0.5l0.2-2.3 l-1.4-0.9l3.3-4.3l-0.5-1.4l-3.7-1.9l-9.3,10.2h-6.5v-2.6l-3.6-1.8l-4.3,4.8l-3.3,0.5v-3.2l-2.9-1.4l-5.2-6.7l-3.3-1.5l-1.4-2.9 l-2.3-0.5l-2.3,1.8l-1.8,0.5L442.7,359.6L442.7,359.6L442.7,359.6L442.7,359.6z"/>
</svg>
