<?xml version="1.0" encoding="utf-8"?>
<!-- Generator: Adobe Illustrator 18.0.0, SVG Export Plug-In . SVG Version: 6.00 Build 0)  -->
<!DOCTYPE svg PUBLIC "-//W3C//DTD SVG 1.1//EN" "http://www.w3.org/Graphics/SVG/1.1/DTD/svg11.dtd">
<svg version="1.1" id="map" xmlns="http://www.w3.org/2000/svg" xmlns:xlink="http://www.w3.org/1999/xlink" x="0px" y="0px"
	 viewBox="0 0 595.3 841.9" enable-background="new 0 0 595.3 841.9" xml:space="preserve">
     <path id="d02" data-departement="02" data-departement-name="Aisne" fill="none" d="M379.5,128.9l-3.6,2.6l-1.8-1.7h-1.7l-3.6,2.5l-2.6-1.7l-3,1.8l0,0l-1.2-1.3h-2.5l-1.8,0.9l0,0 l0.5,3.1l-3,3.2v3l-2,2.3l0.5,2.7l1.2,4.6l0.3,2.4l0.8,5.3l-0.5,6.8l-0.9,2l2.7,2l-2,0.9l-1.4,5.5l-3.9,0.9l-1.4,2.3l2.7,0.5 l0.5,3.2l-2,0.5l0.2,3.5l0.7-0.2l1.2-1.8l2.7,1.8l1.7,1.8l-0.8,2.8l2.5,1.9l0.7,5l6,5.8l2,0.7l1.2,2.6l3.8,0.7l0,0l1.5-2.9 l3.3-1.7l1.8-4.8l2-1.4l-1.2-1.7h-2.9l-0.5-1.5l2-0.9l0.9-1.4l-2-1.4l0.7-2l5.2-0.5l-0.9-2l-3.1-2v-6.2l4.3-3.2h4.8l-0.5-2.1 l2.6-1.2l3.7,2.7l1.7-0.5v-1.8v-6l0.7-2.6l0.9-3.1l-3-1.7l0.7-1.8l4.3-0.9v-2.9l3.3-1.8l0.9-2.6l-1.2-1.8l0.2-3.3l2-1.8l-2-3.8 l0.6-4l-4.1-1.3l-1.6,2.2l-4.3-1.2l-0.9-2.9h-1.4l-2.5,2.1l-0.5-2l-4.9-0.5l-1.4-1.2H379.5L379.5,128.9L379.5,128.9L379.5,128.9z"/>
</svg>
