<?xml version="1.0" encoding="utf-8"?>
<!-- Generator: Adobe Illustrator 18.0.0, SVG Export Plug-In . SVG Version: 6.00 Build 0)  -->
<!DOCTYPE svg PUBLIC "-//W3C//DTD SVG 1.1//EN" "http://www.w3.org/Graphics/SVG/1.1/DTD/svg11.dtd">
<svg version="1.1" id="map" xmlns="http://www.w3.org/2000/svg" xmlns:xlink="http://www.w3.org/1999/xlink" x="0px" y="0px"
	 viewBox="0 0 595.3 841.9" enable-background="new 0 0 595.3 841.9" xml:space="preserve">
     <path id="d03" data-departement="03" data-departement-name="Allier" fill="none" d="M348.5,342.7l-3.1,3.9l-1.8,0.2l-2,2l-2.3-2.5l-6,6.1v3.6l1.2,0.9l0.2,1.8l-3.1,2.4l-3-0.9 l-5.6,1.2l-2.9,3.3l-1,2.3l0,0l2.7,3.8v2.6l1.4,1.7l1.7-2l1.8,3.2l2.5,0.9l2.6,6.2l0.2,1.9l3.4,2.5l1.8-0.8l1.4-3.5l1.4-0.4v-1.8 l2.4-0.2l0.2,1.3l3.1-3.5h3.5l0.6,1.3l-1.7,2.1l2.4,2.6l0.5,1.7l5.6,3.2l6.9,1.1l2-0.2l3.1,0.6l2.6-1.7l2,1.1l0.4,2.9l2.6,0.6 l3.5-0.2l1.1,2.4l3.4,1.3v-1.2l5.4-0.2l-0.5-12.7l-1.7-3.1l0.7-2.5l3.8-0.9l0,0l4.7-3.7l0.2-8.8l-1.7-2.1h-3.3l-1.4-1.8h-3.8 l-1.2-1.4v-3.3l-4.5-8.4L379,346l-4.3,5.8l-1.8,0.5l-0.7-2.9l-2-0.9l-0.9,1.8h-3.3l-0.5-2l-2.3,1.4l-2.5,1.2l-2.6-3l-3.9-1.8 l-0.2-2.7L348.5,342.7L348.5,342.7L348.5,342.7L348.5,342.7z"/>
</svg>
