<?xml version="1.0" encoding="utf-8"?>
<!-- Generator: Adobe Illustrator 18.0.0, SVG Export Plug-In . SVG Version: 6.00 Build 0)  -->
<!DOCTYPE svg PUBLIC "-//W3C//DTD SVG 1.1//EN" "http://www.w3.org/Graphics/SVG/1.1/DTD/svg11.dtd">
<svg version="1.1" id="map" xmlns="http://www.w3.org/2000/svg" xmlns:xlink="http://www.w3.org/1999/xlink" x="0px" y="0px"
	 viewBox="0 0 595.3 841.9" enable-background="new 0 0 595.3 841.9" xml:space="preserve">
     <path id="d04" data-departement="04" data-departement-name="Alpes-de-Haute-Provence" fill="none" d="M532.8,480.9l-3.5,2l-1.3,2.4l-3.1,0.2v2.1l-0.8,1.3l-1.3,3.1l-7.3-0.2l-3.5-1.8l-2.3,1.7 l-4.3-0.2l-1.1,1.4h1.1l0.6,3.8l-1.1,0.5l-3.8-2.4v-1.4l-2.1-1.8h-1.3v2l-1.8,0.4l-3.9,2.1l-2.4,4.2l-0.6,2l1.4,0.4l0.2,3.2h-1.4 l-2.1-2l-1.3,0.2l0.6,1.8l3.5,3.8l-2.1,0.8l-1.7-1.1H482l-2.4,2.7h-0.8l-0.1,1.6l-1.4-1.7l-1.8-1.7l-1.2,3.3l-2.6,1.8l0,0l0,0 l-0.2,3.1l2.4,0.5v2.9l-2.1,1.1l0.4,3.2l4,2v2.1l-1.5,2.4v1.6h5.1l4.8,5.3l6-1.9l7.4,4.9l3.5-2.7l1.6-2.4l5.7-1.8l3.7,2.4l4.8-3.4 l6.1,0.2h2.6l2.6-1.7l-0.8-2l1.1-1.3l-0.4-1.7h3.2l0.8-1.1l3.1-1.7l2.4,1.7l1.5-0.8l-8-7.3l-1.4-0.5l-0.2-3.1l-2.4-3.7l0.8-5.3 l1.3-2.9l2.1-1.8l0.9-3.3v-0.4l3.1-1.7l0.5-0.2v-4.4l3.2-0.5l-1.8-1.7l-2.3-0.7l-1.2-2.9l0.9-2l4-4.3l-0.6-2.6l-0.1,0.1l-2.9-0.1 L532.8,480.9z"/>
</svg>
