<?xml version="1.0" encoding="utf-8"?>
<!-- Generator: Adobe Illustrator 18.0.0, SVG Export Plug-In . SVG Version: 6.00 Build 0)  -->
<!DOCTYPE svg PUBLIC "-//W3C//DTD SVG 1.1//EN" "http://www.w3.org/Graphics/SVG/1.1/DTD/svg11.dtd">
<svg version="1.1" id="map" xmlns="http://www.w3.org/2000/svg" xmlns:xlink="http://www.w3.org/1999/xlink" x="0px" y="0px"
	 viewBox="0 0 595.3 841.9" enable-background="new 0 0 595.3 841.9" xml:space="preserve">
     <path id="d05" data-departement="05" data-departement-name="Hautes-Alpes" fill="none" d="M516.3,447.8l-2,0.9l-0.5,3.3l-4,0.5l-0.7-3.2l-1.4-1.4l-4,0.6l-1.6,1.5l-0.9,4.8l0.7,1.2 l4.8,0.5l0.9,2.9l1.8,0.9v5l-4.3-0.2l-1.8,2l-5.2-0.9l-2.9,2.5l-2-0.9l-2.9,2.3l1.2,2l-1.8,1.8H484v2.6l1.8,0.9l-0.4,1.4l-3.9,1.7 l-4.8,0.5l-1.4,4.3l-0.2,2.6l2.5,2l-2.5,2.9l-3.2-1.8l-3.6-0.2l-0.5,2l2.3,1.7l-2.7,1.8l0.9,3.8l7.6,2l1.4,2.9l2.1,0.5l-0.7,6.4 h0.8l2.4-2.7h4.2l1.7,1.1l2.1-0.8l-3.5-3.8l-0.6-1.8l1.3-0.2l2.1,2h1.4l-0.2-3.2l-1.4-0.4l0.6-2l2.4-4.2l3.9-2.1l1.8-0.4v-2h1.3 l2.1,1.8v1.4l3.8,2.4l1.1-0.5l-0.6-3.8h-1.1l1.1-1.4l4.3,0.2l2.3-1.7l3.5,1.8l7.3,0.2l1.3-3.1l0.8-1.3v-2.1l3.1-0.2l1.3-2.4l3.5-2 l2.4-3.7l2.9,0.1l2-2.3l2.4,0.2v-2l-3.1-1.7l-0.7-6.5l-2.5-0.9l-3.1,0.5l-5.8-3l-0.9-6.7l-3.3-1.2l-1.2-2.3l-1.6-3.3L516.3,447.8 L516.3,447.8L516.3,447.8L516.3,447.8z"/>
</svg>
