<?xml version="1.0" encoding="utf-8"?>
<!-- Generator: Adobe Illustrator 18.0.0, SVG Export Plug-In . SVG Version: 6.00 Build 0)  -->
<!DOCTYPE svg PUBLIC "-//W3C//DTD SVG 1.1//EN" "http://www.w3.org/Graphics/SVG/1.1/DTD/svg11.dtd">
<svg version="1.1" id="map" xmlns="http://www.w3.org/2000/svg" xmlns:xlink="http://www.w3.org/1999/xlink" x="0px" y="0px"
	 viewBox="0 0 595.3 841.9" enable-background="new 0 0 595.3 841.9" xml:space="preserve">
     <path id="d06" data-departement="06" data-departement-name="Alpes-Maritimes" fill="none" d="M535.5,497l-0.5,0.2l-2.4,1.3l-0.9,3.3l-2.1,1.8l-1.3,2.9l-0.8,5.3l2.4,3.7l0.2,3.1l1.4,0.5 l4.2,3.8l3.8,3.5l-1.5,0.8l-2.4-1.7l-3.1,1.7l-0.8,1.1h-3.2l0.4,1.7l-1.1,1.3l0.8,2l-2.6,1.7l1.2,2.6h2.5l2.6,1.3l0.5,4.3l2.4,2.4 h1.4l2.7,1.3l0.4,2.3l-1.7,1.4l1.3,1.3v1.4l2.5,2.5l0.1-0.4l0.2-5.2l4.5,0.9l1.7-2l2.3,0.5l0.2-7l5.2-0.5l4.5-4h4l0.2-2.5l4-2.4 l-2.3-5.2l3.3-2.9l-0.7-3.3l5-1.7l1.4-5l-0.7-3.3l-1.2-2l-0.9-3l-3.3,0.2l-10.6,3.8h-3.3l-5.8-4.8l-5.8-1.7h-3.3v-4L535.5,497 L535.5,497L535.5,497L535.5,497L535.5,497z"/>
</svg>
