<?xml version="1.0" encoding="utf-8"?>
<!-- Generator: Adobe Illustrator 18.0.0, SVG Export Plug-In . SVG Version: 6.00 Build 0)  -->
<!DOCTYPE svg PUBLIC "-//W3C//DTD SVG 1.1//EN" "http://www.w3.org/Graphics/SVG/1.1/DTD/svg11.dtd">
<svg version="1.1" id="map" xmlns="http://www.w3.org/2000/svg" xmlns:xlink="http://www.w3.org/1999/xlink" x="0px" y="0px"
	 viewBox="0 0 595.3 841.9" enable-background="new 0 0 595.3 841.9" xml:space="preserve">
     <path id="d07" data-departement="07" data-departement-name="Ardèche" fill="none" d="M433.5,435.5l-5.3,3l-1.1,4.4l-3.9,0.7l-1.8,0.7l0,0l-1.3,5.4l-3.2,1.4l-1.4,2.3l0.9,2.9l0.7,1.7 h-3.3l-0.2,4.3l-3.6,0.2l-1.8,5.6h-5.4l-5.8,4.3l-3.1,5.3l0,0l2,8.6l3.8,4.2v5.2l3.9,2.7v6.3l2.5-1.3l5.4,3.6l2.5,0.9l0.6-4.5 l3.2-0.6l0.9,3.5l3.2-0.4l0.6-3.5l7.8,4l0.9-2.5l2.8-0.3l0.6-4.6l-0.7-1.1l-0.9-0.2v-1.8l0.7-1.8l-1.3-1.9l0.7-4.4l3-3.5v-4.9 l-1.3-5.6l2.1-0.5l0.5-2.4l2.1-4.2l1.3-3.2l-1.9-4.9l-1.3-3.9l-1.8-6.8l-0.6-9.3l0,0L433.5,435.5L433.5,435.5L433.5,435.5 L433.5,435.5z"/>
</svg>
