<?xml version="1.0" encoding="utf-8"?>
<!-- Generator: Adobe Illustrator 18.0.0, SVG Export Plug-In . SVG Version: 6.00 Build 0)  -->
<!DOCTYPE svg PUBLIC "-//W3C//DTD SVG 1.1//EN" "http://www.w3.org/Graphics/SVG/1.1/DTD/svg11.dtd">
<svg version="1.1" id="map" xmlns="http://www.w3.org/2000/svg" xmlns:xlink="http://www.w3.org/1999/xlink" x="0px" y="0px"
	 viewBox="0 0 595.3 841.9" enable-background="new 0 0 595.3 841.9" xml:space="preserve">
     <path id="d08" data-departement="08" data-departement-name="Ardennes" fill="none" d="M424.6,121.5l-2.3,3.3l-2,2v2v2.6l-2.6,1.8l-5,1.7l-2.6,1.2l-3.2-2.5h-4.5l-0.6,4l2,3.8l-2,1.8 l-0.2,3.3l1.2,1.8l-0.9,2.6l-3.3,1.8v2.9l-4.3,0.9l-0.7,1.8l3,1.7l-0.9,3.1l-0.7,2.6v6h5.4l4.9,3l0.9,1.4l2.5,0.7l3.7,2.7l3.4-0.2 l0,0l3.4-0.3l1.4,3h1.8l0.9-1.4l5.5,0.2l0.9,1.2h0.7l2.3-2.3l2.2,1.3c0,0-0.2,0,0,0l0,0l2.6-1.9l1.4-1.4l-0.9-2.1l-0.2-1.7l2.5-2 l0.9-4.5l-2.3-4l0,0l3.2-4.8l0,0l3.7,0.5l1.7,1.5l2-1.4l1.5-2.3l-1.3-0.4l-0.9-4.5l-1.8-1.4l-6.3-0.7l-1.2-2.9l-2-1.4l-7.1-0.9 l-0.5-5.2l0.9-0.9v-2l-3.6-2.3l0.7-2.5l0.9-2.1l-1.7-1.4l2.5-2.1v-4.1l-0.9-0.7L424.6,121.5L424.6,121.5L424.6,121.5L424.6,121.5z "/>
</svg>
