<?xml version="1.0" encoding="utf-8"?>
<!-- Generator: Adobe Illustrator 18.0.0, SVG Export Plug-In . SVG Version: 6.00 Build 0)  -->
<!DOCTYPE svg PUBLIC "-//W3C//DTD SVG 1.1//EN" "http://www.w3.org/Graphics/SVG/1.1/DTD/svg11.dtd">
<svg version="1.1" id="map" xmlns="http://www.w3.org/2000/svg" xmlns:xlink="http://www.w3.org/1999/xlink" x="0px" y="0px"
	 viewBox="0 0 595.3 841.9" enable-background="new 0 0 595.3 841.9" xml:space="preserve">
     <path id="d09" data-departement="09" data-departement-name="Ariège" fill="none" d="M286.9 575.6L282.6 573.6 281.1 573.2 281.1 573.2 282.9 575.3 282 577.1 282 577.1 282 577.1 278.2 576.8 278 574.7 275.7 571.6 274.5 571.3 274.5 571.3 272.9 572.4 272.3 573.7 275.3 575.7 276 577.1 275.5 578.2 270.6 578.7 269.2 580.8 269.4 581.3 271.3 581.8 271.3 581.8 271.3 581.8 272.3 583.3 271.1 585.3 269.7 585 269.7 585 269.7 585 267.6 583.1 265 582.3 262.3 582.5 257.6 585.4 257.8 589.3 259 590.1 258.2 593.1 253 594.5 250.9 596.9 250.9 600.9 251.7 602.1 249.8 603.8 251.1 604.6 258 605.9 261.1 605.9 264.9 610.9 274.5 610.4 278.3 616.5 281.6 615.2 291.5 616.5 292.1 620.6 299.1 619 301.6 616.8 305.4 616 306.3 614 313.8 613.7 309.1 607.6 304.9 609.8 297.6 603.8 299.4 601.7 305.1 601.7 304.4 596.2 304.4 592 303.5 584.4 292.3 578.9 293 577 290.7 574.1 289.5 575.1 289.5 575.1 289.5 575.1z"/>
</svg>
