<?xml version="1.0" encoding="utf-8"?>
<!-- Generator: Adobe Illustrator 18.0.0, SVG Export Plug-In . SVG Version: 6.00 Build 0)  -->
<!DOCTYPE svg PUBLIC "-//W3C//DTD SVG 1.1//EN" "http://www.w3.org/Graphics/SVG/1.1/DTD/svg11.dtd">
<svg version="1.1" id="map" xmlns="http://www.w3.org/2000/svg" xmlns:xlink="http://www.w3.org/1999/xlink" x="0px" y="0px"
	 viewBox="0 0 595.3 841.9" enable-background="new 0 0 595.3 841.9" xml:space="preserve">
     <path id="d10" data-departement="10" data-departement-name="Aube" fill="none" d="M403.5,217l-4.7,2.6l-3.9,2.7h-3.8l-6.4,4.4l-5.5,0.9l-4.6-4.1l0,0l0,0l-3.1,2l-0.2,2.6l-1.7,2 l-0.9,4.5l-0.5,4.1l0,0l3.2,0.8l5.8,6.1l-0.7,6.1l4.1,3l2.3-1.7l3.6,4.3l0.5,4l2.5,3.3l1.2,2.5l8.9,0.5l4.5-2.3l1.4,2.5l1.7,0.2 l1.4-2.3h7.7l2.9-1.7l0.5-3l6.8,0.1l0,0l-0.2-2.4l-1.8-1.2l2.5-2.3l3.9-0.2l1.4-2l-0.2-8.2l-0.9-4.9l-3.9-1.4l-4.2-5.7l0.3-5.8 l0,0l0,0l-7.4,0.6h-4.6l-4.2-6.1l-0.5-4.6L403.5,217L403.5,217L403.5,217L403.5,217z"/>
</svg>
