<?xml version="1.0" encoding="utf-8"?>
<!-- Generator: Adobe Illustrator 18.0.0, SVG Export Plug-In . SVG Version: 6.00 Build 0)  -->
<!DOCTYPE svg PUBLIC "-//W3C//DTD SVG 1.1//EN" "http://www.w3.org/Graphics/SVG/1.1/DTD/svg11.dtd">
<svg version="1.1" id="map" xmlns="http://www.w3.org/2000/svg" xmlns:xlink="http://www.w3.org/1999/xlink" x="0px" y="0px"
	 viewBox="0 0 595.3 841.9" enable-background="new 0 0 595.3 841.9" xml:space="preserve">
     <path id="d11" data-departement="11" data-departement-name="Aude" fill="none" d="M317,565.9l-4.2-1.3l-5.1-1.1l0,0l0,0l-6.2,1.9l-1.7-2.9l-3.2,2.9l0.9,2.1l-3.6,1.7l-0.6,3.5 l-2.6,1.4l2.3,2.7l-0.7,1.9l11.1,5.5l0.9,7.7v4.2l0.7,5.4h-5.7l-1.7,2.1l7.3,6l4.2-2.1l4.7,6l0,0l0,0l9.5-3.8l-2.1-3.2l-0.2-3.8 h21.3l-0.4-2.9l4.9-2.6l6.2,3.8l2.4,1.1l-0.2-5.4l0.2-7.4l-2.6,0.2l-2.3-3.3l1.8-3l3.8,3.6l3.3-2.6l2.3-2.1l0.2-2.4l-1.9-0.4 l-1.1-3.2l-3.9,0.1l-2.6-3.9l-2,0.2l-2.4-1.4l-0.5-3.5l-1.3,0.6l0.6,2.4h-2.9l-0.2,4l-3.3,1.1l-2-4.3l-2.9,1.8l-2.4-1.8l-1.3-2.9 l2-2.4L333,563h-6.7l-7-1.3h-1.9L317,565.9z"/>
</svg>
