<?xml version="1.0" encoding="utf-8"?>
<!-- Generator: Adobe Illustrator 18.0.0, SVG Export Plug-In . SVG Version: 6.00 Build 0)  -->
<!DOCTYPE svg PUBLIC "-//W3C//DTD SVG 1.1//EN" "http://www.w3.org/Graphics/SVG/1.1/DTD/svg11.dtd">
<svg version="1.1" id="map" xmlns="http://www.w3.org/2000/svg" xmlns:xlink="http://www.w3.org/1999/xlink" x="0px" y="0px"
	 viewBox="0 0 595.3 841.9" enable-background="new 0 0 595.3 841.9" xml:space="preserve">
     <path id="d12" data-departement="12" data-departement-name="Aveyron" fill="none" d="M373.5 523.2L370 523.2 366.8 522.5 366.1 520 368.6 519.4 368.6 516.2 371.2 514 369.2 513.2 363.8 514 364.2 511.5 360.4 509.8 359.5 502.3 359.5 496.8 356.3 494.7 356.7 490.2 350 481.9 349.3 475.6 347.1 475.6 346.3 469.3 341.8 470 341.2 465.8 340.6 464.2 334.3 469.7 334.3 475.1 332.7 475.1 332 480.2 330.3 480.9 329.1 483.8 322.1 483.8 321.5 482.9 318.3 482.9 316.3 486.1 315.6 486 315.3 487.1 315.3 487.1 315.3 487.1 314 488.8 309.9 488.8 309.1 489.9 307.2 489.7 303.5 493.7 302.2 493.3 299.6 495.5 300.4 499.4 302.3 502.6 302.3 502.6 302.3 502.6 300.5 503.8 300.9 508.6 303.9 509 303.9 509 303.9 509 302.2 512.6 303.5 516.3 303.5 516.3 303.5 516.3 305.7 515.4 305.7 515.4 305.7 515.4 306.5 517.1 309.1 514.6 309.1 514.6 309.1 514.6 313 514.4 317 516.9 323.7 518.1 326.1 522.4 329.6 524 331.4 529.7 331.4 529.7 333.4 535.9 333.4 535.9 337.4 542.2 341.3 544.3 344.3 542.9 344.3 542.9 346.9 542.4 350.9 545.4 350.9 545.4 353.2 545.5 356.5 545.6 356.1 538.9 356.1 536.8 358 536.8 361.5 538.7 365 538.7 364.5 534.9 366.4 533.3 370.2 532.7 370.2 529.5 374.4 527.5z"/>
</svg>
