<?xml version="1.0" encoding="utf-8"?>
<!-- Generator: Adobe Illustrator 18.0.0, SVG Export Plug-In . SVG Version: 6.00 Build 0)  -->
<!DOCTYPE svg PUBLIC "-//W3C//DTD SVG 1.1//EN" "http://www.w3.org/Graphics/SVG/1.1/DTD/svg11.dtd">
<svg version="1.1" id="map" xmlns="http://www.w3.org/2000/svg" xmlns:xlink="http://www.w3.org/1999/xlink" x="0px" y="0px"
	 viewBox="0 0 595.3 841.9" enable-background="new 0 0 595.3 841.9" xml:space="preserve">
     <path id="d13" data-departement="13" data-departement-name="Bouches-du-Rhône"  fill="none" d="M432,532.9l-1.7,12.1l-6.7-0.9l-1.9,5.1l1.7,2.1l-7.3,4.5l-2,4.8l7.3,0.4l9.4,0.7l1.8,1.8h-3.3 l-2.1,3.8l9.6,2l7.7-1.4l-4-3.8l2.6-2.1l4.3,1.8l2,4.3l12.9,0.2l3.3-1.4l0.7,2l-3.6,3.1l5,0.2l-0.9,2.3l-1.4,1.7h11.1l5.4,1.8 l0.2,0.2l0.2-4.2l1.7-1.8l2-1.3l-0.2-1.3l-1.7-1.7h-1.7l-1.1-1.3l1.8-1.7v-0.6l-1.7-0.9v-1.7l4.5,0.2l1.1-0.8l-3.9-3.7l0.2-4.3 l-2.4-2l2-4l4.5-3.4l-3.7-2.4l-2.3,1.8l-6.1,1.4l-4.9-0.6l-8.8-3.7l-5.3,0.2l-4.5-2l-1.7-2.3l-3.5-3.8l-8.4-3.5L432,532.9z"/>
</svg>
