<?xml version="1.0" encoding="utf-8"?>
<!-- Generator: Adobe Illustrator 18.0.0, SVG Export Plug-In . SVG Version: 6.00 Build 0)  -->
<!DOCTYPE svg PUBLIC "-//W3C//DTD SVG 1.1//EN" "http://www.w3.org/Graphics/SVG/1.1/DTD/svg11.dtd">
<svg version="1.1" id="map" xmlns="http://www.w3.org/2000/svg" xmlns:xlink="http://www.w3.org/1999/xlink" x="0px" y="0px"
	 viewBox="0 0 595.3 841.9" enable-background="new 0 0 595.3 841.9" xml:space="preserve">
     <path id="d14" data-departement="14" data-departement-name="Calvados" fill="none" d="M234.6,169.8l-5.3,0.9l-8.6,5l-9.6,3.8l-7.7-4.3l-18.4-2.6l-4.3-2.1l-6.6,2l0.5,2.5l-1.3,1.3 l0.2,1.8l4.3,4.3l2.5,1.5l1.8-2.4l1.5,1.8l-1.8,2.4l1.8,2.7l-0.8,0.9l1.3,2.6l-0.7,3l-1.8,3l-3,1.8l-1.7-1.3l-1.7,1.5l1.8,1.8 l-1.5,2.7l-3.6,1.3l4.3,5.4l4.3,0.4l3.2,1.9l4.6-1.5l3.3-3.9l4.6,1.3l4-2.7l2.4-0.9l2.5,2.5l4.3-0.8l3.7,2l4.6-1.5l4.3-3.2 l2.7-3.2l1.8-0.4l0.6,2.4l1.5-0.4l0.2-1.8l4.3-0.7l1.5,0.9l4.7-1.1l0.6-2.2l-0.2-2l-2.3-0.9l-0.2-1.7l2-1.4l0.2-2.3l-1.4-5.4 l-2.6-3.8l2.3-1.4v-0.9l-2.3-0.7L234.6,169.8L234.6,169.8L234.6,169.8L234.6,169.8z"/>
</svg>
