<?xml version="1.0" encoding="utf-8"?>
<!-- Generator: Adobe Illustrator 18.0.0, SVG Export Plug-In . SVG Version: 6.00 Build 0)  -->
<!DOCTYPE svg PUBLIC "-//W3C//DTD SVG 1.1//EN" "http://www.w3.org/Graphics/SVG/1.1/DTD/svg11.dtd">
<svg version="1.1" id="map" xmlns="http://www.w3.org/2000/svg" xmlns:xlink="http://www.w3.org/1999/xlink" x="0px" y="0px"
	 viewBox="0 0 595.3 841.9" enable-background="new 0 0 595.3 841.9" xml:space="preserve">
     <path id="d15" data-departement="15" data-departement-name="Cantal" fill="none" d="M329.6,432.5l1.2,2.6l-1.4,1.7h-2.1l-2.3-2.5l-2-1.2l-0.2,6.3l-4,2.5l-2.9,4l0.7,4l-0.9,1.8 l-1.2,3.6h-1.8l-1.8,2.1l1.4,1.4l0.9,2.1l-2.8,2.1l1.2,7.7l3.8,2.9l-2.9,6.7l2.9,1.3l-1.3,3.8l1.8,0.2l-0.1,0.3l0.7,0.1l1.9-3.2 h3.2l0.6,0.9h7l1.3-2.9l1.7-0.7l0.7-5.1h1.7v-5.4l6.3-5.4l0.6,1.6l0.6,4.2l4.5-0.7l0.9,6.3h2.1l0.7,6.3l1.9,2.4l3.4-8l3.2-9.9 l4,2.6l1.8-4l6.3-2.3l-0.4-1.7l-1.3-1.8l-2.4-1.4l1.3-1.8l-1.1-1.1l1.2-0.4l1.5-1.3l-2.4-0.2l-1.3-2l-0.4-3.9l-1.4-1.4l-1.1-3.7 h-5.1l-1.1-2.9l-1.7-0.6l-0.8,1.7l-3.2-0.2l-3.1-4.8l-1.3-0.2l-2.4-1.3l-1.4,1.4h-3.7l-1.8-3.8l-7-1.5l0,0L329.6,432.5z"/>
</svg>
