<?xml version="1.0" encoding="utf-8"?>
<!-- Generator: Adobe Illustrator 18.0.0, SVG Export Plug-In . SVG Version: 6.00 Build 0)  -->
<!DOCTYPE svg PUBLIC "-//W3C//DTD SVG 1.1//EN" "http://www.w3.org/Graphics/SVG/1.1/DTD/svg11.dtd">
<svg version="1.1" id="map" xmlns="http://www.w3.org/2000/svg" xmlns:xlink="http://www.w3.org/1999/xlink" x="0px" y="0px"
	 viewBox="0 0 595.3 841.9" enable-background="new 0 0 595.3 841.9" xml:space="preserve">
     <path id="d16" data-departement="16" data-departement-name="Charente" fill="none" d="M238.9,385.3l-1.8,1.4l0.2,3.2l-1.3,0.9l-3.5-1.9l-3.5,1.3l-3.9,0.2l-3-3.6l-1.3,0.2l-3.9,1.9 l-3,0.8v1.8l-1.8,1.9l0.5,1.3l-1.8,1.4l-1.8,7.2l-0.5,4.6l-1.8,0.7l-2.4-0.2l-0.5-1.3h-2.6l-1.4,1.3h-3.2l-2.6,1.4l1.9,0.8 l0.6,5.3l0,0l-1.4,2l1.9,1.3l2.6,2.4l1.5,2.4l1.8,1.8l-0.5,2.4l-0.9,0.9l1.5,1.5v1.8l-3,2.4l1.3,0.9l1.8,0.5v0.5l-2.4,0.9l0.2,1.3 l1.5,0.8l4.6-0.8l1.9,2.1l1.5,1.9l4.9,3.3l0.7-1.1l4.5,0.5l2.1-2l4-4l0.2-7.9l10.6-7.1l0.2-5.4l3.2-0.5l2-3.6h1l0.8-3.5l1.8-0.2 l1.2-3.2l2.3-0.7l2.6-1.8l-0.5-5.6l2-0.7l4-0.9l-0.2-2l-0.7-3.1l-3.1-0.2l-1.8-2l1.2-2l-0.3-2.2l0,0l-5.2-0.8l-1.8,1.9l-4.2,1.8 l-1.4-1.5L238.9,385.3L238.9,385.3L238.9,385.3L238.9,385.3z"/>
</svg>
