<?xml version="1.0" encoding="utf-8"?>
<!-- Generator: Adobe Illustrator 18.0.0, SVG Export Plug-In . SVG Version: 6.00 Build 0)  -->
<!DOCTYPE svg PUBLIC "-//W3C//DTD SVG 1.1//EN" "http://www.w3.org/Graphics/SVG/1.1/DTD/svg11.dtd">
<svg version="1.1" id="map" xmlns="http://www.w3.org/2000/svg" xmlns:xlink="http://www.w3.org/1999/xlink" x="0px" y="0px"
	 viewBox="0 0 595.3 841.9" enable-background="new 0 0 595.3 841.9" xml:space="preserve">
     <path id="d17" data-departement="17" data-departement-name="Charente-Maritime" fill="none" d="M173.1,368.8l-3.2,0.2l-6.9,4.2l1.7,1.5l-3.6,2.9l-0.5,2.3l-3.3,0.5l-1.8-2l-4.5-0.5l-0.5-2.3 l-2.6-1.8l-3.8,1.4l2.5,3.6h3.1l3.2,2l2.5,2l4.8-0.2l0.9,2l3.1,0.7l1.2,3.1l2,0.9l-0.2,2.5l-2.6-0.5l-0.9,1.4l2,2.9l-1.2,5 l-2.6-0.2l0.2,3.1l0.7,1.2h-3.3l-0.5-1.8l2-2.6l-0.7-1.5l-1.2-0.9l-0.5-5.4l-3.8-0.5l-3.1-3.8l-0.5,7.9l5.2,3.8l0.5,4.3l0.9,5 l0.5,5l2.6-0.2l4.8,3.8l3.2,1.8l0.2,2.1l2.5,0.5l7.1,7.1l1.8,8.1h6.7l1.2-1.2l0.2,3.3l5.8,0.7l0.9,7.1l3.2,0.2l5.2,5.2l2.6,0.5 l3.2-1.7l2.1,1.7l1.8-3.9l1.8-3.2l-4.9-3.3l-1.5-1.9l-1.9-2.1l-4.6,0.8l-1.5-0.8l-0.2-1.3l2.4-0.9v-0.5l-1.8-0.5l-1.3-0.9l3-2.4 v-1.8l-1.5-1.5l0.9-0.9l0.5-2.4l-1.8-1.8l-1.5-2.4l-2.6-2.4l-1.9-1.3l1.4-2l0,0l-0.6-5.3l-1.9-0.8l2.6-1.4h3.2l1.4-1.3h2.6 l0.5,1.3l2.4,0.2l1.8-0.7l0.5-4.6l1.8-7.2l0,0l0,0l-1.8-1.8l-0.4-2.5l-3.2-1.5l-4.2-2.9l-5.2,0.5l-3.2-4.2l-4.6-0.2l-3.7-2.6v-1.5 l-2.4-2.6v-3.4l-3-2.4l-4.3,1.8L173.1,368.8L173.1,368.8L173.1,368.8L173.1,368.8z"/>
</svg>
