<?xml version="1.0" encoding="utf-8"?>
<!-- Generator: Adobe Illustrator 18.0.0, SVG Export Plug-In . SVG Version: 6.00 Build 0)  -->
<!DOCTYPE svg PUBLIC "-//W3C//DTD SVG 1.1//EN" "http://www.w3.org/Graphics/SVG/1.1/DTD/svg11.dtd">
<svg version="1.1" id="map" xmlns="http://www.w3.org/2000/svg" xmlns:xlink="http://www.w3.org/1999/xlink" x="0px" y="0px"
	 viewBox="0 0 595.3 841.9" enable-background="new 0 0 595.3 841.9" xml:space="preserve">
     <path id="d18" data-departement="18" data-departement-name="Cher" fill="none" d="M318.6,288.4l-3.4,1.8l-2.9,2.4l0.1,0.9l2.9,0.8l1.2,2.4l1.8,0.7l-0.7,1.4v2.4l-2.7,1.2l-2,3.8 l-0.1,2l0.8,0.9l0.4,1.2l-2.9,1.7l-4.5,0.5l-1.2-1.3l-1.3,0.1l-1.3,1.4l0.1,2.9l-3,0.5l-0.2,2.6l-2.5,2l0.4,0.9l1.7,1.3l3.2,0.5 l2.4-0.9l3.1-0.1l1.5,1.2l-0.5,3.1l2.5,3.5v1.4l-1.2,2l0,0l0.8,1.8l2.5,0.4l0.1,0.9l-2.5,2l0.1,1.4l-1.7,0.8l0.7,1.2l2,1.8v1.3 l-2.1,1.3v1.8l3.1,1.7l0.7,2.3l1.9,1.8l0,0l-0.8,1.3l-0.4,3.1l-0.5,0.9l1.3,2.5l0.5,1.9l-2.3,2.3v1.8l5.3-0.4l1-2.3l2.9-3.3 l5.6-1.2l3,0.9l3.1-2.4l-0.2-1.8l-1.2-0.9v-3.6l6-6.1l2.3,2.5l2-2l1.8-0.2l3.1-3.9l5.3,0.6l0,0l1.8-4.9l-1.2-2l0.2-2.9l0.7-5.8 l-2.5-2.4l0.5-5.4l-2.3-4.8l-0.2-3.1l-4-3.2l-0.7-2.6l2-2.9V299l-2-2.9l-2.2,1l-1.2-0.5l-1.7-2l-0.9-0.1l-0.7,0.4l-0.2,3.2 l-1.4,0.1l-1.2-0.9l-2.5-3.6l-0.9-1.3l-3.7-0.2l-1.8-2.3h-1.4l-0.7,0.8l-2.4,0.4l-1.9-1.8L318.6,288.4L318.6,288.4L318.6,288.4 L318.6,288.4L318.6,288.4z"/>
</svg>
