<?xml version="1.0" encoding="utf-8"?>
<!-- Generator: Adobe Illustrator 18.0.0, SVG Export Plug-In . SVG Version: 6.00 Build 0)  -->
<!DOCTYPE svg PUBLIC "-//W3C//DTD SVG 1.1//EN" "http://www.w3.org/Graphics/SVG/1.1/DTD/svg11.dtd">
<svg version="1.1" id="map" xmlns="http://www.w3.org/2000/svg" xmlns:xlink="http://www.w3.org/1999/xlink" x="0px" y="0px"
	 viewBox="0 0 595.3 841.9" enable-background="new 0 0 595.3 841.9" xml:space="preserve">
     <path id="d19" data-departement="19" data-departement-name="Corrèze" fill="none" d="M307.3,411.3l-0.9,2.3l-3.9,1l-1.4,2.3h-1.8l-2.4-0.7l-1.8,2.9l-2.6,0.2l-1.8,3.2h-2.1l-1.8,1.8 l-4.4-0.5l-1.5,2.4l-1.8-0.2l-3,3.7l-2.6-1.1l-1.7,2l1.2,3.1l2.5,2l-4.5,4v3.1l1.8,0.9l-1.7,2.3l2.5,2l-1.8,2.1l2,1.4l5-0.2 l-0.2,5l1.9,2.9l0.7-0.2l4.9-2.1l5.6,2.8l4.4,6.3l2.5-0.4l3.8-3.8l1.3,2.1l2.5-2.5l3.6,0.8l0.1,0.6l2.8-2.1l-0.9-2.1l-1.4-1.4 l1.8-2.1h1.8l1.2-3.6l0.9-1.8l-0.7-4l2.9-4l4-2.5l0.2-6.3l2,1.2l2.3,2.5h2.1l1.4-1.7l-1.2-2.6l0.8-2.5l0.5-1.4l-0.7-3.8l-1.4-1.7 V420l2-3.3l-0.5-3.2l-0.6-0.7l-2.3,1.8h-4.4l-1.4,2.1H319l-2.1-2.1l-1.1-1.5h-5.6l-1.3-1.8H307.3L307.3,411.3L307.3,411.3 L307.3,411.3z"/>
</svg>
