<?xml version="1.0" encoding="utf-8"?>
<!-- Generator: Adobe Illustrator 18.0.0, SVG Export Plug-In . SVG Version: 6.00 Build 0)  -->
<!DOCTYPE svg PUBLIC "-//W3C//DTD SVG 1.1//EN" "http://www.w3.org/Graphics/SVG/1.1/DTD/svg11.dtd">
<svg version="1.1" id="map" xmlns="http://www.w3.org/2000/svg" xmlns:xlink="http://www.w3.org/1999/xlink" x="0px" y="0px"
	 viewBox="0 0 595.3 841.9" enable-background="new 0 0 595.3 841.9" xml:space="preserve">
     <path id="d21" data-departement="21" data-departement-name="Côte-d'Or" fill="none" d="M419.7,261.1l-0.5,3l-2.9,1.7h-7.7l0.3,1.7l0.2,1.7l-2.3,1.7l0.2,3l0,0l2.1,0.2l1.2,1.9l-0.7,3.2 l-2.6,2.5l0.7,2.2l0,0l0,0L406,285l-0.5,2.4l-2.5,5.5l-1.8,2.5v2.5l0.7,1.2l-0.9,1.3l-2.3,1.2l0.1,2.3l2.1,1.6l1.1,1.8l-0.4,2.4 l-0.5,1.8l1.2,1.9l3.2,0.7l1.4,2.3v0.9l-0.9,0.4v2.1l0,0l4.6,4.4l4.5-0.1l4,3.1l2.9,2l0.1,2.7l3.1,0.7l2.5,2l6.8-2.4l4.8-1.5 l2-0.4l0.7-0.9l2.3,0.1l1.8,1.2l2.5-0.7l2.5-1.8l1.9,0.3l0,0l1.5-0.9l-0.2-1.2l-0.5-1.4l1.2-1.8l3.8-1.8v-1.8l1.4-1.8l1.4-1.8 l-0.5-1.7l0.7-2.5l0.5-3.6l0.9-0.6l0,0L462,306l-0.2-4.5l-2-0.2l-0.5-3.6l-2.5-1.2l0.9-1.2l1.4-0.5l2.9-3.3l-0.2-1.8l-1.8-3.6 l-2.6-0.4l-1,2.2l-5,1.2l-0.5-1.2l-3.6-4.5l-2,1.2l-2.6-0.2l-0.9-1.8l-3.6,0.2l-0.2-3.8l-2-1.4l2.9-3.1l-5.2-7.1l-4-4.3l-3.2-1.9 L419.7,261.1L419.7,261.1L419.7,261.1L419.7,261.1z"/>
</svg>
