<?xml version="1.0" encoding="utf-8"?>
<!-- Generator: Adobe Illustrator 18.0.0, SVG Export Plug-In . SVG Version: 6.00 Build 0)  -->
<!DOCTYPE svg PUBLIC "-//W3C//DTD SVG 1.1//EN" "http://www.w3.org/Graphics/SVG/1.1/DTD/svg11.dtd">
<svg version="1.1" id="map" xmlns="http://www.w3.org/2000/svg" xmlns:xlink="http://www.w3.org/1999/xlink" x="0px" y="0px"
	 viewBox="0 0 595.3 841.9" enable-background="new 0 0 595.3 841.9" xml:space="preserve">
     <path id="d22" data-departement="22" data-departement-name="Côtes-d'Armor" fill="none" d="M81.6,199.1l-2,1.7l-5.2,0.7l-1.2,1.7l-3.6-2.6l-4.8,3.2l1.8,2.4l-3.3,4.4l0,0l-1.4,6l2.7,0.2 l-0.2,2.4l2,1.3l-1.8,1.8l-1.3,0.9l0.2,2.1l2.7,0.9l-2.6,0.8v2.7l1.8,2.1l0.4,6.5l-1.2,1.2l0.9,2.8l3.7,1l0.4,1.8l2.1,0.2l1.8-1.3 l1.2,1.2l4.3,1.8l3.6-1.8l0.9-1.8l3-0.2l3.3,3l3.2-0.8l2.7,2.7h1.3l1.3,1.7h2.7l0.9-1.3l1.2,2.4l2.7,1.2l3.6-2.1v-2.3l2.5-0.9h1.5 l2,3.7l4.5,0.4l0.6-0.8l1.7-1.9l2.4-5.2l3.2-1.2l1.7-2.4l1.8,1.7l3.6-0.7l1.2-10.2l1.2-4.2l-1.2-2.1l-1.8-0.7l-1.3-6.8l-1.3,1.8 l-4.3-0.5l-0.5,2.5l-2.6,0.2l-0.2-3.1l-2.3-0.7l-1.7,1.8V214l-2.6,2l-4-0.7l-1.4,2.6l-8.3,4.5v2.3h-1.8v-4l-4.8-2.1l0.5-4 l-4.3-3.1v-3.8l-3.2-0.7l0.2-3.6l-2.4-0.2l0.2-2.5h-4.5l-0.7,2.1L81.6,199.1L81.6,199.1L81.6,199.1L81.6,199.1z"/>
</svg>
