<?xml version="1.0" encoding="utf-8"?>
<!-- Generator: Adobe Illustrator 18.0.0, SVG Export Plug-In . SVG Version: 6.00 Build 0)  -->
<!DOCTYPE svg PUBLIC "-//W3C//DTD SVG 1.1//EN" "http://www.w3.org/Graphics/SVG/1.1/DTD/svg11.dtd">
<svg version="1.1" id="map" xmlns="http://www.w3.org/2000/svg" xmlns:xlink="http://www.w3.org/1999/xlink" x="0px" y="0px"
	 viewBox="0 0 595.3 841.9" enable-background="new 0 0 595.3 841.9" xml:space="preserve">
     <path id="d23" data-departement="23" data-departement-name="Creuse" fill="none" d="M296.2,365.7l-1.4,3.6l-4-0.2l-0.9-0.5l-2.6,0.2l-2-1.4l-4.4,5l0.4,3l-2.6,5.4l0.5,2.6l2.9,0.7 l1.9,4.9l1.9,1.9l-0.7,9.3l4.2-1.3l1.8,2.1l-2.6,2.1v2.1l2.1,0.2l3.9-0.2l1.3-1.8h0.9l-0.5,3l3.2,1.4l3,1.9v1.3h-1.8l0.5,2.9 l1.4,0.4l0,0l3.9-1l0.9-2.3h1.7l1.3,1.8h5.6l1.1,1.5l2.1,2.1h2.8l1.4-2.1h4.4l2.3-1.8l-4.6-4.6l-0.5-2l4.3-2.5l2.5-1.4l0.7-3.2 l2.6-2l-0.9-4.3l-1.8-2.1l-0.6-7l-2.6-6.2l-2.5-0.9l-1.8-3.2l-1.7,2l-1.4-1.7V371l-2.7-3.8l-5.3,0.4l-2.1,0.2l-4.3-1.2 L296.2,365.7L296.2,365.7L296.2,365.7L296.2,365.7z"/>
</svg>
