<?xml version="1.0" encoding="utf-8"?>
<!-- Generator: Adobe Illustrator 18.0.0, SVG Export Plug-In . SVG Version: 6.00 Build 0)  -->
<!DOCTYPE svg PUBLIC "-//W3C//DTD SVG 1.1//EN" "http://www.w3.org/Graphics/SVG/1.1/DTD/svg11.dtd">
<svg version="1.1" id="map" xmlns="http://www.w3.org/2000/svg" xmlns:xlink="http://www.w3.org/1999/xlink" x="0px" y="0px"
	 viewBox="0 0 595.3 841.9" enable-background="new 0 0 595.3 841.9" xml:space="preserve">
     <path id="d24" data-departement="24" data-departement-name="Dordogne" fill="none" d="M242.8,414.7l-2,3.6l-3.2,0.5l-0.2,5.4l-10.6,7.1l-0.2,7.9l-4,4l-2.1,2l-4.5-0.5l-0.7,1.1 l-1.8,3.2l-0.7,1.5l1.3,1.5h2.1l1.3,1.8l-1.3,3.2l-0.6,3.7l-2,1.3v1.3l0.8,1.3v2.1l-1.7,2l2,1.1l0.6,1.7l6.9-0.2l2.9-3.5l2.8,1.8 l-2.1,1.7l0.2,4.7l4.2,1.3l-0.7,5.2l3.5,1.3l2-1.8h4.5l2.4-2l1.4,0.2l0.4,1.7h4.5l1.1-1.3l1.7,0.2l1.8,2v1.4l-1.7,1.1l0.6,1.4 l2.1,0.2l2.9-2.6h2.4l1.7,1.8l3.8,0.6l2-2l0.2-3.3l5-0.5l3.2-4.5l-1.4-0.5l-0.2-2.4l3.8-0.5l0.2-2.1l1.8-1.2l2-3.6l-2-2.1v-2.5 l1.5-1.5l0,0l-1.9-2.9l0.2-5l-5,0.2l-2-1.4l1.8-2.1l-2.5-2l1.8-2.3l-1.8-0.9v-3.1l4.5-4l-2.5-2l-1.2-3.1l-5-0.9l-1.7-1.2l3.3-1.7 l-1.2-1.5l-5-0.7l-1.2-4.5l-7.1-0.7l-1.7,2.3l-1.5,0.5l-2-2.6l0.9-2.5l-1.2-2.1L242.8,414.7L242.8,414.7L242.8,414.7L242.8,414.7z "/>
</svg>
