<?xml version="1.0" encoding="utf-8"?>
<!-- Generator: Adobe Illustrator 18.0.0, SVG Export Plug-In . SVG Version: 6.00 Build 0)  -->
<!DOCTYPE svg PUBLIC "-//W3C//DTD SVG 1.1//EN" "http://www.w3.org/Graphics/SVG/1.1/DTD/svg11.dtd">
<svg version="1.1" id="map" xmlns="http://www.w3.org/2000/svg" xmlns:xlink="http://www.w3.org/1999/xlink" x="0px" y="0px"
	 viewBox="0 0 595.3 841.9" enable-background="new 0 0 595.3 841.9" xml:space="preserve">
     <path id="d25" data-departement="25" data-departement-name="Doubs" fill="none" d="M516.4,287.2L516.4,287.2l-2.6,0.1l-1.4,1.8l-1.8,0.9v2.3l-4.3,0.5l-2.3-1.7l-3.1,0.5L498,294 l-2,3.6l-2,0.7l-0.9,2.4l-2.5,0.5l-3.6,2.9l-4.8-0.1l-1.4,1.2h-1.3l-4.5,3.7l-2.1,0.5l0,0l0.1,3.1l3.1,2.6l1.7,2l-0.5,2.1 l-1.4,3.5l-0.9,2.1l6.3,2l4-0.4l0.4,3.3v4.5l5,1.7l2.3,0.6l3.2,3.1l-0.4,2.5l-1.5,2l-4,1.3l0.9,2.3l0.5,1.8l-1.8,1.8l0.2,1.7h2.7 l0,0l14.1-13.5l-0.5-10.8l5-2.4l3.3-1.7l3.1-2.9l0.2-4.3l3.1-1.7l7.1-8.3l-1.2-2.6l2.5-1.2l2.9-3.6l-1.7-1.7l-5.4,1.2l-0.2-0.9 l4.8-5.5L516.4,287.2L516.4,287.2L516.4,287.2L516.4,287.2z"/>
</svg>
