<?xml version="1.0" encoding="utf-8"?>
<!-- Generator: Adobe Illustrator 18.0.0, SVG Export Plug-In . SVG Version: 6.00 Build 0)  -->
<!DOCTYPE svg PUBLIC "-//W3C//DTD SVG 1.1//EN" "http://www.w3.org/Graphics/SVG/1.1/DTD/svg11.dtd">
<svg version="1.1" id="map" xmlns="http://www.w3.org/2000/svg" xmlns:xlink="http://www.w3.org/1999/xlink" x="0px" y="0px"
	 viewBox="0 0 595.3 841.9" enable-background="new 0 0 595.3 841.9" xml:space="preserve">
     <path id="d26" data-departement="26" data-departement-name="Drôme" fill="none" d="M444.6,436.5l-3.1,2.2l-2.6,0.9l-3.5-1l0.6,9.3l1.8,6.8l1.3,3.9l1.9,4.9l-1.3,3.2l-2.1,4.2 l-0.5,2.4l-2.1,0.5l1.3,5.6v4.9l-3,3.5l-0.7,4.4l1.3,1.9l-0.7,1.8v1.8l0.9,0.2l0.7,1.1l-0.6,4.6l3.3-0.7l1.4,1.7L438,509l0.9,1.2 l3.3-3.3l3-0.2l0.7-1.8l-3.8-0.5l-0.7-4l2.4-3.8l3.2-0.2l3.4,3l-3.1,4.3l0.9,1.7l4.5,0.5l2.9-2.5l-1.7,3.3l0.5,2.6l4.8,0.5 l6.3,0.5l0.9,2.9l3.3,2.5l2-0.2l2.6-1.8l1.2-3.3l1.8,1.7l1.4,1.7l0.1-1.6l0.7-6.4l-2.1-0.5l-1.4-2.9l-7.6-2l-0.9-3.8l2.7-1.8 l-2.3-1.7l0.5-2l3.6,0.2l3.2,1.8l2.5-2.9l-2.5-2l0.2-2.6l1.4-4.3l4.8-0.5l3.9-1.7l0,0l-3.7-0.9l-1.4-1.3l-2.1-0.2l-2.1-1.8 l-2.9-1.8H470l-1.3-1.3l-0.2-18.3h-0.8l-0.9,1.8l-2.1,1.5l-5.2-1.5l-3.9-1.3l-1.8,0.5l-0.5-1.3l1.3-3.5l-0.5-3.5l1.1-2.4l-2.4-3.5 h-3.5L444.6,436.5L444.6,436.5L444.6,436.5L444.6,436.5z"/>
</svg>
