<?xml version="1.0" encoding="utf-8"?>
<!-- Generator: Adobe Illustrator 18.0.0, SVG Export Plug-In . SVG Version: 6.00 Build 0)  -->
<!DOCTYPE svg PUBLIC "-//W3C//DTD SVG 1.1//EN" "http://www.w3.org/Graphics/SVG/1.1/DTD/svg11.dtd">
<svg version="1.1" id="map" xmlns="http://www.w3.org/2000/svg" xmlns:xlink="http://www.w3.org/1999/xlink" x="0px" y="0px"
	 viewBox="0 0 595.3 841.9" enable-background="new 0 0 595.3 841.9" xml:space="preserve">
     <path id="d27" data-departement="27" data-departement-name="Eure" fill="none" d="M244.2,166.1l-2,0.5l-2.5,2.7l-5.1,0.6l0.8,8.3l2.3,0.7v0.9l-2.3,1.4l2.6,3.8l1.4,5.4l-0.2,2.3 l-2,1.4l0.2,1.7l2.3,0.9l0.2,2l-0.6,2.2l-0.7,3.4l1.8,2.3l6.3,0.2l1.4,3.1l2.3,2.3l3.1,1.2l0.9,3.3l-1.7,2.1l3.8,2.3l2.5-3.6h3.1 l8.2-4.3l2.6,1.2h5.6l1.4-1.7v-3.3l4.5-2.1v-3.6l1.4-1.2l-0.2-0.9l1.2-1.2l-2-0.5v-1.8l-1.2-1.8l0.9-1.2l6.4-1.8l1.6-2.6l1.4-5 l1.8-2.1l0.3-2.5l2,1.2l1.7-0.5l-1.2-1.8l-0.6-5.1l-2.2-2l0,0l-3.6-0.4l-6-3.1l-5.2,0.1l-2.7,2.4l-1.5,4.3l-5.7,0.7l-5.5,1.7 l1.9,1.3l-0.8,1.9H264l-1.4-3.1H261l-2.5-1.9l3.6-1.2l-5.5-3.9l-5.5,0.4l-1.3-2.1l-3.1,0.4L244.2,166.1L244.2,166.1L244.2,166.1 L244.2,166.1z"/>
</svg>
