<?xml version="1.0" encoding="utf-8"?>
<!-- Generator: Adobe Illustrator 18.0.0, SVG Export Plug-In . SVG Version: 6.00 Build 0)  -->
<!DOCTYPE svg PUBLIC "-//W3C//DTD SVG 1.1//EN" "http://www.w3.org/Graphics/SVG/1.1/DTD/svg11.dtd">
<svg version="1.1" id="map" xmlns="http://www.w3.org/2000/svg" xmlns:xlink="http://www.w3.org/1999/xlink" x="0px" y="0px"
	 viewBox="0 0 595.3 841.9" enable-background="new 0 0 595.3 841.9" xml:space="preserve">
     <path id="d28" data-departement="28" data-departement-name="Eure-et-Loire" fill="none" d="M285.8,202.6l-1.4,1.2v3.6l-4.5,2.1v3.3l-1.4,1.7h-5.6l-2.6-1.2l-8.2,4.3H259l-2.5,3.6l0,0l0.5,4 l4.8,4l0.5,8.3l-2.1,2.6l-3.3,0.7l-3.3,2l0.5,1.8l1.5,2l0.1,5.3l0,0l3.2,2.2l-1.1,1.3l2,1.9l3.6-0.7h1.6l-0.1,0.9l-1.9,1.2 l1.3,0.9h3.7l1.2,2.5l1.9,1.2l1.4,3.2l5,1.3l3.1-0.4l2.7-2.5l2.9,0.4l0.5-1.9l-0.1-1.4l1.3-0.9l2,1.3l1.3-0.9v-1.8l1.8-1.2 l1.7,0.7l1.4,1.7l2.5-1.4h2.7l1.9-2l1.2-4.2l1.8-0.4l-0.5-4.3l2-1.8l-0.9-1.4l0,0l0,0l-1-6.4l0,0l-1-3.3l-4.5-0.7l-2-2.5l-0.7-5 l-2.6-0.5l-0.5-2.5l-3.1-2.1l-1.7-3.8l1.7-2.6l-1.7-1.8v-2.4l0.9-2.5l-1.8-1.8l-0.7-2.6L285.8,202.6L285.8,202.6L285.8,202.6 L285.8,202.6z"/>
</svg>
