<?xml version="1.0" encoding="utf-8"?>
<!-- Generator: Adobe Illustrator 18.0.0, SVG Export Plug-In . SVG Version: 6.00 Build 0)  -->
<!DOCTYPE svg PUBLIC "-//W3C//DTD SVG 1.1//EN" "http://www.w3.org/Graphics/SVG/1.1/DTD/svg11.dtd">
<svg version="1.1" id="map" xmlns="http://www.w3.org/2000/svg" xmlns:xlink="http://www.w3.org/1999/xlink" x="0px" y="0px"
	 viewBox="0 0 595.3 841.9" enable-background="new 0 0 595.3 841.9" xml:space="preserve">
     <path id="d29" data-departement="29" data-departement-name="Finistère" fill="none" d="M48.1,205.9l-2.4,2.6l-2.6-1.2l-5,0.5l-0.9,2.1l-2.9,0.7l-0.5-2.5l-5.2,0.7v1.7l-3.6,0.2 l-1.7-1.2l-1.8,0.9L21,213l-6.1,0.4l-3.2,3.8l2.6,2l-3.6,3l1.2,2l-0.9,5l3.6,0.5l1.4-1.4l0.7,0.9l8.6-1.2l5.6-4l-5,4.8l0.5,2.1 l4.5-2l-0.9,3.2l5,0.2l-0.2,1.4l-5.4-0.2l-4.3-1.2l-5.2-2.5l-3.1,3.6l4,1.4l-0.2,6l1.2-0.9l2.5-3.8l4.8,2.6l2.3,0.5l0.9,3.6 l-1.4,2.4l-2.9-0.2h-2.6l-4.5,0.7l-7.7,0.5l-1.8,2.1l2.1,1.4l2.5-0.2l2,1.8l2.9-0.2l4.8,5.4l1.2,5.8l-1.7,3.2l4.8,0.9l5.2-0.2 l1.2-2l-2-2.6l2,0.9l2-0.2l3.6,2l2.1-0.5v-3.8L45,264l2.9,4.8l6.3,0.5l0.2-1.4l1.5,2.1l3.8,0.7l3.1-0.1l0,0l1.2-4.4h2.6l1.3-2h1.7 l0.2-3.3l0.9-1.2l-1.8-2.4l-1.2,1.4l-2.7-2.1l-5.7-0.9l-0.9-3.3l-1.7-4.3l-0.2-1.7l2.7-2.1h2.6l3.8-1.9l-0.9-2.8l1.2-1.2l-0.4-6.5 l-1.8-2.1v-2.7l2.6-0.8l-2.7-0.9l-0.2-2.1l1.3-0.9l1.8-1.8l-2-1.3l0.2-2.4l-2.7-0.2l1.4-6l-4-1.8l-6.3,0.2v4.5h-1.8l-0.5-2 l-2.6,0.5L48.1,205.9L48.1,205.9L48.1,205.9L48.1,205.9z"/>
</svg>
