<?xml version="1.0" encoding="utf-8"?>
<!-- Generator: Adobe Illustrator 18.0.0, SVG Export Plug-In . SVG Version: 6.00 Build 0)  -->
<!DOCTYPE svg PUBLIC "-//W3C//DTD SVG 1.1//EN" "http://www.w3.org/Graphics/SVG/1.1/DTD/svg11.dtd">
<svg version="1.1" id="map" xmlns="http://www.w3.org/2000/svg" xmlns:xlink="http://www.w3.org/1999/xlink" x="0px" y="0px"
	 viewBox="0 0 595.3 841.9" enable-background="new 0 0 595.3 841.9" xml:space="preserve">
     <path id="2A" data-departement="2A" data-departement-name="Corse-du-Sud" fill="none" d="M514.1,620.3v2.5l2.3,1.7l3.8,2.1l0.2,1.8l-2.3,0.7l-3.6,0.7v1.5l1.4,1.4l0.2,4.5l5,1.7l1.8,0.5 l1.7,2.5l-1.2,1.7l-1.8,0.7l-1.4,2.5l-1.4,1.7l0.7,4l3.3-0.2l0.9,0.7l3.2-1.7l0.9,0.9l-1.7,3.3l1.7,1.7l-2.6,2l-1.8,4l5,1.2l7,0.7 l-2.9,3.3c0,0-1.4-0.6-1.9-0.2c0,0,0,0-0.1,0l0,0l0,0l0,0l0,0l0,0v0.1l0,0c0,0,0,0,0,0.1c0,0,0,0,0,0.1c0,1.2-1.5,3.8-1.5,3.8 l2.1,2.4l4,2.5l7.6,2l2.1,0.9l2,0.9l-1.4,2.5l3.6-0.2l0.7,1.7h3.6l0.9-4.3l-2.3-0.5l3.2-3.3l-1.2-1.2l0.2-2l4-2.1l0.2-2.5l-2.6-0.2 l-1.8,1.5V668l3.6-0.2l1.2-2.6l0.9-7.9l-0.7-3.3l-0.1-3.2l-3.9,2.5l-4.8,0.2l-0.4-3.2l0.6-0.8l-1.4-1.1l-0.4-5.5l-0.6-1.1h-2.4 l-1.3-1.1v-3.9l-1.7-1.1l-1.3-0.6l-2.4-3.1l0.2-1.8h-3l-1.1-3.1h-4.3l-2.1-3.1l0.6-1.1l-1.4-0.8l-3.2,0.6l-1.3-0.8h-4.5l-0.5-1.3 l-2.5-0.5h-2.1v0.1L514.1,620.3L514.1,620.3z"/>
</svg>
