<?xml version="1.0" encoding="utf-8"?>
<!-- Generator: Adobe Illustrator 18.0.0, SVG Export Plug-In . SVG Version: 6.00 Build 0)  -->
<!DOCTYPE svg PUBLIC "-//W3C//DTD SVG 1.1//EN" "http://www.w3.org/Graphics/SVG/1.1/DTD/svg11.dtd">
<svg version="1.1" id="map" xmlns="http://www.w3.org/2000/svg" xmlns:xlink="http://www.w3.org/1999/xlink" x="0px" y="0px"
	 viewBox="0 0 595.3 841.9" enable-background="new 0 0 595.3 841.9" xml:space="preserve">
     <path id="d2B" data-departement="2B" data-departement-name="Haute-Corse" fill="none" d="M551.7,575.3l-3.3,2.3l0.5,2.1l1.8,2.3l-2,1.5l0.9,1.8l-1.4,1.7v2l2.3,2v3.1l-1.4,2.9l-1.5,0.7 l-1.8-2.5l-3.2,0.2l-0.7-0.5h-2.7l-2.4,2.3l-0.9,3.8l-5.8,1.2l-4.5,3.8l-0.9,2.5l-2.1-0.2l-1.2-1.4l-0.7,3.8l-1.7,0.7l-0.5,3.6 l0.7,1.7l-2.5,1.8l-0.6,1.7l1.9,0.4l0.5,1.3h4.5l1.3,0.8l3.2-0.6l1.4,0.8l-0.6,1.1l2.1,3.1h4.3l1.1,3.1h3l-0.2,1.8l2.4,3.1 l1.3,0.6l1.7,1.1v3.9l1.3,1.1h2.4l0.6,1.1l0.4,5.5l1.4,1.1l-0.1,1.1l0.4,3.2l4.8-0.2l3.9-2.5l-0.1-6.7l5.4-7.6v-12.5l-2.1-4.3 l-0.7-13.5l-2.2-2.6l-2.9-2.1l-0.5-8.3l1.4-3.8l-1.8-6.1l-1.2-5l-0.9-1.4L551.7,575.3L551.7,575.3L551.7,575.3L551.7,575.3z"/>
</svg>
