<?xml version="1.0" encoding="utf-8"?>
<!-- Generator: Adobe Illustrator 18.0.0, SVG Export Plug-In . SVG Version: 6.00 Build 0)  -->
<!DOCTYPE svg PUBLIC "-//W3C//DTD SVG 1.1//EN" "http://www.w3.org/Graphics/SVG/1.1/DTD/svg11.dtd">
<svg version="1.1" id="map" xmlns="http://www.w3.org/2000/svg" xmlns:xlink="http://www.w3.org/1999/xlink" x="0px" y="0px"
	 viewBox="0 0 595.3 841.9" enable-background="new 0 0 595.3 841.9" xml:space="preserve">
     <path id="d30" data-departement="30" data-departement-name="Gard" fill="none" d="M399.6,495.5l-0.7,2.3l-1.4,1.3l-2.6,0.5l3.2,3.5l-0.2,5l1.4,0.4l-1.5,1.7v3.5l-2.6,4l-5.8-0.6 l-3.5-3.2l-2.6,0.8l0.8,2l-0.9,1.2l-6,1.3l-6.9-4.3l-1.6,1.4v3.2l-2.5,0.6l0.7,2.5l3.2,0.7h3.5l0.9,4.4l-4.2,1.9v1.8l3.2,1.2v1.8 l1.4,0.8l1.3-1.1h1.7l0.8,1.8h2.4l1.3-4.3h2l3.1-3.8l3.7,0.4l0.6,5.3l1.4,1.7l2.3-1.3l3.8,2l1.4,2.4l6.7,4l2.4,5.7v3l-4.3,2.4 l-2.7,2.5l3.5,0.2v4.5l5.2-0.2l2.7,0.1l2-4.8l7.3-4.5l-1.7-2.1l1.9-5.1l6.7,0.9l1.7-12.1l8.9-5.1v-2.9l-6.4-7v-5.1l-4.2-6.4 l-7.8-4l-0.6,3.5l-3.2,0.4l-0.9-3.5l-3.2,0.6l-0.6,4.5l-2.5-0.9l-5.4-3.6l-2.5,1.3v-6.3L399.6,495.5z"/>
</svg>
