<?xml version="1.0" encoding="utf-8"?>
<!-- Generator: Adobe Illustrator 18.0.0, SVG Export Plug-In . SVG Version: 6.00 Build 0)  -->
<!DOCTYPE svg PUBLIC "-//W3C//DTD SVG 1.1//EN" "http://www.w3.org/Graphics/SVG/1.1/DTD/svg11.dtd">
<svg version="1.1" id="map" xmlns="http://www.w3.org/2000/svg" xmlns:xlink="http://www.w3.org/1999/xlink" x="0px" y="0px"
	 viewBox="0 0 595.3 841.9" enable-background="new 0 0 595.3 841.9" xml:space="preserve">
     <path id="d31" data-departement="31" data-departement-name="Haute-Garonne" fill="none" d="M307.5 561.7L307.5 559.1 305 559.6 301.9 558.8 298.7 554.9 298.7 554.9 293 552.1 292.6 549.8 292.6 549.8 292.6 549.8 292.6 549.8 293.4 547.5 291.7 545.6 289.7 542.4 289.2 539.3 289.2 539.3 286.5 536.2 285.1 532.9 283.2 532 280 533.3 278.9 534.8 278.9 534.8 278.9 534.8 277.7 533.6 275.6 533.4 275.1 535.4 273.8 536 275.6 537 275.6 537 275.6 537 274.4 539.2 269.2 540.5 269.2 540.5 269.2 540.5 267.2 538 265.2 537.9 263.5 538.9 257.2 539.1 257.2 539.1 257.6 541.4 261.1 544.9 260.9 546.7 263.5 549.3 265.1 549.3 265.1 549.3 265.1 549.3 266 551.4 267.9 551.6 267.9 551.6 267.9 551.6 268.6 553.4 266.5 554.2 262.2 556 260.2 560.8 258.5 565.7 257.4 566.9 257.4 566.9 257.4 566.9 254.3 564.9 246.7 564.3 242.7 569.6 240.3 571 238.8 573.6 237.7 576 237.7 576 237.7 576 237.7 576 235.1 577.6 233.1 581.1 232.9 582.9 236.6 585.6 237.1 588.2 237.1 588.2 237.1 588.2 236.1 590.2 238.3 589.5 239.6 590.6 240.6 594.8 240.6 594.8 240.6 594.8 237.7 596.6 237.9 598.6 237.9 598.6 237.9 598.6 236.6 600 234.5 598.9 232.2 599 232.4 610.9 232.4 610.9 232.4 610.9 241.5 611.8 242 600.7 245.1 601.2 249.8 603.8 251.7 602.1 250.9 600.9 250.9 596.9 253 594.5 258.2 593.1 259 590.1 257.8 589.3 257.6 585.4 262.3 582.5 265 582.3 267.6 583.1 267.6 583.1 267.6 583.1 269.7 585 271.1 585.3 272.3 583.3 271.3 581.8 269.4 581.3 269.4 581.3 269.4 581.3 269.2 580.8 270.6 578.7 275.5 578.2 276 577.1 275.3 575.7 272.3 573.7 272.9 572.4 274.5 571.3 274.5 571.3 275.7 571.6 278 574.7 278.2 576.8 282 577.1 282.9 575.3 281.1 573.2 281.1 573.2 282.6 573.6 286.9 575.6 289.5 575.1 290.7 574.1 290.7 574.1 293.4 572.8 293.9 569.3 297.5 567.6 296.7 565.5 299.9 562.6 301.5 565.5 307.8 563.5 307.8 563.5 307.8 563.5 307.8 563.5z"/>
</svg>
