<?xml version="1.0" encoding="utf-8"?>
<!-- Generator: Adobe Illustrator 18.0.0, SVG Export Plug-In . SVG Version: 6.00 Build 0)  -->
<!DOCTYPE svg PUBLIC "-//W3C//DTD SVG 1.1//EN" "http://www.w3.org/Graphics/SVG/1.1/DTD/svg11.dtd">
<svg version="1.1" id="map" xmlns="http://www.w3.org/2000/svg" xmlns:xlink="http://www.w3.org/1999/xlink" x="0px" y="0px"
	 viewBox="0 0 595.3 841.9" enable-background="new 0 0 595.3 841.9" xml:space="preserve">
     <path id="d32" data-departement="32" data-departement-name="Gers" fill="none" d="M207.6 550.8L207.6 550.8 211.1 550.8 210.9 554.6 213.5 556 216.1 556.3 217.7 559.8 217.7 559.8 217.6 562.2 216.8 563 219.2 564.6 219.4 566.5 222.5 566.4 223.3 565.7 223.3 565.7 223.3 565.7 226 565.7 226.7 567.5 229.6 567.5 230.4 569.2 236.1 569.2 240.3 571 240.3 571 242.7 569.6 246.7 564.3 254.3 564.9 254.3 564.9 254.3 564.9 257.4 566.9 258.5 565.7 260.2 560.8 262.2 556 266.5 554.2 268.6 553.4 267.9 551.6 266 551.4 266 551.4 266 551.4 265.1 549.3 263.5 549.3 263.5 549.3 263.5 549.3 260.9 546.7 261.1 544.9 257.6 541.4 257.2 539.1 254.6 540.1 254.1 538.8 255.3 536.7 253.7 535 253.7 532.1 252.4 530.8 247.8 530.6 247.9 527.8 247.9 527.8 247.9 527.8 250.3 526.1 250.4 524 250.4 524 250.4 524 252.9 522.8 251.6 522 250 522.8 246.7 522.8 245.6 521.9 245.6 521.9 245.6 521.9 245.6 521.9 243.9 523.2 240.6 520.1 233.9 520.7 232.1 524 228.1 524.4 224.3 525.1 222.6 523 219 526.6 216.4 524.2 214.7 527.7 214.9 530.7 212.3 531.3 211.2 529.7 210 526.4 206.8 529 204.7 528.1 202.1 528.6 200 531.2 202.6 535.7 200.8 537.6 201.4 541.4 199.3 544.3 197.6 548.6 199.6 551.5 205.8 552.3 207.6 550.8 207.6 550.8z"/>
</svg>
