<?xml version="1.0" encoding="utf-8"?>
<!-- Generator: Adobe Illustrator 18.0.0, SVG Export Plug-In . SVG Version: 6.00 Build 0)  -->
<!DOCTYPE svg PUBLIC "-//W3C//DTD SVG 1.1//EN" "http://www.w3.org/Graphics/SVG/1.1/DTD/svg11.dtd">
<svg version="1.1" id="map" xmlns="http://www.w3.org/2000/svg" xmlns:xlink="http://www.w3.org/1999/xlink" x="0px" y="0px"
	 viewBox="0 0 595.3 841.9" enable-background="new 0 0 595.3 841.9" xml:space="preserve">
     <path id="d33" data-departement="33" data-departement-name="Gironde" fill="none" d="M163.8,420.2l-3.6,5.4l-1.2,18.9l-2.9,19.2l-2,14.9l-0.2,3.8l1.7-5.2l3.1-4l4.5,4l0.5,1.4 l1.4,1.8l-5.6,0.2l-0.9-1.4l-2.1,0.9l-0.5,3.3l-2.5,3.3v5.4l1.8-0.1l7.1-3.7l3.6,1.8l-0.2,2.6l-1.7,2l1.8,1.3l3.9-1.7l2.6,1.8 l1.7-0.2l2.4-2l4.2-0.6l1.4,1.3l1.3,1.1v1.2l-1.1,1.3l3.7,1.1l2.1,1.4l0.2,1.8l2,0.2l2.9,3.1l0.8,5.1l4,1.4l3.9-0.2v-1.3l-0.5-4 l1.3,0.4l2.9,3.5l3.3-1.8l1.7-1.7l-0.2-2.1l-1.4-1.3l0.5-2.3h2.1l2.1-1.4l-1.1-2l-0.6-3.1l1.7-2.9l3.5-5.3l2-2.4l1.8-0.6l0.4-2 l-2.4-0.2l-1.1-2.1l0.8-2.1l2.9-0.6l2-0.6l2.2-0.4l-0.2-4.7l2.1-1.7l-2.8-1.8l-2.9,3.5l-6.9,0.2l-0.6-1.7l-2-1.1l1.7-2v-2.1 l-0.8-1.3V462l2-1.3l0.6-3.7l1.3-3.2l-1.3-1.8H214l-1.3-1.5l-1.1,2.4l-2.1-1.7l-3.2,1.7l-2.6-0.5l-5.2-5.2l-3.2-0.2l-0.9-7.1 l-5.8-0.7l-0.2-3.3l-1.2,1.2h-6.7l0.4,1.5l1.7,6.5l0.5,6.5l-1.2,1.8l-1.2-5.4l-3.2-12.4L166,425.3l0.2-4.8L163.8,420.2 L163.8,420.2L163.8,420.2L163.8,420.2z"/>
</svg>
