<?xml version="1.0" encoding="utf-8"?>
<!-- Generator: Adobe Illustrator 18.0.0, SVG Export Plug-In . SVG Version: 6.00 Build 0)  -->
<!DOCTYPE svg PUBLIC "-//W3C//DTD SVG 1.1//EN" "http://www.w3.org/Graphics/SVG/1.1/DTD/svg11.dtd">
<svg version="1.1" id="map" xmlns="http://www.w3.org/2000/svg" xmlns:xlink="http://www.w3.org/1999/xlink" x="0px" y="0px"
	 viewBox="0 0 595.3 841.9" enable-background="new 0 0 595.3 841.9" xml:space="preserve">
     <path id="d34" data-departement="34" data-departement-name="Vaucluse" fill="none" d="M384.2,531.5h-2l-1.3,4.3h-2.4l-0.8-1.8H376l-1.3,1.1l-1.4-0.8v-1.8l-3.2-1.2v1.5l-3.8,0.6 l-1.9,1.7l0.6,3.8h-3.5l-3.5-1.9h-1.9v2.1l0.4,6.7l-3.3-0.1l-2.2-0.1l-0.8,1.6l-8.3,2.9l-3.2-2.1l-1.9,2.9l-0.9,3.2l3.5,3.2 l-1.3,4.2L333,563l0.7,3.1l-2,2.4l1.3,2.9l2.4,1.8l2.9-1.8l2,4.3l3.3-1.1l0.2-4h2.9l-0.6-2.4l1.3-0.6l0.5,3.5l2.4,1.4l2-0.2 l2.6,3.9l3.9-0.1l1.1,3.2l1.9,0.4l1-0.3l0.1-1.3l8.1-2.5l0.9-2l6.3-0.2l2-2.5l12.3-9.6l7.6-5.4l2.4,0.2l2.7-2.5l4.3-2.4v-3 l-2.4-5.7l-6.7-4l-1.4-2.4l-3.8-2L393,535l-1.4-1.7l-0.6-5.3l-3.7-0.4L384.2,531.5z"/>
</svg>
