<?xml version="1.0" encoding="utf-8"?>
<!-- Generator: Adobe Illustrator 18.0.0, SVG Export Plug-In . SVG Version: 6.00 Build 0)  -->
<!DOCTYPE svg PUBLIC "-//W3C//DTD SVG 1.1//EN" "http://www.w3.org/Graphics/SVG/1.1/DTD/svg11.dtd">
<svg version="1.1" id="map" xmlns="http://www.w3.org/2000/svg" xmlns:xlink="http://www.w3.org/1999/xlink" x="0px" y="0px"
	 viewBox="0 0 595.3 841.9" enable-background="new 0 0 595.3 841.9" xml:space="preserve">
     <path id="d35" data-departement="35" data-departement-name="Ille-et-Vilaine" fill="none" d="M135,213.7l-2,2.6l1.3,6.8l1.8,0.7l1.2,2.1l-1.2,4.2l-1.2,10.2l-3.6,0.7l-1.8-1.7l-1.7,2.4 l-3.2,1.2l-2.4,5.2l-1.7,1.9l0.6,2.1l-0.9,3.7l-1.7,1.5v1.5l1.2,0.4h3.2l2.7,1.8l1.8,3.3l-1.8,2.1l0.6,2.1h2.5l0.2,2.1l-1.8,2.1 l-2,1.1l1.3,0.8l0.4,1.2l-2,1.7l2.4,4.6l4.6-2.3l13.9-0.7l0.9-2.5l2.3-2.1l5-0.7l0.2-2.5l3.3,1l2,2.6l4.3,1l0.9-1.7l1.5-4.6 l2.9-7.1l1.7-0.9l3.8,0.5v-6.1l-1.7-1.7v-6.5l-0.7-2.1V242l2.3-2.3v-4.5l-1.2-0.9l0.2-5.8l-1.9-1.2H169l-2.3-1.8l-2.4,2.9l-2,0.2 l-1.8,2.4l-1.8-0.5l-3.8-3.3l-1.4-4.3l-0.7-2.9l-11.2-0.1l-4-2.5l2.6-3.6L135,213.7L135,213.7L135,213.7L135,213.7z"/>
</svg>
