<?xml version="1.0" encoding="utf-8"?>
<!-- Generator: Adobe Illustrator 18.0.0, SVG Export Plug-In . SVG Version: 6.00 Build 0)  -->
<!DOCTYPE svg PUBLIC "-//W3C//DTD SVG 1.1//EN" "http://www.w3.org/Graphics/SVG/1.1/DTD/svg11.dtd">
<svg version="1.1" id="map" xmlns="http://www.w3.org/2000/svg" xmlns:xlink="http://www.w3.org/1999/xlink" x="0px" y="0px"
	 viewBox="0 0 595.3 841.9" enable-background="new 0 0 595.3 841.9" xml:space="preserve">
     <path id="d36" data-departement="36" data-departement-name="Indre" fill="none" d="M294.5,312.1l-1.4,0.4l-2.9-0.2l-3.3,1.2l-0.8,1.8l-0.4-0.7l-3.9,0.2l-1.9,1.7l-2.3,0.5l-0.2,1.4 l1.8,2.4l-0.5,2l-2,0.1v1.8l-1.7,1.5l-1.8,2.9l-1.7-1.5l-2.4-0.5l-3.6,1.3l-0.8,4l-1.2,3.2l-1.8,9.2l-3.4,2.8l0,0l0,0v4.7 l-0.9,2.6l4.3,3.3l2.1,2.1l3.6,0.5l1.4,4.8l2.4,1.4l-2.1,3.6l0,0l0,0l5.6,0.7l2-2l3.9,3.3l4.4-5l2,1.4l2.6-0.2l0.9,0.5l4,0.2 l1.4-3.6l11,1l4.3,1.2l2.1-0.2v-1.8l2.3-2.3l-0.5-1.9l-1.3-2.5l0.5-0.9l0.4-3.1l0,0l0.8-1.3l-1.9-1.8l-0.7-2.3l-3.1-1.7V346 l2.1-1.3v-1.3l-2-1.8l-0.7-1.2l1.7-0.8l-0.1-1.4l2.5-2l-0.1-0.9l-2.5-0.4l0,0l-0.7-1.8l1.2-2V330l-2.5-3.5l0.5-3.1l-1.5-1.2 l-3.1,0.1l-2.4,0.9l-3.2-0.5l-1.7-1.3l-0.4-0.9l2.5-2l0.2-2.6l-3.6-1.8L294.5,312.1L294.5,312.1L294.5,312.1L294.5,312.1z"/>
</svg>
