<?xml version="1.0" encoding="utf-8"?>
<!-- Generator: Adobe Illustrator 18.0.0, SVG Export Plug-In . SVG Version: 6.00 Build 0)  -->
<!DOCTYPE svg PUBLIC "-//W3C//DTD SVG 1.1//EN" "http://www.w3.org/Graphics/SVG/1.1/DTD/svg11.dtd">
<svg version="1.1" id="map" xmlns="http://www.w3.org/2000/svg" xmlns:xlink="http://www.w3.org/1999/xlink" x="0px" y="0px"
	 viewBox="0 0 595.3 841.9" enable-background="new 0 0 595.3 841.9" xml:space="preserve">
     <path id="d37" data-departement="37" data-departement-name="Indre-et-loire" fill="none" d="M245.5,284l0.4,1l-6.5,1.8l-1.5,2.3l-2.7-1.8l1.4,4.5H234l-4.5-3.2l-1.8,4.5l1.2,1.4v1.4l-2.3,3 l0.2,5l-3.6,4.3l-2.4,9.2l0,0l1,3.6l4.3,0.9v2.8l5.4,1.7v4.3l-0.2,2.6h6.7l5.8-1.4l-0.5-2.5l1.8-1.2l1.8,2.5l1.7,0.7l1.4,5.4 l3.8,4l0.8,3.1l3.9,3.6l0,0l3.4-2.8l1.8-9.2l1.2-3.2l0.8-4l3.6-1.3l2.4,0.5l1.7,1.5l1.8-2.9l1.7-1.5v-1.8l2-0.1l0.5-2l-1.8-2.4 l0.2-1.4l-1.3-1l-3.3-5h-4.4l-1.3-1.9v-8.1l-1.8-4.8l-0.4-5.7l-2.3-0.2l-2.5-1.9h-0.6l-2.3,1.7L256,289l-0.4-2.1l1.7-0.8l0.1-0.8 l-0.9-0.8L245.5,284L245.5,284L245.5,284L245.5,284z"/>
</svg>
