<?xml version="1.0" encoding="utf-8"?>
<!-- Generator: Adobe Illustrator 18.0.0, SVG Export Plug-In . SVG Version: 6.00 Build 0)  -->
<!DOCTYPE svg PUBLIC "-//W3C//DTD SVG 1.1//EN" "http://www.w3.org/Graphics/SVG/1.1/DTD/svg11.dtd">
<svg version="1.1" id="map" xmlns="http://www.w3.org/2000/svg" xmlns:xlink="http://www.w3.org/1999/xlink" x="0px" y="0px"
	 viewBox="0 0 595.3 841.9" enable-background="new 0 0 595.3 841.9" xml:space="preserve">
     <path id="d38" data-departement="38" data-departement-name="Isère" fill="none" d="M459.5,401.2L458,403l-1.5,4.4l-3,1.5l-3.2-3l-2.1,0.4l-0.1,2.7l3.2,2.6l-4.9,6.3l-6.3,1.5 l-4.9,1.8l3.2,3.2l0.8,1.5l-5,2.3l-0.8,7.4l0,0l1.8,3.1l3.5,1l2.6-0.9l3.1-2.2l4.7,3.7h3.5l2.4,3.5l-1.1,2.4l0.5,3.5l-1.3,3.5 l0.5,1.3l1.8-0.5l3.9,1.3l5.2,1.5l2.1-1.5l0.9-1.8h0.8l0.2,18.3l1.3,1.3h3.2l2.9,1.8l2.1,1.8l2.1,0.2l1.4,1.3l3.7,0.9l0.4-1.4 l-1.8-0.9v-2.6h5.6l1.8-1.8l-1.2-2l2.9-2.3l2,0.9l2.9-2.5l5.2,0.9l1.8-2l4.3,0.2v-5l-1.8-0.9l-0.9-2.9l-4.8-0.5l-0.7-1.2l0.9-4.8 l1.6-1.5l-1.5-1.7l-2.4-1.5l-1.5,1.5l0.5-1.9v-1.9l-1.9-1.9l1.1-4.6l2.1-1.3l-0.2-3.2l-4.6-4.6h-1.8l-1.3,1.8l-2.9-3.9l-1.8,0.2 l-1.5,3.2l1.1,1.9l-0.8,0.8l-1.9-1.5l-5.6-1.3l-2.6-4.9v-1.9l-2.6-2.9l-0.2-1.4l-8.9-10.8l-1.1-3.2l-1.9-1.8L459.5,401.2 L459.5,401.2L459.5,401.2L459.5,401.2z"/>
</svg>
