<?xml version="1.0" encoding="utf-8"?>
<!-- Generator: Adobe Illustrator 18.0.0, SVG Export Plug-In . SVG Version: 6.00 Build 0)  -->
<!DOCTYPE svg PUBLIC "-//W3C//DTD SVG 1.1//EN" "http://www.w3.org/Graphics/SVG/1.1/DTD/svg11.dtd">
<svg version="1.1" id="map" xmlns="http://www.w3.org/2000/svg" xmlns:xlink="http://www.w3.org/1999/xlink" x="0px" y="0px"
	 viewBox="0 0 595.3 841.9" enable-background="new 0 0 595.3 841.9" xml:space="preserve">
     <path id="d39" data-departement="39" data-departement-name="Jura" fill="none" d="M463.2,307.5L463.2,307.5l-0.9,0.6l-0.5,3.6l-0.7,2.5l0.5,1.7l-1.4,1.8l-1.4,1.8v1.8l-3.8,1.8 l-1.2,1.8l0.5,1.4l0.2,1.2l-1.5,0.9L453,331l1.8,0.2l2,3.3h2.5l1.4,1.7h1.7l-0.5,1.8l-5.2,0.7l0.5,1.8l1.8,1.2v2.1l-0.7,0.7 l1.4,1.8l2,3.6l-0.9,3.8l-2.3,1.7l0.2,3.1l2.6,0.9l0.9,1.4l-2.4,1.8l-4,1.8l0,0l5.2,6.7l2.9,1.4v3.2l3.3-0.5l4.3-4.8l3.6,1.8v2.6 h6.5l9.3-10.2l0,0l0.5-4.8l3.3-4l-2.3-0.9l0.4-1.9h-2.7l-0.2-1.7l1.8-1.8l-0.5-1.8l-0.9-2.3l4-1.3l1.5-2l0.4-2.5l-3.2-3.1 l-2.3-0.6l-5-1.7v-4.5l-0.3-3.3l-4,0.4l-6.3-2l0.9-2.1l1.4-3.5l0.5-2.1l-1.7-2l-3.1-2.6l0,0l-0.1-3.1l-2-0.2l-1.2,1.2h-2.9 l-1.9-1.7L463.2,307.5L463.2,307.5L463.2,307.5L463.2,307.5z"/>
</svg>
