<?xml version="1.0" encoding="utf-8"?>
<!-- Generator: Adobe Illustrator 18.0.0, SVG Export Plug-In . SVG Version: 6.00 Build 0)  -->
<!DOCTYPE svg PUBLIC "-//W3C//DTD SVG 1.1//EN" "http://www.w3.org/Graphics/SVG/1.1/DTD/svg11.dtd">
<svg version="1.1" id="map" xmlns="http://www.w3.org/2000/svg" xmlns:xlink="http://www.w3.org/1999/xlink" x="0px" y="0px"
	 viewBox="0 0 595.3 841.9" enable-background="new 0 0 595.3 841.9" xml:space="preserve">
     <path id="d40" data-departement="40" data-departement-name="Landes" fill="none" d="M162.2,488.4l-7.1,3.7l-1.8,0.1l-4,21.4l-5.2,19.8l-1.7,7.7l-1.4,5.4l-3.2,5.7l6.5,3l5.8-0.4 l3.3-2.9l2.9,2.1l-1.5,1.5l1.3,0.5l1.1-1.4l5.1,0.4l2.7-1.9l5.3,0.2l2-1.1h3.2l0.8,1.1l2.6-0.8l2.4,1.8l3.2-1.1l4.3-1.4l0.6,1.1 h6.7l3.3-1.6l-1.9-2.9l1.7-4.3l2.1-2.9l-0.7-3.8l1.8-1.8l-2.6-4.5l2.1-2.6l2.5-0.5l2.1,0.9l3.2-2.6l1.2,3.3l1.2,1.7l2.5-0.7 l-0.2-2.9l0.8-1.7l-0.7-1.4l0.6-4.5l2.4-2.4l-1.3-1.4l-2.6-0.2l-3.1-1.2l-4.5,0.4l-0.8-4.9l-2.9-3.5l-1.3-0.4l0.5,4v1.3l-3.9,0.2 l-4-1.4l-0.8-5.1l-2.9-3.1l-2-0.2l-0.2-1.8l-2.1-1.4l-3.7-1.1l1.1-1.3v-1.1l-1.3-1.1l-1.4-1.3l-4.2,0.6l-2.4,2l-1.7,0.2l-2.6-1.8 l-3.9,1.7l-1.8-1.3l1.7-2l0.2-2.6L162.2,488.4L162.2,488.4L162.2,488.4L162.2,488.4z"/>
</svg>
