<?xml version="1.0" encoding="utf-8"?>
<!-- Generator: Adobe Illustrator 18.0.0, SVG Export Plug-In . SVG Version: 6.00 Build 0)  -->
<!DOCTYPE svg PUBLIC "-//W3C//DTD SVG 1.1//EN" "http://www.w3.org/Graphics/SVG/1.1/DTD/svg11.dtd">
<svg version="1.1" id="map" xmlns="http://www.w3.org/2000/svg" xmlns:xlink="http://www.w3.org/1999/xlink" x="0px" y="0px"
	 viewBox="0 0 595.3 841.9" enable-background="new 0 0 595.3 841.9" xml:space="preserve">
     <path id="d41" data-departement="41" data-departement-name="Loir-et-Cher" fill="none" d="M257.6,255.5l-1.6,2.1l-1.8,3.1l2.1,2l-0.2,4.8l-0.9,3.1h-2.3v4.3l-3.1,4l-3.3,1.4l-1.7,2 l0.8,1.8l11,0.6l0.9,0.8l-0.1,0.8l-1.7,0.8l0.4,2.1l1.4,0.9l2.3-1.7h0.7l2.5,1.9l2.3,0.2l0.4,5.7l1.8,4.8v8.1l1.3,1.9h4.4l3.3,5 l1.3,1l0,0l2.3-0.5l1.9-1.7l3.9-0.2l0.4,0.7l0.8-1.8l3.3-1.2l2.9,0.2l1.4-0.4l1.8,1.9l3.6,1.8l3-0.5l-0.1-2.9l1.3-1.4l1.3-0.1 l1.2,1.3l4.5-0.5l2.9-1.7l-0.4-1.2l-0.8-0.9l0.1-2l2-3.8l2.7-1.2v-2.4l0.7-1.4l-1.8-0.7l-1.2-2.4l-2.9-0.8l-0.3-1l2.9-2.4l3.4-1.8 l-1.7-2.9l-8.3-0.4l-1.2,1.3h-2.3l-0.8-0.8l-3.6-0.5l-0.9,2l-2.3,0.7l-2-2.4l-0.5-2.7l-1.9-1.7l-2.9-0.4l-2-1.4V278l-1.3-3.1 l2.5-2.5l-0.4-1.3l-1.2-1.3h-1.3v-1l1.3-2.1l0.1-1.3l-2-0.1l-2.9-0.4l-2.7,2.5l-3.1,0.4l-5-1.3l-1.4-3.2l-1.9-1.2l-1.2-2.5H264 l-1.3-0.9l1.9-1.2l0.1-0.9h-1.6l-3.6,0.7L257.6,255.5L257.6,255.5L257.6,255.5L257.6,255.5z"/> </g>
</svg>
