<?xml version="1.0" encoding="utf-8"?>
<!-- Generator: Adobe Illustrator 18.0.0, SVG Export Plug-In . SVG Version: 6.00 Build 0)  -->
<!DOCTYPE svg PUBLIC "-//W3C//DTD SVG 1.1//EN" "http://www.w3.org/Graphics/SVG/1.1/DTD/svg11.dtd">
<svg version="1.1" id="map" xmlns="http://www.w3.org/2000/svg" xmlns:xlink="http://www.w3.org/1999/xlink" x="0px" y="0px"
	 viewBox="0 0 595.3 841.9" enable-background="new 0 0 595.3 841.9" xml:space="preserve">
     <path id="d43" data-departement="43" data-departement-name="Haute-Loire" fill="none" d="M367.2,433l-1.7,0.8v1.4l-2.4,0.2l-2.1,1.8l-4,0.6l-0.9,1.2l0.7,0.3l1.1,2.9h5.1l1.1,3.7l1.4,1.4 l0.4,3.9l1.3,2l2.4,0.2l-1.5,1.3l-1.2,0.4l1.1,1.1l-1.3,1.8l2.4,1.4l1.3,1.8l0.4,1.7l4.2,10.5l5.8-1.8l0.5-2.6h2.3l0.9,3.1 l4.2-1.1l5.2,6.8l3.1-5.3l5.8-4.3h5.4l1.8-5.6l3.6-0.2l0.2-4.3h3.3l-0.7-1.7l-0.9-2.9l1.4-2.3l3.2-1.4l1.3-5.4l-2.8-3.3l-3.6,0.2 l0.5-4.3l-7.1-3.1l-2.4,0.2l-5,4l-4.4-1.3l-0.9,0.7l-2.9-0.8l-2-2l-1.3,2.4l-3.5-0.2l-1.7-1.4l-1.3,2.9l-2.1-1.1l-1.4-2.6h-1.8 l-1.7-1.4l-2.4,1.1l-2.9,0.2l-1.7-1.1l-1.1,0.6L367.2,433L367.2,433L367.2,433L367.2,433z"/>
</svg>
