<?xml version="1.0" encoding="utf-8"?>
<!-- Generator: Adobe Illustrator 18.0.0, SVG Export Plug-In . SVG Version: 6.00 Build 0)  -->
<!DOCTYPE svg PUBLIC "-//W3C//DTD SVG 1.1//EN" "http://www.w3.org/Graphics/SVG/1.1/DTD/svg11.dtd">
<svg version="1.1" id="map" xmlns="http://www.w3.org/2000/svg" xmlns:xlink="http://www.w3.org/1999/xlink" x="0px" y="0px"
	 viewBox="0 0 595.3 841.9" enable-background="new 0 0 595.3 841.9" xml:space="preserve">
     <path id="d44" data-departement="44" data-departement-name="Loire-Atlantique" fill="none" d="M154.3,271.2l-0.2,2.5l-5,0.7l-2.3,2.1l-0.9,2.5l-13.9,0.7l-4.6,2.3l-1.4,0.7l-0.2,6.3l-6.3,2.5 l-4.3,2.1h-3.5l-1.4-1.5l-2,2h-1.1l1.5,1.1l-4.3,3.8l0.9,0.9l0.9,1.8l-2.3,3.2l2.5,1.4l4.3,0.9l0.5-1.8l2.5,3.2h3.9l2.9-3.2h3.8 l-4,2l0.2,2.3l0.9,2l-2.5,2.5h-2.6l0.5,3.3l5-0.9l5.7,5.6l0,0l4.2,2.8l0.9,2.1l3.9,1.8l3,0.4l1.3,3.6l4.6,1.2l3.1,0.6l1.8-1.8 l-1.8-2.4l-0.7-5.2l1.5-1.7h2l0.9,2l-0.6,3.7l1.3,0.9l3.3-1.2l1.2-3.7l-1.5-1.5h3.7l1.3-2.5l1.7,0.1l3,2.7l1.9,0.2l0.1-2.2 l-1.8-2.4h-1.7l-0.6,0.2l-1.2-0.6l0.9-0.9V317l1.8-0.6l1.2-2.5l-0.9-0.9l-0.2-3.2h-2.3l-2.4-3v-2.1l2.5-1.4l4.6-0.9l7.1,0.1 l2.1-1.5l-0.8-4.6l-3.3-3.1l-4,0.6l-1.2-0.9l-0.2-3.3l3-2.6l-2.1-2.7l-1.5-3.9l-2.4-1.5l-0.1-3.2l0,0l-4.3-1l-2.1-2.7L154.3,271.2 L154.3,271.2L154.3,271.2L154.3,271.2z"/>
</svg>
