<?xml version="1.0" encoding="utf-8"?>
<!-- Generator: Adobe Illustrator 18.0.0, SVG Export Plug-In . SVG Version: 6.00 Build 0)  -->
<!DOCTYPE svg PUBLIC "-//W3C//DTD SVG 1.1//EN" "http://www.w3.org/Graphics/SVG/1.1/DTD/svg11.dtd">
<svg version="1.1" id="map" xmlns="http://www.w3.org/2000/svg" xmlns:xlink="http://www.w3.org/1999/xlink" x="0px" y="0px"
	 viewBox="0 0 595.3 841.9" enable-background="new 0 0 595.3 841.9" xml:space="preserve">
     <path id="d45" data-departement="45" data-departement-name="Loiret" fill="none" d="M316.4,242.1l-2.9,2.6l-7.1,0.9l0,0l0.9,1.4l-2,1.8l0.5,4.3l-1.8,0.4l-1.2,4.2l-1.9,2h-2.7 l-2.5,1.4l-1.4-1.7l-1.7-0.7l-1.8,1.2v1.8l-1.3,0.9l-2-1.3l-1.3,0.9l0.1,1.4l-0.5,1.9l0,0l2,0.1l-0.1,1.3l-1.3,2.1v1h1.3l1.2,1.3 l0.4,1.3l-2.5,2.5l1.3,3.1v1.4l2,1.4l2.9,0.4l1.9,1.7l0.5,2.7l2,2.4l2.3-0.7l0.9-2l3.6,0.5l0.8,0.8h2.3l1.2-1.3l8.3,0.4l1.7,2.9 l2.7,0.7l1.9,1.8l2.4-0.4l0.7-0.8h1.4l1.8,2.3l3.7,0.2l0.9,1.3l2.5,3.6l1.2,0.9l1.4-0.1l0.2-3.2l0.7-0.4l0.9,0.1l1.7,2l1.2,0.5 l2.2-1l0,0l-0.4-2.5l3.9-1.1l-0.1-2.8l-0.7-3.6l-2.9-4l-0.7-2.5h4.5l3.2-2.3l0.5-3.3l-2-2.3l5.8-5v-4l-3-3.1l-1.2-3.6l-4-3.8 l-5.5,3.2l-0.5-1.8l-2.5-0.2l-0.7,1.8l-2.1,0.5l-6.1-0.2l-2.5,1.7l-2-1.8l3.6-2.5l-0.2-3.8l-2.6-1.4l-2.1-2.8l-6.3-1L316.4,242.1 L316.4,242.1L316.4,242.1L316.4,242.1z"/>
</svg>
