<?xml version="1.0" encoding="utf-8"?>
<!-- Generator: Adobe Illustrator 18.0.0, SVG Export Plug-In . SVG Version: 6.00 Build 0)  -->
<!DOCTYPE svg PUBLIC "-//W3C//DTD SVG 1.1//EN" "http://www.w3.org/Graphics/SVG/1.1/DTD/svg11.dtd">
<svg version="1.1" id="map" xmlns="http://www.w3.org/2000/svg" xmlns:xlink="http://www.w3.org/1999/xlink" x="0px" y="0px"
	 viewBox="0 0 595.3 841.9" enable-background="new 0 0 595.3 841.9" xml:space="preserve">
     <path id="d46" data-departement="46" data-departement-name="Lot" fill="none" d="M265.3 500.2L265.3 500.2 265.7 501.4 264.1 503.2 265.3 505.6 267.1 505.7 267.1 505.7 267.1 505.7 269.2 507.7 271 507.8 272.5 506.3 272.5 506.3 272.5 506.3 272.5 506.3 272.7 508.7 273.5 511.2 277.6 511.5 281.1 507.8 283 507.6 283 507.6 283 507.6 283.5 508.7 284.7 510.7 286.4 510.8 286.9 506.8 290.4 507.3 292.6 504.9 292.6 504.9 292.6 504.9 295.5 505.6 300.5 503.8 300.5 503.8 300.5 503.8 300.5 503.8 302.3 502.6 300.4 499.4 299.6 495.5 299.6 495.5 299.6 495.5 302.2 493.3 303.5 493.7 307.2 489.7 309.1 489.9 309.9 488.8 314 488.8 315.3 487.1 315.6 486 315.6 486 315.7 485.7 313.9 485.5 315.1 481.7 312.2 480.5 315.1 473.8 311.4 470.8 310.1 462.6 306.5 461.7 304 464.2 302.7 462.1 298.9 465.9 296.4 466.3 292 459.9 286.3 457.1 281.4 459.3 280.8 459.5 280.8 459.5 279.4 460.9 279.4 463.5 281.4 465.6 279.4 469.2 277.5 470.4 277.3 472.5 273.5 473 273.7 475.4 275.1 475.9 271.9 480.4 266.9 480.9 266.7 484.2 264.7 486.2 263.5 489.2 259 489.4 260.9 496.1 262.6 500.4z"/>
</svg>
