<?xml version="1.0" encoding="utf-8"?>
<!-- Generator: Adobe Illustrator 18.0.0, SVG Export Plug-In . SVG Version: 6.00 Build 0)  -->
<!DOCTYPE svg PUBLIC "-//W3C//DTD SVG 1.1//EN" "http://www.w3.org/Graphics/SVG/1.1/DTD/svg11.dtd">
<svg version="1.1" id="map" xmlns="http://www.w3.org/2000/svg" xmlns:xlink="http://www.w3.org/1999/xlink" x="0px" y="0px"
	 viewBox="0 0 595.3 841.9" enable-background="new 0 0 595.3 841.9" xml:space="preserve">
     <path id="d47" data-departement="47" data-departement-name="Lot-et-Garonne" fill="none" d="M221.7,476.8l-2.9,0.6l-0.8,2.1l1.1,2.1l2.4,0.2l-0.4,2l-1.8,0.6l-2,2.4l-3.5,5.3l-1.7,2.9 l0.6,3.1l1.1,2l-2.1,1.4h-2.1l-0.5,2.3l1.4,1.3l0.2,2.1l-1.7,1.7l-3.3,1.8l0.8,4.9l4.5-0.4l3.1,1.2l2.6,0.2l1.3,1.4l-2.4,2.4 l-0.6,4.5l0.7,1.4l1-1.9l2.6,2.3l3.6-3.6l1.7,2.1l3.8-0.7l4-0.5l1.8-3.2l6.7-0.7l3.3,3.1l1.7-1.3l0,0l0,0l1.8-0.5l-0.9-3.1 l3.3-0.9l4.3-0.9l-0.9-2.6l1.4-1.7l1.2-4.3l-2.5-2.6l1.7-5.2l2.9,1.7l4.9-1.5l0,0l0,0l-1.8-4.3l-1.8-6.7l4.5-0.2l1.2-3l-3.8-0.6 l-1.7-1.8h-2.4l-2.9,2.6l-2.1-0.2l-0.6-1.4l1.7-1.1v-1.4l-1.8-2l-1.7-0.2l-1.1,1.3h-4.5l-0.4-1.7l-1.4-0.2l-2.4,2h-4.5l-2,1.8 l-3.5-1.3l0.7-5.2l-2-0.6l-2.1-0.7l-2.2,0.4L221.7,476.8z"/>
</svg>
