<?xml version="1.0" encoding="utf-8"?>
<!-- Generator: Adobe Illustrator 18.0.0, SVG Export Plug-In . SVG Version: 6.00 Build 0)  -->
<!DOCTYPE svg PUBLIC "-//W3C//DTD SVG 1.1//EN" "http://www.w3.org/Graphics/SVG/1.1/DTD/svg11.dtd">
<svg version="1.1" id="map" xmlns="http://www.w3.org/2000/svg" xmlns:xlink="http://www.w3.org/1999/xlink" x="0px" y="0px"
	 viewBox="0 0 595.3 841.9" enable-background="new 0 0 595.3 841.9" xml:space="preserve">
     <path id="d48" data-departement="48" data-departement-name="Lozère" fill="none" d="M364.4,465.1l-1.8,4l-4-2.6l-3.2,9.9l-3.4,8l4.8,5.8l-0.4,4.5l3.2,2.1v5.4l0.9,7.6l3.8,1.7 l-0.4,2.5l5.4-0.9l1.9,0.9l-1,0.8l6.9,4.3l6-1.3l0.9-1.2l-0.8-2l2.6-0.8l3.5,3.2l5.8,0.6l2.6-4v-3.5l1.5-1.7l-1.4-0.4l0.2-5 l-3.2-3.5l2.6-0.5l1.4-1.3l0.7-2.3l0,0v-5.2l-3.8-4.2l-2-8.6l-5.2-6.8l-4.2,1.1l-0.9-3.1h-2.3l-0.5,2.6l-5.8,1.8l-4.2-10.5 L364.4,465.1z"/>
</svg>
