<?xml version="1.0" encoding="utf-8"?>
<!-- Generator: Adobe Illustrator 18.0.0, SVG Export Plug-In . SVG Version: 6.00 Build 0)  -->
<!DOCTYPE svg PUBLIC "-//W3C//DTD SVG 1.1//EN" "http://www.w3.org/Graphics/SVG/1.1/DTD/svg11.dtd">
<svg version="1.1" id="map" xmlns="http://www.w3.org/2000/svg" xmlns:xlink="http://www.w3.org/1999/xlink" x="0px" y="0px"
	 viewBox="0 0 595.3 841.9" enable-background="new 0 0 595.3 841.9" xml:space="preserve">
     <path id="d49" data-departement="49" data-departement-name="Maine-et-Loire" fill="none" d="M164.8,274.2l-0.9,1.7l0,0l0,0l0.1,3.2l2.4,1.5l1.5,3.9l2.1,2.7l-3,2.6l0.2,3.3l1.2,0.9l4-0.6 l3.3,3.1l0.8,4.6l-2.1,1.5l-7.1-0.1l-4.6,0.9l-2.5,1.4v2.1l2.4,3h2.3l0.2,3.2l0.9,0.9l-1.2,2.5l-1.8,0.6v1.8l-0.9,0.9l1.2,0.6 l0.6-0.2h1.7l1.8,2.4l-0.1,2.2h0.8l1.8,1.2h5.7l2.5,2.7l4.4-1.9l7,1.7l3.1-2v-3.1l6.1-0.5l5.6-1.2l6.1-0.2l0.2,1.7l1.9,0.9 l1.8-2.2l4.5-4.5l1.8,0.1l2.4-9.2l3.6-4.3l-0.2-5l2.3-3v-1.4l-1.2-1.4l0.6-1.6l-3.1-1.2l-9.4-5.7L207,282l-3.3-0.2v-2.1l-2.1-1.9 h-2l-4.2-1.3l-2.5,2.5l-6,0.2l-2.6-1.5l-6.7-2l-1.5,1.8l-3.7-2.4H169L164.8,274.2L164.8,274.2L164.8,274.2L164.8,274.2z"/>
</svg>
