<?xml version="1.0" encoding="utf-8"?>
<!-- Generator: Adobe Illustrator 18.0.0, SVG Export Plug-In . SVG Version: 6.00 Build 0)  -->
<!DOCTYPE svg PUBLIC "-//W3C//DTD SVG 1.1//EN" "http://www.w3.org/Graphics/SVG/1.1/DTD/svg11.dtd">
<svg version="1.1" id="map" xmlns="http://www.w3.org/2000/svg" xmlns:xlink="http://www.w3.org/1999/xlink" x="0px" y="0px"
	 viewBox="0 0 595.3 841.9" enable-background="new 0 0 595.3 841.9" xml:space="preserve">
     <path id="d50" data-departement="50" data-departement-name="Manche" fill="none" d="M138.9,146.5l-0.9,2.3l4.8,3.8v5l-1.8,2.1l1.2,1.2l0.7,0.5l-0.5,4.3l1.7,3.6l5.2,5.8l1.2,5.2 l1.2,1.7v8.1l2.6,5.4v6.3l-2.9,5.8l3.1,8.1l5,1.2l0.5,2.3l-2.4,1.2l-4.5-0.3l0.7,2.9l1.4,4.3l3.8,3.3l1.8,0.5l1.8-2.4l2-0.2 l2.4-2.9l2.3,1.8h2.6l1.9,1.2l0,0l3.8,0.6l2.3-1.8l3.4,1.5l0,0l4-3l1.3-4.3l-0.4-1.8l0.6-2.1l-2.1-2.1l-2.7-1.8l-3.2-1.9l-4.3-0.4 l-4.3-5.4l3.6-1.3l1.5-2.7l-1.8-1.8l1.7-1.5l1.7,1.3l3-1.8l1.8-3l0.7-3l-1.3-2.6l0.8-0.9l-1.8-2.7l1.8-2.4l-1.5-1.8l-1.8,2.4 l-2.5-1.5l-4.3-4.3l-0.2-1.8l1.3-1.3l-0.5-2.5l-1.8,0.8l-0.2-5.4l-5.8-6.9l1.8-4.5h2.5l-2.1-6.1l-9.6-0.5l-5.2,3.6l-5.8-3.8 L138.9,146.5L138.9,146.5L138.9,146.5L138.9,146.5z"/>
</svg>
