<?xml version="1.0" encoding="utf-8"?>
<!-- Generator: Adobe Illustrator 18.0.0, SVG Export Plug-In . SVG Version: 6.00 Build 0)  -->
<!DOCTYPE svg PUBLIC "-//W3C//DTD SVG 1.1//EN" "http://www.w3.org/Graphics/SVG/1.1/DTD/svg11.dtd">
<svg version="1.1" id="map" xmlns="http://www.w3.org/2000/svg" xmlns:xlink="http://www.w3.org/1999/xlink" x="0px" y="0px"
	 viewBox="0 0 595.3 841.9" enable-background="new 0 0 595.3 841.9" xml:space="preserve">
     <path id="d51" data-departement="51" data-departement-name="Marne" fill="none" d="M389.7,171.6l-2.6,1.2l0.5,2.1h-4.8l-4.3,3.2v6.2l3.1,2l0.9,2l-5.2,0.5l-0.7,2l2,1.4l-0.9,1.4 l-2,0.9l0.5,1.5h2.9l1.2,1.7l-2,1.4l-1.8,4.8l-3.3,1.7l-1.5,2.9l0,0l-0.5,2l-1.8,1.2l-0.5,3.1l1.8,1.2l0.9,3.3l-1.2,2l0.7,1.7 l3.4,0.7l0,0l0,0l4.6,4.1l5.5-0.9l6.4-4.4h3.8l3.9-2.7l4.7-2.6l3.4,0.1l0.5,4.6l4.2,6.1h4.6l7.4-0.6l3.5,1.2l4.9-3.5l0.7-5.6 l5.3-0.9l-0.2-3.5l-4.3-3.3l-0.5-1.8l1.7-2.6l-1.4-1.2l1.4-3.3l2.5-1.2l1.8-5.6l-3.6,0.2l2-2.1l-1.7-5l-1.5-3.3l1.5-1.9l0,0 l-0.7-2.3l0,0l-2.2-1.3l-2.3,2.3h-0.7l-0.9-1.2l-5.5-0.2l-0.9,1.4h-1.8l-1.4-3l-3.4,0.3l0,0l-3.4,0.1l-3.7-2.7l-2.5-0.7l-0.9-1.4 l-4.9-3H395v1.8l-1.7,0.5L389.7,171.6L389.7,171.6L389.7,171.6L389.7,171.6z"/>
</svg>
