<?xml version="1.0" encoding="utf-8"?>
<!-- Generator: Adobe Illustrator 18.0.0, SVG Export Plug-In . SVG Version: 6.00 Build 0)  -->
<!DOCTYPE svg PUBLIC "-//W3C//DTD SVG 1.1//EN" "http://www.w3.org/Graphics/SVG/1.1/DTD/svg11.dtd">
<svg version="1.1" id="map" xmlns="http://www.w3.org/2000/svg" xmlns:xlink="http://www.w3.org/1999/xlink" x="0px" y="0px"
	 viewBox="0 0 595.3 841.9" enable-background="new 0 0 595.3 841.9" xml:space="preserve">
     <path id="d52" data-departement="52" data-departement-name="Haute-Marne" fill="none" d="M437.8,218.2l-5.3,0.9l-0.7,5.6l-4.9,3.5l-3.5-1.2l-0.2,2.6l-0.1,3.2l4.2,5.7l3.9,1.4l0.9,4.9 l0.2,8.2l-1.4,2l-3.9,0.2l-2.5,2.3l1.8,1.2l0.2,2.4l3.2,1.9l4,4.3l5.2,7.1l-2.9,3.1l2,1.4l0.2,3.8l3.6-0.2l0.9,1.8l2.6,0.2l2-1.2 l3.6,4.5l0.5,1.2l5-1.2l1-2.2l0,0l0.1-2.1l3.1-1.4l3.6,1.4l3.3-1.4h2l0.7-4.5l1.2-1.4l-2-0.2l-0.2-2.6l3.1-0.7l0.2-1.8h3.2v-2.9 l2.5-0.9l-0.7-1.9l0.7-0.4l-2-1.8l-2.4,1.1v-4.8l-6.3-3l1.4-6.2l2-1.4l-0.7-2l-3-0.5l-0.7-3h-2.6l-3.2-4.3l-3.6-0.2l-1.5-2.1 l1.8-1.8l-4.6-5.3l-2-0.7l-5.4-2.6l-2.9-3.1l-4.8-0.7L437.8,218.2L437.8,218.2L437.8,218.2L437.8,218.2z"/> </g>
</svg>
