<?xml version="1.0" encoding="utf-8"?>
<!-- Generator: Adobe Illustrator 18.0.0, SVG Export Plug-In . SVG Version: 6.00 Build 0)  -->
<!DOCTYPE svg PUBLIC "-//W3C//DTD SVG 1.1//EN" "http://www.w3.org/Graphics/SVG/1.1/DTD/svg11.dtd">
<svg version="1.1" id="map" xmlns="http://www.w3.org/2000/svg" xmlns:xlink="http://www.w3.org/1999/xlink" x="0px" y="0px"
	 viewBox="0 0 595.3 841.9" enable-background="new 0 0 595.3 841.9" xml:space="preserve">
     <path id="d53" data-departement="53" data-departement-name="Mayenne" fill="none" d="M211.4,225.8l-2.1,0.2l-0.9,2.1l-3.3,1.4l-6.1-0.9l-6.1,3.6l-2.1-1.7l-3.3,2.3l-2.5-1.8l-1.6-2.4 l-3.4-1.5l-2.3,1.8l-3.8-0.6l-0.2,5.8l1.2,0.9v4.5l-2.3,2.3v3.6l0.7,2.1v6.5l1.7,1.7v6.1l-3.8-0.5l-1.7,0.9l-2.9,7.1l-1.5,4.6l0,0 l4.2,1.1h3.3l3.7,2.4l1.5-1.8l6.7,2l2.6,1.5l6-0.2l2.5-2.5l4.2,1.3h2l0,0l0.6-1.8v-6.7l-0.9-1.1l0.4-1.2l3.2-0.2l1.5-1.3l0.2-1.2 l-1.7-4.2l0.6-1.7l3.7-0.4l-0.4-0.9l0.9-2.1l-0.7-1.6l0.9-1.8l3.3-2.7l-0.4-3l0.6-4.9l1.3-2.1l4-1.4l0,0l-1.5-4l-2.9-1.2l-0.9-5 L211.4,225.8L211.4,225.8L211.4,225.8L211.4,225.8z"/>
</svg>
