<?xml version="1.0" encoding="utf-8"?>
<!-- Generator: Adobe Illustrator 18.0.0, SVG Export Plug-In . SVG Version: 6.00 Build 0)  -->
<!DOCTYPE svg PUBLIC "-//W3C//DTD SVG 1.1//EN" "http://www.w3.org/Graphics/SVG/1.1/DTD/svg11.dtd">
<svg version="1.1" id="map" xmlns="http://www.w3.org/2000/svg" xmlns:xlink="http://www.w3.org/1999/xlink" x="0px" y="0px"
	 viewBox="0 0 595.3 841.9" enable-background="new 0 0 595.3 841.9" xml:space="preserve">
     <path id="d54" data-departement="54" data-departement-name="Meurthe-et-Moselle" fill="none" d="M463.7,159l-2.6,2.5l-3.8,0.2l-1.6,1.5l0,0l-0.2,2.7l1.1,2.8l0,0l-0.6,1.8l-0.1,0.9l1.3-0.7 l1.1-1.9l2.1-0.2l3.7-1.2l1.9,1.5l0.9,1.8l0.7,1.9v1.9l1.1,0.9v1.5l-1.1,1.4l-0.2,2.9l0.9,1.4l0.2,1.8l0.2,2.9l1.4,1.2l1.9,0.9 l-0.9,1.8l2.4,2.1l-2.1,2.4l0.5,1.5l2.1,1.1v1.2h-2.6l-1.2,1.5l0.2,1.2l1.8,1.8l-1.4,4.3l-1.8,3.9l0.9,2.4v3.9l0.9,1.9h1.3 l0.7,1.2h-1.9l-1.8,0.9v1.4l2.1,1.9l0.1,3.2l2.1-0.8l3.3,0.2l0.2,3.6l1.4,0.5l-1.5,1.1l-0.2,1.2l2.4,0.5l1.5,1.9l7.3-0.5l1.5-2.9 h3.3l1.4-1.1l2.1,1.4l1.9-0.7l2.9,0.2l2.4-0.9l2.4-1.8l1.4,1.4l0.2-3.1l1.8-0.7l0.9,2.9l2.6,0.2l2.6,0.7l1.1,0.2l3.8-1.8l2.8-2.4 l0,0l4.5-2.4l2.3-0.3l0.7-1.7l0,0l0,0l0,0l-5.3-3.5l-3.3-2.4h-3.9l-4.2-2.4l-3.3-0.6l0,0l-5.1-3.5l-5.7-2.4h-2.9l-1.1-3.1 l-4.4-5.5h-4.2l-1.8-2.4h-3.9l0.2-3.6l-4.6-2.9l0.2-2.9h2.4v-2.4l0.9-1.8l-1.9-1.9l1.8-3.1l-1.4-3.6l-1.1-0.9l-2.9-6.1l1.2-1.8 c0,0,0-1.5-0.1-3.3l-3.2-0.4l-4-4.5h-5.3L463.7,159L463.7,159L463.7,159z"/>
</svg>
