<?xml version="1.0" encoding="utf-8"?>
<!-- Generator: Adobe Illustrator 18.0.0, SVG Export Plug-In . SVG Version: 6.00 Build 0)  -->
<!DOCTYPE svg PUBLIC "-//W3C//DTD SVG 1.1//EN" "http://www.w3.org/Graphics/SVG/1.1/DTD/svg11.dtd">
<svg version="1.1" id="map" xmlns="http://www.w3.org/2000/svg" xmlns:xlink="http://www.w3.org/1999/xlink" x="0px" y="0px"
	 viewBox="0 0 595.3 841.9" enable-background="new 0 0 595.3 841.9" xml:space="preserve">
     <path id="d55" data-departement="55" data-departement-name="Meuse" fill="none" d="M451,157l-1.5,2.3l-2,1.4l-1.7-1.5l-3.7-0.5l0,0l-3.2,4.8l0,0l2.3,4l-0.9,4.5l-2.5,2l0.2,1.7 l0.9,2.1l-1.4,1.4l-2.6,1.9l0.7,2.3l0,0l-1.5,1.9l1.5,3.3l1.7,5l-2,2.1l3.6-0.2l-1.8,5.6l-2.5,1.2l-1.4,3.3l1.4,1.2l-1.7,2.6 l0.5,1.8l4.3,3.3l0.2,3.5l-0.2,4.1l4.8,0.7l2.9,3.1l5.4,2.6l2,0.7l4.6,5.3l0,0l3.6-0.2v-1.9l4.4-0.9v-1.4h1.1v1.3l3.6-1.1l1.3-1.9 l0,0l-0.1-3.2l-2.1-1.9V222l1.8-0.9h1.9L472,220h-1.3l-0.9-1.9v-3.9l-0.9-2.4l1.8-3.9l1.5-4.2l-1.8-1.8l-0.2-1.2l1.2-1.5h2.6v-1.1 l-2.1-1.1l-0.5-1.5l2.1-2.4l-2.4-2.1l0.9-1.8l-1.9-0.9l-1.4-1.2l-0.2-2.9l-0.2-1.8l-0.9-1.4l0.2-2.9l1.1-1.4v-1.5l-1.1-0.9v-1.9 l-0.7-1.9l-0.9-1.8l-1.9-1.5l-3.7,1.2l-2.1,0.2l-1.1,1.9l-1.3,0.7l0,0l0.7-2.8l0,0l-1.1-2.8l0.2-2.7l-1.4,0.4l-0.9-4.3L451,157 L451,157L451,157L451,157L451,157z"/>
</svg>
