<?xml version="1.0" encoding="utf-8"?>
<!-- Generator: Adobe Illustrator 18.0.0, SVG Export Plug-In . SVG Version: 6.00 Build 0)  -->
<!DOCTYPE svg PUBLIC "-//W3C//DTD SVG 1.1//EN" "http://www.w3.org/Graphics/SVG/1.1/DTD/svg11.dtd">
<svg version="1.1" id="map" xmlns="http://www.w3.org/2000/svg" xmlns:xlink="http://www.w3.org/1999/xlink" x="0px" y="0px"
	 viewBox="0 0 595.3 841.9" enable-background="new 0 0 595.3 841.9" xml:space="preserve">
     <path id="d56" data-departement="56" data-departement-name="Morbihan" fill="none" d="M65.7,242.3l-3.8,1.9h-2.6l-2.7,2.1l0.2,1.7l1.7,4.3l0.9,3.3l5.7,0.9l2.7,2.1l1.2-1.4l1.8,2.4 l-0.9,1.2l-0.2,3.3H68l-1.3,2h-2.6l-1.2,4.4l2.8,3.8l3.6,0.9l1.4-2l-0.7,2.4l3.1,1.4l4,4l1.4,2.5l-0.5,2.9l-0.5,3l2.6,2l1.4-1.7 l-1.4-1.8v-4l2.6,0.7l0.9-2.6l0.7,1.7l2.9,2.5l1.4-2.3l-1.4-3.1l2.5,3.3l3.1-0.5l-0.7-1.7l2.9,0.7l2.1,2.6l-1.2,1.8l-2.9-0.9 l-3.3-1.7l-1.8,2.3l2.6,0.9l2,3.1l12.3-1.2l3.1,0.7l-1.5,1.4l0.8,2.5l0,0h1.1l2-2l1.4,1.5h3.5l4.3-2.1l6.3-2.5l0.2-6.3l1.4-0.7 l-2.4-4.6l2-1.7l-0.4-1.2l-1.3-0.8l2-1.1l1.8-2.1l-0.2-2.1h-2.7l-0.6-2.1l1.8-2.1l-1.8-3.3l-2.7-1.8h-3.2l-1.2-0.4v-1.5l1.7-1.5 l0.9-3.7l-0.6-2.1l-0.6,0.8l-4.5-0.4l-2-3.7h-1.5l-2.5,0.9v2.3l-3.6,2.1l-2.7-1.2l-1.2-2.4l-0.9,1.3h-2.7l-1.3-1.7h-1.3l-2.7-2.7 l-3.2,0.8l-3.3-3l-3,0.2l-0.9,1.8l-3.6,1.8l-4.3-1.8l-1.2-1.2l-1.8,1.3l-2.1-0.2l-0.4-1.8L65.7,242.3L65.7,242.3L65.7,242.3 L65.7,242.3L65.7,242.3z"/>
</svg>
