<?xml version="1.0" encoding="utf-8"?>
<!-- Generator: Adobe Illustrator 18.0.0, SVG Export Plug-In . SVG Version: 6.00 Build 0)  -->
<!DOCTYPE svg PUBLIC "-//W3C//DTD SVG 1.1//EN" "http://www.w3.org/Graphics/SVG/1.1/DTD/svg11.dtd">
<svg version="1.1" id="map" xmlns="http://www.w3.org/2000/svg" xmlns:xlink="http://www.w3.org/1999/xlink" x="0px" y="0px"
	 viewBox="0 0 595.3 841.9" enable-background="new 0 0 595.3 841.9" xml:space="preserve">
     <path id="d57" data-departement="57" data-departement-name="Moselle" fill="none" d="M488.5,161.3l-3.3,0.2l-2.6,2.3l-0.7,1.2h-3.8l-1.8-1.8l0,0c0.1,1.9,0.1,3.3,0.1,3.3l-1.2,1.8 l2.9,6.1l1.1,0.9l1.4,3.6l-1.8,3.1l1.9,1.9l-0.9,1.8v2.4h-2.4l-0.2,2.9l4.6,2.9l-0.2,3.6h3.9l1.8,2.4h4.2l4.4,5.5l1.1,3.1h2.9 l5.7,2.4l5.1,3.5l0,0l3.3,0.6l4.2,2.4h3.9l3.3,2.4l5.3,3.5l0,0l5-3.6l1.4-4.8l-1.8-1.8l-0.2-1.7l2.6-5l-6.2-3.6l-3.6,2.6l-2-1.4 l0.9-2l-2.1-1.7l-3-1.4v-2.9l3-0.9l1.2-5.2l2-2.1l0.9,3.3l2.5,1.2l4.3,0.7l2.1,2.1h2.6l2.3-1.7l2.9,2h1.7l1.8-1.7V191l1.9-3.5 l-0.5,0.1l-1.6-2l-4.5-2.6l-1.7-2.5l-5.4,0.5l-3.2,2.9l-7.6,0.2l-2.3-1.7c-0.1-0.2-1.3-2.1-2.1-2.7c0,0-0.1,0-0.1-0.1h-0.1h-0.1 l0,0h-0.1c-1.1,0-3.1-1.2-3.3-1.4l-3.2,1.4l-0.2,2.6l-3.8,0.5l-2.3-4.3l-1.4-0.5v-3.1l-3.2-1.4l-0.2-5.4l-2.3-2.1l-4.8-2.3h-2.1 l-0.7,0.5h-2.3L488.5,161.3L488.5,161.3L488.5,161.3L488.5,161.3z"/>
</svg>
