<?xml version="1.0" encoding="utf-8"?>
<!-- Generator: Adobe Illustrator 18.0.0, SVG Export Plug-In . SVG Version: 6.00 Build 0)  -->
<!DOCTYPE svg PUBLIC "-//W3C//DTD SVG 1.1//EN" "http://www.w3.org/Graphics/SVG/1.1/DTD/svg11.dtd">
<svg version="1.1" id="map" xmlns="http://www.w3.org/2000/svg" xmlns:xlink="http://www.w3.org/1999/xlink" x="0px" y="0px"
	 viewBox="0 0 595.3 841.9" enable-background="new 0 0 595.3 841.9" xml:space="preserve">
     <path id="d58" data-departement="58" data-departement-name="Nièvre" fill="none" d="M354.5,292l-1.2,1.7h-2l-1.8-1.3l-3.9,1.1l0.4,2.5l2,2.9v4.3l-2,2.9l0.7,2.6l4,3.2l0.2,3.1 l2.3,4.8l-0.5,5.4l2.5,2.4l-0.7,5.8l-0.2,2.9l1.2,2l-1.8,4.9l0.2,2.7l3.9,1.8l2.6,3l2.5-1.2l2.3-1.4l0.5,2h3.3l0.9-1.8l2,0.9 l0.7,2.9l1.8-0.5l4.3-5.8l2.1,1.8l0,0l3.6-1.8l1.4,0.2l1.2,2.7l2-0.4l1.7-1.7h2l1.7-2l1.7-0.4l0.4-1.2l3.6,0.2l0.2-0.8l-1.7-1.4 v-1.4l2.3-1.3v-0.9l-2-1.3l-0.4-2.4l0.2-2.3l-1.4-0.9l1.3-1.8l1.2-0.7l0.8-1.9l-1.2-0.7l-1.3-1.9l1.7-2.3l2.7-1.7l3.4-0.3v-2.1 l0.9-0.4v-0.9l-1.4-2.3l-3.2-0.7l-1.2-1.9l0.5-1.8l0.4-2.4l-1.1-1.8l-3.5,2.7l-1.5,0.7l-1.9-1.3l0.2-3.2h-2l-1.8,1.2l-0.5-1.5 l0.9-1.7l-1.2-1.4l-1.3,1.9l0.2,1.4l-3.1-0.1l-4.9-4.5l-3.7-0.1v-2.4l-2.5-1.7l-0.5-2l-0.8-0.1v4l-1.4,0.4l-2-0.7l-2.1,1.4 l-1.3,0.4l-1.3-1.2l-1.3,0.7l-2.9-1.9h-2l-1.5-0.9l0.4-1.8l-1.7-1.4L354.5,292L354.5,292L354.5,292L354.5,292z"/>
</svg>
