<?xml version="1.0" encoding="utf-8"?>
<!-- Generator: Adobe Illustrator 18.0.0, SVG Export Plug-In . SVG Version: 6.00 Build 0)  -->
<!DOCTYPE svg PUBLIC "-//W3C//DTD SVG 1.1//EN" "http://www.w3.org/Graphics/SVG/1.1/DTD/svg11.dtd">
<svg version="1.1" id="map" xmlns="http://www.w3.org/2000/svg" xmlns:xlink="http://www.w3.org/1999/xlink" x="0px" y="0px"
	 viewBox="0 0 595.3 841.9" enable-background="new 0 0 595.3 841.9" xml:space="preserve">
     <path id="d59" data-departement="59" data-departement-name="Nord" fill="none" d="M330.3,61.9l-7.3,3.3l-10.8,1.9l3,6.4l3,7.6l5,0.2l2,1.7l-2.5,1.2v2.7l3.2,3.5l5.7,1.4l7.1,0.5 l1.7-2.5h2.3l1.2,2.3l-3,1.8l0.5,4.6l4.2,1.2l4.2,0.5l1.2,3l2,0.9l-0.5,1.7l-3,1.4l-0.2,1.4l2.3,2.7l1.7,1.2l-0.5,1.4l-1.8,1.4 l0.7,0.5l3,0.2l2.5,1.7l-0.2,2l-1.4,0.9l-0.2,3.7l-2,0.2l-2-0.2l-2.3,1.4l1.4,0.5h2.3l2,0.5l0.7,1.2l-0.9,2.2l1.6,1.8l1.7,0.6 l1.8-0.9h2.5l1.2,1.3l0,0l3-1.8l2.6,1.7l3.6-2.5h1.7l1.8,1.7l3.6-2.6h1.4l1.4,1.3l5,0.5l0.5,2l2.5-2.1h1.4l0.9,2.9l4.3,1.2 l1.6-2.2l0,0l0,0l4-2.7l-0.7-4.3l-4.3-1.2l1.2-1.2v-3.1l3.3-2.5l-0.9-1.8l-7.1-5.6l-12.5,0.7l-1.4,2.1H378l0.2-7.9l-3.6-4.3 l-2.6,0.5l-1.7-1.8l-4.5,2l-1.5-1.5l-3.2-0.5l-0.9-2.9l-0.2-8.9l-2-0.9l-0.2-1.4h-1.4l-0.5-2.6l-2.9,0.2l-5.6,1.8l-2.6,3.3h-2.6 l-1.8-2.1l-0.7-2.5l-2.1-2.5h-3.2l-1.4-2.4v-3.8l1.5-2.4l-0.9-3.3L330.3,61.9L330.3,61.9L330.3,61.9L330.3,61.9z"/> </g>
</svg>
