<?xml version="1.0" encoding="utf-8"?>
<!-- Generator: Adobe Illustrator 18.0.0, SVG Export Plug-In . SVG Version: 6.00 Build 0)  -->
<!DOCTYPE svg PUBLIC "-//W3C//DTD SVG 1.1//EN" "http://www.w3.org/Graphics/SVG/1.1/DTD/svg11.dtd">
<svg version="1.1" id="map" xmlns="http://www.w3.org/2000/svg" xmlns:xlink="http://www.w3.org/1999/xlink" x="0px" y="0px"
	 viewBox="0 0 595.3 841.9" enable-background="new 0 0 595.3 841.9" xml:space="preserve">
     <path id="d60" data-departement="60" data-departement-name="Oise" fill="none" d="M297.6,149.1l-1.9,2.2l-0.9,2.1h1.8l-0.9,2.3l-0.9,4.5l1.4,2.1v3.8h2.3l-0.9,1.5l-1.7,3l-0.5,2 l2.2,2l0.6,5.1l1.2,1.8l-1.7,0.5l-2-1.2l-0.3,2.5l0,0l1,1.8l1.4,2.1l6.1,0.5l4.3-0.5l2.9-2.1l3.6,2.1l1.8,1.4l2.6-0.7l2.4-1.2 l4.8,2.5l5,2.9l1.7,1.7l2.6-1.8l2.1,1.4l1.4,1.2l2-0.2l1.4-1.8l3.1,1.8l3.8-1.7l2.1,0.7l2.1-1.8l1.7-0.3l0,0l0.8-2.8l-1.7-1.8 l-2.7-1.8l-1.2,1.8L350,187l-0.2-3.5l2-0.5l-0.5-3.2l-2.7-0.5l1.4-2.3l3.9-0.9l1.4-5.5l2-0.9l-2.7-2l0.9-2l0.5-6.8l-0.8-5.3 l-4.7,0.3l-3.2-0.5l-6,1.7l-5.1,4.9l-4.2-1.4l-4.2-0.5l-3.2-3.2l-5.7-1.7l-7.7,0.7l-2-1.7h-4.2l-3,1.2l-1.4-0.9v-2.5l-0.5-0.7 L297.6,149.1L297.6,149.1L297.6,149.1L297.6,149.1z"/>
</svg>
