<?xml version="1.0" encoding="utf-8"?>
<!-- Generator: Adobe Illustrator 18.0.0, SVG Export Plug-In . SVG Version: 6.00 Build 0)  -->
<!DOCTYPE svg PUBLIC "-//W3C//DTD SVG 1.1//EN" "http://www.w3.org/Graphics/SVG/1.1/DTD/svg11.dtd">
<svg version="1.1" id="map" xmlns="http://www.w3.org/2000/svg" xmlns:xlink="http://www.w3.org/1999/xlink" x="0px" y="0px"
	 viewBox="0 0 595.3 841.9" enable-background="new 0 0 595.3 841.9" xml:space="preserve">
     <path id="d61" data-departement="61" data-departement-name="Orne" fill="none" d="M239.3,200.7l-4.7,1.1l-1.5-0.9l-4.3,0.7l-0.2,1.8l-1.5,0.4l-0.6-2.4l-1.8,0.4l-2.7,3.2l-4.3,3.2 l-4.6,1.5l-3.7-2l-4.3,0.8l-2.5-2.5l-2.4,0.9l-4,2.7l-4.6-1.3l-3.3,3.9l-4.6,1.5l2.7,1.8l2.1,2.1l-0.6,2.1l0.4,1.8l-1.3,4.3l-4,3 l1.6,2.4l2.5,1.8l3.3-2.3l2.1,1.7l6.1-3.6l6.1,0.9l3.3-1.4l0.9-2.1l2.1-0.2l2,1.8l0.9,5l2.9,1.2l1.5,4l3.5,0.3l6.1-5.6l6.1-0.2 l1.8,2.4l1.2,8.1l3.7,1.6l2.3,3.3l4.9,0.8l0,0l0.3-1.4h0.9l3.2,4.8l2.8,0.3l-0.1-5.3l-1.5-2l-0.5-1.8l3.3-2l3.3-0.7l2.1-2.6 l-0.5-8.3l-4.8-4l-0.5-4l-3.8-2.3l1.7-2.1l-0.9-3.3l-3.1-1.2L248,210l-1.4-3.1l-6.3-0.2l-1.8-2.3L239.3,200.7L239.3,200.7 L239.3,200.7L239.3,200.7z"/>
</svg>
