<?xml version="1.0" encoding="utf-8"?>
<!-- Generator: Adobe Illustrator 18.0.0, SVG Export Plug-In . SVG Version: 6.00 Build 0)  -->
<!DOCTYPE svg PUBLIC "-//W3C//DTD SVG 1.1//EN" "http://www.w3.org/Graphics/SVG/1.1/DTD/svg11.dtd">
<svg version="1.1" id="map" xmlns="http://www.w3.org/2000/svg" xmlns:xlink="http://www.w3.org/1999/xlink" x="0px" y="0px"
	 viewBox="0 0 595.3 841.9" enable-background="new 0 0 595.3 841.9" xml:space="preserve">
     <path id="d62" data-departement="62" data-departement-name="Pas-de-Calais" fill="none" d="M312.2,67.2l-13.4,2.4l-9.9,7.6v30.4v0.8l3.1,0.4l1.2,2.5l2.6-0.7l1.7-2l2,0.7l4.3,3.3l1.7-0.7 l1.2,2.6l4,1.8v2.1l3,1.2l2.9-1.2l5.6-0.7l1.4,1.2l2.6-1.2l1.4,2.3l-3.3,2.1v3.2l1.2,1.2l0.9-0.2l0.7-1.8l2-1.4l2,1.7l4.8,1.7h2 v-2.3l3,2l0.2,1.8l-1.2,1.8l1.9-1.1l2.6-1.2l0.9,1.7v1.7l3.3-1.8h5.4l0.5,0.5l0.9-2.2l-0.7-1.2l-2-0.5h-2.3l-1.4-0.5l2.3-1.4 l2,0.2l2-0.2l0.2-3.7l1.4-0.9l0.2-2l-2.5-1.7l-3-0.2l-0.7-0.5l1.8-1.4l0.5-1.4l-1.7-1.2l-2.3-2.7l0.2-1.4l3-1.4l0.5-1.7l-2-0.9 l-1.2-3l-4.2-0.5l-4.2-1.2l-0.5-4.6l3-1.8l-1.2-2.3h-2.3l-1.7,2.5l-7.1-0.5l-5.7-1.4l-3.2-3.5v-2.7l2.5-1.2l-2-1.7l-5-0.2l-3-7.6 L312.2,67.2z"/>
</svg>
