<?xml version="1.0" encoding="utf-8"?>
<!-- Generator: Adobe Illustrator 18.0.0, SVG Export Plug-In . SVG Version: 6.00 Build 0)  -->
<!DOCTYPE svg PUBLIC "-//W3C//DTD SVG 1.1//EN" "http://www.w3.org/Graphics/SVG/1.1/DTD/svg11.dtd">
<svg version="1.1" id="map" xmlns="http://www.w3.org/2000/svg" xmlns:xlink="http://www.w3.org/1999/xlink" x="0px" y="0px"
	 viewBox="0 0 595.3 841.9" enable-background="new 0 0 595.3 841.9" xml:space="preserve">
     <path id="d63" data-departement="63" data-departement-name="Puy-de-Dôme" fill="none" d="M342.4,382.6l-0.2-1.3l-2.4,0.2v1.8l-1.4,0.4l-1.4,3.5l-1.8,0.8l-3.4-2.5l0.4,5.1l1.8,2.1 l0.9,4.3l-2.6,2l-0.7,3.2l-2.5,1.4l-4.3,2.5l0.5,2l5.3,5.3l0.5,3.2l-2,3.3v3.2l1.4,1.7l0.7,3.8l-0.5,1.4l7,1.5l1.8,3.8h3.7 l1.4-1.4l2.4,1.3l1.3,0.2l3.1,4.8l3.2,0.2l0.8-1.7l1,0.3l0.9-1.2l4-0.6l2.1-1.8l2.4-0.2v-1.4l1.7-0.8l0.8,1.1l1.1-0.6l1.7,1.1 l2.9-0.2l2.4-1.1l1.7,1.4h1.8l1.4,2.6l2.1,1.1l1.3-2.9l1.7,1.4l3.5,0.2l1.3-2.4l2,2l2.9,0.8l0.9-0.7l-2.1-0.6l-0.7-2.6l4.3-4 l-2-7.4l-5.8-3.8l-2.4-5.8l-2.6-3.6l0.7-5l2-2l-3.6-2.9v-1.1l-3.4-1.3l-1.1-2.4l-3.5,0.2l-2.6-0.6l-0.4-2.9l-2-1.1l-2.6,1.7 l-3.1-0.6l-2,0.2l-6.9-1.1l-5.6-3.2l-0.5-1.7l-2.4-2.6l1.7-2.1l-0.6-1.3h-3.5L342.4,382.6z"/>
</svg>
