<?xml version="1.0" encoding="utf-8"?>
<!-- Generator: Adobe Illustrator 18.0.0, SVG Export Plug-In . SVG Version: 6.00 Build 0)  -->
<!DOCTYPE svg PUBLIC "-//W3C//DTD SVG 1.1//EN" "http://www.w3.org/Graphics/SVG/1.1/DTD/svg11.dtd">
<svg version="1.1" id="map" xmlns="http://www.w3.org/2000/svg" xmlns:xlink="http://www.w3.org/1999/xlink" x="0px" y="0px"
	 viewBox="0 0 595.3 841.9" enable-background="new 0 0 595.3 841.9" xml:space="preserve">
     <path id="d64" data-departement="64" data-departement-name="Pyrénées-Atlantiques" fill="none" d="M196.3,553h-6.7L189,552l-4.3,1.4l-3.2,1.1l-2.4-1.8l-2.6,0.8l-0.8-1.1h-3.2l-2,1.1l-5.3-0.2 l-2.7,1.9l-5.1-0.4l-1.1,1.4l-1.3-0.5l1.5-1.5l-2.9-2.1l-3.3,2.9l-5.8,0.4l-6.5-3l-0.8,1.5L132,560l-4,1.7l-2.9,0.5v2.5l2.6,2.5 l4,0.2l0.2,2.9l3.2,0.2l0.9-2l4.3,1.8l2.6,0.7l0.7,2.6l-1.5,1.4v4.3l-3.2,1.7l-0.2,2l2,2.3l3.6,1.2l0.7-3.3l2-2.1l-0.2,2.9 l1.7,2.3h4l1.8,2.4l5.4,0.9l5.2,3.2h8.6l0.5,4.8l5.8,4.5l2.3,2.6l2.5-1.4l2.1-0.5l1.2,1.2l2-1.2l3.9-2.7l0.3-4.2l1.8-1.4l0.9-7.4 l3.3,0.7l1.4-0.9l-1.7-3.2l6.1-5.2l3.6-8.1l2.1-2.9l-2.6-4.1l-1.8-2.5l2.5-2.3l-4.1-6.5l-6.2-0.7l0,0L196.3,553z"/>
</svg>
