<?xml version="1.0" encoding="utf-8"?>
<!-- Generator: Adobe Illustrator 18.0.0, SVG Export Plug-In . SVG Version: 6.00 Build 0)  -->
<!DOCTYPE svg PUBLIC "-//W3C//DTD SVG 1.1//EN" "http://www.w3.org/Graphics/SVG/1.1/DTD/svg11.dtd">
<svg version="1.1" id="map" xmlns="http://www.w3.org/2000/svg" xmlns:xlink="http://www.w3.org/1999/xlink" x="0px" y="0px"
	 viewBox="0 0 595.3 841.9" enable-background="new 0 0 595.3 841.9" xml:space="preserve">
     <path id="d65" data-departement="65" data-departement-name="Hautes-Pyrénées" fill="none" d="M239.6 590.6L238.3 589.5 236.1 590.2 237.1 588.2 236.6 585.6 232.9 582.9 233.1 581.1 235.1 577.6 237.7 576 238.8 573.6 240.3 571 236.1 569.2 230.4 569.2 229.6 567.5 226.7 567.5 226 565.7 223.3 565.7 222.5 566.4 219.4 566.5 219.2 564.6 216.8 563 217.6 562.2 217.7 559.8 216.1 556.3 213.5 556 210.9 554.6 211.1 550.8 207.6 550.8 205.8 552.3 209.9 558.7 207.4 561 209.2 563.6 211.8 567.6 209.7 570.5 206.1 578.6 200 583.8 201.6 587 200.3 587.9 197 587.2 196.1 594.6 194.2 595.9 194 600.1 197.9 602 202.4 605.3 202.9 607.9 206.5 610.8 209.5 610.8 216.9 607.6 220 611.2 224.3 612.4 226 609.7 228 610.6 232.4 610.9 232.2 599 234.5 598.9 236.6 600 237.9 598.6 237.7 596.6 240.6 594.8z"/>
</svg>
