<?xml version="1.0" encoding="utf-8"?>
<!-- Generator: Adobe Illustrator 18.0.0, SVG Export Plug-In . SVG Version: 6.00 Build 0)  -->
<!DOCTYPE svg PUBLIC "-//W3C//DTD SVG 1.1//EN" "http://www.w3.org/Graphics/SVG/1.1/DTD/svg11.dtd">
<svg version="1.1" id="map" xmlns="http://www.w3.org/2000/svg" xmlns:xlink="http://www.w3.org/1999/xlink" x="0px" y="0px"
	 viewBox="0 0 595.3 841.9" enable-background="new 0 0 595.3 841.9" xml:space="preserve">
     <path id="d66" data-departement="66" data-departement-name="Pyrénées-Orientales" fill="none" d="M346.8,597.4l-4.9,2.6l0.4,2.9H321l0.2,3.8l2.1,3.2l-9.5,3.8l0,0l-7.5,0.3l-0.9,1.9l-3.8,0.9 l-2.5,2.1l-7,1.7l0.4,2.4l3.3,3.2l6.7,1.8l0.2,4l3.6,3.2l2.6-0.5l3.8-4.8l4.8-0.9l7.4,2.5l6.3,5.4l1.8-2.3h1.7l1.7,1.2l1.4-0.7 l0.2-3.2l6.8-1.7l2.1-2.9l3.3-1.2h4.8l3,3.1l3.6,0.2v-3.6l-1.8-2.5l-3.2-1.4l-0.5-19.6l-3-1.4L346.8,597.4L346.8,597.4z"/>
</svg>
