<?xml version="1.0" encoding="utf-8"?>
<!-- Generator: Adobe Illustrator 18.0.0, SVG Export Plug-In . SVG Version: 6.00 Build 0)  -->
<!DOCTYPE svg PUBLIC "-//W3C//DTD SVG 1.1//EN" "http://www.w3.org/Graphics/SVG/1.1/DTD/svg11.dtd">
<svg version="1.1" id="map" xmlns="http://www.w3.org/2000/svg" xmlns:xlink="http://www.w3.org/1999/xlink" x="0px" y="0px"
	 viewBox="0 0 595.3 841.9" enable-background="new 0 0 595.3 841.9" xml:space="preserve">
     <path id="d67" data-departement="67" data-departement-name="Bas-Rhin" fill="none" d="M554.7,186.5l-4.2,1.2l-1.9,3.5v3.3l-1.8,1.7h-1.7l-2.9-2l-2.3,1.7h-2.6l-2.1-2.1l-4.3-0.7 l-2.5-1.2l-0.9-3.3l-2,2.1l-1.2,5.2l-3,0.9v2.9l3,1.4l2.1,1.7l-0.9,2l2,1.4l3.6-2.6l6.2,3.6l-2.6,5l0.2,1.7l1.8,1.8l-1.4,4.8 l-5,3.6l-0.7,1.7l0,0l-0.6,4.4l0.9,6.1l4.3,1.2l-0.4,0.8l3.3-0.3l2.3,2.6l1.8,2.1l4.4-0.2l1.9,5.7l3,1l0,0l5.8-11.8l-0.7-6.5 l2.6-8.8l0.7-7.7l5.8-4.3v-2.6l2.3-3h1.8l2-2l-0.5-3.8l2-5.4l3.1-0.7l-3.1-2.5l-5.6-0.7l-5-2.5l-3.3,2l-1.8-2L554.7,186.5 L554.7,186.5L554.7,186.5L554.7,186.5z"/>
</svg>
