<?xml version="1.0" encoding="utf-8"?>
<!-- Generator: Adobe Illustrator 18.0.0, SVG Export Plug-In . SVG Version: 6.00 Build 0)  -->
<!DOCTYPE svg PUBLIC "-//W3C//DTD SVG 1.1//EN" "http://www.w3.org/Graphics/SVG/1.1/DTD/svg11.dtd">
<svg version="1.1" id="map" xmlns="http://www.w3.org/2000/svg" xmlns:xlink="http://www.w3.org/1999/xlink" x="0px" y="0px"
	 viewBox="0 0 595.3 841.9" enable-background="new 0 0 595.3 841.9" xml:space="preserve">
     <path id="d68" data-departement="68" data-departement-name="Haut-Rhin" fill="none" d="M537.4,237.4l-3.3,0.3l-2.1,4.9l-2.6,5.4l0.7,3.3l-2.1,5.2l-3.8,3.3l-0.2,8.8l-2.7,2.6l0,0 l0.9,1.7l3.6,0.2l4,3.2l0.7,1.5l-0.2,2.6l-1.2,2l0.5,2.6l3.2-0.5l0.6,2.5l1.3,4.9l2.8-0.5l-0.5,2.4l1.7,1.4l8.3-0.2l4.3-3.3l0.2-5 l2.3-2.9l-3-3.3l-1.5-3.6l1.8-2.4v-5.6l1.2-2.6v-4.5l2-2.9l-2.1-3.1l-0.2-6.4l-1-0.5l-3-1l-1.9-5.7l-4.4,0.2l-1.8-2.1L537.4,237.4 L537.4,237.4L537.4,237.4L537.4,237.4z"/>
</svg>
