<?xml version="1.0" encoding="utf-8"?>
<!-- Generator: Adobe Illustrator 18.0.0, SVG Export Plug-In . SVG Version: 6.00 Build 0)  -->
<!DOCTYPE svg PUBLIC "-//W3C//DTD SVG 1.1//EN" "http://www.w3.org/Graphics/SVG/1.1/DTD/svg11.dtd">
<svg version="1.1" id="map" xmlns="http://www.w3.org/2000/svg" xmlns:xlink="http://www.w3.org/1999/xlink" x="0px" y="0px"
	 viewBox="0 0 595.3 841.9" enable-background="new 0 0 595.3 841.9" xml:space="preserve">
     <path id="d69" data-departement="69" data-departement-name="Rhône" fill="none" d="M429.4,374.3l-2.4,0.2l-2,2l-1.4-1.8l-2,1.8l-2.7-1.8h-2.1l-0.9,0.7l-0.5,2.8l1.3,0.9v2.1 l1.5,2.4l-1.3,1.5h-4.6l-0.2,4.4l-1.6,1.4l0.9,3.7v2l1.9,1.9v2.6l2.9,2.6v3.2l-1.4,2.1l1.8,1.1v1.8l-1.5,1.3v1.9l6.3,5.8l7.6,1.3 l0.7,2.1l-2.4,2.9l1.9,1.3l2.4-0.9l2.5,0.5l5-2.3l-0.8-1.5l-3.2-3.2l4.9-1.8l6.3-1.5l4.9-6.3L448,409l0.1-2.7l-4.6-1l-3,0.9 l-0.5-3.9l-2.6-2.4l-1.8-0.2l-4.4-2.6l0.7-1.8v-7.6l1.3-1.8l0.4-5.1l-0.7,1.6l-1.7-0.2l-0.9-4.5L429.4,374.3L429.4,374.3 L429.4,374.3L429.4,374.3z"/>
</svg>
