<?xml version="1.0" encoding="utf-8"?>
<!-- Generator: Adobe Illustrator 18.0.0, SVG Export Plug-In . SVG Version: 6.00 Build 0)  -->
<!DOCTYPE svg PUBLIC "-//W3C//DTD SVG 1.1//EN" "http://www.w3.org/Graphics/SVG/1.1/DTD/svg11.dtd">
<svg version="1.1" id="map" xmlns="http://www.w3.org/2000/svg" xmlns:xlink="http://www.w3.org/1999/xlink" x="0px" y="0px"
	 viewBox="0 0 595.3 841.9" enable-background="new 0 0 595.3 841.9" xml:space="preserve">
     <path id="d70" data-departement="70" data-departement-name="Haute-Saône" fill="none" d="M489,259.4l-4.3,0.8l-0.7,2.1l-2.3,1.7l-1.5-1.8l-1.2,0.7l0.9,1.4l-1.7,0.8l-0.7,0.4l0.7,1.8 l-2.5,0.9v2.9h-3.2l-0.2,1.8l-3.1,0.7l0.2,2.6l2,0.2l-1.2,1.4l-0.7,4.5h-2l-3.3,1.4l-3.6-1.4l-3.1,1.4l-0.1,2.1l2.6,0.4l1.8,3.6 l0.2,1.8l-2.9,3.3l-1.4,0.5l-0.9,1.2l2.5,1.2l0.5,3.6l2,0.2l0.2,4.5l1.1,1.7l0,0l1.7,1.3l1.9,1.7h2.9l1.2-1.2l2,0.2l2.1-0.5 l4.5-3.7h1.3l1.4-1.2l4.8,0.1l3.6-2.9l2.5-0.5l0.9-2.4l2-0.7l2-3.6l2.9-2.3l3.1-0.5l2.3,1.7l4.3-0.5v-2.3l1.8-0.9l1.4-1.8l2.6-0.1 l1.2-1.4l0.6-3.6v-2.1l-0.9-3.5v-2.9l1.8-1.3l2-1.4l0,0l-7.2-3.9l-2-2.3l-2-1.4l-1.8,0.9l-0.2,1.4l-1.8,1.3h-1.2l-3.3-3.8h-4.8 l-2,1.7l-1.8,0.2l-2.9-2.1l0.2-2.5L489,259.4L489,259.4L489,259.4L489,259.4z"/>
</svg>
