<?xml version="1.0" encoding="utf-8"?>
<!-- Generator: Adobe Illustrator 18.0.0, SVG Export Plug-In . SVG Version: 6.00 Build 0)  -->
<!DOCTYPE svg PUBLIC "-//W3C//DTD SVG 1.1//EN" "http://www.w3.org/Graphics/SVG/1.1/DTD/svg11.dtd">
<svg version="1.1" id="map" xmlns="http://www.w3.org/2000/svg" xmlns:xlink="http://www.w3.org/1999/xlink" x="0px" y="0px"
	 viewBox="0 0 595.3 841.9" enable-background="new 0 0 595.3 841.9" xml:space="preserve">
     <path id="d71" data-departement="71" data-departement-name="Saône-et-Loire" fill="none" d="M406.1,319.6L406.1,319.6l-3.4,0.3l-2.7,1.7l-1.7,2.3l1.3,1.9l1.2,0.7l-0.8,1.9l-1.2,0.7 l-1.3,1.8l1.4,0.9l-0.2,2.3l0.4,2.4l2,1.3v0.9l-2.3,1.3v1.4l1.7,1.4l-0.2,0.8l-3.6-0.2l-0.4,1.2l-1.7,0.4l-1.7,2h-2l-1.7,1.7 l-2,0.4l-1.2-2.7l-1.4-0.2l-3.6,1.8l4.5,8.4v3.3l1.2,1.4h3.8l1.4,1.8h3.3l1.7,2.1l-0.2,8.8l-4.7,3.7l0,0l0,0l0.9,0.4l0.2,3.6 l3.3,0.7l0.5,1.7h1.9l2.6-1.7l7.1,1.2l1.4,1.4l1.8-1.8h2.5l1-4.6l0.5-2.8l0.9-0.7h2.1l2.7,1.8l2-1.8l1.4,1.8l2-2l2.4-0.2l1.1,3.4 l0.9,4.5l1.7,0.2l0.7-1.6l0.6-1.6l4.3-16.6l1.7-2.9l2.5-0.2l2.1,2.1l1.8-0.5l2.3-1.8l2.3,0.5l1.4,2.9l3.3,1.5l4-1.8l2.4-1.8 l-0.9-1.4l-2.6-0.9l-0.2-3.1l2.3-1.7l0.9-3.8l-2-3.6l-1.4-1.8l0.7-0.7v-2.1l-1.8-1.2l-0.5-1.8l5.2-0.7l0.5-1.8h-1.7l-1.4-1.7H457 l-2-3.3l-1.8-0.2l0.2-2.4l-1.9-0.3l-2.5,1.8l-2.5,0.7l-1.8-1.2l-2.3-0.1l-0.7,0.9l-2,0.4l-4.8,1.5l-6.8,2.4l-2.5-2l-3.1-0.7 l-0.1-2.7l-2.9-2l-4-3.1l-4.5,0.1L406.1,319.6L406.1,319.6L406.1,319.6L406.1,319.6L406.1,319.6z"/>
</svg>
