<?xml version="1.0" encoding="utf-8"?>
<!-- Generator: Adobe Illustrator 18.0.0, SVG Export Plug-In . SVG Version: 6.00 Build 0)  -->
<!DOCTYPE svg PUBLIC "-//W3C//DTD SVG 1.1//EN" "http://www.w3.org/Graphics/SVG/1.1/DTD/svg11.dtd">
<svg version="1.1" id="map" xmlns="http://www.w3.org/2000/svg" xmlns:xlink="http://www.w3.org/1999/xlink" x="0px" y="0px"
	 viewBox="0 0 595.3 841.9" enable-background="new 0 0 595.3 841.9" xml:space="preserve">
     <path id="d72" data-departement="72" data-departement-name="Sarthe" fill="none" d="M234.3,232.1l-6.1,0.2l-6.1,5.6l-3.5-0.3l-4,1.4l-1.3,2.1l-0.6,4.9l0.4,3l-3.3,2.7l-0.9,1.8 l0.7,1.6l-0.9,2.1l0.4,0.9l-3.7,0.4l-0.6,1.7l1.7,4.2l-0.2,1.2l-1.5,1.3l-3.2,0.2l-0.3,1.2l0.8,1.2v6.7l-0.6,1.8l2.1,1.9v2.1 l3.3,0.2l8.8,2.5l9.4,5.7l3.1,1.2l1.3-2.9l4.5,3.2h2.5l-1.4-4.5l2.7,1.8l1.5-2.3l6.5-1.8l-0.4-1l-0.8-1.8l1.7-2l3.3-1.4l3.1-4 v-4.3h2.3l0.9-3.1l0.2-4.8l-2.1-2l1.8-3.1l1.6-2.1l1.1-1.3l-3.2-2.2l-2.8-0.3l-3.2-4.8h-0.9l-0.3,1.4l0,0l-4.9-0.8l-2.3-3.3 l-3.7-1.6l-1.2-8.1L234.3,232.1L234.3,232.1L234.3,232.1L234.3,232.1z"/>
</svg>
