<?xml version="1.0" encoding="utf-8"?>
<!-- Generator: Adobe Illustrator 18.0.0, SVG Export Plug-In . SVG Version: 6.00 Build 0)  -->
<!DOCTYPE svg PUBLIC "-//W3C//DTD SVG 1.1//EN" "http://www.w3.org/Graphics/SVG/1.1/DTD/svg11.dtd">
<svg version="1.1" id="map" xmlns="http://www.w3.org/2000/svg" xmlns:xlink="http://www.w3.org/1999/xlink" x="0px" y="0px"
	 viewBox="0 0 595.3 841.9" enable-background="new 0 0 595.3 841.9" xml:space="preserve">
     <path id="d73" data-departement="73" data-departement-name="Savoie" fill="none" d="M481.6,395.7l-0.7,6.4l-1.4,1.4v7.4l-3,0.5l-0.5,4.2l-2.6,2l0,0l0.2,1.4l2.6,2.9v1.9l2.6,4.9 l5.6,1.3l1.9,1.5l0.8-0.8l-1.1-1.9l1.5-3.2l1.8-0.2l2.9,3.9l1.3-1.8h1.8l4.6,4.6l0.2,3.2l-2.1,1.3l-1.1,4.6l1.9,1.9v1.9l-0.5,1.9 l1.5-1.5l2.4,1.5l1.5,1.7l4-0.6l1.4,1.4l0.7,3.2l4-0.5l0.5-3.3l2-0.9l4.1,0.2l0,0l6.5-2.8l2.5,1.7h2.5l0.2-2.6l2.9-1.7l1.2-1.4 l5.8-2.3l0.7-3.8l-1.2-1.8l3.2-5.4l-2.9-1.2l-0.9-3.2l-6.1-3.6c0,0,0.3-7-0.3-8.3c0,0,0.1,0,0,0l0,0l0,0l0,0l0,0l0,0l0,0 c-0.9,0.2-4.3,0.5-4.3,0.5l-3.3-3.8l0.1-3.7l-1.8-0.2l-1.8,1.9l-2.1,1.5l0.5-1.3l-2.1-3.7H516l-2.1-2.6l1.3-1.5l-0.5-1.5l-1.8-0.5 l-2.1,1.5l-1.8,5.1l-2.1,1.8l-0.9,3.9l-0.9,1.9l-3.9,0.8l-1.3-1.3l-3.5-3.7h-1.9l-0.7,1.4l-3.9-0.5l-1.8-3.2l-4.4-0.7v-6.3 L481.6,395.7L481.6,395.7L481.6,395.7L481.6,395.7z"/>
</svg>
