<?xml version="1.0" encoding="utf-8"?>
<!-- Generator: Adobe Illustrator 18.0.0, SVG Export Plug-In . SVG Version: 6.00 Build 0)  -->
<!DOCTYPE svg PUBLIC "-//W3C//DTD SVG 1.1//EN" "http://www.w3.org/Graphics/SVG/1.1/DTD/svg11.dtd">
<svg version="1.1" id="map" xmlns="http://www.w3.org/2000/svg" xmlns:xlink="http://www.w3.org/1999/xlink" x="0px" y="0px"
	 viewBox="0 0 595.3 841.9" enable-background="new 0 0 595.3 841.9" xml:space="preserve">
     <path id="d74" data-departement="74" data-departement-name="Haute-Savoie" fill="none" d="M514.9,363.8l-5.2,0.9l-5,4l-1.4-2l-2.5,0.2l-2.3,5l0.2,2l2.4,2l-4.5,3l-2.9,2.6l-5.1,0.2 l-2.1,1.8l-2.1,0.7l-1.3,2.1l-2.1-1.3l-0.5,6.3l1.3,2.1l-0.2,2.1l2.4,1.6v6.3l4.4,0.7l1.8,3.2l3.9,0.5l0.7-1.4h1.9l3.5,3.7 l1.3,1.3l3.9-0.8l0.9-1.9l0.9-3.9l2.1-1.8l1.8-5.1l2.1-1.5l1.8,0.5l0.5,1.5l-1.3,1.5l2.1,2.6h3.7l2.1,3.7l-0.5,1.3l2.1-1.5 l1.8-1.9l1.2,0.2l0.1-3.9l7.7-3.2l0.9-2.1l-0.5-5l-5-5.2l-1.8,0.9V384v-3.3l-4.3-2l-0.2-1.8l2.5-2.6V371l-4-4.3l-0.2-2.9h-7.5 v-0.1L514.9,363.8L514.9,363.8z"/>
</svg>
