<?xml version="1.0" encoding="utf-8"?>
<!-- Generator: Adobe Illustrator 18.0.0, SVG Export Plug-In . SVG Version: 6.00 Build 0)  -->
<!DOCTYPE svg PUBLIC "-//W3C//DTD SVG 1.1//EN" "http://www.w3.org/Graphics/SVG/1.1/DTD/svg11.dtd">
<svg version="1.1" id="map" xmlns="http://www.w3.org/2000/svg" xmlns:xlink="http://www.w3.org/1999/xlink" x="0px" y="0px"
	 viewBox="0 0 595.3 841.9" enable-background="new 0 0 595.3 841.9" xml:space="preserve">
     <path id="d76" data-departement="76" data-departement-name="Seine-Maritime" fill="none" d="M279.8,128l-1.5,1.8l-9.6,7.4l-17,4.3l-11.3,4l-9.2,5l-5.4,8.1l-1.2,6.3l4.5,3.3l6.5,1.4l-1,0.3 l0,0l5.1-0.6l2.5-2.7l2-0.5l2.1,4l3.1-0.4l1.3,2.1l5.5-0.4l5.5,3.9l-3.6,1.2l2.5,1.9h1.7l1.4,3.1h2.5l0.8-1.9l-1.9-1.3l5.5-1.7 l5.7-0.7l1.5-4.3l2.7-2.4l5.2-0.1l6,3.1l3.6,0.4l0.5-2l1.7-3l0.9-1.5h-2.3v-3.8l-1.4-2.1l0.9-4.5l0.9-2.3h-1.8l0.9-2.1l1.9-2.2 l-1.9-4.5l-0.7-4l-9.8-9.6l-1.2-2.1l-2.5,0.2L279.8,128L279.8,128L279.8,128L279.8,128z"/>
</svg>
