<?xml version="1.0" encoding="utf-8"?>
<!-- Generator: Adobe Illustrator 18.0.0, SVG Export Plug-In . SVG Version: 6.00 Build 0)  -->
<!DOCTYPE svg PUBLIC "-//W3C//DTD SVG 1.1//EN" "http://www.w3.org/Graphics/SVG/1.1/DTD/svg11.dtd">
<svg version="1.1" id="map" xmlns="http://www.w3.org/2000/svg" xmlns:xlink="http://www.w3.org/1999/xlink" x="0px" y="0px"
	 viewBox="0 0 595.3 841.9" enable-background="new 0 0 595.3 841.9" xml:space="preserve">
     <path id="d77" data-departement="77" data-departement-name="Seine-et-Marne" fill="none" d="M355.4,191.5l-1.7,0.3l-2.1,1.8l-2.1-0.7l-3.8,1.7l-3.1-1.8l-1.4,1.8l-2,0.2l-1.4-1.2l-2.1-1.4 l-2.6,1.8l0,0l-1,5.3l1.4,8.9v4.6l-1.8,5.3l0.5,3.1l-1.9,1.5l1.1,6l-0.9,1.3l-0.7,6l1.5,1.9l-5.1,3.3l-0.5,3.4l2.1,2.8l2.6,1.4 l0.2,3.8l-3.6,2.5l2,1.8l2.5-1.7l6.1,0.2l2.1-0.5l0.7-1.8l2.5,0.2l0.5,1.8l5.5-3.2l1.7-2.1l2.6-3.2l-1.8-2l1.7-3.3l4-2l8.8,0.5 l2.3-1.2l0,0l0.5-4.1l0.9-4.5l1.7-2l0.2-2.6l3.1-2l0,0l-3.4-0.7l-0.7-1.7l1.2-2l-0.9-3.3l-1.8-1.2l0.5-3.1l1.8-1.2l0.5-2l0,0 l-3.8-0.7l-1.2-2.6l-2-0.7l-6-5.8l-0.7-5L355.4,191.5L355.4,191.5L355.4,191.5L355.4,191.5z"/>
</svg>
