<?xml version="1.0" encoding="utf-8"?>
<!-- Generator: Adobe Illustrator 18.0.0, SVG Export Plug-In . SVG Version: 6.00 Build 0)  -->
<!DOCTYPE svg PUBLIC "-//W3C//DTD SVG 1.1//EN" "http://www.w3.org/Graphics/SVG/1.1/DTD/svg11.dtd">
<svg version="1.1" id="map" xmlns="http://www.w3.org/2000/svg" xmlns:xlink="http://www.w3.org/1999/xlink" x="0px" y="0px"
	 viewBox="0 0 595.3 841.9" enable-background="new 0 0 595.3 841.9" xml:space="preserve">
     <path id="d78" data-departement="78" data-departement-name="Yvelines" fill="none" d="M290.7,193.3L290.7,193.3l-6.4,1.8l-0.9,1.2l1.2,1.8v1.8l2,0.5l-1.2,1.2l0.2,0.9l0,0l1.8,2.2 l0.7,2.6l1.8,1.8l-0.9,2.5v2.2l1.7,1.8l-1.7,2.6l1.7,3.8l3.1,2.1l0.5,2.5l2.6,0.5l0.7,5l2,2.5l4.5,0.7l0.1-3.8l1.5-1.8l-1.3-1.9 h3.2l2.1-3.1l-1.5-2.6l0.5-2.4l3.3-1.5l0.5-2.4l2.1-0.9l2.2-0.9l0,0l0,0l-1.8-2.2l-1.3-3.5l2.2-4.5l-1.3-3.3l-3.9-2.4l-5.5-0.2 l-5.2-3.3l-4.2,0.8L290.7,193.3L290.7,193.3L290.7,193.3L290.7,193.3z"/>
</svg>
