<?xml version="1.0" encoding="utf-8"?>
<!-- Generator: Adobe Illustrator 18.0.0, SVG Export Plug-In . SVG Version: 6.00 Build 0)  -->
<!DOCTYPE svg PUBLIC "-//W3C//DTD SVG 1.1//EN" "http://www.w3.org/Graphics/SVG/1.1/DTD/svg11.dtd">
<svg version="1.1" id="map" xmlns="http://www.w3.org/2000/svg" xmlns:xlink="http://www.w3.org/1999/xlink" x="0px" y="0px"
	 viewBox="0 0 595.3 841.9" enable-background="new 0 0 595.3 841.9" xml:space="preserve">
     <path id="d79" data-departement="79" data-departement-name="Deux-Sèvres" fill="none" d="M210.6,321.3l-6.1,0.2l-5.6,1.2l-6.1,0.5v3.1l-3.1,2l-7-1.7l-4.4,1.9l1.8,3.3v2.6l5.4,4.5 l-1.4,2.9l3.6,4l-1.7,2l2.1,3.3l0.7,6.3l-1.4,1.8l1.7,2.6l-1.7,3l0.2,1.8l1.8-1.4l2.1,2.3l-3.1,2l-1.2,1.4l-2.5,0.7l-2.8,1.3l0,0 v3.4l2.4,2.6v1.5l3.7,2.6l4.6,0.2l3.2,4.2l5.2-0.5l4.2,2.9l3.2,1.5l0.4,2.5l1.8,1.8l1.8-1.4l-0.5-1.3l1.8-1.9v-1.8l3-0.8l3.9-1.9 l1.3-0.2l3.1-0.6l0.8-2.1l-3.5-0.9l-1.8-2.6l1.3-2.9l1.5-1.8v-3.7l-1.5-0.9l-1.9,0.9v1.3l-1.1,1.5l-1.9-2.1l-0.2-1.5l0.8-1.8 l-1.8-1.3v-5.2l-0.9-0.2v-1.8l1.5-2.4l0.2-1.3l1.1-2.6l-0.8-1.8l-2.4-0.9l2.4-3.7l0.8-1.9v-1.3l-1.8-1.9v-0.7l0.9-1.8l-0.7-1.3 l1.5-1.8l-1.3-2.6l-0.8-3.9l-0.2-2.4l-1.9,0.2l-0.6-5.3l0,0l-1.9-0.9L210.6,321.3L210.6,321.3L210.6,321.3L210.6,321.3z"/>
</svg>
