<?xml version="1.0" encoding="utf-8"?>
<!-- Generator: Adobe Illustrator 18.0.0, SVG Export Plug-In . SVG Version: 6.00 Build 0)  -->
<!DOCTYPE svg PUBLIC "-//W3C//DTD SVG 1.1//EN" "http://www.w3.org/Graphics/SVG/1.1/DTD/svg11.dtd">
<svg version="1.1" id="map" xmlns="http://www.w3.org/2000/svg" xmlns:xlink="http://www.w3.org/1999/xlink" x="0px" y="0px"
	 viewBox="0 0 595.3 841.9" enable-background="new 0 0 595.3 841.9" xml:space="preserve">
     <path id="d80" data-departement="80" data-departement-name="Somme" fill="none" d="M288.9,108.4l-0.6,7.4l5,4.5v2.3l-6.1-3.6l-7.3,8.9l1.7,1.1l2.5-0.2l1.2,2.1l9.8,9.6l0.7,4 l1.9,4.5l0,0l2.4,0.1l0.5,0.7v2.5l1.4,0.9l3-1.2h4.2l2,1.7l7.7-0.7l5.7,1.7l3.2,3.2l4.2,0.5l4.2,1.4l5.1-4.9l6-1.7l3.2,0.5 l4.7-0.3l-0.3-2.4l-1.2-4.6l-0.5-2.7l2-2.3v-3l3-3.2l-0.5-3.1l-1.7-0.6l-2-2.3h-5.4l-3.3,1.9v-1.7l-0.9-1.7l-2.1,1l-2.4,1.3 l1.2-1.8l-0.2-1.8l-3-2v2.3h-2L331,125l-2-1.7l-2,1.4l-0.7,1.8l-0.9,0.2l-1.2-1.2v-3.2l3.3-2.1l-1.4-2.3l-2.6,1.2l-1.4-1.2 l-5.6,0.7l-2.9,1.2l-3-1.2v-2.1l-4-1.8l-1.2-2.6l-1.7,0.7l-4.3-3.3l-2-0.7l-1.7,2l-2.6,0.7l-1.2-2.5L288.9,108.4L288.9,108.4 L288.9,108.4L288.9,108.4z"/>
</svg>
