<?xml version="1.0" encoding="utf-8"?>
<!-- Generator: Adobe Illustrator 18.0.0, SVG Export Plug-In . SVG Version: 6.00 Build 0)  -->
<!DOCTYPE svg PUBLIC "-//W3C//DTD SVG 1.1//EN" "http://www.w3.org/Graphics/SVG/1.1/DTD/svg11.dtd">
<svg version="1.1" id="map" xmlns="http://www.w3.org/2000/svg" xmlns:xlink="http://www.w3.org/1999/xlink" x="0px" y="0px"
	 viewBox="0 0 595.3 841.9" enable-background="new 0 0 595.3 841.9" xml:space="preserve">
     <path id="d81" data-departement="81" data-departement-name="Tarn" fill="none" d="M346.9 542.4L344.3 542.9 344.3 542.9 341.3 544.3 337.4 542.2 333.4 535.9 333.4 535.9 331.4 529.7 331.4 529.7 329.6 524 326.1 522.4 323.7 518.1 317 516.9 313 514.4 309.1 514.6 306.5 517.1 306.5 517.1 306.5 517.1 305.7 515.4 303.5 516.3 303.5 516.3 303.5 516.3 303.5 516.3 303.5 516.3 299.3 518.1 296.7 519.8 289.8 520.5 289.1 524 291.3 524 291.3 524 291.3 524 289 526.5 287.7 528.6 283.9 528.6 286 530.8 285.1 532.9 285.1 532.9 286.5 536.2 289.2 539.3 289.2 539.3 289.7 542.4 291.7 545.6 293.4 547.5 292.6 549.8 292.6 549.8 292.6 549.8 292.6 549.8 293 552.1 298.7 554.9 298.7 554.9 301.9 558.8 305 559.6 307.5 559.1 307.5 561.7 307.5 561.7 307.8 563.5 307.8 563.5 307.8 563.5 307.8 563.5 312.8 564.6 317 565.9 317.4 561.7 319.3 561.7 326.3 563 333 563 338.1 561.3 339.4 557.1 335.9 553.9 336.7 550.7 338.7 547.8 341.9 549.9 350.2 547 350.9 545.4 350.9 545.4z"/>
</svg>
