<?xml version="1.0" encoding="utf-8"?>
<!-- Generator: Adobe Illustrator 18.0.0, SVG Export Plug-In . SVG Version: 6.00 Build 0)  -->
<!DOCTYPE svg PUBLIC "-//W3C//DTD SVG 1.1//EN" "http://www.w3.org/Graphics/SVG/1.1/DTD/svg11.dtd">
<svg version="1.1" id="map" xmlns="http://www.w3.org/2000/svg" xmlns:xlink="http://www.w3.org/1999/xlink" x="0px" y="0px"
	 viewBox="0 0 595.3 841.9" enable-background="new 0 0 595.3 841.9" xml:space="preserve">
     <path id="d82" data-departement="82" data-departement-name="Tarn-et-Garonne" fill="none" d="M250 522.8L251.6 522 252.9 522.8 252.9 522.8 252.9 522.8 250.4 524 250.3 526.1 250.3 526.1 250.3 526.1 247.9 527.8 247.8 530.6 252.4 530.8 253.7 532.1 253.7 535 255.3 536.7 254.1 538.8 254.6 540.1 257.2 539.1 257.2 539.1 257.2 539.1 263.5 538.9 265.2 537.9 267.2 538 267.2 538 267.2 538 269.2 540.5 274.4 539.2 275.6 537 273.8 536 273.8 536 273.8 536 275.1 535.4 275.6 533.4 277.7 533.6 277.7 533.6 277.7 533.6 278.9 534.8 280 533.3 283.2 532 285.1 532.9 286 530.8 283.9 528.6 287.7 528.6 289 526.5 291.3 524 289.1 524 289.1 524 289.1 524 289.8 520.5 296.7 519.8 299.3 518.1 303.5 516.3 303.5 516.3 302.2 512.6 303.9 509 300.9 508.6 300.9 508.6 300.9 508.6 300.5 503.8 295.5 505.6 295.5 505.6 295.5 505.6 292.6 504.9 290.4 507.3 286.9 506.8 286.4 510.8 284.7 510.7 284.7 510.7 284.7 510.7 283.5 508.7 283 507.6 281.1 507.8 277.6 511.5 273.5 511.2 273.5 511.2 273.5 511.2 272.7 508.7 272.5 506.3 272.5 506.3 271 507.8 269.2 507.7 269.2 507.7 269.2 507.7 267.1 505.7 265.3 505.6 265.3 505.6 265.3 505.6 264.1 503.2 265.7 501.4 265.3 500.2 262.6 500.4 262.6 500.4 262.6 500.4 262.6 500.4 257.8 501.9 254.8 500.2 253.2 505.4 255.7 508 254.5 512.3 253.2 513.9 254.1 516.6 249.8 517.4 246.5 518.3 247.4 521.4 245.6 521.9 246.7 522.8z"/>
</svg>
