<?xml version="1.0" encoding="utf-8"?>
<!-- Generator: Adobe Illustrator 18.0.0, SVG Export Plug-In . SVG Version: 6.00 Build 0)  -->
<!DOCTYPE svg PUBLIC "-//W3C//DTD SVG 1.1//EN" "http://www.w3.org/Graphics/SVG/1.1/DTD/svg11.dtd">
<svg version="1.1" id="map" xmlns="http://www.w3.org/2000/svg" xmlns:xlink="http://www.w3.org/1999/xlink" x="0px" y="0px"
	 viewBox="0 0 595.3 841.9" enable-background="new 0 0 595.3 841.9" xml:space="preserve">
     <path id="d83" data-departement="83" data-departement-name="Var" fill="none" d="M523.3,534.8l-6.1-0.2l-4.8,3.4l-3.7-2.4l-5.7,1.8l-1.6,2.4l-3.5,2.7l-7.4-4.9l-6,1.9l-0.6,1.9 l3.7,2.4l-4.5,3.4l-2,4l2.4,2l-0.2,4.3l3.9,3.7l-1.1,0.8l-4.5-0.2v1.7l1.7,0.9v0.6l-1.8,1.7l1.1,1.3h1.7l1.7,1.7l0.2,1.3l-2,1.3 l-1.7,1.8l-0.2,4.5l0.6,0.8l4,1.8l1.2,4.5l2.5,0.5l2.3-1.7l4-2.5l7,0.7l-0.2,1.8l-2.3,1.2l5.4,0.2l-1.4-1.4l-0.5-2.9l2.9-2 l3.3,1.2l1.4,0.5l1.2,1.4l1.7-1.2l0.5-3l1.8-1.5h4.8l1.4-2l3.1,0.9l3.6-1.5v-5.8l-4.8,0.2l3.6-2.1l1.8-2.5l0.5-3.6l6.5-0.9l3.7-4 l-2.5-2.5v-1.4l-1.3-1.3l1.7-1.4l-0.4-2.3l-2.7-1.3h-1.4l-2.4-2.4l-0.5-4.3l-2.6-1.3h-2.5l-1.2-2.6L523.3,534.8z"/>
</svg>
