<?xml version="1.0" encoding="utf-8"?>
<!-- Generator: Adobe Illustrator 18.0.0, SVG Export Plug-In . SVG Version: 6.00 Build 0)  -->
<!DOCTYPE svg PUBLIC "-//W3C//DTD SVG 1.1//EN" "http://www.w3.org/Graphics/SVG/1.1/DTD/svg11.dtd">
<svg version="1.1" id="map" xmlns="http://www.w3.org/2000/svg" xmlns:xlink="http://www.w3.org/1999/xlink" x="0px" y="0px"
	 viewBox="0 0 595.3 841.9" enable-background="new 0 0 595.3 841.9" xml:space="preserve">
     <path id="d84" data-departement="84" data-departement-name="Vaucluse" fill="none" d="M446.9,496.3l-3.2,0.2l-2.4,3.8l0.7,4l3.8,0.5l-0.7,1.8l-3,0.2l-3.3,3.3l-0.9-1.2l0.7-4.5 l-1.4-1.7l-3.3,0.7l-2.8,0.3l-0.9,2.5l0,0l4.2,6.4v5.1l6.4,7v2.9l-2.2,1.3l8.4,3.5l3.5,3.8l1.7,2.3l4.5,2l5.3-0.2l8.8,3.7l4.9,0.6 l6.1-1.4l2.3-1.8l0.6-1.9l-4.8-5.3h-5.1v-1.5l1.5-2.4v-2.1l-4-2l-0.4-3.2l2.1-1.1V519l-2.4-0.5l0.2-3.1l-2,0.2l-3.3-2.5l-0.9-2.9 l-6.3-0.5l-4.8-0.5l-0.5-2.6l1.7-3.3l-2.9,2.5l-4.5-0.5l-0.9-1.7l3.1-4.3L446.9,496.3L446.9,496.3L446.9,496.3L446.9,496.3z"/>
</svg>
