<?xml version="1.0" encoding="utf-8"?>
<!-- Generator: Adobe Illustrator 18.0.0, SVG Export Plug-In . SVG Version: 6.00 Build 0)  -->
<!DOCTYPE svg PUBLIC "-//W3C//DTD SVG 1.1//EN" "http://www.w3.org/Graphics/SVG/1.1/DTD/svg11.dtd">
<svg version="1.1" id="map" xmlns="http://www.w3.org/2000/svg" xmlns:xlink="http://www.w3.org/1999/xlink" x="0px" y="0px"
	 viewBox="0 0 595.3 841.9" enable-background="new 0 0 595.3 841.9" xml:space="preserve">
     <path id="d85" data-departement="85" data-departement-name="Vendée" fill="none" d="M160.7,321.6l-1.3,2.5h-3.7l1.5,1.5l-1.2,3.7l-3.3,1.2l-1.3-0.9l0.6-3.7l-0.9-2h-2l-1.5,1.7 l0.7,5.2l1.8,2.4l-1.8,1.8l-3.1-0.6l-4.6-1.2l-1.3-3.6l-3-0.4l-3.9-1.8l-0.9-2.1l-4.2-2.8l-6.8,8.7l-0.2,5.4l6.9,6.7l-0.2,2h2 l4.3,12.9l4.5,2.1l4.5,4.5h5.2l2,4.5h5l2.1,3.3l5,2.5l0.2-3.2l1.2,1.2l6.9-4.2l3.2-0.2l1.7,3.9l4.3-1.8l3,2.4l2.8-1.3l2.5-0.7 l1.2-1.4l3.1-2l-2.1-2.3l-1.8,1.4l-0.2-1.8l1.7-3l-1.7-2.6l1.4-1.8l-0.7-6.3l-2.1-3.3l1.7-2l-3.6-4l1.4-2.9l-5.4-4.5v-2.6 l-1.8-3.3l0,0l-2.5-2.7h-5.7l-1.8-1.2h-0.8l-1.9-0.2l-3-2.7L160.7,321.6L160.7,321.6L160.7,321.6L160.7,321.6z"/>
</svg>
