<?xml version="1.0" encoding="utf-8"?>
<!-- Generator: Adobe Illustrator 18.0.0, SVG Export Plug-In . SVG Version: 6.00 Build 0)  -->
<!DOCTYPE svg PUBLIC "-//W3C//DTD SVG 1.1//EN" "http://www.w3.org/Graphics/SVG/1.1/DTD/svg11.dtd">
<svg version="1.1" id="map" xmlns="http://www.w3.org/2000/svg" xmlns:xlink="http://www.w3.org/1999/xlink" x="0px" y="0px"
	 viewBox="0 0 595.3 841.9" enable-background="new 0 0 595.3 841.9" xml:space="preserve">
     <path id="d86" data-departement="86" data-departement-name="Vienne" fill="none" d="M218.9,317.2l-4.5,4.5l-1.8,2.2l0.6,5.3l1.9-0.2l0.2,2.4l0.8,3.9l1.3,2.6l-1.5,1.8l0.7,1.3 l-0.9,1.8v0.7l1.8,1.9v1.3l-0.8,1.9l-2.4,3.7l2.4,0.9l0.8,1.8l-1.1,2.6l-0.2,1.3l-1.5,2.4v1.8l0.9,0.2v5.2l1.8,1.3l-0.8,1.8 l0.2,1.5l1.9,2.1l1.1-1.5v-1.3l1.9-0.9l1.5,0.9v3.7l-1.5,1.8l-1.3,2.9l1.8,2.6l3.5,0.9l-0.8,2.1l-3.1,0.6l3,3.6l3.9-0.2l3.5-1.3 l3.5,1.9l1.3-0.9l-0.2-3.2l1.8-1.4l1.8,2.6l1.4,1.5l4.2-1.8l1.8-1.9l5.2,0.8l0,0l0.7-3.8l-1.5-1.8l1.8-1.4l2.9-3.3l5-0.2v-2.6 l2.5-2l4.8-0.9l2.1-3.6l-2.4-1.4l-1.4-4.8l-3.6-0.5l-2.1-2.1l-4.3-3.3l0.9-2.6v-4.7l-3.9-3.6l-0.8-3.1l-3.8-4l-1.4-5.4l-1.7-0.7 l-1.8-2.5l-1.8,1.2l0.5,2.5l-5.8,1.4h-6.7l0.2-2.6v-4.3l-5.4-1.7v-2.9l-4.3-0.9l-1-3.6L218.9,317.2L218.9,317.2L218.9,317.2 L218.9,317.2z"/>
</svg>
