<?xml version="1.0" encoding="utf-8"?>
<!-- Generator: Adobe Illustrator 18.0.0, SVG Export Plug-In . SVG Version: 6.00 Build 0)  -->
<!DOCTYPE svg PUBLIC "-//W3C//DTD SVG 1.1//EN" "http://www.w3.org/Graphics/SVG/1.1/DTD/svg11.dtd">
<svg version="1.1" id="map" xmlns="http://www.w3.org/2000/svg" xmlns:xlink="http://www.w3.org/1999/xlink" x="0px" y="0px"
	 viewBox="0 0 595.3 841.9" enable-background="new 0 0 595.3 841.9" xml:space="preserve">
     <path id="d87" data-departement="87" data-departement-name="Haute-Vienne" fill="none" d="M277,369.1l-2,2l-5.6-0.7l0,0l-4.8,0.9l-2.5,2v2.6l-5,0.2l-2.9,3.3l-1.8,1.4l1.5,1.8l-0.7,3.8 l0.3,2.2l-1.2,2l1.8,2l3.1,0.2l0.7,3.1l0.2,2l-4,0.9l-2,0.7l0.5,5.6l-2.6,1.8l-2.3,0.7l-1.2,3.2l-1.8,0.2l-0.8,3.5l5.3,0.6 l1.2,2.1l-0.9,2.5l2,2.6l1.5-0.5l1.7-2.3l7.1,0.7l1.2,4.5l5,0.7l1.2,1.5l-3.3,1.7l1.7,1.2l5,0.9l0,0l1.7-2l2.6,1.1l3-3.7l1.8,0.2 l1.5-2.4l4.4,0.5l1.8-1.8h2.1l1.8-3.2l2.6-0.2l1.8-2.9l2.4,0.7h1.8l1.4-2.3l-1.4-0.4l-0.5-2.9h1.8v-1.3l-3-1.9l-3.2-1.4l0.5-3 h-0.9l-1.3,1.8l-3.9,0.2l-2.1-0.2v-2.1l2.6-2.1l-1.8-2.1l-4.2,1.3l0.7-9.3l-1.9-1.9l-1.9-4.9l-2.9-0.7l-0.5-2.6l2.6-5.4l-0.4-3 l0,0L277,369.1L277,369.1L277,369.1L277,369.1z"/>
</svg>
