<?xml version="1.0" encoding="utf-8"?>
<!-- Generator: Adobe Illustrator 18.0.0, SVG Export Plug-In . SVG Version: 6.00 Build 0)  -->
<!DOCTYPE svg PUBLIC "-//W3C//DTD SVG 1.1//EN" "http://www.w3.org/Graphics/SVG/1.1/DTD/svg11.dtd">
<svg version="1.1" id="map" xmlns="http://www.w3.org/2000/svg" xmlns:xlink="http://www.w3.org/1999/xlink" x="0px" y="0px"
	 viewBox="0 0 595.3 841.9" enable-background="new 0 0 595.3 841.9" xml:space="preserve">
     <path id="d88" data-departement="88" data-departement-name="Vosges" fill="none" d="M529.8,225.2l-2.3,0.3L523,228l0,0l-2.8,2.4l-3.8,1.8l-1.1-0.2l-2.6-0.7l-2.6-0.2l-0.9-2.9 l-1.8,0.7l-0.2,3.1l-1.4-1.4l-2.4,1.8l-2.5,0.9L498,233l-1.9,0.7l-2.1-1.4l-1.4,1.1h-3.3l-1.5,2.9l-7.3,0.5l-1.5-1.9l-2.4-0.5 l0.2-1.2l1.5-1.1l-1.4-0.5l-0.2-3.6l-3.3-0.2l-2.1,0.8l-1.3,1.9l-3.6,1.1v-1.4h-1.1v1.5l-4.4,0.9v1.9l-3.6,0.2l-1.8,1.8l1.5,2.1 l3.6,0.2l3.2,4.3h2.6l0.7,3l3,0.5l0.7,2l-2,1.4l-1.4,6.2l6.3,3v4.8l2.4-1.1l2,1.8l1.7-0.8l-0.9-1.4l1.2-0.7l1.5,1.8l2.3-1.7 l0.7-2.1l4.3-0.8l1.2,1.1l-0.2,2.5l2.9,2.1l1.8-0.2l2-1.7h4.8l3.3,3.8h1.2l1.8-1.3l0.2-1.4l1.8-0.9l2,1.4l2,2.3l7.2,3.9l2.7-2.6 l0.2-8.8l3.8-3.3l2.1-5.2l-0.7-3.3l2.6-5.4l2.5-5.6l-4.3-1.2l-0.9-6.1L529.8,225.2L529.8,225.2L529.8,225.2L529.8,225.2 L529.8,225.2z"/>
</svg>
