<?xml version="1.0" encoding="utf-8"?>
<!-- Generator: Adobe Illustrator 18.0.0, SVG Export Plug-In . SVG Version: 6.00 Build 0)  -->
<!DOCTYPE svg PUBLIC "-//W3C//DTD SVG 1.1//EN" "http://www.w3.org/Graphics/SVG/1.1/DTD/svg11.dtd">
<svg version="1.1" id="map" xmlns="http://www.w3.org/2000/svg" xmlns:xlink="http://www.w3.org/1999/xlink" x="0px" y="0px"
	 viewBox="0 0 595.3 841.9" enable-background="new 0 0 595.3 841.9" xml:space="preserve">
     <path id="d89" data-departement="89" data-departement-name="Yonne" fill="none" d="M368.3,238.7l-2.3,1.2l-8.8-0.5l-4,2l-1.7,3.3l1.8,2l-2.6,3.2l-1.7,2.1l4,3.8l1.2,3.6l3,3.1v4 l-5.8,5l2,2.3l-0.5,3.3l-3.2,2.3h-4.5l0.7,2.5l2.9,4l0.7,3.6l0.1,2.8l0,0l1.8,1.3h2l1.2-1.7l1.7,0.2l1.7,1.4l-0.4,1.8l1.5,0.9h2 l2.9,1.9l1.3-0.7l1.3,1.2l1.3-0.4l2.1-1.4l2,0.7l1.4-0.4v-4l0.8,0.1l0.5,2l2.5,1.7v2.4l3.7,0.1l4.9,4.5l3.1,0.1l-0.2-1.4l1.3-1.9 l1.2,1.4l-0.9,1.7l0.5,1.5l1.8-1.2h2l-0.2,3.2l1.9,1.3l1.5-0.7l3.5-2.7l0,0l-2.1-1.6l-0.1-2.3l2.3-1.2l0.9-1.3l-0.7-1.2v-2.5 l1.8-2.5l2.5-5.5l0.5-2.4l1.7-1.1l0,0l-0.7-2.2l0,0l2.6-2.5l0.7-3.2l-1.2-1.9l-2.1-0.2l0,0l-0.2-3l2.3-1.7l-0.2-1.7l-0.3-1.7 l-1.4,2.3l-1.7-0.2l-1.4-2.5l-4.5,2.3l-8.9-0.5l-1.2-2.5l-2.5-3.3l-0.5-4l-3.6-4.3l-2.3,1.7l-4.1-3l0.7-6.1l-5.8-6.1L368.3,238.7 L368.3,238.7L368.3,238.7L368.3,238.7L368.3,238.7z"/>
</svg>
