<?xml version="1.0" encoding="utf-8"?>
<!-- Generator: Adobe Illustrator 18.0.0, SVG Export Plug-In . SVG Version: 6.00 Build 0)  -->
<!DOCTYPE svg PUBLIC "-//W3C//DTD SVG 1.1//EN" "http://www.w3.org/Graphics/SVG/1.1/DTD/svg11.dtd">
<svg version="1.1" id="map" xmlns="http://www.w3.org/2000/svg" xmlns:xlink="http://www.w3.org/1999/xlink" x="0px" y="0px"
	 viewBox="0 0 595.3 841.9" enable-background="new 0 0 595.3 841.9" xml:space="preserve">
     <path id="d91" data-departement="91" data-departement-name="Essone" fill="none" d="M317.2,214.4l-2.2,0.9l-2.1,0.9l-0.5,2.4l-3.3,1.5l-0.5,2.4l1.5,2.6l-2.1,3.1h-3.2l1.3,1.9 l-1.5,1.8l-0.1,3.8l0,0l1,3.3l0,0l1,6.4l7.1-0.9l2.9-2.6l2.9,1.6l6.3,1l0,0l0.5-3.4l5.1-3.3l-1.5-1.9l0.7-6l0.9-1.3l-1.1-6 l1.9-1.5l-0.5-3.1l-2.6-1.1h-4.1l-2.4-1.4l-1.4,0.8L317.2,214.4L317.2,214.4L317.2,214.4L317.2,214.4z"/>
</svg>
