<?xml version="1.0" encoding="utf-8"?>
<!-- Generator: Adobe Illustrator 18.0.0, SVG Export Plug-In . SVG Version: 6.00 Build 0)  -->
<!DOCTYPE svg PUBLIC "-//W3C//DTD SVG 1.1//EN" "http://www.w3.org/Graphics/SVG/1.1/DTD/svg11.dtd">
<svg version="1.1" id="map" xmlns="http://www.w3.org/2000/svg" xmlns:xlink="http://www.w3.org/1999/xlink" x="0px" y="0px"
	 viewBox="0 0 595.3 841.9" enable-background="new 0 0 595.3 841.9" xml:space="preserve">
     <path id="d93" data-departement="93" data-departement-name="Seine-Saint-Denis" fill="none" d="M574.3,53.8l-0.1-3.7H571l-4-1.9l-3.5,4.6l-2.7,0.6l-3.3,2.6l-5,7h-6.3l-3.2,1.5l-3.7-0.7l-4.9-6.2 h-2.6l-2.3,3.7l-3.7-0.6v-4.3l-1.4,0.5l-11.3,0.8l-0.7,3.5l4.7,2.4l0.1,0.3l4.6-0.3l2.7,3.1v1.2l-6,5.7v3.1h7.3l6.5,3.2l6.3,6.1 v0.8l2.5,2.1l10.5,5.4l3.7-4.9l2.5,2.4l8.1,6.3l8.9,8.4l-1-11.7l1.7-1.9v-3.5l-2.5-1.8l-0.5-7.1l3.2-4.9v-2.4l4-1.3l-4-6.2l0.5-2.5 l-3.3-2.6V55L574.3,53.8z"/>
</svg>
