<?xml version="1.0" encoding="utf-8"?>
<!-- Generator: Adobe Illustrator 18.0.0, SVG Export Plug-In . SVG Version: 6.00 Build 0)  -->
<!DOCTYPE svg PUBLIC "-//W3C//DTD SVG 1.1//EN" "http://www.w3.org/Graphics/SVG/1.1/DTD/svg11.dtd">
<svg version="1.1" id="map" xmlns="http://www.w3.org/2000/svg" xmlns:xlink="http://www.w3.org/1999/xlink" x="0px" y="0px"
	 viewBox="0 0 595.3 841.9" enable-background="new 0 0 595.3 841.9" xml:space="preserve">
     <path id="d94" data-departement="94" data-departement-name="Val-de-Marne" fill="none" d="M555.3,89.5l-3.7,4.9l-10.5-5.4l-2.5-2.1v3.7l-2.3,6.1l6.8,2.9l4.9,0.4v5.8l-1.5,0.8l-3-4.3h-6 l-0.7,1.9h-6.4v0.9h-4l-3.7,3.6v18.1l0.4-0.4l4.6,0.1l2.3,5.2l11.3,3.5h4.9l3.8-4.2l2.3-0.5l1.8,1.1l4.9-0.4l0.6,2.3l4.2,5.4 l4.6,4.2h3.2l2.7-4.2l4.2-3v-2.4l-3-1.8l0.6-3.9l2-2.9l2.6-0.7l1.7-2.9l-3.7-5v-3.5l-3.8-6.1l-8.9-8.4l-8.1-6.3L555.3,89.5z"/>
</svg>
