<?xml version="1.0" encoding="utf-8"?>
<!-- Generator: Adobe Illustrator 18.0.0, SVG Export Plug-In . SVG Version: 6.00 Build 0)  -->
<!DOCTYPE svg PUBLIC "-//W3C//DTD SVG 1.1//EN" "http://www.w3.org/Graphics/SVG/1.1/DTD/svg11.dtd">
<svg version="1.1" id="map" xmlns="http://www.w3.org/2000/svg" xmlns:xlink="http://www.w3.org/1999/xlink" x="0px" y="0px"
	 viewBox="0 0 595.3 841.9" enable-background="new 0 0 595.3 841.9" xml:space="preserve">
     <path id="d95" data-departement="95" data-departement-name="Val-d'Oise" fill="none" d="M295.5,183.6l-1.8,2.1l-1.4,5l-1.6,2.6l5.6,2.4l4.2-0.8l5.2,3.3l5.5,0.2l3.9,2.4l1.3,3.3l0,0l0,0 l4.3-2.2l6-0.5l3.3-1.5l2-0.5l1-5.3l-1.7-1.7l-5-2.9l-4.8-2.5l-2.4,1.2l-2.6,0.7l-1.8-1.4l-3.6-2.1l-2.9,2.1l-4.3,0.5l-6.1-0.5 l-1.4-2.1L295.5,183.6L295.5,183.6L295.5,183.6L295.5,183.6z"/>
</svg>
