<?xml version="1.0" encoding="utf-8"?>
<!-- Generator: Adobe Illustrator 18.0.0, SVG Export Plug-In . SVG Version: 6.00 Build 0)  -->
<!DOCTYPE svg PUBLIC "-//W3C//DTD SVG 1.1//EN" "http://www.w3.org/Graphics/SVG/1.1/DTD/svg11.dtd">
<svg version="1.1" id="map" xmlns="http://www.w3.org/2000/svg" xmlns:xlink="http://www.w3.org/1999/xlink" x="0px" y="0px"
	 viewBox="0 0 595.3 841.9" enable-background="new 0 0 595.3 841.9" xml:space="preserve">
     <g id="d971" class="domtom" data-departement="971" data-departement-name="Guadeloupe">
         <path fill="none" d="M132.5,738.8l-4.1-3.6l-5.9-3.4l-6.4-1.2l-1.8-3.1v-5.3l-2.3-4l-3.6-4.3l-4.7,6.5l0.6,3.5l2.9,1.8l1.2,2.9 l-2.8,2.3l-3.6,1.2l-0.6,4l-4,0.8l-2.4-4.7l-6.5-3.6l-5.8-0.6l-2.3,5.3v5.3l2.8,7v8.9l3,4.7l2.8,6.5l2.3-0.6l9.9-6.5V748l-2.3-1.7 v-6.5c1.1-0.6,1.9-1.1,2.9-1.8l3.1,4.1l4.5,1.2l12.4-4.1l5.9,0.6L132.5,738.8z"/>
         <path fill="none" d="M139.4,733.5l3,0.6l5.2-1.7l2.3-1.2l-2.9-1.8L139.4,733.5z"/>
         <path fill="none" d="M133,767l-3.5-4.3l-4.1-2.3l-5.9,6.5l1.8,5.2l2.8,0.6l3,1.3l4.7-4.1L133,767z"/>
     </g>
</svg>
