<?xml version="1.0" encoding="utf-8"?>
<!-- Generator: Adobe Illustrator 18.0.0, SVG Export Plug-In . SVG Version: 6.00 Build 0)  -->
<!DOCTYPE svg PUBLIC "-//W3C//DTD SVG 1.1//EN" "http://www.w3.org/Graphics/SVG/1.1/DTD/svg11.dtd">
<svg version="1.1" id="map" xmlns="http://www.w3.org/2000/svg" xmlns:xlink="http://www.w3.org/1999/xlink" x="0px" y="0px"
	 viewBox="0 0 595.3 841.9" enable-background="new 0 0 595.3 841.9" xml:space="preserve">
     <path id="d972" class="domtom" data-departement="972" data-departement-name="Martinique" fill="none" d="M180.6,717.1h-6.5l-4.5,1.5l-2,4.5l2,5.1l4,1.5l0.6,2.5l0.5,6.5l3.5,5l4,1l1.1,2.5l4.4,1l3.6-1 l1.5,3l2.5,1.9l-2.5,1l-9.4,0.5v3l1,3l2.4,4l1-0.5l2.6-1.8h4l6.9,1.5l2.9,1.5l2.5,0.5l-1.6,3.6l3.1,2.9l2.9-2.4l3-6v-4.4h-1.5 l-1.1-5.5l-5-7.5l-2-1.5l1.1-1.6v-1.8l-2.5,1h-2.4l-0.6-2.4l2.5-1.1v-2.5l-3.1-0.5v-1.9l2.5-2l2.4,2l0.5-2l2.6-1.5l-1.1-2.5l-4,2.5 h-3.1l-2.3,1.5l-8-9.8l-4.5-0.5L180.6,717.1z"/>

</svg>
