<?xml version="1.0" encoding="utf-8"?>
<!-- Generator: Adobe Illustrator 18.0.0, SVG Export Plug-In . SVG Version: 6.00 Build 0)  -->
<!DOCTYPE svg PUBLIC "-//W3C//DTD SVG 1.1//EN" "http://www.w3.org/Graphics/SVG/1.1/DTD/svg11.dtd">
<svg version="1.1" id="map" xmlns="http://www.w3.org/2000/svg" xmlns:xlink="http://www.w3.org/1999/xlink" x="0px" y="0px"
	 viewBox="0 0 595.3 841.9" enable-background="new 0 0 595.3 841.9" xml:space="preserve">
     <path id="d974" class="domtom" data-departement="974" data-departement-name="La Réunion" fill="none" d="M60.2,743.7l-3.7-7l-3.9-3.7l1.2-5.4l-3.8-3.1h-3.7l-2.1-1.7l-5.3,0.5l-4.3-3.1l-4.3,1.1 l-4.9,0.6l-3.7,3.7l-5.4,1.1l0.6,7l-5.3,0.5l0.5,7l3.1,2.1l2.2,5.8l-2.2,2.7l5.9,5.8l5.8,0.6l3.7,5.3l16.6,4.4l13.8-3.2v-3.8 l1.6-7.5l2.2-5.3l-2.2-4.2C62.8,743.7,60.2,743.7,60.2,743.7z"/>

</svg>
