<?xml version="1.0" encoding="utf-8"?>
<!-- Generator: Adobe Illustrator 18.0.0, SVG Export Plug-In . SVG Version: 6.00 Build 0)  -->
<!DOCTYPE svg PUBLIC "-//W3C//DTD SVG 1.1//EN" "http://www.w3.org/Graphics/SVG/1.1/DTD/svg11.dtd">
<svg version="1.1" id="map" xmlns="http://www.w3.org/2000/svg" xmlns:xlink="http://www.w3.org/1999/xlink" x="0px" y="0px"
	 viewBox="0 0 595.3 841.9" enable-background="new 0 0 595.3 841.9" xml:space="preserve">
     <g id="d975" class="domtom" data-departement="975" data-departement-name="Saint-Pierre-et-Miquelon">
         <path id="saint-pierre" fill="none" d="M381,710.9h-0.5l0.2,0.4l-0.6,0.6l-1.5-0.2l-0.6,0.5l0.1,0.3l-0.7,0.5v0.5l-0.3,0.4v0.6 l-0.7,0.8v1.1l1.3,0.7l0.2,5.5l-0.5,0.1l0.4,4.9l0.6,0.1l0.2,1.2l-0.5,0.1l0.7,1.6l0.6-0.2l0.2,0.5l0.8-0.1l3.6,9.1l0.3,7.7 l-0.4,0.1l-0.2,0.7l-0.9,0.2v1.9l-1,2.2l-2,0.4v0.6l-1.1,0.2l-0.7,0.6v0.6l-0.7,0.2v0.7l-1.3,1.1l0.1,0.6l-0.4,0.1l0.3,0.9 l0.2,0.2l-0.2,0.2l0.1,0.7l0.6-0.4l0.5-0.5l1.5-0.1l1,1.2l-0.2,0.5v0.7l-0.2,0.1l0.2,0.9l-0.2,0.4l-0.4,0.4l0.2,0.2l0.3-0.1v0.5 l-0.2,0.2l0.3,0.5l0.9-0.8l0.3,0.2l0.2,0.4h0.6l0.3,0.2l0.1,0.2l-0.2,0.3l0.1,0.4l0.2-0.2v0.9l0.6-0.2l1.1-1.1l0.4,0.2l1.6-2.3 l1.1-0.2l1.8-1.9l1.5-0.6l3.8-3.7l0.2-1l0.3-0.5l-0.2-0.4l-0.2,0.1l-0.2-0.2l0.5-0.6v-1.6l-1.1-0.4l0.2-1.6l0.2-0.4l-0.6-0.5 l-0.3,0.6H392l-0.4-0.6l-0.4-0.1l-0.4-0.6h-0.6v0.2l-0.6,0.1l-0.4-0.1l-0.3,0.5h-0.6l-1.2-1.5l-1.5-0.5l-0.7-3.5l1.8-7.8l-0.6-0.4 v-0.6l-1.1,1l-0.1,0.6h-0.9l-0.6-0.2l-0.9-1.8l-0.2-0.6l-0.4-0.2v-0.8l-0.7-1.2l0.3-0.2l3.3,1.1l0.9-0.6l0.5,0.2l0.5-0.2l0.2-0.2 h0.2l0.1,1.2l0.6,0.5l-1.1,1.3l-0.1,0.4h0.6l1.7-1.4l0.6-0.1l1.1-1.1l-0.2-1.5l1.8-4v-1.7l-0.5-0.1l-0.1-1.1l0.4-0.3v-0.8 l-1.9-1.5l-1.5,0.1l-5.9-4.4l-1.6-0.2l-0.9,0.8l-0.2-0.4l-1.7-1.6l0.2-1.6l1.5-0.3l1.1-1.5l1.4-0.6l-0.1-1.2l-0.4-0.5L381,710.9z"/>
         <g id="miquelon">
             <path fill="none" d="M402.4,758.7l-0.6-0.2l-1.3,0.8l0.6,0.3l0.7,0.1l0.8-0.5L402.4,758.7z"/>
             <path fill="none" d="M401,760.6h-1l-1.5,0.6l-0.6,1.1l-0.5,0.1l-1.1,1.1v0.4l-1.1,1l0.1,0.4h0.2v0.4l-0.4,0.2l-0.4,0.6v0.4 l-0.6,0.4v0.5l-0.5,0.1l-0.3,0.4l0.1,0.2l0.6-0.1l0.2-0.2h0.2l0.3,0.2l0.2,0.5l-0.2,0.7l0.4,0.4h0.4c0.2-0.1,0.2-0.2,0.3-0.2 l0.2-0.6l-0.2-0.1l0.1-0.4h1.5l0.9-1l0.3,0.1l0.1,1.4l0.2,0.2l0.6-0.2l0.1-0.2l0.4,0.1v0.3l0.4,0.3l0.1-0.2l-0.1-0.2l0.1-0.2 l0.2-0.1l-0.2-0.3h0.3l0.9,0.5l0.4-0.4l-0.1-0.2l0.1-0.1l0.3,0.1l0.4-0.4l-0.1-0.8l-0.5,0.1H402v-0.2l0.2-0.4l-0.2-0.5l-0.9,0.1 v0.2l-0.6-0.1v-0.2l0.7-1.3l0.1-0.8l1.4-1.2l-0.1-1.5l-0.2-0.1v-0.6l-0.5-0.2l-0.5-0.6L401,760.6z"/>
             <path fill="none" d="M402.6,765v0.4h0.6l0.5-0.2v-0.6l0.6-0.6l-0.3-0.4L402.6,765z"/>
             <path fill="none" d="M404.8,763.2l0.2,0.3l0.5-0.5l-0.6-0.3L404.8,763.2z"/>
         </g>
     </g>
</svg>
