<?xml version="1.0" encoding="utf-8"?>
<!-- Generator: Adobe Illustrator 18.0.0, SVG Export Plug-In . SVG Version: 6.00 Build 0)  -->
<!DOCTYPE svg PUBLIC "-//W3C//DTD SVG 1.1//EN" "http://www.w3.org/Graphics/SVG/1.1/DTD/svg11.dtd">
<svg version="1.1" id="map" xmlns="http://www.w3.org/2000/svg" xmlns:xlink="http://www.w3.org/1999/xlink" x="0px" y="0px"
	 viewBox="0 0 595.3 841.9" enable-background="new 0 0 595.3 841.9" xml:space="preserve">
     <path id="d976" class="domtom" data-departement="976" data-departement-name="Mayotte" fill="none" d="M245.4,719.2l-2.7,4.7l-2.3,1.8l-1,1.4l-0.5,4.2l-0.5,1l2.7,1l2.8,1.4h3.2l1,5.2v6.5l2.3,4.1 l2.9,3.3l1,5.2l-2.8,1.4l-4.3-3.2v-2.7l-6.5-1.1l1.8,1.8l1.8,3.8h2.8l-0.4,2.2l-2.8,2.4h4.2v3.1h2.3l1.1,1.8l3.7,0.5l0.4-2.8h3.4 l2.2,2.3v-1.8l-1.4-2.3l-1.8-2.3l1.5-2.7l2.3-2.3v-2.7l2.3-1.1l1.4-2.3l-3.7-4.6l-1-2.8l2.9-3.2l4.7-4.1v-3.8l-7.1-4.2l-3.2-0.5 l-1.8,1.8l-4.6-1.8l-1.1-3.7l-3.2-4.2L245.4,719.2z"/>

</svg>
