<?xml version="1.0" encoding="utf-8"?>
<!-- Generator: Adobe Illustrator 18.0.0, SVG Export Plug-In . SVG Version: 6.00 Build 0)  -->
<!DOCTYPE svg PUBLIC "-//W3C//DTD SVG 1.1//EN" "http://www.w3.org/Graphics/SVG/1.1/DTD/svg11.dtd">
<svg version="1.1" id="map" xmlns="http://www.w3.org/2000/svg" xmlns:xlink="http://www.w3.org/1999/xlink" x="0px" y="0px"
	 viewBox="0 0 595.3 841.9" enable-background="new 0 0 595.3 841.9" xml:space="preserve">
     <g id="d987" class="domtom" data-departement="987" data-departement-name="Polynésie Française">
         <path id="wallis" fill="none" d="M462.8,719.4l-2.5-4.4l-4-4.9l-1.4,0.4l-2.7,1.9c-0.4,0.2-0.7,0.8-0.9,1.5l-0.7,3.7 c-0.1,0.5,0,1.2,0.2,2.3v2.4l-1.6,1.3l-3.9,1.3l0.8,4l3.7,1.6l1.8,2.2l0.6,1.7l-0.2,1.8l2.6,0.8l1.6-1.4c0.2-0.1,0.7,0.1,1.2,0.6 l0.9,0.8l1.1-0.6l1.4-1l-0.4-0.5c-0.2-0.4-0.7-0.6-1.5-0.6c-0.7-0.1-1.2-0.2-1.2-0.6l-0.2-2.3l1-3.5h1l0.2-0.8l-0.2-0.6l-0.2-1.1 l1.8-1.8L462.8,719.4z"/>
         <g id="fortuna">
             <path fill="none" d="M428.2,749.1l-1.3,0.1l-0.9-1.4l-1.2,0.2l-2.5-1.8l-1.1,0.6l-0.4,2.1l2.5,6.5l1.8,1.3l0.3,1.4l5.3,2l8.9-0.2 l3.8,0.6l1.8-0.8l1.3-0.9l-2.4,0.1l-1.5-1.1l-3-0.4l-2.6-1.7l-4.9-5L428.2,749.1z"/>
             <path fill="none" d="M451.2,762.5l-2.1-0.2l-3.6,0.5l-2,1.6l-1,2.3l1.4,1.2l1.4-0.4l2.4,1.3l0.3,1.1h1.4l7.8-5.3l-4.5-0.9 L451.2,762.5z"/>
         </g>
     </g>
</svg>
