<?xml version="1.0" encoding="utf-8"?>
<!-- Generator: Adobe Illustrator 18.0.0, SVG Export Plug-In . SVG Version: 6.00 Build 0)  -->
<!DOCTYPE svg PUBLIC "-//W3C//DTD SVG 1.1//EN" "http://www.w3.org/Graphics/SVG/1.1/DTD/svg11.dtd">
<svg version="1.1" id="map" xmlns="http://www.w3.org/2000/svg" xmlns:xlink="http://www.w3.org/1999/xlink" x="0px" y="0px"
	 viewBox="0 0 595.3 841.9" enable-background="new 0 0 595.3 841.9" xml:space="preserve">
     <g id="d988" class="domtom" data-departement="988" data-departement-name="Nouvelle-Calédonie">
         <path fill="none" d="M482.2,726.1l-1.7,0.8l8.5,8.4l5.7,7.7l9.2,7.5l5.2,6.6l9.3,6.9l14.1,7.6l8.5,6.7l8.5-3.4l-0.8-6.8l-5.9-2.5 l-5.8-5.1l-16-8.3l-5-5.2l-5.1-6.7l-5.2-1.8l-7.5-4.1l-6.8-5.2L482.2,726.1z"/>
         <path fill="none" d="M542.8,732.8h-5.1v6.7l5.1-1.6V732.8z"/>
         <path fill="none" d="M552.8,738.5h-2.6v5.9l-0.9,1.8l4.3,6.6l3.3-2.4v-5l-2.5-2.7L552.8,738.5z"/>
         <path fill="none" d="M564.4,753.8v5.1l4.2,2.6l4.3-4.2l-3.3-1.1L564.4,753.8z"/>
         <path fill="none" d="M559.5,775.7l-2.5-0.9l-0.8,5.9h4.2L559.5,775.7z"/>
     </g>
</svg>
